<svg width="90" height="89" viewBox="0 0 90 89" fill="none" xmlns="http://www.w3.org/2000/svg">
<g clip-path="url(#clip0_387_2598)">
<path d="M35.2095 83.3066H54.7906V88.9996H35.2095V83.3066Z" fill="white"/>
<path d="M42.1475 0H47.8526V7.6462H42.1475V0Z" fill="white"/>
<path d="M21.9148 17.7922L16.2329 12.1267L20.2655 8.09961L25.9474 13.7654L21.9148 17.7922Z" fill="white"/>
<path d="M6.58545 33.9414H15.2044V39.6344H6.58545V33.9414Z" fill="white"/>
<path d="M74.7957 33.9414H83.4146V39.6344H74.7957V33.9414Z" fill="white"/>
<path d="M68.0851 17.7922L64.0525 13.7654L69.7344 8.09961L73.767 12.1267L68.0851 17.7922Z" fill="white"/>
<path d="M45.2729 14.9196C33.1455 14.7734 23.08 24.5065 22.8472 36.6238C22.746 41.8972 24.4903 46.7599 27.478 50.6111C32.3679 56.9139 35.0086 64.6691 35.0086 72.6441V72.6448C35.0086 74.1799 36.2541 75.4244 37.7903 75.4244H52.21C53.7462 75.4244 54.9916 74.1799 54.9916 72.6448V72.6447C54.9916 64.6193 57.7333 56.8696 62.6119 50.4947C65.4632 46.7689 67.1572 42.1118 67.1572 37.0589C67.157 24.9216 57.3841 15.0655 45.2729 14.9196ZM44.3742 44.2938C43.4022 45.3314 41.7325 45.4097 40.6673 44.4678L35.3585 39.7727L38.8862 35.784L42.257 38.7651L50.9345 29.5025L54.8204 33.1431L44.3742 44.2938Z" fill="white"/>
</g>
<defs>
<clipPath id="clip0_387_2598">
<rect width="89" height="89" fill="white" transform="translate(0.5)"/>
</clipPath>
</defs>
</svg>
