<svg width="90" height="89" viewBox="0 0 90 89" fill="none" xmlns="http://www.w3.org/2000/svg">
<path d="M58.9062 2.78125H25.5312C17.8522 2.78125 11.625 9.00847 11.625 16.6875V63.9688C11.625 71.6478 17.8522 77.875 25.5312 77.875H56.125V69.2225C52.6902 65.7098 50.5625 60.9122 50.5625 55.625C50.5625 44.8894 59.2984 36.1562 70.0312 36.1562C70.9769 36.1562 71.9002 36.248 72.8125 36.3787V16.6875C72.8125 9.00847 66.5853 2.78125 58.9062 2.78125ZM39.9381 63.9688H25.5312C23.9932 63.9688 22.75 62.7228 22.75 61.1875C22.75 59.6522 23.9932 58.4062 25.5312 58.4062H39.9381C41.4762 58.4062 42.7194 59.6522 42.7194 61.1875C42.7194 62.7228 41.4762 63.9688 39.9381 63.9688ZM40.6056 50.0625H25.5312C23.9932 50.0625 22.75 48.8165 22.75 47.2812C22.75 45.746 23.9932 44.5 25.5312 44.5H40.6056C42.1437 44.5 43.3869 45.746 43.3869 47.2812C43.3869 48.8165 42.1437 50.0625 40.6056 50.0625ZM49.0328 36.1562H25.5312C23.9932 36.1562 22.75 34.9103 22.75 33.375C22.75 31.8398 23.9932 30.5938 25.5312 30.5938H49.0328C50.5708 30.5938 51.8141 31.8398 51.8141 33.375C51.8141 34.9103 50.5708 36.1562 49.0328 36.1562ZM58.9062 22.25H25.5312C23.9932 22.25 22.75 21.004 22.75 19.4688C22.75 17.9335 23.9932 16.6875 25.5312 16.6875H58.9062C60.4443 16.6875 61.6875 17.9335 61.6875 19.4688C61.6875 21.004 60.4443 22.25 58.9062 22.25Z" fill="white"/>
<path d="M70.0312 75.093C67.0414 75.093 64.2184 74.3976 61.6875 73.1934V83.4311C61.6875 85.6534 64.1628 86.9772 66.0123 85.7451L70.0312 83.064L74.0502 85.7451C75.8997 86.9772 78.375 85.6534 78.375 83.4311V73.1934C75.8441 74.3976 73.0211 75.093 70.0312 75.093Z" fill="white"/>
<path d="M70.0312 69.5312C77.7115 69.5312 83.9375 63.3052 83.9375 55.625C83.9375 47.9448 77.7115 41.7188 70.0312 41.7188C62.351 41.7188 56.125 47.9448 56.125 55.625C56.125 63.3052 62.351 69.5312 70.0312 69.5312Z" fill="white"/>
</svg>
