<svg width="221" height="41" viewBox="0 0 221 41" fill="none" xmlns="http://www.w3.org/2000/svg">
<g clip-path="url(#clip0_383_7213)">
<path d="M20.4999 40.5C31.5459 40.5 40.4999 31.546 40.4999 20.5V6.5C40.4999 4.9087 39.8678 3.38258 38.7426 2.25736C37.6174 1.13214 36.0912 0.5 34.4999 0.5L21.4999 0.5V9.274C21.4999 11.276 21.6219 13.35 22.6719 15.054C23.4236 16.2752 24.4292 17.3204 25.6204 18.1188C26.8116 18.9171 28.1607 19.4499 29.5759 19.681L29.9589 19.743C30.1168 19.797 30.2539 19.899 30.3509 20.0347C30.448 20.1704 30.5002 20.3331 30.5002 20.5C30.5002 20.6669 30.448 20.8296 30.3509 20.9653C30.2539 21.101 30.1168 21.203 29.9589 21.257L29.5759 21.319C27.5081 21.6568 25.5986 22.6356 24.117 24.1171C22.6355 25.5987 21.6567 27.5082 21.3189 29.576L21.2569 29.959C21.203 30.1169 21.101 30.254 20.9652 30.351C20.8295 30.4481 20.6668 30.5003 20.4999 30.5003C20.3331 30.5003 20.1704 30.4481 20.0346 30.351C19.8989 30.254 19.7969 30.1169 19.7429 29.959L19.6809 29.576C19.4498 28.1607 18.917 26.8118 18.1186 25.6205C17.3203 24.4293 16.2751 23.4237 15.0539 22.672C13.3499 21.622 11.2759 21.5 9.27393 21.5H0.523926C1.04693 32.081 9.78993 40.5 20.4999 40.5Z" fill="white"/>
<path d="M0.5 19.5H9.274C11.276 19.5 13.35 19.378 15.054 18.328C16.386 17.5073 17.5073 16.386 18.328 15.054C19.378 13.35 19.5 11.276 19.5 9.274V0.5H6.5C4.9087 0.5 3.38258 1.13214 2.25736 2.25736C1.13214 3.38258 0.5 4.9087 0.5 6.5L0.5 19.5ZM46.955 2.5C46.955 3.03043 46.7443 3.53914 46.3692 3.91421C45.9941 4.28929 45.4854 4.5 44.955 4.5C44.4246 4.5 43.9159 4.28929 43.5408 3.91421C43.1657 3.53914 42.955 3.03043 42.955 2.5C42.955 1.96957 43.1657 1.46086 43.5408 1.08579C43.9159 0.710714 44.4246 0.5 44.955 0.5C45.4854 0.5 45.9941 0.710714 46.3692 1.08579C46.7443 1.46086 46.955 1.96957 46.955 2.5ZM212.211 12.604C217.802 12.604 220.5 16.509 220.5 21.032V29.527H214.649V22.04C214.649 19.99 213.901 18.298 211.756 18.298C209.611 18.298 208.896 19.99 208.896 22.04V29.526H203.045V22.04C203.045 19.99 202.33 18.298 200.184 18.298C198.039 18.298 197.291 19.99 197.291 22.04V29.526H191.441V21.031C191.441 16.508 194.138 12.603 199.729 12.603C202.785 12.603 204.995 13.807 206.003 15.792C207.075 13.807 209.416 12.602 212.211 12.602V12.604ZM180.927 24.32C182.812 24.32 183.625 22.595 183.625 20.544V13.254H189.475V21.26C189.475 26.044 186.68 30.015 180.927 30.015C175.173 30.015 172.378 26.045 172.378 21.26V13.254H178.229V20.544C178.229 22.594 179.041 24.32 180.927 24.32ZM163.775 30.047C160.102 30.047 157.729 28.778 156.331 26.305L160.557 23.929C161.142 24.97 162.019 25.491 163.482 25.491C164.685 25.491 165.237 25.068 165.237 24.547C165.237 22.562 156.656 24.58 156.656 18.267C156.656 15.207 159.256 12.734 163.677 12.734C167.545 12.734 169.658 14.621 170.601 16.444L166.375 18.852C166.018 17.876 164.912 17.29 163.807 17.29C162.962 17.29 162.507 17.648 162.507 18.136C162.507 20.154 171.088 18.299 171.088 24.417C171.088 27.834 167.74 30.047 163.775 30.047ZM143.333 37.012H137.482V21.358C137.482 16.378 141.22 12.766 146.421 12.766C151.492 12.766 155.36 16.639 155.36 21.358C155.36 26.565 151.914 30.015 146.746 30.015C145.543 30.015 144.341 29.657 143.333 29.103V37.012ZM146.421 24.515C148.274 24.515 149.509 23.083 149.509 21.39C149.509 19.666 148.274 18.266 146.421 18.266C144.568 18.266 143.333 19.666 143.333 21.391C143.333 23.083 144.568 24.515 146.421 24.515ZM131.621 11.53C129.703 11.53 128.111 9.935 128.111 8.015C128.111 6.095 129.703 4.5 131.621 4.5C133.539 4.5 135.132 6.095 135.132 8.015C135.132 9.935 133.539 11.53 131.621 11.53ZM128.696 13.254H134.547V29.527H128.696V13.254ZM117.47 30.015C112.399 30.015 108.531 26.11 108.531 21.358C108.531 16.639 112.399 12.734 117.47 12.734C122.541 12.734 126.409 16.639 126.409 21.358C126.409 26.11 122.541 30.015 117.47 30.015ZM117.47 24.515C119.323 24.515 120.558 23.083 120.558 21.39C120.558 19.666 119.323 18.234 117.47 18.234C115.617 18.234 114.382 19.666 114.382 21.39C114.382 23.083 115.617 24.515 117.47 24.515ZM97.483 37.5C93.453 37.5 90.527 35.71 89.032 32.52L93.875 29.917C94.395 31.024 95.37 32.163 97.385 32.163C99.499 32.163 100.896 30.828 101.059 28.485C100.279 29.169 99.043 29.689 97.191 29.689C92.672 29.689 89.031 26.207 89.031 21.325C89.031 16.607 92.9 12.766 97.971 12.766C103.172 12.766 106.91 16.379 106.91 21.358V27.802C106.91 33.66 102.846 37.5 97.483 37.5ZM97.873 24.19C99.628 24.19 100.961 22.985 100.961 21.195C100.961 19.438 99.629 18.266 97.873 18.266C96.15 18.266 94.785 19.438 94.785 21.196C94.785 22.986 96.15 24.189 97.873 24.189V24.19ZM79.107 30.015C74.036 30.015 70.167 26.11 70.167 21.358C70.167 16.639 74.036 12.734 79.107 12.734C84.177 12.734 88.046 16.639 88.046 21.358C88.046 26.11 84.178 30.015 79.107 30.015ZM79.107 24.515C80.96 24.515 82.195 23.083 82.195 21.39C82.195 19.666 80.96 18.234 79.107 18.234C77.254 18.234 76.019 19.666 76.019 21.39C76.019 23.083 77.254 24.515 79.107 24.515ZM59.513 7.56V23.994H69.2V29.527H58.7C54.995 29.527 53.5 27.574 53.5 24.482V7.56H59.513Z" fill="white"/>
</g>
<defs>
<clipPath id="clip0_383_7213">
<rect width="220" height="40" fill="white" transform="translate(0.5 0.5)"/>
</clipPath>
</defs>
</svg>
