<svg width="36" height="36" viewBox="0 0 36 36" fill="none" xmlns="http://www.w3.org/2000/svg">
<g clip-path="url(#clip0_383_7066)">
<path fill-rule="evenodd" clip-rule="evenodd" d="M19.0781 2.9733C22.4273 3.21019 25.4741 4.54177 27.8629 6.61247L29.2528 5.22253C29.3989 5.07642 29.6373 5.07642 29.7834 5.22253L30.7775 6.21661C30.9236 6.36265 30.9235 6.60122 30.7775 6.74719L29.3877 8.13698C31.4584 10.5258 32.79 13.5727 33.0269 16.922H34.992C35.1987 16.922 35.3672 17.0905 35.3672 17.2972V18.703C35.3672 18.9096 35.1985 19.0782 34.992 19.0782H33.0267C32.7898 22.4274 31.4582 25.4741 29.3875 27.8629L30.7775 29.2529C30.9236 29.399 30.9236 29.6374 30.7775 29.7835L29.7834 30.7775C29.6374 30.9236 29.3988 30.9236 29.2528 30.7775L27.863 29.3877C25.4742 31.4585 22.4273 32.7901 19.078 33.027V34.9921C19.078 35.1987 18.9095 35.3673 18.7028 35.3673H17.297C17.0904 35.3673 16.9218 35.1986 16.9218 34.9921V33.0268C13.5726 32.7899 10.5259 31.4583 8.13705 29.3876L6.74712 30.7775C6.60101 30.9236 6.36265 30.9236 6.21654 30.7775L5.22246 29.7835C5.07635 29.6374 5.07642 29.3989 5.22246 29.2529L6.61226 27.8631C4.54148 25.4743 3.20991 22.4274 2.97309 19.0781H1.008C0.801352 19.0781 0.632812 18.9096 0.632812 18.7029V17.2971C0.632812 17.0905 0.801492 16.9219 1.008 16.9219H2.9733C3.21019 13.5727 4.54177 10.5259 6.61247 8.13713L5.22253 6.74719C5.07642 6.60108 5.07642 6.36272 5.22253 6.21661L6.21661 5.22253C6.36265 5.07642 6.60122 5.07649 6.74719 5.22253L8.13713 6.61247C10.5259 4.54177 13.5727 3.21019 16.9219 2.9733V1.008C16.9219 0.801352 17.0904 0.632812 17.2971 0.632812H18.7029C18.9095 0.632812 19.0781 0.801492 19.0781 1.008V2.9733ZM18.0001 15.2303C16.7318 15.2303 15.7037 16.2582 15.7037 17.5266C15.7037 18.7949 16.7318 19.8229 18.0001 19.8229C19.2684 19.8229 20.2964 18.7949 20.2964 17.5266C20.2964 16.2582 19.2684 15.2303 18.0001 15.2303ZM18 10.8823C14.069 10.8823 10.8823 14.069 10.8823 18C10.8823 19.9546 11.6704 21.725 12.9459 23.0114C13.6599 21.7916 14.7987 20.8562 16.1458 20.4022C14.3181 19.2212 14.0363 16.6519 15.5808 15.1073C16.917 13.7712 19.083 13.7712 20.4192 15.1073C21.9638 16.6519 21.6819 19.2213 19.8543 20.4022C21.2014 20.8562 22.3402 21.7916 23.0542 23.0114C24.3297 21.725 25.1177 19.9547 25.1177 18.0001C25.1177 14.069 21.931 10.8823 18 10.8823ZM22.1845 23.7578C21.9326 23.2807 21.6013 22.8509 21.2086 22.4866C18.9107 20.355 15.2618 21.0186 13.8155 23.7579C16.3069 25.5718 19.6932 25.5718 22.1845 23.7578ZM9.91877 8.39419L10.6638 7.64916C10.8285 7.48427 11.1194 7.57329 11.1503 7.81516L11.5936 11.2733C11.6175 11.4595 11.4593 11.6176 11.2732 11.5938L7.81502 11.1504C7.57315 11.1194 7.48413 10.8286 7.64909 10.6639L8.39405 9.91891L7.40988 8.93468C5.54041 11.1165 4.33343 13.8829 4.10098 16.922H5.49323V15.8683C5.49316 15.6353 5.76176 15.4926 5.95463 15.6417L8.71341 17.7735C8.86191 17.8883 8.86191 18.1119 8.71341 18.2266L5.95477 20.3585C5.76183 20.5076 5.49323 20.3649 5.49337 20.1317V19.0782H4.10126C4.33378 22.1172 5.54063 24.8835 7.41009 27.0654L8.39412 26.0814L7.64909 25.3363C7.4842 25.1716 7.57322 24.8808 7.81509 24.8498L11.2733 24.4065C11.4594 24.3827 11.6175 24.5408 11.5937 24.7269L11.1504 28.1851C11.1194 28.427 10.8285 28.516 10.6638 28.3511L9.91884 27.6061L8.93461 28.5903C11.1165 30.4597 13.8829 31.6667 16.9219 31.8992V30.5069H15.8683C15.6352 30.507 15.4925 30.2384 15.6416 30.0455L17.7735 27.2867C17.8882 27.1382 18.1118 27.1382 18.2265 27.2867L20.3584 30.0455C20.5075 30.2385 20.3647 30.507 20.1317 30.5069H19.0781V31.899C22.1171 31.6665 24.8835 30.4597 27.0653 28.5902L26.0813 27.6062L25.3363 28.3512C25.1715 28.5161 24.8807 28.4271 24.8498 28.1852L24.4065 24.727C24.3826 24.5409 24.5407 24.3828 24.7269 24.4066L28.185 24.8499C28.4269 24.8809 28.5159 25.1717 28.351 25.3365L27.606 26.0814L28.5902 27.0656C30.4597 24.8837 31.6666 22.1174 31.8991 19.0783H30.5068V20.1319C30.5069 20.365 30.2383 20.5077 30.0454 20.3586L27.2867 18.2268C27.1382 18.112 27.1382 17.8884 27.2867 17.7737L30.0454 15.6419C30.2384 15.4927 30.507 15.6355 30.5068 15.8685V16.9221H31.899C31.6664 13.8831 30.4596 11.1168 28.5901 8.93489L27.6061 9.91891L28.3511 10.6639C28.516 10.8287 28.427 11.1195 28.1851 11.1504L24.7269 11.5938C24.5408 11.6176 24.3827 11.4595 24.4065 11.2733L24.8498 7.81516C24.8808 7.57329 25.1717 7.48427 25.3364 7.64923L26.0814 8.39419L27.0655 7.41002C24.8837 5.54056 22.1173 4.33357 19.0782 4.10112V5.49337H20.1319C20.365 5.4933 20.5076 5.7619 20.3585 5.95477L18.2267 8.71355C18.1119 8.86205 17.8883 8.86205 17.7736 8.71355L15.6416 5.95484C15.4924 5.7619 15.6352 5.4933 15.8683 5.49345H16.9219V4.10119C13.8829 4.33364 11.1165 5.54063 8.93461 7.41009L9.91877 8.39419Z" fill="white"/>
</g>
<defs>
<clipPath id="clip0_383_7066">
<rect width="36" height="36" fill="white"/>
</clipPath>
</defs>
</svg>
