<svg width="34" height="34" viewBox="0 0 34 34" fill="none" xmlns="http://www.w3.org/2000/svg">
<g clip-path="url(#clip0_383_7037)">
<path fill-rule="evenodd" clip-rule="evenodd" d="M12.0602 17.4935C11.2063 17.4937 10.3715 17.2406 9.66149 16.7663C8.95145 16.292 8.39799 15.6178 8.07113 14.829C7.74427 14.0401 7.65867 13.1721 7.82517 12.3346C7.99167 11.4971 8.40279 10.7278 9.00653 10.124C9.61027 9.52012 10.3795 9.10889 11.217 8.94226C12.0544 8.77563 12.9225 8.86109 13.7114 9.18783C14.5003 9.51458 15.1746 10.0679 15.649 10.7779C16.1234 11.4879 16.3766 12.3226 16.3766 13.1765C16.3752 14.3209 15.92 15.418 15.1108 16.2273C14.3017 17.0366 13.2046 17.492 12.0602 17.4935ZM14.8195 33.16H9.30411C8.5242 33.1594 7.77463 32.8578 7.2117 32.318C6.64877 31.7782 6.31595 31.0419 6.28263 30.2627H17.8377C17.8051 31.0416 17.473 31.7778 16.9106 32.3176C16.3482 32.8575 15.599 33.1593 14.8195 33.16ZM19.4812 27.8801C19.4806 28.2955 19.3153 28.6936 19.0217 28.9872C18.728 29.2809 18.3299 29.4462 17.9145 29.4468H6.20593C5.99937 29.4481 5.79459 29.4086 5.60337 29.3305C5.41215 29.2524 5.23827 29.1372 5.09174 28.9916C4.9452 28.8461 4.82891 28.6729 4.74955 28.4822C4.67019 28.2915 4.62934 28.087 4.62934 27.8804C4.62934 27.6739 4.67019 27.4694 4.74955 27.2786C4.82891 27.0879 4.9452 26.9148 5.09174 26.7692C5.23827 26.6236 5.41215 26.5085 5.60337 26.4304C5.79459 26.3523 5.99937 26.3127 6.20593 26.3141H17.9144C18.3297 26.3145 18.7278 26.4797 19.0215 26.7732C19.3152 27.0668 19.4805 27.4649 19.4811 27.8801H19.4812ZM6.27964 25.4981H11.6543V18.2919C10.3676 18.1898 9.16669 17.6066 8.29085 16.6585C7.41501 15.7105 6.92862 14.4672 6.92862 13.1765C6.92862 11.8858 7.41501 10.6425 8.29085 9.69439C9.16669 8.74632 10.3676 8.16313 11.6543 8.06106V0.839844C5.19244 1.05533 6.70268e-08 6.37945 6.70268e-08 12.893C-0.000207631 14.8631 0.482289 16.8034 1.40529 18.5439C2.3283 20.2845 3.6637 21.7725 5.2947 22.8776C5.60214 23.08 5.85356 23.3566 6.0257 23.6819C6.19784 24.0072 6.28513 24.3707 6.27951 24.7387V25.4981H6.27964ZM21.4347 14.6193V11.7329L19.7337 11.5241C19.6526 11.5144 19.5763 11.4806 19.5147 11.427C19.4531 11.3734 19.4091 11.3026 19.3884 11.2236C19.2151 10.5766 18.9571 9.95537 18.621 9.37603C18.5804 9.30555 18.5618 9.22456 18.5675 9.14342C18.5732 9.06228 18.6029 8.98468 18.653 8.92055L19.7081 7.56945L17.6682 5.52819L16.316 6.58345C16.2522 6.63364 16.1748 6.66347 16.0938 6.66904C16.0128 6.67462 15.9321 6.6557 15.862 6.61473C15.2826 6.27881 14.6611 6.02138 14.0139 5.8492C13.9352 5.82818 13.8645 5.78413 13.811 5.72269C13.7574 5.66125 13.7235 5.58522 13.7134 5.50435L13.5024 3.80302H12.4694V8.06106C13.7561 8.16313 14.957 8.74632 15.8329 9.69439C16.7087 10.6425 17.1951 11.8858 17.1951 13.1765C17.1951 14.4672 16.7087 15.7105 15.8329 16.6585C14.957 17.6066 13.7561 18.1898 12.4694 18.2919V22.5491H13.5022L13.7132 20.8478C13.7233 20.7671 13.7572 20.6911 13.8108 20.6298C13.8643 20.5685 13.935 20.5246 14.0137 20.5037C14.6609 20.3315 15.2824 20.0741 15.8618 19.7381C15.9318 19.6971 16.0126 19.6781 16.0936 19.6837C16.1746 19.6892 16.2521 19.7191 16.3158 19.7694L17.6682 20.8249L19.7081 18.7837L18.653 17.4325C18.6029 17.3682 18.5732 17.2905 18.5675 17.2093C18.5618 17.128 18.5804 17.0469 18.621 16.9763C18.9574 16.3971 19.2154 15.7759 19.3884 15.1289C19.4091 15.05 19.4532 14.9792 19.5148 14.9257C19.5764 14.8722 19.6526 14.8385 19.7337 14.8291L21.4347 14.6195V14.6193ZM27.129 8.44934H22.0325C21.9785 8.44865 21.9249 8.45869 21.8748 8.47888C21.8247 8.49908 21.7791 8.52902 21.7407 8.56697C21.7022 8.60492 21.6717 8.65013 21.6509 8.69997C21.6301 8.74981 21.6193 8.80329 21.6193 8.8573C21.6193 8.91132 21.6301 8.9648 21.6509 9.01464C21.6717 9.06448 21.7022 9.10968 21.7407 9.14764C21.7791 9.18559 21.8247 9.21553 21.8748 9.23572C21.9249 9.25591 21.9785 9.26596 22.0325 9.26527H27.177C27.5319 9.26527 27.7908 9.04354 27.9473 8.60705L29.0218 5.61525C29.1171 5.62924 29.2133 5.63625 29.3096 5.63623C29.8017 5.6369 30.2775 5.45931 30.6488 5.13631C31.0201 4.81331 31.2619 4.36675 31.3294 3.87926C31.3969 3.39176 31.2856 2.89631 31.016 2.48456C30.7464 2.07281 30.3368 1.77263 29.863 1.63954C29.3892 1.50645 28.8832 1.54947 28.4387 1.76063C27.9941 1.97179 27.6411 2.33681 27.4449 2.78815C27.2487 3.2395 27.2226 3.74664 27.3714 4.21574C27.5203 4.68485 27.8339 5.08418 28.2545 5.33986L27.1801 8.33173C27.1664 8.37232 27.1493 8.41167 27.1289 8.44934H27.129ZM29.3096 20.7166C29.2133 20.7167 29.1171 20.7235 29.0218 20.7371L27.9475 17.7458C27.7908 17.3086 27.5319 17.0877 27.1772 17.0877H22.0325C21.9785 17.087 21.9249 17.097 21.8748 17.1172C21.8247 17.1374 21.7791 17.1673 21.7407 17.2053C21.7022 17.2432 21.6717 17.2885 21.6509 17.3383C21.6301 17.3881 21.6193 17.4416 21.6193 17.4956C21.6193 17.5496 21.6301 17.6031 21.6509 17.653C21.6717 17.7028 21.7022 17.748 21.7407 17.786C21.7791 17.8239 21.8247 17.8539 21.8748 17.874C21.9249 17.8942 21.9785 17.9043 22.0325 17.9036H27.129C27.1497 17.9411 27.1668 17.9805 27.1802 18.0212L28.2545 21.0131C27.8351 21.2685 27.5224 21.6671 27.3742 22.1352C27.2259 22.6033 27.2522 23.1092 27.4482 23.5595C27.6441 24.0097 27.9964 24.3738 28.44 24.5843C28.8836 24.7949 29.3884 24.8377 29.8611 24.7049C30.3338 24.572 30.7425 24.2725 31.0114 23.8617C31.2804 23.4509 31.3915 22.9566 31.3243 22.4702C31.257 21.9838 31.0159 21.5383 30.6455 21.2159C30.2752 20.8935 29.8006 20.7161 29.3096 20.7166ZM22.2499 13.1085V13.2443C22.2501 13.3344 22.286 13.4209 22.3498 13.4846C22.4135 13.5484 22.5 13.5843 22.5901 13.5845H29.9745C30.0756 14.0781 30.3564 14.5166 30.7624 14.8151C31.1684 15.1135 31.6707 15.2506 32.172 15.1998C32.6733 15.149 33.1379 14.9139 33.4758 14.5401C33.8136 14.1662 34.0007 13.6803 34.0007 13.1764C34.0007 12.6725 33.8136 12.1866 33.4758 11.8127C33.1379 11.4389 32.6733 11.2038 32.172 11.153C31.6707 11.1022 31.1684 11.2393 30.7624 11.5377C30.3564 11.8362 30.0756 12.2747 29.9745 12.7683H22.5901C22.5 12.7685 22.4135 12.8044 22.3498 12.8681C22.286 12.9319 22.2501 13.0184 22.2499 13.1085Z" fill="white"/>
</g>
<defs>
<clipPath id="clip0_383_7037">
<rect width="34" height="34" fill="white"/>
</clipPath>
</defs>
</svg>
