<svg width="90" height="89" viewBox="0 0 90 89" fill="none" xmlns="http://www.w3.org/2000/svg">
<path d="M39.4879 2.78516C38.7914 2.78516 38.095 3.24895 38.095 4.17797V6.9636C38.095 8.82112 40.8807 8.82112 40.8807 6.9636V4.17797C40.8807 3.24921 40.1843 2.78516 39.4879 2.78516ZM22.1103 10.5164C21.0637 10.5781 20.203 11.9333 21.1881 12.9184L23.1576 14.888C24.4712 16.2014 26.4407 14.2319 25.1272 12.9184L23.1576 10.9489C22.8293 10.6204 22.4592 10.4957 22.1103 10.5164ZM56.8681 10.5164C56.5193 10.4952 56.1492 10.6204 55.8208 10.9489L53.8513 12.9184C52.5377 14.2319 54.5073 16.2014 55.8208 14.888L57.7903 12.9184C58.7755 11.9333 57.9147 10.5779 56.8681 10.5164ZM39.4879 13.9304C31.9045 13.9304 26.9552 20.2477 26.9552 26.4032C26.9552 30.6419 28.6952 32.8325 30.7284 34.8743C31.7449 35.8952 32.8474 36.9001 33.7507 38.2067C34.4371 39.1996 34.9835 40.3863 35.2033 41.784H38.095V36.7051L34.3546 33.0462C33.4415 32.1844 34.043 30.6504 35.2985 30.6415C35.6763 30.6363 36.0416 30.7843 36.3078 31.0522L39.4824 34.1561L42.6598 31.0522C42.926 30.7843 43.2913 30.6362 43.669 30.6415C44.9245 30.652 45.5288 32.1844 44.6157 33.0462L40.8807 36.6942V41.784H43.7751C43.995 40.3863 44.5173 39.2345 45.2278 38.2067C46.1311 36.9001 47.2335 35.8952 48.2501 34.8743C50.2832 32.8325 52.0232 30.7616 52.0232 26.4032C52.0232 20.2477 47.0712 13.9304 39.4879 13.9304ZM39.4879 16.7133C41.3867 16.6712 41.3867 19.541 39.4879 19.4989C37.4939 19.4989 35.598 20.3515 34.2757 21.8439C33.057 23.3581 30.8379 21.3996 32.1892 20.0022C34.0392 17.9144 36.6982 16.7133 39.4879 16.7133ZM31.1283 25.0267C31.8975 25.0267 32.5211 25.6503 32.5211 26.4195C32.5211 27.1887 31.8975 27.8123 31.1283 27.8123C30.359 27.8123 29.7354 27.1887 29.7354 26.4195C29.7354 25.6503 30.359 25.0267 31.1283 25.0267ZM17.2028 27.8558C15.3452 27.8558 15.3452 30.6415 17.2028 30.6415H19.9885C21.8461 30.6415 21.8461 27.8558 19.9885 27.8558H17.2028ZM58.99 27.8558C57.1324 27.8558 57.1324 30.6415 58.99 30.6415H61.7756C63.6332 30.6415 63.6332 27.8558 61.7756 27.8558H58.99ZM74.3246 29.2323C73.5543 29.2294 72.9279 29.8539 72.9263 30.6279V84.9585C72.9278 85.7326 73.5543 86.357 74.3246 86.3541H85.4562C86.2265 86.357 86.8529 85.7326 86.8544 84.9585V30.6279C86.8529 29.8539 86.2265 29.2294 85.4562 29.2323H74.3246ZM25.9134 33.3373C25.8338 33.4131 25.771 33.4792 25.693 33.5577C18.0626 41.1877 18.1058 53.5499 25.6876 61.1474C33.2692 68.7449 45.6576 68.7775 53.2882 61.1474C60.9183 53.5173 60.8836 41.1714 53.2799 33.5577C53.2028 33.4803 53.1327 33.4202 53.0542 33.3455C52.549 34.2007 51.978 34.952 51.3893 35.617C57.8597 42.1736 57.8095 52.6845 51.3159 59.1778C44.797 65.6963 34.2221 65.7116 27.6571 59.1778C21.1474 52.699 21.1402 42.1279 27.5863 35.6034C26.9974 34.938 26.4186 34.1933 25.9134 33.3373ZM29.526 37.6191C24.1874 43.0815 24.2541 51.8146 29.6266 57.2083C35.0374 62.6405 43.8894 62.6622 49.3437 57.2083C54.7588 51.7936 54.7687 43.0683 49.447 37.6219C48.7006 38.3696 48.0106 39.0778 47.5183 39.79C47.0868 40.4141 46.7792 41.0319 46.6097 41.7949C48.2848 41.9691 48.2473 44.5696 46.4519 44.5696V48.7481C46.4519 50.5583 45.2933 52.1 43.6609 52.6735V54.322C43.6609 56.6128 41.8168 58.4978 39.4906 58.4978C37.1717 58.4978 35.3221 56.6115 35.3203 54.322C35.3203 53.3998 35.3203 53.0427 35.3203 52.6735C33.6887 52.1004 32.5252 50.5581 32.5238 48.7481C32.5237 47.4896 32.5238 45.997 32.5238 44.5696C30.7284 44.5696 30.6534 41.9798 32.3769 41.8003C32.2074 41.0374 31.889 40.4141 31.4574 39.79C30.9645 39.0769 30.2735 38.3679 29.526 37.6191ZM35.3094 44.5696C35.3094 45.9754 35.3094 47.3484 35.3094 48.7481C35.31 49.5016 35.9011 50.1354 36.6968 50.1354H42.2789C43.042 50.1354 43.6663 49.5438 43.6663 48.7481V44.5696C40.8807 44.5696 38.095 44.5696 35.3094 44.5696ZM61.7321 45.9624C61.7638 46.426 61.7811 46.8905 61.7838 47.3552C61.7814 54.1193 58.7071 60.5161 53.4269 64.7437V84.9585C53.4284 85.7326 54.0549 86.357 54.8251 86.3541H65.9568C66.727 86.357 67.3535 85.7326 67.355 84.9585V47.358C67.3535 46.584 66.727 45.9595 65.9568 45.9624H61.7321ZM38.1059 52.9238C38.1059 53.1822 38.1059 53.452 38.1059 54.322C38.1065 55.0755 38.6976 55.7094 39.4906 55.7094C40.251 55.7094 40.8752 55.1178 40.8752 54.322V52.9238H38.1059ZM22.0831 61.2535L4.69741 75.1544C2.70661 76.7659 2.88388 80.0684 4.83071 82.0151C6.77416 83.9585 10.0632 84.1254 11.6778 82.1457L25.6005 64.7491C24.3017 63.7184 23.1219 62.5459 22.0831 61.2535ZM47.8556 67.9999C45.2014 69.0788 42.3639 69.6358 39.4987 69.6403C37.618 69.6308 35.746 69.3829 33.9275 68.9031V84.9585C33.929 85.7326 34.5555 86.357 35.3257 86.3541H46.4574C47.2276 86.357 47.8541 85.7326 47.8556 84.9585V67.9999Z" fill="white"/>
</svg>
