<svg width="34" height="34" viewBox="0 0 34 34" fill="none" xmlns="http://www.w3.org/2000/svg">
<g clip-path="url(#clip0_383_7044)">
<path d="M4.25 19.125C4.25 17.3673 5.67981 15.9375 7.4375 15.9375C9.19519 15.9375 10.625 17.3673 10.625 19.125H12.75C12.75 19.125 12.75 15.661 12.75 15.6511C12.75 14.8573 13.6647 14.3352 14.3495 14.7339C15.0398 15.1358 15.9375 14.6122 15.9375 13.8125C15.9375 13.0408 15.0277 12.492 14.3496 12.891C13.6569 13.2986 12.75 12.7738 12.75 11.9739V6.375H3.1875C1.42981 6.375 0 7.80481 0 9.5625V19.125H4.25Z" fill="white"/>
<path d="M12.75 29.75C10.9923 29.75 9.5625 28.3202 9.5625 26.5625C9.5625 24.8048 10.9923 23.375 12.75 23.375V21.25H9.2756C8.48302 21.25 7.9462 20.3554 8.35885 19.6501C8.75734 18.969 8.24181 18.0626 7.43757 18.0625C6.66807 18.0624 6.11911 18.9738 6.51607 19.65C6.9241 20.3449 6.40336 21.25 5.5994 21.25H0V30.8125C0 32.5702 1.42981 34 3.1875 34H12.75V29.75Z" fill="white"/>
<path d="M23.375 21.25C23.375 23.0077 21.9452 24.4375 20.1875 24.4375C18.4298 24.4375 17 23.0077 17 21.25H14.875V24.7239C14.875 25.52 13.9623 26.0419 13.2756 25.6411C12.5893 25.2407 11.6875 25.7618 11.6875 26.5625C11.6875 27.337 12.5961 27.8838 13.2755 27.4839C13.9645 27.0784 14.875 27.609 14.875 28.4011V34H24.4375C26.1952 34 27.625 32.5702 27.625 30.8125V21.25H23.375Z" fill="white"/>
<path d="M30.8125 0H20.1875C19.6002 0 19.125 0.475224 19.125 1.0625V5.59885C19.125 6.40435 20.0306 6.92131 20.7249 6.51613C21.4202 6.11044 22.3125 6.64616 22.3125 7.43747C22.3125 8.2131 21.4055 8.76074 20.7251 8.35894C20.035 7.95148 19.125 8.48404 19.125 9.27612V13.8125C19.125 14.3998 19.6002 14.875 20.1875 14.875H23.375C23.375 16.6327 24.8048 18.0625 26.5625 18.0625C28.3202 18.0625 29.75 16.6327 29.75 14.875H32.9375C33.5248 14.875 34 14.3998 34 13.8125V3.1875C34 1.42981 32.5702 0 30.8125 0Z" fill="white"/>
</g>
<defs>
<clipPath id="clip0_383_7044">
<rect width="34" height="34" fill="white"/>
</clipPath>
</defs>
</svg>
