<svg width="90" height="89" viewBox="0 0 90 89" fill="none" xmlns="http://www.w3.org/2000/svg">
<path fill-rule="evenodd" clip-rule="evenodd" d="M65.7899 16.9978L62.5497 15.1274C63.9369 13.3544 66.0941 12.2106 68.512 12.2106C72.6856 12.2106 76.0805 15.6037 76.0805 19.7738C76.0805 23.9457 72.6856 27.3388 68.512 27.3388C64.3454 27.3388 60.9505 23.9457 60.9505 19.7738C60.9505 18.7691 61.1487 17.8096 61.5015 16.9335L64.7417 18.8039C64.6635 19.115 64.6217 19.4401 64.6217 19.7756C64.6217 21.9206 66.3687 23.6676 68.512 23.6676C70.6623 23.6676 72.4092 21.9206 72.4092 19.7756C72.4092 17.6305 70.6623 15.8836 68.512 15.8836C67.4586 15.8836 66.4973 16.3094 65.7899 16.9978ZM18.7694 27.3475C20.6797 27.3475 22.2424 25.79 22.2424 23.8744C22.2424 21.9588 20.6797 20.4013 18.7694 20.4013C16.852 20.4013 15.2893 21.9588 15.2893 23.8744C15.2893 25.7883 16.8538 27.3475 18.7694 27.3475ZM20.8848 40.0891L25.3331 41.5649C25.6947 41.6849 26.0823 41.6553 26.43 41.4832C26.7689 41.3111 27.0245 41.0174 27.1444 40.6575C27.3912 39.9083 26.981 39.0966 26.2318 38.8497L20.8848 37.0767V40.0891ZM15.9134 49.9434C14.8947 49.6097 14.2377 48.7006 14.2377 47.6263V37.6555C14.2377 37.254 14.0047 36.8889 13.6432 36.7151C13.5024 36.6456 13.3459 36.6126 13.1912 36.6126C12.9583 36.6126 12.7323 36.6908 12.5411 36.8403L10.596 38.3978C10.4256 38.5299 10.3057 38.7107 10.25 38.914L8.55348 44.5774C8.44049 44.9407 8.20061 45.2414 7.8599 45.4239C7.52094 45.6064 7.13156 45.6464 6.77 45.5386C6.40844 45.4291 6.10598 45.184 5.92172 44.8451C5.74442 44.5061 5.7027 44.1202 5.80873 43.7569L7.8599 36.9168L14.1977 31.6724C14.262 31.6185 14.3176 31.5594 14.368 31.4933C14.8843 30.8067 15.6057 30.4712 16.4609 30.5216C17.3162 30.5703 17.9958 30.9875 18.4269 31.728C18.6668 32.1504 18.8024 32.6319 18.8024 33.1221V45.005C18.8024 45.4274 19.0562 45.8081 19.4455 45.9697L26.5256 48.89C27.2678 49.196 27.7146 49.8583 27.7146 50.6596V58.2785C27.7146 59.5579 26.6681 60.5974 25.3939 60.5974C24.1146 60.5974 23.0733 59.5579 23.0733 58.2785V53.0358C23.0733 52.5839 22.783 52.1841 22.352 52.045L15.9134 49.9434ZM12.0579 70.2692C13.2816 70.629 14.5766 69.9232 14.9364 68.6978L18.7989 55.5372V53.0776L15.2702 51.9268C14.8947 51.8051 14.5488 51.64 14.2377 51.4436V54.463C14.2377 54.562 14.2238 54.6611 14.1959 54.7567L10.483 67.3923C10.1197 68.6178 10.8272 69.9093 12.0579 70.2692ZM19.6333 85.0185V72.7688H2.22614V85.0185H19.6333ZM39.1333 85.0185V64.1261H21.7192V85.0185H39.1333ZM58.6247 85.0185V55.8153H41.2193V85.0185H58.6247ZM78.1247 46.7276H60.7123V85.0202H78.1247V46.7276ZM68.5137 10.1246C73.8398 10.1246 78.1682 14.4529 78.1682 19.7738C78.1682 25.0947 73.8398 29.4248 68.5137 29.4248C63.1946 29.4248 58.8663 25.0947 58.8663 19.7738C58.8663 18.3902 59.1635 17.0743 59.6868 15.8818L56.497 14.0358C55.6626 15.774 55.195 17.7192 55.195 19.7721C55.195 27.1181 61.1713 33.096 68.5137 33.096C75.8632 33.096 81.8394 27.1181 81.8394 19.7721C81.8394 12.4261 75.8632 6.4499 68.5137 6.4499C63.9664 6.4499 59.9492 8.7427 57.5435 12.2314L60.7332 14.074C62.4871 11.6821 65.324 10.1246 68.5137 10.1246ZM68.5137 4.3657C63.1946 4.3657 58.4978 7.07568 55.7252 11.1867L53.3629 9.82217L52.9874 7.23734C52.9388 6.92098 52.7545 6.64459 52.4781 6.48467L47.2372 3.46006C46.8913 3.26016 46.4584 3.2758 46.1264 3.50004C45.7944 3.72428 45.6241 4.11887 45.6814 4.51346L46.0134 6.78191L43.884 7.6302C43.5086 7.77795 43.2548 8.12387 43.227 8.52367C43.1992 8.92174 43.3973 9.30242 43.7432 9.50232L48.9842 12.5287C49.1476 12.6208 49.3301 12.6695 49.5074 12.6695C49.6343 12.6695 49.7699 12.6451 49.8898 12.5947L52.3234 11.63L54.6788 12.9928C53.674 15.0405 53.1091 17.342 53.1091 19.7756C53.1091 28.2723 60.0188 35.1854 68.5137 35.1854C76.8019 35.1854 83.576 28.6147 83.9115 20.4118V19.1411C83.576 10.9364 76.8019 4.3657 68.5137 4.3657ZM69.037 18.8699C69.5393 19.1585 69.7097 19.7964 69.4194 20.2953C69.2282 20.6291 68.8753 20.8168 68.5137 20.8168C68.3364 20.8168 68.1609 20.7716 67.9975 20.676L66.7181 19.939C66.8033 20.8568 67.5803 21.5782 68.5155 21.5782C69.5133 21.5782 70.3268 20.7681 70.3268 19.7721C70.3268 18.7761 69.5133 17.966 68.5155 17.966C68.2461 17.966 67.9923 18.0269 67.7663 18.1329L69.037 18.8699Z" fill="white"/>
</svg>
