<svg width="156" height="26" viewBox="0 0 156 26" fill="none" xmlns="http://www.w3.org/2000/svg">
<g clip-path="url(#clip0_383_7199)">
<g filter="url(#filter0_d_383_7199)">
<path d="M12.6993 0.842872C13.1805 -0.280959 14.8196 -0.280957 15.3008 0.842875L18.1411 7.47592C18.3441 7.94971 18.8028 8.27342 19.3294 8.31442L26.7018 8.88852C27.9509 8.98579 28.4574 10.4999 27.5057 11.2917L21.8887 15.9652C21.4876 16.2991 21.3123 16.8229 21.4348 17.3219L23.1509 24.3098C23.4417 25.4937 22.1157 26.4296 21.0463 25.7952L14.7344 22.0504C14.2835 21.7829 13.7165 21.7829 13.2657 22.0504L6.9538 25.7952C5.88437 26.4296 4.55835 25.4937 4.8491 24.3098L6.56521 17.3219C6.68779 16.8229 6.51257 16.2991 6.11137 15.9652L0.494288 11.2917C-0.457406 10.4999 0.0490951 8.98579 1.29821 8.88852L8.67072 8.31442C9.19732 8.27342 9.65604 7.94971 9.85892 7.47592L12.6993 0.842872Z" fill="#FFC700"/>
</g>
<g filter="url(#filter1_d_383_7199)">
<path d="M44.6993 0.842872C45.1805 -0.280959 46.8196 -0.280957 47.3008 0.842875L50.1411 7.47592C50.3441 7.94971 50.8028 8.27342 51.3294 8.31442L58.7018 8.88852C59.9509 8.98579 60.4574 10.4999 59.5057 11.2917L53.8887 15.9652C53.4876 16.2991 53.3123 16.8229 53.4348 17.3219L55.1509 24.3098C55.4417 25.4937 54.1157 26.4296 53.0463 25.7952L46.7344 22.0504C46.2835 21.7829 45.7165 21.7829 45.2657 22.0504L38.9538 25.7952C37.8844 26.4296 36.5583 25.4937 36.8491 24.3098L38.5652 17.3219C38.6878 16.8229 38.5126 16.2991 38.1114 15.9652L32.4943 11.2917C31.5426 10.4999 32.0491 8.98579 33.2982 8.88852L40.6707 8.31442C41.1973 8.27342 41.656 7.94971 41.8589 7.47592L44.6993 0.842872Z" fill="#FFC700"/>
</g>
<g filter="url(#filter2_d_383_7199)">
<path d="M76.6993 0.842872C77.1805 -0.280959 78.8196 -0.280957 79.3008 0.842875L82.1411 7.47592C82.3441 7.94971 82.8028 8.27342 83.3294 8.31442L90.7018 8.88852C91.9509 8.98579 92.4574 10.4999 91.5057 11.2917L85.8887 15.9652C85.4876 16.2991 85.3123 16.8229 85.4348 17.3219L87.1509 24.3098C87.4417 25.4937 86.1157 26.4296 85.0463 25.7952L78.7344 22.0504C78.2835 21.7829 77.7165 21.7829 77.2657 22.0504L70.9538 25.7952C69.8844 26.4296 68.5583 25.4937 68.8491 24.3098L70.5652 17.3219C70.6878 16.8229 70.5126 16.2991 70.1114 15.9652L64.4943 11.2917C63.5426 10.4999 64.0491 8.98579 65.2982 8.88852L72.6707 8.31442C73.1973 8.27342 73.656 7.94971 73.8589 7.47592L76.6993 0.842872Z" fill="#FFC700"/>
</g>
<g filter="url(#filter3_d_383_7199)">
<path d="M108.699 0.842872C109.181 -0.280959 110.82 -0.280957 111.301 0.842875L114.141 7.47592C114.344 7.94971 114.803 8.27342 115.329 8.31442L122.702 8.88852C123.951 8.98579 124.457 10.4999 123.506 11.2917L117.889 15.9652C117.488 16.2991 117.312 16.8229 117.435 17.3219L119.151 24.3098C119.442 25.4937 118.116 26.4296 117.046 25.7952L110.734 22.0504C110.284 21.7829 109.717 21.7829 109.266 22.0504L102.954 25.7952C101.884 26.4296 100.558 25.4937 100.849 24.3098L102.565 17.3219C102.688 16.8229 102.513 16.2991 102.111 15.9652L96.4943 11.2917C95.5426 10.4999 96.0491 8.98579 97.2982 8.88852L104.671 8.31442C105.197 8.27342 105.656 7.94971 105.859 7.47592L108.699 0.842872Z" fill="#FFC700"/>
</g>
<g filter="url(#filter4_d_383_7199)">
<path d="M140.699 0.842872C141.181 -0.280959 142.82 -0.280957 143.301 0.842875L146.141 7.47592C146.344 7.94971 146.803 8.27342 147.329 8.31442L154.702 8.88852C155.951 8.98579 156.457 10.4999 155.506 11.2917L149.889 15.9652C149.488 16.2991 149.312 16.8229 149.435 17.3219L151.151 24.3098C151.442 25.4937 150.116 26.4296 149.046 25.7952L142.734 22.0504C142.284 21.7829 141.717 21.7829 141.266 22.0504L134.954 25.7952C133.884 26.4296 132.558 25.4937 132.849 24.3098L134.565 17.3219C134.688 16.8229 134.513 16.2991 134.111 15.9652L128.494 11.2917C127.543 10.4999 128.049 8.98579 129.298 8.88852L136.671 8.31442C137.197 8.27342 137.656 7.94971 137.859 7.47592L140.699 0.842872Z" fill="#FFC700"/>
</g>
</g>
<defs>
<filter id="filter0_d_383_7199" x="-4" y="-4" width="36" height="34" filterUnits="userSpaceOnUse" color-interpolation-filters="sRGB">
<feFlood flood-opacity="0" result="BackgroundImageFix"/>
<feColorMatrix in="SourceAlpha" type="matrix" values="0 0 0 0 0 0 0 0 0 0 0 0 0 0 0 0 0 0 127 0" result="hardAlpha"/>
<feOffset/>
<feGaussianBlur stdDeviation="2"/>
<feComposite in2="hardAlpha" operator="out"/>
<feColorMatrix type="matrix" values="0 0 0 0 1 0 0 0 0 1 0 0 0 0 1 0 0 0 0.24 0"/>
<feBlend mode="normal" in2="BackgroundImageFix" result="effect1_dropShadow_383_7199"/>
<feBlend mode="normal" in="SourceGraphic" in2="effect1_dropShadow_383_7199" result="shape"/>
</filter>
<filter id="filter1_d_383_7199" x="28" y="-4" width="36" height="34" filterUnits="userSpaceOnUse" color-interpolation-filters="sRGB">
<feFlood flood-opacity="0" result="BackgroundImageFix"/>
<feColorMatrix in="SourceAlpha" type="matrix" values="0 0 0 0 0 0 0 0 0 0 0 0 0 0 0 0 0 0 127 0" result="hardAlpha"/>
<feOffset/>
<feGaussianBlur stdDeviation="2"/>
<feComposite in2="hardAlpha" operator="out"/>
<feColorMatrix type="matrix" values="0 0 0 0 1 0 0 0 0 1 0 0 0 0 1 0 0 0 0.24 0"/>
<feBlend mode="normal" in2="BackgroundImageFix" result="effect1_dropShadow_383_7199"/>
<feBlend mode="normal" in="SourceGraphic" in2="effect1_dropShadow_383_7199" result="shape"/>
</filter>
<filter id="filter2_d_383_7199" x="60" y="-4" width="36" height="34" filterUnits="userSpaceOnUse" color-interpolation-filters="sRGB">
<feFlood flood-opacity="0" result="BackgroundImageFix"/>
<feColorMatrix in="SourceAlpha" type="matrix" values="0 0 0 0 0 0 0 0 0 0 0 0 0 0 0 0 0 0 127 0" result="hardAlpha"/>
<feOffset/>
<feGaussianBlur stdDeviation="2"/>
<feComposite in2="hardAlpha" operator="out"/>
<feColorMatrix type="matrix" values="0 0 0 0 1 0 0 0 0 1 0 0 0 0 1 0 0 0 0.24 0"/>
<feBlend mode="normal" in2="BackgroundImageFix" result="effect1_dropShadow_383_7199"/>
<feBlend mode="normal" in="SourceGraphic" in2="effect1_dropShadow_383_7199" result="shape"/>
</filter>
<filter id="filter3_d_383_7199" x="92" y="-4" width="36" height="34" filterUnits="userSpaceOnUse" color-interpolation-filters="sRGB">
<feFlood flood-opacity="0" result="BackgroundImageFix"/>
<feColorMatrix in="SourceAlpha" type="matrix" values="0 0 0 0 0 0 0 0 0 0 0 0 0 0 0 0 0 0 127 0" result="hardAlpha"/>
<feOffset/>
<feGaussianBlur stdDeviation="2"/>
<feComposite in2="hardAlpha" operator="out"/>
<feColorMatrix type="matrix" values="0 0 0 0 1 0 0 0 0 1 0 0 0 0 1 0 0 0 0.24 0"/>
<feBlend mode="normal" in2="BackgroundImageFix" result="effect1_dropShadow_383_7199"/>
<feBlend mode="normal" in="SourceGraphic" in2="effect1_dropShadow_383_7199" result="shape"/>
</filter>
<filter id="filter4_d_383_7199" x="124" y="-4" width="36" height="34" filterUnits="userSpaceOnUse" color-interpolation-filters="sRGB">
<feFlood flood-opacity="0" result="BackgroundImageFix"/>
<feColorMatrix in="SourceAlpha" type="matrix" values="0 0 0 0 0 0 0 0 0 0 0 0 0 0 0 0 0 0 127 0" result="hardAlpha"/>
<feOffset/>
<feGaussianBlur stdDeviation="2"/>
<feComposite in2="hardAlpha" operator="out"/>
<feColorMatrix type="matrix" values="0 0 0 0 1 0 0 0 0 1 0 0 0 0 1 0 0 0 0.24 0"/>
<feBlend mode="normal" in2="BackgroundImageFix" result="effect1_dropShadow_383_7199"/>
<feBlend mode="normal" in="SourceGraphic" in2="effect1_dropShadow_383_7199" result="shape"/>
</filter>
<clipPath id="clip0_383_7199">
<rect width="156" height="26" fill="white"/>
</clipPath>
</defs>
</svg>
