<svg width="20" height="21" viewBox="0 0 20 21" fill="none" xmlns="http://www.w3.org/2000/svg">
<g clip-path="url(#clip0_386_121)">
<path d="M11.3501 20.248H8.14106C7.60504 20.248 7.16901 19.8129 7.16901 19.2779V12.0538H5.29676C4.76074 12.0538 4.32471 11.6184 4.32471 11.0836V7.98807C4.32471 7.4531 4.76074 7.01791 5.29676 7.01791H7.16901V5.46777C7.16901 3.93076 7.65259 2.62308 8.56731 1.68634C9.48616 0.745331 10.7702 0.248047 12.2808 0.248047L14.7282 0.252014C15.2633 0.25293 15.6985 0.68811 15.6985 1.22217V4.09631C15.6985 4.63129 15.2627 5.06647 14.7268 5.06647L13.079 5.06708C12.5765 5.06708 12.4485 5.16763 12.4211 5.19846C12.376 5.24957 12.3224 5.39407 12.3224 5.79309V7.01776H14.603C14.7747 7.01776 14.941 7.06003 15.0839 7.13968C15.3923 7.31165 15.584 7.63681 15.584 7.98822L15.5828 11.0838C15.5828 11.6184 15.1468 12.0536 14.6108 12.0536H12.3224V19.2779C12.3224 19.8129 11.8862 20.248 11.3501 20.248ZM8.34379 19.0756H11.1474V11.5289C11.1474 11.1717 11.4387 10.8811 11.7964 10.8811H14.408L14.4091 8.1904H11.7963C11.4385 8.1904 11.1474 7.89987 11.1474 7.54266V5.79309C11.1474 5.33502 11.1941 4.81409 11.5405 4.42255C11.9591 3.94922 12.6188 3.89459 13.0787 3.89459L14.5238 3.89398V1.42419L12.2799 1.42053C9.85232 1.42053 8.34379 2.97144 8.34379 5.46777V7.54266C8.34379 7.89972 8.05269 8.1904 7.69494 8.1904H5.49949V10.8811H7.69494C8.05269 10.8811 8.34379 11.1717 8.34379 11.5289V19.0756Z" fill="white"/>
</g>
<defs>
<clipPath id="clip0_386_121">
<rect width="20" height="20" fill="white" transform="translate(0 0.287109)"/>
</clipPath>
</defs>
</svg>
