<svg width="20" height="21" viewBox="0 0 20 21" fill="none" xmlns="http://www.w3.org/2000/svg">
<g clip-path="url(#clip0_386_123)">
<path d="M19.9805 6.16716C19.9336 5.10449 19.7618 4.37391 19.5156 3.74085C19.2616 3.06887 18.8709 2.46725 18.3591 1.96712C17.8589 1.45921 17.2533 1.06454 16.5891 0.814556C15.9524 0.568384 15.2257 0.396536 14.163 0.349683C13.0924 0.298861 12.7525 0.287109 10.0371 0.287109C7.32174 0.287109 6.98186 0.298861 5.91521 0.345715C4.85253 0.392568 4.12195 0.564568 3.48905 0.810588C2.81692 1.06454 2.2153 1.45525 1.71517 1.96712C1.20726 2.46725 0.812743 3.07284 0.562603 3.73703C0.316431 4.37391 0.144583 5.10052 0.0977295 6.1632C0.0469078 7.23381 0.0351562 7.57369 0.0351562 10.2891C0.0351562 13.0044 0.0469078 13.3443 0.0937615 14.411C0.140615 15.4736 0.312615 16.2042 0.558788 16.8373C0.812743 17.5093 1.20726 18.1109 1.71517 18.611C2.2153 19.1189 2.82089 19.5136 3.48508 19.7636C4.12195 20.0097 4.84857 20.1816 5.9114 20.2284C6.97789 20.2754 7.31792 20.287 10.0333 20.287C12.7487 20.287 13.0885 20.2754 14.1552 20.2284C15.2179 20.1816 15.9485 20.0097 16.5814 19.7636C17.9255 19.2439 18.9881 18.1812 19.5078 16.8373C19.7538 16.2004 19.9258 15.4736 19.9727 14.411C20.0195 13.3443 20.0313 13.0044 20.0313 10.2891C20.0313 7.57369 20.0273 7.23381 19.9805 6.16716ZM18.1794 14.3328C18.1364 15.3096 17.9723 15.837 17.8356 16.1887C17.4995 17.0599 16.808 17.7515 15.9367 18.0875C15.5851 18.2243 15.0538 18.3883 14.0809 18.4312C13.026 18.4782 12.7096 18.4898 10.0411 18.4898C7.37256 18.4898 7.05221 18.4782 6.00114 18.4312C5.02438 18.3883 4.49694 18.2243 4.1453 18.0875C3.71172 17.9273 3.31705 17.6733 2.9967 17.3412C2.66461 17.0169 2.41065 16.6262 2.2504 16.1926C2.11366 15.841 1.94959 15.3096 1.90671 14.3368C1.8597 13.2819 1.8481 12.9654 1.8481 10.2968C1.8481 7.62833 1.8597 7.30798 1.90671 6.25706C1.94959 5.2803 2.11366 4.75286 2.2504 4.40122C2.41065 3.96749 2.66461 3.57297 3.00067 3.25247C3.32483 2.92038 3.71553 2.66642 4.14927 2.50632C4.5009 2.36958 5.03232 2.20551 6.0051 2.16248C7.06 2.11562 7.37653 2.10387 10.0449 2.10387C12.7174 2.10387 13.0338 2.11562 14.0848 2.16248C15.0616 2.20551 15.589 2.36958 15.9407 2.50632C16.3743 2.66642 16.7689 2.92038 17.0893 3.25247C17.4214 3.57678 17.6753 3.96749 17.8356 4.40122C17.9723 4.75286 18.1364 5.28412 18.1794 6.25706C18.2263 7.31195 18.238 7.62833 18.238 10.2968C18.238 12.9654 18.2263 13.2779 18.1794 14.3328Z" fill="white"/>
<path d="M10.0371 5.15039C7.20074 5.15039 4.89941 7.45156 4.89941 10.2881C4.89941 13.1247 7.20074 15.4258 10.0371 15.4258C12.8737 15.4258 15.1749 13.1247 15.1749 10.2881C15.1749 7.45156 12.8737 5.15039 10.0371 5.15039ZM10.0371 13.6208C8.19702 13.6208 6.70442 12.1284 6.70442 10.2881C6.70442 8.44785 8.19702 6.9554 10.0371 6.9554C11.8774 6.9554 13.3698 8.44785 13.3698 10.2881C13.3698 12.1284 11.8774 13.6208 10.0371 13.6208Z" fill="white"/>
<path d="M16.5777 4.94747C16.5777 5.60983 16.0406 6.14689 15.3781 6.14689C14.7158 6.14689 14.1787 5.60983 14.1787 4.94747C14.1787 4.28496 14.7158 3.74805 15.3781 3.74805C16.0406 3.74805 16.5777 4.28496 16.5777 4.94747Z" fill="white"/>
</g>
<defs>
<clipPath id="clip0_386_123">
<rect width="20" height="20" fill="white" transform="translate(0 0.287109)"/>
</clipPath>
</defs>
</svg>
