<svg width="221" height="60" viewBox="0 0 221 60" fill="none" xmlns="http://www.w3.org/2000/svg">
<g clip-path="url(#clip0_383_7212)">
<path d="M20.4999 50C31.5459 50 40.4999 41.046 40.4999 30V16C40.4999 14.4087 39.8678 12.8826 38.7426 11.7574C37.6174 10.6321 36.0912 10 34.4999 10H21.4999V18.774C21.4999 20.776 21.6219 22.85 22.6719 24.554C23.4236 25.7752 24.4292 26.8204 25.6204 27.6188C26.8116 28.4171 28.1607 28.9499 29.5759 29.181L29.9589 29.243C30.1168 29.297 30.2539 29.399 30.3509 29.5347C30.448 29.6704 30.5002 29.8331 30.5002 30C30.5002 30.1669 30.448 30.3296 30.3509 30.4653C30.2539 30.601 30.1168 30.703 29.9589 30.757L29.5759 30.819C27.5081 31.1568 25.5986 32.1356 24.117 33.6171C22.6355 35.0987 21.6567 37.0082 21.3189 39.076L21.2569 39.459C21.203 39.6169 21.101 39.754 20.9652 39.851C20.8295 39.9481 20.6668 40.0003 20.4999 40.0003C20.3331 40.0003 20.1704 39.9481 20.0346 39.851C19.8989 39.754 19.7969 39.6169 19.7429 39.459L19.6809 39.076C19.4498 37.6607 18.917 36.3118 18.1186 35.1205C17.3203 33.9293 16.2751 32.9237 15.0539 32.172C13.3499 31.122 11.2759 31 9.27393 31H0.523926C1.04693 41.581 9.78993 50 20.4999 50Z" fill="white"/>
<path d="M0.5 29H9.274C11.276 29 13.35 28.878 15.054 27.828C16.386 27.0073 17.5073 25.886 18.328 24.554C19.378 22.85 19.5 20.776 19.5 18.774V10H6.5C4.9087 10 3.38258 10.6321 2.25736 11.7574C1.13214 12.8826 0.5 14.4087 0.5 16L0.5 29ZM46.955 12C46.955 12.5304 46.7443 13.0391 46.3692 13.4142C45.9941 13.7893 45.4854 14 44.955 14C44.4246 14 43.9159 13.7893 43.5408 13.4142C43.1657 13.0391 42.955 12.5304 42.955 12C42.955 11.4696 43.1657 10.9609 43.5408 10.5858C43.9159 10.2107 44.4246 10 44.955 10C45.4854 10 45.9941 10.2107 46.3692 10.5858C46.7443 10.9609 46.955 11.4696 46.955 12ZM212.211 22.104C217.802 22.104 220.5 26.009 220.5 30.532V39.027H214.649V31.54C214.649 29.49 213.901 27.798 211.756 27.798C209.611 27.798 208.896 29.49 208.896 31.54V39.026H203.045V31.54C203.045 29.49 202.33 27.798 200.184 27.798C198.039 27.798 197.291 29.49 197.291 31.54V39.026H191.441V30.531C191.441 26.008 194.138 22.103 199.729 22.103C202.785 22.103 204.995 23.307 206.003 25.292C207.075 23.307 209.416 22.102 212.211 22.102V22.104ZM180.927 33.82C182.812 33.82 183.625 32.095 183.625 30.044V22.754H189.475V30.76C189.475 35.544 186.68 39.515 180.927 39.515C175.173 39.515 172.378 35.545 172.378 30.76V22.754H178.229V30.044C178.229 32.094 179.041 33.82 180.927 33.82ZM163.775 39.547C160.102 39.547 157.729 38.278 156.331 35.805L160.557 33.429C161.142 34.47 162.019 34.991 163.482 34.991C164.685 34.991 165.237 34.568 165.237 34.047C165.237 32.062 156.656 34.08 156.656 27.767C156.656 24.707 159.256 22.234 163.677 22.234C167.545 22.234 169.658 24.121 170.601 25.944L166.375 28.352C166.018 27.376 164.912 26.79 163.807 26.79C162.962 26.79 162.507 27.148 162.507 27.636C162.507 29.654 171.088 27.799 171.088 33.917C171.088 37.334 167.74 39.547 163.775 39.547ZM143.333 46.512H137.482V30.858C137.482 25.878 141.22 22.266 146.421 22.266C151.492 22.266 155.36 26.139 155.36 30.858C155.36 36.065 151.914 39.515 146.746 39.515C145.543 39.515 144.341 39.157 143.333 38.603V46.512ZM146.421 34.015C148.274 34.015 149.509 32.583 149.509 30.89C149.509 29.166 148.274 27.766 146.421 27.766C144.568 27.766 143.333 29.166 143.333 30.891C143.333 32.583 144.568 34.015 146.421 34.015ZM131.621 21.03C129.703 21.03 128.111 19.435 128.111 17.515C128.111 15.595 129.703 14 131.621 14C133.539 14 135.132 15.595 135.132 17.515C135.132 19.435 133.539 21.03 131.621 21.03ZM128.696 22.754H134.547V39.027H128.696V22.754ZM117.47 39.515C112.399 39.515 108.531 35.61 108.531 30.858C108.531 26.139 112.399 22.234 117.47 22.234C122.541 22.234 126.409 26.139 126.409 30.858C126.409 35.61 122.541 39.515 117.47 39.515ZM117.47 34.015C119.323 34.015 120.558 32.583 120.558 30.89C120.558 29.166 119.323 27.734 117.47 27.734C115.617 27.734 114.382 29.166 114.382 30.89C114.382 32.583 115.617 34.015 117.47 34.015ZM97.483 47C93.453 47 90.527 45.21 89.032 42.02L93.875 39.417C94.395 40.524 95.37 41.663 97.385 41.663C99.499 41.663 100.896 40.328 101.059 37.985C100.279 38.669 99.043 39.189 97.191 39.189C92.672 39.189 89.031 35.707 89.031 30.825C89.031 26.107 92.9 22.266 97.971 22.266C103.172 22.266 106.91 25.879 106.91 30.858V37.302C106.91 43.16 102.846 47 97.483 47ZM97.873 33.69C99.628 33.69 100.961 32.485 100.961 30.695C100.961 28.938 99.629 27.766 97.873 27.766C96.15 27.766 94.785 28.938 94.785 30.696C94.785 32.486 96.15 33.689 97.873 33.689V33.69ZM79.107 39.515C74.036 39.515 70.167 35.61 70.167 30.858C70.167 26.139 74.036 22.234 79.107 22.234C84.177 22.234 88.046 26.139 88.046 30.858C88.046 35.61 84.178 39.515 79.107 39.515ZM79.107 34.015C80.96 34.015 82.195 32.583 82.195 30.89C82.195 29.166 80.96 27.734 79.107 27.734C77.254 27.734 76.019 29.166 76.019 30.89C76.019 32.583 77.254 34.015 79.107 34.015ZM59.513 17.06V33.494H69.2V39.027H58.7C54.995 39.027 53.5 37.074 53.5 33.982V17.06H59.513Z" fill="white"/>
</g>
<defs>
<clipPath id="clip0_383_7212">
<rect width="220" height="40" fill="white" transform="translate(0.5 10)"/>
</clipPath>
</defs>
</svg>
