<svg width="94" height="39" viewBox="0 0 94 39" fill="none" xmlns="http://www.w3.org/2000/svg">
<g clip-path="url(#clip0_386_2936)">
<path d="M42.426 10.5352H43.2661L44.0415 10.9231L44.4938 11.4404L44.6877 11.8284V11.9577H62.3932L63.0394 12.5397L65.6887 15.1909V15.3202H65.818L66.9811 16.4842V16.6135H67.1104L67.3688 16.9368L67.4981 17.0015H90.1146L90.4377 16.4195L90.7608 16.0962L91.0839 15.8375L91.6008 15.6436H92.4409L93.0224 15.8375L93.604 16.3548L93.9271 16.9368L93.9917 17.1955V18.0361L93.6686 18.6827L93.3455 19.0707L92.8286 19.394L92.1824 19.5233H91.7301L91.0839 19.3294L90.5669 18.8767L90.2438 18.3594L66.9811 18.2947L66.4642 17.8421L64.3964 15.7729V15.6436L64.1379 15.5142V15.3849L63.8794 15.2556V15.1262L63.6209 14.9969V14.8676L63.3625 14.7383V14.6089L63.104 14.4796V14.3503L62.9101 14.2856L62.4578 13.7683L62.0055 13.3157L61.8762 13.251H44.623L44.1061 13.9623L43.5892 14.2856L43.0722 14.4149L42.1675 14.3503L41.6506 14.0916L41.1336 13.5743L40.8752 13.057L40.8105 12.7984V12.1517L41.069 11.4404L41.5214 10.9231L42.1675 10.5998L42.426 10.5352Z" fill="white"/>
<path d="M1.52253 20.3652H2.49181L3.00876 20.6239L3.46109 21.0765L3.78418 21.5292L27.0469 21.5938L32.0872 26.6376H49.3404L49.7927 25.9909L50.3096 25.5383L50.6973 25.409H51.5374L52.2482 25.6676L52.7005 26.0556L53.0236 26.5729L53.1529 27.0255V27.7368L52.8944 28.3188L52.5067 28.8361L52.119 29.0948L51.4728 29.2888H50.6973L50.0512 29.0301L49.5988 28.5775L49.2757 27.9955L31.5702 27.9308L26.5946 22.9518L26.4653 22.8871H3.8488L3.59033 23.3397L3.138 23.857L2.62105 24.1157L1.97486 24.245L1.32867 24.1804L0.682485 23.857L0.294773 23.4044L0.0362984 22.8871L-0.0283203 22.5638V22.0465L0.100917 21.5292L0.359392 21.0765L0.94096 20.5592L1.52253 20.3652Z" fill="white"/>
<path d="M36.4813 14.416L37.1275 14.4807L37.5152 14.804L37.7737 15.0626L54.1222 15.1273L55.8023 16.8086L56.3193 17.2612L58.5809 19.5244L59.0979 19.9771L59.8733 20.753V20.8823L60.1318 21.0117V21.141L60.3902 21.2703V21.3996L60.6487 21.529V21.6583L60.9072 21.7876V21.9169L61.1657 22.0463V22.1756L61.4241 22.3049V22.4343L61.618 22.4989L62.0057 22.9516L62.3934 23.2749L62.7811 23.7275L63.1688 24.0508L63.6212 24.5681L67.046 27.9953L67.2398 28.06H80.4866L81.0036 27.478L81.2621 27.3487H81.8436L82.3606 27.6073L82.6191 27.9953L82.6837 28.5773L82.4898 29.0299L82.1021 29.3532L81.779 29.4825H81.2621L80.8744 29.2239L80.5513 28.8359H62.5873L57.3532 34.0736L57.1593 34.1383L42.4262 34.203L42.0385 34.6556L41.5862 34.8496H41.1339L40.7462 34.6556L40.3584 34.203L40.2938 33.5563L40.6169 33.039L40.94 32.7804L41.1339 32.7157H41.7154L42.1031 32.9744L42.4909 33.427H56.9654L57.2239 33.2977L57.2885 33.1683H57.4178L57.547 32.9097L62.1996 28.2539L62.3934 28.1246L63.9443 28.06H66.0121V27.9306L53.993 15.9033L53.8637 15.8386L37.7091 15.7739L37.5798 16.0326L37.3214 16.3559L36.9337 16.5499H36.3521L36.029 16.3559L35.7059 15.9679L35.5767 15.3213L35.7705 14.8687L36.2228 14.4807L36.4813 14.416Z" fill="white"/>
<path d="M52.2485 5.03906H52.8947L53.4117 5.29772L53.6701 5.81502V6.26766L53.4117 6.78497L53.0886 7.04362L52.8947 7.10829H52.1839L51.7962 6.84963L51.5377 6.46165V6.33233L36.9339 6.39699L31.7644 11.57L31.5705 11.6994L27.8227 11.764L28.7273 12.6693L29.115 12.9926V13.122L29.3735 13.2513V13.3806L29.632 13.5099L29.9551 13.8979L30.1489 14.0272V14.1566L30.4074 14.2859V14.4152L30.6659 14.5446V14.6739L30.9244 14.8032V14.9325L31.1828 15.0619V15.1912L31.4413 15.3205V15.4498L31.6998 15.5792V15.7085L31.9583 15.8378V15.9671L32.2167 16.0965V16.2258L32.4752 16.3551V16.4845L32.7337 16.6138L34.0261 17.907V18.0364L34.2845 18.1657V18.295L34.4784 18.3597L34.9307 18.877L35.2538 19.1356L35.7061 19.6529L39.971 23.9207L40.2941 23.9854H56.2549L56.578 23.5327L56.9011 23.3388H57.6765L58.0642 23.5974L58.3227 23.9854L58.3873 24.438L58.2581 24.8907L57.7411 25.3433L57.5473 25.408H56.9011L56.4487 25.0847L56.2549 24.7613L39.971 24.6967L39.6479 24.5027L36.0292 20.8815L35.5123 20.4289L26.8534 11.764H13.4773L12.9604 12.346L12.3788 12.54L11.8618 12.4107L11.4741 12.0874L11.2803 11.5054L11.4095 10.9234L11.7326 10.6001L11.9911 10.4061H12.7665L13.1542 10.6648L13.4773 11.0527H31.3121L31.829 10.6001L31.9583 10.4061H32.0875L32.2167 10.1475L36.4816 5.87968L36.6754 5.75036L51.5377 5.68569L51.8608 5.23305L52.2485 5.03906Z" fill="white"/>
<path d="M13.4768 24.5684H14.0583L14.5107 24.827L14.8338 25.215L24.6558 25.2797L29.8899 30.5174L30.0838 30.582H44.5583L45.0753 30.0001L45.463 29.8707L46.0446 29.9354L46.3677 30.1294L46.6261 30.4527L46.6908 30.582V31.2287L46.4323 31.6813L46.0446 31.94L45.8507 32.0046H45.3338L44.8814 31.746L44.5583 31.358H35.4471L37.3857 33.2979L37.838 33.6859L38.2903 34.2032L39.9704 35.8844L40.1643 35.9491H54.6389L55.1558 35.3671L55.285 35.3025H56.1251L56.5128 35.5611L56.7713 36.0137V36.5957L56.5774 36.9837L56.2543 37.2423L55.9312 37.3717H55.4143L54.962 37.113L54.6389 36.725L39.9704 36.6604L39.6473 36.4664L36.998 33.8152L36.481 33.3626L34.4778 31.358L29.7607 31.2933L25.6251 27.1549L25.1081 26.7022L24.3973 25.9909L14.7691 25.9263L14.6399 26.1849L14.3168 26.5083L13.9291 26.7022H13.4768L13.0244 26.4436L12.766 26.1203L12.6367 25.5383L12.8306 25.021L13.2829 24.633L13.4768 24.5684Z" fill="white"/>
<path d="M38.0321 2.45312H38.5491L38.9368 2.64711L39.3245 3.09976L54.1222 3.16442L55.0268 4.06971L55.5438 4.52235L56.5777 5.55696L57.0946 6.0096L57.6116 6.52691V6.65623L57.8054 6.7209L58.1285 7.10888L59.4855 8.4668L59.6147 8.53147L64.2027 8.59613L64.7196 9.04877L66.6582 10.9887L67.1751 11.4413L69.5014 13.7692L70.083 13.8985H79.1296L79.5819 13.3165L79.8404 13.1872H80.4866L81.0035 13.4459L81.262 13.8338V14.5451L81.0035 14.9331L80.6804 15.1918L80.3573 15.3211L79.7758 15.2564L79.2588 14.8038L79.1296 14.6098L69.3722 14.5451L68.8552 14.0925L68.2736 13.5752V13.4459L68.0152 13.3165L66.9813 12.2819V12.1526L66.7228 12.0233V11.894L66.4643 11.7646L66.012 11.2473L64.0734 9.30743L63.9442 9.24276H49.405L49.1465 9.63074L48.8234 9.88939L48.6296 9.95406H47.9834L47.5957 9.6954L47.3372 9.37209L47.2726 9.1781V8.59613L47.531 8.20815L47.9188 7.88483H48.7588L49.1465 8.14349L49.405 8.53147L58.5808 8.59613L58.2578 8.27281L57.6762 7.62618L55.2853 5.23364L54.7683 4.781L54.0575 4.00504L53.8637 3.87572H39.3245L39.066 4.26369H38.9368V4.39302L38.5491 4.58701H37.9029L37.5152 4.32836L37.2567 4.00504L37.1274 3.42307L37.3213 2.97043L37.5798 2.64711L38.0321 2.45312Z" fill="white"/>
<path d="M18.1944 15.5801H18.7759L19.2929 15.9034L19.5514 16.2267L27.3056 16.2914L31.7643 20.7531L31.9582 20.8178H35.4476L35.8999 21.0765L36.1584 21.3998V21.4644H31.5704L31.0535 20.9471L30.795 20.7531V20.6238L30.5365 20.4945L27.0471 17.0027L19.4867 16.938L19.3575 17.2613L18.9052 17.6493L18.4528 17.714L17.8713 17.52L17.4836 17.0673L17.4189 16.8733V16.356L17.6774 15.9034L18.0005 15.6447L18.1944 15.5801Z" fill="white"/>
<path d="M57.8057 18.3594H62.4582L66.4 22.3038V22.4332H66.5292L66.7877 22.7565L66.9169 22.8211L67.6923 22.8858H74.348L74.9296 22.3038L75.1881 22.1745H75.7697L76.1574 22.3685L76.4805 22.7565L76.5451 22.8858V23.5324L76.2866 23.9204L75.9635 24.1791L75.6404 24.3084L75.1235 24.2437L74.6711 23.9204L74.4773 23.5971L66.723 23.5324L66.2061 23.0798L63.7506 20.6226L63.6213 20.5579V20.4286L63.3629 20.2993L62.5874 19.5233V19.394L62.329 19.2647L62.1351 19.0707L58.3872 19.006L58.0641 18.6827L57.8057 18.3594Z" fill="white"/>
<path d="M42.0386 17.584H42.6848L43.0725 17.8426L43.331 18.166L43.3956 18.2953L56.0609 18.3599L56.5778 18.7479L56.6424 18.9419L56.5132 19.0066H43.331L43.2017 19.3299L42.814 19.6532L42.6848 19.7179H42.0386L41.6509 19.5239L41.3924 19.2006L41.2632 18.8772V18.4246L41.5217 17.9073L41.8448 17.6486L42.0386 17.584Z" fill="white"/>
<path d="M51.2789 20.1055H51.9251L52.3774 20.3641L52.7005 20.8814V21.3987L52.4421 21.916L52.119 22.1747L51.9251 22.2394H51.4082L50.9558 22.0454L50.6974 21.722L50.6327 21.4634H37.8382L37.3213 20.9461L37.4505 20.8168H50.4389L50.6327 20.7521L50.9558 20.2995L51.2789 20.1055Z" fill="white"/>
<path d="M48.2417 8.20898L48.6294 8.27365L48.9525 8.59696L49.0171 9.11427L48.6941 9.50225L48.5648 9.56691H48.1771L47.7894 9.30826L47.6602 9.04961V8.66163L47.9186 8.33831L48.2417 8.20898Z" fill="#161527"/>
<path d="M13.4771 24.9551H14.0586L14.3817 25.3431V25.8604L14.0586 26.2483L13.6063 26.313L13.2186 26.0544L13.0894 25.7957V25.3431L13.3478 25.0197L13.4771 24.9551Z" fill="#161527"/>
<path d="M57.1595 23.6641L57.6119 23.7287L57.935 24.1167V24.634L57.6765 24.9573L57.5472 25.022H57.0303L56.7072 24.6987L56.6426 24.5693V24.1167L56.9657 23.7287L57.1595 23.6641Z" fill="#161527"/>
<path d="M41.134 33.1035H41.5863L41.974 33.4268L42.0386 34.0088L41.7155 34.3968L41.5863 34.4614H41.1986L40.7463 34.0735L40.6816 33.6208L40.9401 33.2328L41.134 33.1035Z" fill="#161527"/>
<path d="M45.3986 30.2578L45.9802 30.3225L46.2387 30.6458L46.3033 31.0338L46.1094 31.4218L45.7863 31.6157L45.334 31.5511L45.0755 31.2924L44.9463 31.0338L45.0109 30.5811L45.2694 30.3225L45.3986 30.2578Z" fill="#161527"/>
<path d="M12.314 10.7305L12.6371 10.7951L12.9602 11.1184L13.0248 11.2478V11.7004L12.7663 12.0237L12.6371 12.0884H12.1201L11.797 11.8297L11.7324 11.7004V11.1184L11.9909 10.8598L12.314 10.7305Z" fill="#161527"/>
<path d="M38.097 2.83984L38.5494 2.90451L38.8725 3.22782L38.9371 3.6158L38.6786 4.06844L38.4847 4.19777H38.097L37.7093 3.93912L37.5801 3.74513V3.29249L37.8386 2.96917L38.097 2.83984Z" fill="#161527"/>
<path d="M81.3913 27.7363H81.8436L82.1667 28.0596L82.2313 28.189V28.6416L81.9082 29.0296L81.4559 29.0943L81.1328 28.9003L80.939 28.5769V28.189L81.1974 27.801L81.3913 27.7363Z" fill="#161527"/>
<path d="M52.5064 5.36328L52.9587 5.49261L53.2172 5.75126V6.33323L52.9587 6.65655L52.8295 6.72121H52.3771L52.054 6.52722L51.9248 6.26857V5.81592L52.2479 5.42794L52.5064 5.36328Z" fill="#161527"/>
<path d="M55.6087 35.625L55.9965 35.6897L56.3196 36.013L56.3842 36.4656L56.1903 36.7889L55.9318 36.9829L55.3503 36.9183L55.1564 36.7243L55.0918 36.5303V36.013L55.3503 35.6897L55.6087 35.625Z" fill="#161527"/>
<path d="M36.4811 14.8047H36.9335L37.2566 15.128L37.3212 15.71L36.9981 16.098L36.8689 16.1626H36.4811L36.158 15.9686L36.0288 15.71V15.1927L36.3519 14.8694L36.4811 14.8047Z" fill="#161527"/>
<path d="M79.9051 13.5762H80.4867L80.8744 14.0288L80.8098 14.5461L80.4867 14.8694H79.9051L79.6466 14.6108L79.582 14.4815V13.8995L79.9051 13.5762Z" fill="#161527"/>
</g>
<defs>
<clipPath id="clip0_386_2936">
<rect width="94" height="39" fill="white"/>
</clipPath>
</defs>
</svg>
