<svg width="31" height="26" viewBox="0 0 31 26" fill="none" xmlns="http://www.w3.org/2000/svg">
<path d="M20.7667 5.19961C20.7667 8.01626 18.4833 10.2996 15.6667 10.2996C12.85 10.2996 10.5667 8.01626 10.5667 5.19961C10.5667 2.38296 12.85 0.0996094 15.6667 0.0996094C18.4833 0.0996094 20.7667 2.38296 20.7667 5.19961Z" fill="white"/>
<path d="M29.2667 8.59961C29.2667 10.4774 27.7444 11.9996 25.8667 11.9996C23.9889 11.9996 22.4667 10.4774 22.4667 8.59961C22.4667 6.72184 23.9889 5.19961 25.8667 5.19961C27.7444 5.19961 29.2667 6.72184 29.2667 8.59961Z" fill="white"/>
<path d="M22.4667 20.4996C22.4667 16.7441 19.4222 13.6996 15.6667 13.6996C11.9112 13.6996 8.86669 16.7441 8.86669 20.4996V25.5996H22.4667V20.4996Z" fill="white"/>
<path d="M8.86669 8.59961C8.86669 10.4774 7.34446 11.9996 5.4667 11.9996C3.58893 11.9996 2.0667 10.4774 2.0667 8.59961C2.0667 6.72184 3.58893 5.19961 5.4667 5.19961C7.34446 5.19961 8.86669 6.72184 8.86669 8.59961Z" fill="white"/>
<path d="M25.8667 25.5996V20.4996C25.8667 18.7076 25.4045 17.0235 24.5929 15.56C25.0001 15.4553 25.4269 15.3996 25.8667 15.3996C28.6833 15.3996 30.9667 17.683 30.9667 20.4996V25.5996H25.8667Z" fill="white"/>
<path d="M6.74044 15.56C5.92884 17.0235 5.4667 18.7076 5.4667 20.4996V25.5996H0.366699V20.4996C0.366699 17.683 2.65005 15.3996 5.4667 15.3996C5.9065 15.3996 6.3333 15.4553 6.74044 15.56Z" fill="white"/>
</svg>
