<svg width="588" height="827" viewBox="0 0 588 827" fill="none" xmlns="http://www.w3.org/2000/svg">
<g filter="url(#filter0_ii_294_4720)">
<rect width="588" height="827" fill="#F4F5FF"/>
</g>
<circle cx="294.5" cy="401.5" r="214.5" fill="#ECEEFF"/>
<g clip-path="url(#clip0_294_4720)">
<path d="M376.771 439.552C376.506 438.792 376.139 437.813 375.713 436.659L309.988 376.607C308.343 375.102 306.154 374.371 303.937 374.561L296.299 375.219C294.214 375.394 292.363 376.65 291.423 378.521L283.727 393.833C282.332 396.595 280.246 398.962 277.661 400.671C273.446 403.462 268.012 404.12 263.444 402.658C259.111 401.27 256.511 396.872 257.202 392.401L262.195 360.227C263.106 354.339 266.998 349.342 272.491 346.975L289.396 339.699C250.269 334.745 227.504 340.225 220.91 342.226L195.838 409.336C205.282 426.577 286.18 475.086 300.661 483.678C302.101 484.54 303.746 484.978 305.435 484.978C310.854 484.978 316.039 482.845 319.872 479.031H324.087C330.741 479.031 336.998 475.89 340.963 470.571L346.03 470.118C353.344 469.461 359.41 464.215 361.099 457.114C368.707 456.165 374.979 450.729 376.962 443.351C377.299 442.094 377.241 440.779 376.8 439.552H376.771Z" fill="#E8BB9F"/>
<path d="M359.939 456.077C356.884 453.652 353.844 451.197 350.847 448.713L341.888 441.203L333.032 433.561C330.094 431.004 327.186 428.403 324.308 425.773C327.363 428.199 330.403 430.639 333.399 433.137L342.358 440.648L351.215 448.289C354.152 450.846 357.06 453.447 359.939 456.077Z" fill="#D19584"/>
<path d="M340.317 470.016C337.276 467.488 334.265 464.945 331.284 462.359L322.383 454.557L313.6 446.623C310.692 443.964 307.799 441.275 304.95 438.543C307.99 441.071 311.001 443.613 313.982 446.199L322.883 454.002L331.666 461.936C334.574 464.595 337.467 467.283 340.317 470.016Z" fill="#D19584"/>
<path d="M318.668 476.942C315.877 474.75 313.116 472.529 310.384 470.279L302.233 463.455L294.184 456.515C291.511 454.177 288.882 451.81 286.268 449.414C289.058 451.606 291.819 453.827 294.551 456.077L302.703 462.9L310.737 469.841C313.41 472.178 316.039 474.545 318.653 476.927L318.668 476.942Z" fill="#D19584"/>
<path d="M171.722 427.102L147.973 449.296L159.546 421.111L171.722 427.102Z" fill="#212E52"/>
<path d="M147.973 449.297L198.952 325.116L129.261 292.124L113.399 284C100.474 303.345 90.8686 324.897 85.3462 347.924C84.935 349.677 84.5384 351.431 84.1712 353.199C84.1125 353.506 84.0537 353.812 83.9803 354.119C83.6865 355.58 83.3928 357.056 83.1284 358.532C83.0403 358.985 82.9669 359.438 82.8934 359.891C82.6584 361.22 82.4381 362.55 82.2325 363.894C82.1444 364.435 82.0709 364.99 81.9975 365.531C81.8213 366.787 81.645 368.044 81.4981 369.3C81.4247 369.899 81.3513 370.513 81.2778 371.112C81.1456 372.325 81.0135 373.538 80.896 374.75C80.8372 375.393 80.7785 376.036 80.7197 376.679C80.6169 377.892 80.5288 379.104 80.4553 380.317C80.4113 380.96 80.3672 381.603 80.3232 382.246C80.2497 383.532 80.2057 384.817 80.1469 386.103C80.1322 386.673 80.0882 387.243 80.0735 387.827C80.0147 389.683 79.9854 391.539 79.9854 393.409C79.9854 395.074 80.0147 396.74 80.0588 398.391C80.0882 399.692 80.1469 400.992 80.2057 402.278C80.2057 402.585 80.2203 402.906 80.2497 403.213C80.4113 406.413 80.6463 409.598 80.9694 412.769L147.973 449.297Z" fill="#273866"/>
<path d="M197.542 328.578L159.546 421.111L186.453 434.363L195.809 409.32L220.88 342.21L221.879 339.551L197.542 328.578Z" fill="#CACACA"/>
<path opacity="0.21" d="M84.3622 414.61L96.2882 421.112L103.5 363.397L113.399 284C101.135 302.337 91.882 322.647 86.2568 344.33L85.3462 347.924C84.935 349.677 84.5384 351.431 84.1712 353.199C84.1125 353.506 84.0537 353.812 83.9803 354.119C83.6865 355.58 83.3928 357.056 83.1284 358.532C83.0403 358.985 82.9669 359.438 82.8934 359.891C82.6584 361.22 82.4381 362.55 82.2325 363.894C82.1444 364.435 82.0709 364.99 81.9975 365.531C81.8213 366.787 81.645 368.044 81.4981 369.3C81.4247 369.899 81.3513 370.513 81.2778 371.112C81.1456 372.325 81.0135 373.538 80.896 374.75C80.8372 375.393 80.7785 376.036 80.7197 376.679C80.6169 377.892 80.5288 379.104 80.4553 380.317C80.4113 380.96 80.3672 381.603 80.3232 382.246C80.2497 383.532 80.2057 384.817 80.1469 386.103C80.1322 386.673 80.0882 387.243 80.0735 387.827C80.0147 389.683 79.9854 391.539 79.9854 393.409C79.9854 395.074 80.0147 396.74 80.0588 398.391C80.0882 399.692 80.1469 400.977 80.2057 402.278C80.2057 402.585 80.2203 402.906 80.2497 403.213C80.4113 406.413 80.6463 409.598 80.9694 412.769L84.3622 414.61Z" fill="#212E52"/>
<path d="M129.79 424.635C129.79 426.578 131.376 428.156 133.329 428.156C135.283 428.156 136.869 426.578 136.869 424.635C136.869 422.691 135.283 421.113 133.329 421.113C131.376 421.113 129.79 422.691 129.79 424.635Z" fill="#CACACA"/>
<path d="M122.945 423.611C124.9 423.611 126.485 422.034 126.485 420.09C126.485 418.145 124.9 416.568 122.945 416.568C120.991 416.568 119.406 418.145 119.406 420.09C119.406 422.034 120.991 423.611 122.945 423.611Z" fill="#CACACA"/>
<path d="M133.344 421.113C133.623 421.113 133.902 421.157 134.166 421.216C132.609 421.581 131.449 422.969 131.449 424.635C131.449 426.3 132.609 427.674 134.166 428.054C133.902 428.112 133.623 428.156 133.344 428.156C131.39 428.156 129.804 426.578 129.804 424.635C129.804 422.691 131.39 421.113 133.344 421.113Z" fill="#B6B6B6"/>
<path d="M122.945 416.568C123.224 416.568 123.504 416.612 123.768 416.671C122.211 417.036 121.051 418.424 121.051 420.09C121.051 421.755 122.211 423.129 123.768 423.509C123.504 423.567 123.224 423.611 122.945 423.611C120.992 423.611 119.406 422.033 119.406 420.09C119.406 418.146 120.992 416.568 122.945 416.568Z" fill="#B6B6B6"/>
<path d="M390.048 327.935L441.027 452.116L507.722 415.763C508.559 408.414 509 400.962 509 393.408C509 354.206 497.368 317.591 477.231 286.498L459.739 294.958L390.048 327.935Z" fill="#3A62F1"/>
<path d="M391.473 331.398L367.121 342.371L402.561 437.184L429.454 423.931L391.473 331.398Z" fill="#CACACA"/>
<path d="M417.293 429.922L441.028 452.102L429.454 423.932L417.293 429.922Z" fill="#284199"/>
<path opacity="0.14" d="M507.722 415.748C508.559 408.398 509 400.947 509 393.393C509 354.205 497.382 317.59 477.246 286.512L492.726 423.93L507.722 415.762V415.748Z" fill="#273866"/>
<path d="M455.068 430.711C457.023 430.711 458.608 429.134 458.608 427.189C458.608 425.245 457.023 423.668 455.068 423.668C453.114 423.668 451.529 425.245 451.529 427.189C451.529 429.134 453.114 430.711 455.068 430.711Z" fill="#CACACA"/>
<path d="M468.992 422.66C468.992 424.603 467.406 426.181 465.452 426.181C463.499 426.181 461.913 424.603 461.913 422.66C461.913 420.717 463.499 419.139 465.452 419.139C467.406 419.139 468.992 420.717 468.992 422.66Z" fill="#CACACA"/>
<path d="M455.069 423.668C454.79 423.668 454.51 423.712 454.246 423.77C455.803 424.136 456.963 425.524 456.963 427.189C456.963 428.855 455.803 430.228 454.246 430.608C454.51 430.667 454.79 430.711 455.069 430.711C457.022 430.711 458.608 429.133 458.608 427.189C458.608 425.246 457.022 423.668 455.069 423.668Z" fill="#B6B6B6"/>
<path d="M465.452 419.139C465.173 419.139 464.894 419.183 464.63 419.241C466.187 419.606 467.347 420.994 467.347 422.66C467.347 424.326 466.187 425.699 464.63 426.079C464.894 426.137 465.173 426.181 465.452 426.181C467.406 426.181 468.992 424.603 468.992 422.66C468.992 420.717 467.406 419.139 465.452 419.139Z" fill="#B6B6B6"/>
<path d="M370.999 352.717L367.621 343.672L324.558 331.224C318.551 329.485 312.118 329.894 306.375 332.363L289.367 339.684L272.462 346.96C266.969 349.327 263.091 354.324 262.166 360.212L257.173 392.386C256.482 396.857 259.082 401.255 263.415 402.643C267.968 404.104 273.417 403.447 277.632 400.656C280.217 398.947 282.302 396.58 283.698 393.818L291.394 378.506C292.334 376.635 294.184 375.393 296.27 375.203L303.907 374.546C306.125 374.356 308.328 375.101 309.959 376.591L375.684 436.644L397.818 424.531L370.984 352.702L370.999 352.717Z" fill="#CF9B80"/>
<path opacity="0.14" d="M327.524 392.649L375.699 436.658L397.832 424.56L370.999 352.717L327.524 392.649Z" fill="#606060"/>
<path d="M238.299 434.51C237.256 436.424 236.096 438.25 234.951 440.091C233.761 441.903 232.586 443.729 231.293 445.468C232.336 443.554 233.497 441.728 234.642 439.887C235.832 438.075 237.007 436.248 238.299 434.51Z" fill="#B38671"/>
<path d="M260.257 445.469C258.979 448.143 257.569 450.743 256.174 453.344C254.734 455.93 253.31 458.517 251.768 461.044C253.045 458.37 254.455 455.77 255.851 453.169C257.29 450.583 258.715 447.996 260.257 445.469Z" fill="#B38671"/>
<path d="M279.13 459.174C278.116 461.38 276.971 463.528 275.825 465.676C274.65 467.809 273.49 469.942 272.197 472.002C273.211 469.796 274.356 467.648 275.502 465.5C276.677 463.367 277.837 461.234 279.13 459.174Z" fill="#B38671"/>
<path d="M221.145 416.202C221.145 416.202 211.466 420.893 214.3 438.046C217.135 455.185 228.694 448.142 228.694 448.142C228.694 448.142 229.722 471.228 249.55 464.186C249.55 464.186 254.661 480.156 269.539 474.516C269.539 474.516 271.375 491.275 285.813 484.305L294.551 480.083L287.002 474.209C287.002 474.209 292.436 455.886 280.158 457.304C280.158 457.304 279.688 436.176 261.74 442.517C261.74 442.517 258.435 423.026 239.078 433.356C239.078 433.356 235.846 408.152 221.145 416.217V416.202Z" fill="#CF9B80"/>
</g>
<defs>
<filter id="filter0_ii_294_4720" x="0" y="0" width="588" height="851" filterUnits="userSpaceOnUse" color-interpolation-filters="sRGB">
<feFlood flood-opacity="0" result="BackgroundImageFix"/>
<feBlend mode="normal" in="SourceGraphic" in2="BackgroundImageFix" result="shape"/>
<feColorMatrix in="SourceAlpha" type="matrix" values="0 0 0 0 0 0 0 0 0 0 0 0 0 0 0 0 0 0 127 0" result="hardAlpha"/>
<feOffset dy="24"/>
<feGaussianBlur stdDeviation="24"/>
<feComposite in2="hardAlpha" operator="arithmetic" k2="-1" k3="1"/>
<feColorMatrix type="matrix" values="0 0 0 0 0.780392 0 0 0 0 0.827451 0 0 0 0 0.917647 0 0 0 0.05 0"/>
<feBlend mode="normal" in2="shape" result="effect1_innerShadow_294_4720"/>
<feColorMatrix in="SourceAlpha" type="matrix" values="0 0 0 0 0 0 0 0 0 0 0 0 0 0 0 0 0 0 127 0" result="hardAlpha"/>
<feOffset dy="1"/>
<feGaussianBlur stdDeviation="0.5"/>
<feComposite in2="hardAlpha" operator="arithmetic" k2="-1" k3="1"/>
<feColorMatrix type="matrix" values="0 0 0 0 0.780392 0 0 0 0 0.827451 0 0 0 0 0.917647 0 0 0 0.12 0"/>
<feBlend mode="normal" in2="effect1_innerShadow_294_4720" result="effect2_innerShadow_294_4720"/>
</filter>
<clipPath id="clip0_294_4720">
<rect width="429" height="202" fill="white" transform="translate(80 284)"/>
</clipPath>
</defs>
</svg>
