<svg width="588" height="827" viewBox="0 0 588 827" fill="none" xmlns="http://www.w3.org/2000/svg">
<g filter="url(#filter0_ii_293_228)">
<rect width="588" height="827" fill="#F4F5FF"/>
</g>
<g clip-path="url(#clip0_293_228)">
<path d="M112.578 517.843C106.224 521.326 106.077 527.307 112.243 531.105L170.185 566.717C176.372 570.515 186.689 570.893 193.127 567.556L194.281 566.969C200.719 563.632 211.141 563.863 217.432 567.472L285.042 606.295C291.333 609.904 301.63 609.904 307.9 606.295L512.261 488.59C518.552 484.98 518.573 478.978 512.344 475.306L369.03 390.632C362.781 386.938 362.445 380.37 368.254 376.047L379.285 367.842C385.094 363.519 384.779 356.93 378.551 353.215L318.973 317.646C312.745 313.931 302.511 313.847 296.22 317.478L76.7813 444.08C70.4901 447.711 70.3852 453.838 76.5087 457.721L133.067 493.416C139.19 497.298 139.023 503.321 132.668 506.805L112.578 517.843Z" fill="#E6E8FF"/>
<path d="M112.579 523.131L132.669 512.093C137.093 509.659 139.065 502.461 137.471 499.166C137.618 501.034 137.89 503.615 132.669 506.826L112.579 517.864C108.154 520.298 106.749 523.907 108.363 527.16C109.118 525.67 110.502 524.264 112.579 523.131Z" fill="#635D7A"/>
<path d="M364.626 385.826C363.221 389.435 364.71 393.359 369.03 395.898L512.344 480.573C514.295 481.727 515.637 483.112 516.371 484.56C517.944 481.391 516.623 477.803 512.344 475.285L369.03 390.61C366.807 389.288 365.339 387.609 364.626 385.805V385.826Z" fill="#635D7A"/>
<path d="M76.7814 449.368L296.199 322.745C302.49 319.114 312.724 319.198 318.952 322.912L378.53 358.482C380.753 359.804 382.2 361.504 382.913 363.309C384.318 359.699 382.829 355.775 378.53 353.194L318.952 317.624C312.724 313.91 302.49 313.826 296.199 317.456L76.7814 444.08C72.4614 446.577 71.0563 450.27 72.6082 453.586C73.3421 452.033 74.7262 450.564 76.7814 449.368Z" fill="#635D7A"/>
<path d="M120.925 335.398V440.282L273.991 349.983" stroke="#8F9193" strokeWidth="0.71" stroke-miterlimit="10"/>
<path d="M117.968 350.863L124.091 347.232" stroke="#8F9193" strokeWidth="0.71" stroke-miterlimit="10"/>
<path d="M117.968 371.115L124.091 367.484" stroke="#8F9193" strokeWidth="0.71" stroke-miterlimit="10"/>
<path d="M117.968 390.841L124.091 387.189" stroke="#8F9193" strokeWidth="0.71" stroke-miterlimit="10"/>
<path d="M117.968 410.671L124.091 407.041" stroke="#8F9193" strokeWidth="0.71" stroke-miterlimit="10"/>
<path d="M117.968 429.999L124.091 426.348" stroke="#8F9193" strokeWidth="0.71" stroke-miterlimit="10"/>
<path d="M124.469 337.769C124.469 339.721 122.875 341.316 120.925 341.316C118.975 341.316 117.381 339.721 117.381 337.769C117.381 335.818 118.954 334.223 120.925 334.223C122.896 334.223 124.469 335.797 124.469 337.769Z" fill="#8F9193"/>
<path d="M277.535 349.982C277.535 351.934 275.941 353.528 273.991 353.528C272.04 353.528 270.447 351.955 270.447 349.982C270.447 348.009 272.04 346.436 273.991 346.436C275.941 346.436 277.535 348.009 277.535 349.982Z" fill="#8F9193"/>
<path d="M205.437 326.5L208.688 328.787L215.168 332.019L211.917 329.753L205.437 326.5Z" fill="#937DD2"/>
<path d="M146.908 425.046L246.959 365.994V298.213L235.929 317.75L226.219 308.496L215.168 332.02L208.688 328.788L203.508 336.573L182.747 332.02L171.066 357.328H156.156L146.908 373.129V425.046Z" fill="#9F92E6"/>
<path d="M143.657 422.759L146.908 425.046V373.129L143.657 370.842V422.759Z" fill="#937DD2"/>
<path d="M152.905 355.062L156.156 357.329L146.908 373.131L143.657 370.843L152.905 355.062Z" fill="#7659B1"/>
<path d="M152.905 355.062L156.156 357.329H171.066L167.816 355.062H152.905Z" fill="#937DD2"/>
<path d="M179.496 329.754L182.747 332.02L171.066 357.328L167.816 355.062L179.496 329.754Z" fill="#7659B1"/>
<path d="M179.496 329.754L182.747 332.02L203.508 336.574L200.257 334.287L179.496 329.754Z" fill="#937DD2"/>
<path d="M205.437 326.5L208.688 328.787L203.508 336.573L200.257 334.285L205.437 326.5Z" fill="#7659B1"/>
<path d="M222.969 306.209L226.219 308.496L215.168 332.021L211.917 329.754L222.969 306.209Z" fill="#7659B1"/>
<path d="M243.709 295.926L246.959 298.213L235.929 317.75L232.573 315.127L243.709 295.926Z" fill="#7659B1"/>
<path d="M202.795 341.484L206.045 343.772L218.775 346.164L215.524 343.898L202.795 341.484Z" fill="#9BC24D"/>
<path d="M150.137 425.864L250.189 366.812V321.82L240.941 337.664L226.534 335.125L218.775 346.163L206.045 343.771L199.209 363.937L188.409 371.849L166.117 371.492L158.19 388.762L150.137 396.149V425.864Z" fill="#A2C942"/>
<path d="M146.908 423.576L150.137 425.863V396.149L146.908 393.861V423.576Z" fill="#9BC24D"/>
<path d="M154.96 386.496L158.19 388.762L150.137 396.149L146.908 393.862L154.96 386.496Z" fill="#7AB552"/>
<path d="M154.96 386.497L158.19 388.763L166.117 371.492L162.866 369.205L154.96 386.497Z" fill="#9BC24D"/>
<path d="M185.179 369.562L188.409 371.849L166.117 371.492L162.866 369.205L185.179 369.562Z" fill="#7AB552"/>
<path d="M185.179 369.562L188.409 371.849L199.209 363.938L195.958 361.65L185.179 369.562Z" fill="#9BC24D"/>
<path d="M202.795 341.484L206.045 343.772L199.209 363.938L195.958 361.651L202.795 341.484Z" fill="#7AB552"/>
<path d="M223.297 332.861L215.532 343.893L218.772 346.177L226.537 335.145L223.297 332.861Z" fill="#7AB552"/>
<path d="M223.304 332.859L226.534 335.126L240.941 337.665L237.69 335.378L223.304 332.859Z" fill="#9BC24D"/>
<path d="M246.959 319.533L250.189 321.821L240.941 337.664L237.564 335.272L246.959 319.533Z" fill="#7AB552"/>
<path d="M211.938 371.346L215.168 373.633L221.669 376.886L218.418 374.598L211.938 371.346Z" fill="#6CB8B5"/>
<path d="M153.388 428.151L253.439 369.1V334.705L242.409 362.594L232.72 349.856L221.669 376.885L215.168 373.632L209.988 381.418L189.227 376.885L177.567 402.193H162.636L153.388 417.995V428.151Z" fill="#80CFC8"/>
<path d="M150.137 425.864L153.388 428.151V417.994L150.137 415.707V425.864Z" fill="#6CB8B5"/>
<path d="M159.406 399.906L162.636 402.194L153.388 417.995L150.137 415.708L159.406 399.906Z" fill="#5FA5A2"/>
<path d="M159.406 399.906L162.636 402.194H177.567L174.316 399.906H159.406Z" fill="#6CB8B5"/>
<path d="M185.997 374.598L189.227 376.885L177.567 402.193L174.317 399.906L185.997 374.598Z" fill="#5FA5A2"/>
<path d="M185.997 374.598L189.227 376.885L209.988 381.418L206.737 379.151L185.997 374.598Z" fill="#6CB8B5"/>
<path d="M211.938 371.346L215.168 373.633L209.988 381.418L206.737 379.152L211.938 371.346Z" fill="#5FA5A2"/>
<path d="M229.47 347.59L232.72 349.856L221.669 376.885L218.418 374.598L229.47 347.59Z" fill="#5FA5A2"/>
<path d="M250.189 332.418L253.439 334.705L242.409 362.594L239.682 359.027L250.189 332.418Z" fill="#5FA5A2"/>
<path d="M106.266 434.259C106.266 434.763 105.994 435.434 105.616 436.127L104.861 437.596L106.392 436.84V437.721L103.855 438.981V438.267L105.092 435.854C105.302 435.455 105.448 435.056 105.448 434.826C105.448 434.532 105.281 434.448 105.008 434.574C104.714 434.721 104.379 435.119 104.064 435.623L103.771 434.993C104.19 434.343 104.652 433.86 105.134 433.629C105.805 433.294 106.287 433.524 106.287 434.259H106.266Z" fill="#6D6E70"/>
<path d="M109.789 433.692C109.789 435.224 109.244 436.336 108.279 436.819C107.315 437.302 106.77 436.714 106.77 435.182C106.77 433.65 107.294 432.538 108.279 432.055C109.244 431.573 109.789 432.16 109.789 433.692ZM107.587 434.783C107.587 435.896 107.818 436.252 108.3 436.001C108.783 435.77 109.013 435.182 109.013 434.07C109.013 432.958 108.783 432.622 108.3 432.853C107.818 433.105 107.587 433.671 107.587 434.762V434.783Z" fill="#6D6E70"/>
<path d="M112.054 431.615C112.054 432.496 111.698 433.21 111.111 433.504C110.523 433.797 110.167 433.42 110.167 432.538C110.167 431.657 110.523 430.943 111.111 430.671C111.698 430.377 112.054 430.734 112.054 431.615ZM110.649 432.307C110.649 432.832 110.817 433.063 111.111 432.916C111.404 432.769 111.572 432.391 111.572 431.846C111.572 431.3 111.404 431.09 111.111 431.237C110.817 431.384 110.649 431.783 110.649 432.286V432.307ZM113.354 429.579L114.067 429.223L111.593 435.14L110.88 435.497L113.375 429.579H113.354ZM114.78 432.161C114.78 433.042 114.424 433.755 113.837 434.049C113.25 434.343 112.893 433.986 112.893 433.105C112.893 432.224 113.25 431.51 113.837 431.216C114.424 430.922 114.78 431.3 114.78 432.161ZM113.375 432.853C113.375 433.378 113.543 433.609 113.837 433.462C114.13 433.315 114.298 432.916 114.298 432.391C114.298 431.867 114.13 431.636 113.837 431.783C113.543 431.93 113.375 432.328 113.375 432.853Z" fill="#6D6E70"/>
<path d="M105.281 416.504V415.476L106.015 415.119V416.147L106.497 415.916V416.777L106.015 417.007V418.078L105.281 418.434V417.385L103.645 418.204V417.448L104.756 414.007L105.511 413.629L104.463 416.924L105.281 416.504Z" fill="#6D6E70"/>
<path d="M109.789 413.839C109.789 415.371 109.244 416.483 108.28 416.965C107.315 417.448 106.77 416.861 106.77 415.329C106.77 413.797 107.294 412.684 108.28 412.202C109.244 411.719 109.789 412.307 109.789 413.839ZM107.588 414.93C107.588 416.042 107.818 416.399 108.301 416.147C108.783 415.916 109.014 415.329 109.014 414.216C109.014 413.104 108.783 412.768 108.301 412.999C107.818 413.251 107.588 413.818 107.588 414.909V414.93Z" fill="#6D6E70"/>
<path d="M112.054 411.761C112.054 412.643 111.698 413.356 111.111 413.65C110.523 413.944 110.167 413.566 110.167 412.685C110.167 411.803 110.523 411.09 111.111 410.817C111.698 410.523 112.054 410.88 112.054 411.761ZM110.649 412.454C110.649 412.979 110.817 413.209 111.111 413.063C111.404 412.916 111.572 412.517 111.572 411.992C111.572 411.468 111.404 411.237 111.111 411.384C110.817 411.531 110.649 411.929 110.649 412.433V412.454ZM113.355 409.726L114.068 409.369L111.593 415.287L110.88 415.644L113.376 409.705L113.355 409.726ZM114.781 412.307C114.781 413.188 114.424 413.902 113.837 414.196C113.25 414.489 112.893 414.133 112.893 413.251C112.893 412.37 113.25 411.657 113.837 411.363C114.424 411.069 114.781 411.447 114.781 412.307ZM113.376 413C113.376 413.524 113.543 413.755 113.837 413.608C114.13 413.461 114.298 413.063 114.298 412.538C114.298 412.013 114.13 411.782 113.837 411.929C113.543 412.076 113.376 412.475 113.376 413Z" fill="#6D6E70"/>
<path d="M106.329 393.693L106.036 394.616C105.826 394.532 105.553 394.553 105.302 394.679C104.714 394.973 104.421 395.644 104.442 396.463C104.61 396.043 104.903 395.686 105.302 395.497C105.994 395.162 106.413 395.56 106.413 396.463C106.413 397.449 105.91 398.309 105.155 398.687C104.253 399.128 103.687 398.54 103.687 397.092C103.687 395.644 104.295 394.322 105.239 393.861C105.616 393.672 106.036 393.609 106.329 393.693ZM104.526 397.407C104.526 397.764 104.714 398.016 105.113 397.827C105.469 397.659 105.679 397.281 105.679 396.819C105.679 396.379 105.469 396.211 105.134 396.4C104.756 396.589 104.526 397.008 104.526 397.407Z" fill="#6D6E70"/>
<path d="M109.789 393.987C109.789 395.519 109.244 396.631 108.28 397.114C107.315 397.597 106.77 397.009 106.77 395.477C106.77 393.945 107.294 392.833 108.28 392.35C109.244 391.868 109.789 392.455 109.789 393.987ZM107.588 395.078C107.588 396.191 107.818 396.547 108.301 396.295C108.783 396.065 109.014 395.477 109.014 394.365C109.014 393.253 108.783 392.917 108.301 393.148C107.818 393.379 107.588 393.966 107.588 395.057V395.078Z" fill="#6D6E70"/>
<path d="M112.054 391.91C112.054 392.791 111.698 393.505 111.111 393.799C110.523 394.092 110.167 393.715 110.167 392.854C110.167 391.994 110.523 391.259 111.111 390.987C111.698 390.693 112.054 391.049 112.054 391.931V391.91ZM110.649 392.602C110.649 393.127 110.817 393.358 111.111 393.211C111.404 393.064 111.572 392.686 111.572 392.141C111.572 391.595 111.404 391.385 111.111 391.532C110.817 391.679 110.649 392.078 110.649 392.581V392.602ZM113.354 389.874L114.067 389.518L111.593 395.435L110.88 395.792L113.375 389.853L113.354 389.874ZM114.78 392.455C114.78 393.337 114.424 394.05 113.837 394.344C113.25 394.638 112.893 394.281 112.893 393.4C112.893 392.518 113.25 391.805 113.837 391.511C114.424 391.217 114.78 391.574 114.78 392.455ZM113.375 393.148C113.375 393.673 113.543 393.903 113.837 393.757C114.13 393.61 114.298 393.211 114.298 392.686C114.298 392.162 114.13 391.931 113.837 392.078C113.543 392.225 113.375 392.623 113.375 393.148Z" fill="#6D6E70"/>
<path d="M106.203 374.765C106.203 375.185 106.036 375.647 105.742 375.982C106.12 375.982 106.371 376.318 106.371 376.864C106.371 377.703 105.826 378.501 104.987 378.92C104.127 379.34 103.603 379.088 103.603 378.249C103.603 377.703 103.855 377.116 104.274 376.717C103.96 376.654 103.771 376.381 103.771 375.962C103.771 375.206 104.232 374.514 104.966 374.136C105.7 373.758 106.182 374.01 106.182 374.786L106.203 374.765ZM104.358 377.766C104.358 378.186 104.589 378.312 105.008 378.102C105.407 377.892 105.658 377.556 105.658 377.116C105.658 376.675 105.427 376.591 105.008 376.801C104.589 377.011 104.358 377.347 104.358 377.766ZM104.442 375.71C104.442 376.066 104.652 376.171 104.987 376.003C105.344 375.836 105.532 375.521 105.532 375.164C105.532 374.807 105.344 374.681 104.987 374.87C104.631 375.038 104.442 375.353 104.442 375.731V375.71Z" fill="#6D6E70"/>
<path d="M109.789 374.136C109.789 375.667 109.244 376.78 108.28 377.262C107.315 377.745 106.77 377.157 106.77 375.625C106.77 374.094 107.294 372.981 108.28 372.499C109.244 372.016 109.789 372.604 109.789 374.136ZM107.588 375.227C107.588 376.339 107.818 376.696 108.301 376.444C108.783 376.213 109.014 375.625 109.014 374.513C109.014 373.401 108.783 373.065 108.301 373.296C107.818 373.548 107.588 374.115 107.588 375.206V375.227Z" fill="#6D6E70"/>
<path d="M112.054 372.058C112.054 372.94 111.698 373.653 111.111 373.947C110.523 374.241 110.167 373.863 110.167 373.003C110.167 372.142 110.523 371.408 111.111 371.135C111.698 370.841 112.054 371.198 112.054 372.079V372.058ZM110.649 372.751C110.649 373.275 110.817 373.506 111.111 373.359C111.404 373.212 111.572 372.835 111.572 372.289C111.572 371.744 111.404 371.534 111.111 371.681C110.817 371.827 110.649 372.226 110.649 372.73V372.751ZM113.354 370.023L114.067 369.666L111.593 375.584L110.88 375.941L113.375 370.002L113.354 370.023ZM114.78 372.604C114.78 373.485 114.424 374.199 113.837 374.493C113.25 374.786 112.893 374.43 112.893 373.548C112.893 372.667 113.25 371.953 113.837 371.66C114.424 371.366 114.78 371.744 114.78 372.604ZM113.375 373.296C113.375 373.821 113.543 374.052 113.837 373.905C114.13 373.758 114.298 373.359 114.298 372.835C114.298 372.31 114.13 372.079 113.837 372.226C113.543 372.373 113.375 372.772 113.375 373.275V373.296Z" fill="#6D6E70"/>
<path d="M101.821 360.58V356.782L101.17 357.097V356.215L102.596 355.502V360.203L101.821 360.58Z" fill="#6D6E70"/>
<path d="M106.35 355.983C106.35 357.515 105.805 358.627 104.84 359.11C103.876 359.593 103.33 359.005 103.33 357.473C103.33 355.941 103.855 354.829 104.84 354.346C105.805 353.864 106.35 354.451 106.35 355.983ZM104.148 357.074C104.148 358.187 104.379 358.543 104.861 358.292C105.344 358.061 105.553 357.473 105.553 356.361C105.553 355.249 105.323 354.913 104.861 355.144C104.379 355.396 104.148 355.962 104.148 357.053V357.074Z" fill="#6D6E70"/>
<path d="M109.789 354.284C109.789 355.816 109.244 356.928 108.28 357.411C107.315 357.893 106.77 357.306 106.77 355.774C106.77 354.242 107.294 353.13 108.28 352.647C109.244 352.164 109.789 352.752 109.789 354.284ZM107.588 355.375C107.588 356.487 107.818 356.844 108.301 356.592C108.783 356.362 109.014 355.774 109.014 354.662C109.014 353.549 108.783 353.214 108.301 353.445C107.818 353.675 107.588 354.263 107.588 355.354V355.375Z" fill="#6D6E70"/>
<path d="M112.054 352.207C112.054 353.088 111.698 353.802 111.111 354.095C110.523 354.389 110.167 354.011 110.167 353.13C110.167 352.249 110.523 351.535 111.111 351.262C111.698 350.969 112.054 351.325 112.054 352.207ZM110.649 352.899C110.649 353.424 110.817 353.655 111.111 353.508C111.404 353.361 111.572 352.983 111.572 352.438C111.572 351.892 111.404 351.682 111.111 351.829C110.817 351.976 110.649 352.375 110.649 352.878V352.899ZM113.354 350.171L114.067 349.814L111.593 355.732L110.88 356.089L113.375 350.15L113.354 350.171ZM114.78 352.752C114.78 353.634 114.424 354.347 113.837 354.641C113.25 354.935 112.893 354.578 112.893 353.697C112.893 352.815 113.25 352.102 113.837 351.808C114.424 351.514 114.78 351.871 114.78 352.752ZM113.375 353.445C113.375 353.969 113.543 354.2 113.837 354.053C114.13 353.907 114.298 353.508 114.298 352.983C114.298 352.459 114.13 352.228 113.837 352.375C113.543 352.522 113.375 352.92 113.375 353.445Z" fill="#6D6E70"/>
<path d="M368.8 322.24C370.729 323.394 370.708 325.282 368.779 326.416L364.417 328.976C362.466 330.109 359.279 330.151 357.308 329.081L352.547 326.458C350.576 325.366 350.555 323.562 352.505 322.45L357.496 319.596C359.447 318.483 362.613 318.504 364.542 319.679L368.821 322.261L368.8 322.24Z" fill="#BFCDDF"/>
<path d="M361.208 329.858C360.034 329.921 358.839 329.753 357.832 329.333C357.643 329.249 357.475 329.165 357.287 329.081L352.526 326.458C351.646 325.975 351.142 325.346 351.058 324.695V420.366V420.429C351.058 420.45 351.058 420.492 351.058 420.513C351.058 420.555 351.058 420.639 351.079 420.723C351.205 421.331 351.687 421.919 352.526 422.381L357.287 425.004C358.377 425.612 359.866 425.864 361.292 425.78V329.921L361.187 329.858H361.208Z" fill="#717A96"/>
<path d="M368.779 326.415L364.417 328.976C364.249 329.081 364.06 329.164 363.871 329.248C363.116 329.584 362.215 329.773 361.313 329.836V425.758C362.445 425.696 363.557 425.402 364.417 424.898L368.779 422.338C369.701 421.792 370.184 421.079 370.226 420.344V324.422C370.184 325.156 369.701 325.87 368.779 326.415Z" fill="#606884"/>
<path d="M273.445 172.176L279.443 168.42C280.324 167.832 281.582 167.853 282.987 168.672L475.583 281.928C478.225 283.481 480.385 287.258 480.385 290.322V410.608C480.385 411.93 479.966 412.895 479.295 413.462V413.504L479.085 413.63C479.085 413.63 478.959 413.714 478.896 413.756L472.857 417.554L282.756 307.593L271.915 295.631L273.466 172.176H273.445Z" fill="#AEAEF2"/>
<g style="mix-blend-mode:multiply" opacity="0.4">
<path d="M472.857 417.554L472.521 289.231L479.211 286.041C479.924 287.447 480.385 288.958 480.385 290.343V410.629C480.385 411.951 479.966 412.916 479.295 413.483V413.525L479.085 413.651C479.085 413.651 478.959 413.735 478.896 413.777L472.857 417.575V417.554Z" fill="#AEAEF2"/>
</g>
<path d="M271.915 295.631C271.915 298.695 274.075 302.472 276.717 304.025L469.313 417.281C471.955 418.834 474.115 417.596 474.115 414.532V294.246C474.115 291.183 471.955 287.405 469.313 285.831L276.717 172.596C274.075 171.043 271.915 172.281 271.915 175.345V295.631Z" fill="#D8D8FD"/>
<path d="M278.793 286.377C278.793 291.267 282.232 297.289 286.426 299.766L460.127 402.487C464.321 404.964 467.761 403.012 467.761 398.122V303.207C467.761 298.318 464.321 292.295 460.127 289.819L286.426 187.097C282.232 184.621 278.793 186.573 278.793 191.462V286.377Z" fill="#453D8D"/>
<g style="mix-blend-mode:multiply" opacity="0.2">
<path d="M462.958 404.144L283.574 298.065C280.932 296.512 278.772 292.714 278.772 289.65V188.145C278.772 187.81 278.814 187.495 278.856 187.201L464.384 404.69C463.923 404.585 463.462 404.417 462.958 404.123V404.144Z" fill="#453D8D"/>
</g>
<path d="M302.637 234.145L285.063 223.694V194.924L302.637 205.374V234.145Z" fill="#A0FFFF"/>
<path d="M302.637 267.973L285.063 257.522V228.752L302.637 239.202V267.973Z" fill="#A0FFFF"/>
<path d="M302.637 301.612L285.063 291.161V262.391L302.637 272.841V301.612Z" fill="#A0FFFF"/>
<path d="M346.34 327.464L313.814 308.074V303.646L346.34 323.037V327.464Z" fill="#A0FFFF"/>
<path d="M414.705 368.134L382.179 348.744V344.316L414.705 363.707V368.134Z" fill="#A0FFFF"/>
<path d="M366.619 339.657L351.289 330.508V326.08L366.619 335.23V339.657Z" fill="#A0FFFF"/>
<path d="M379.704 347.463L372.05 342.846V338.418L379.704 343.035V347.463Z" fill="#A0FFFF"/>
<path d="M314.255 221.869V293.071L426.05 359.195" stroke="#A6B7B7" strokeWidth="0.79" stroke-miterlimit="10"/>
<path d="M413.174 322.827L398.201 282.284L373.644 292.399L361.334 274.94L349.779 280.606L346.109 263.922L330.57 275.443L322.265 249.674L323.524 249.254L331.262 273.303L346.969 261.635L350.702 278.696L361.774 273.261L374.105 290.762L398.956 280.543L413.866 320.897L448.363 301.066L449.013 302.22L413.174 322.827Z" fill="#DA8232"/>
<path d="M416.256 321.714C416.256 323.141 415.103 324.275 413.698 324.275C412.293 324.275 411.119 323.12 411.119 321.714C411.119 320.308 412.272 319.154 413.698 319.154C415.124 319.154 416.256 320.308 416.256 321.714Z" fill="#DA8232"/>
<path d="M400.843 281.843C400.843 283.27 399.69 284.404 398.284 284.404C396.879 284.404 395.705 283.249 395.705 281.843C395.705 280.437 396.858 279.283 398.284 279.283C399.71 279.283 400.843 280.437 400.843 281.843Z" fill="#DA8232"/>
<path d="M376.013 291.455C376.013 292.882 374.86 294.015 373.455 294.015C372.05 294.015 370.897 292.861 370.897 291.455C370.897 290.049 372.05 288.895 373.455 288.895C374.86 288.895 376.013 290.049 376.013 291.455Z" fill="#DA8232"/>
<path d="M363.704 274.015C363.704 275.442 362.55 276.575 361.145 276.575C359.74 276.575 358.587 275.421 358.587 274.015C358.587 272.609 359.74 271.455 361.145 271.455C362.55 271.455 363.704 272.609 363.704 274.015Z" fill="#DA8232"/>
<path d="M352.883 279.83C352.883 281.257 351.729 282.39 350.324 282.39C348.919 282.39 347.766 281.236 347.766 279.83C347.766 278.424 348.919 277.27 350.324 277.27C351.729 277.27 352.883 278.424 352.883 279.83Z" fill="#DA8232"/>
<path d="M348.898 262.328C348.898 263.755 347.745 264.888 346.34 264.888C344.935 264.888 343.781 263.734 343.781 262.328C343.781 260.922 344.935 259.768 346.34 259.768C347.745 259.768 348.898 260.922 348.898 262.328Z" fill="#DA8232"/>
<path d="M332.059 273.953C332.059 275.38 330.905 276.513 329.5 276.513C328.095 276.513 326.942 275.359 326.942 273.953C326.942 272.547 328.095 271.393 329.5 271.393C330.905 271.393 332.059 272.547 332.059 273.953Z" fill="#DA8232"/>
<path d="M271.097 510.937C269.964 511.588 268.098 511.609 266.965 510.937L215.105 481.223C213.972 480.572 213.972 479.502 215.105 478.851L303.119 428.13C304.251 427.48 306.118 427.48 307.25 428.13L358.65 457.824C359.782 458.475 359.782 459.566 358.65 460.217L271.097 510.937Z" fill="#E5E5E6"/>
<path d="M256.186 493.038C255.054 493.689 253.188 493.71 252.055 493.038L231.504 481.769C230.371 481.119 230.371 480.048 231.504 479.398L303.35 438.267C304.482 437.617 306.349 437.617 307.481 438.267L327.571 449.515C328.703 450.166 328.703 451.257 327.571 451.907L256.207 493.038H256.186Z" fill="#D4D4D5"/>
<path d="M252.726 490.52C252.454 490.688 251.992 490.688 251.72 490.52L249.811 489.555C249.539 489.387 249.539 489.135 249.811 488.967L319.791 448.718C320.063 448.55 320.525 448.55 320.797 448.718L322.601 449.683C322.873 449.851 322.873 450.103 322.601 450.271L252.747 490.52H252.726Z" fill="#272425"/>
<path d="M248.343 487.748C248.071 487.916 247.609 487.916 247.337 487.748L245.428 486.783C245.156 486.615 245.156 486.363 245.428 486.216L315.408 445.946C315.68 445.799 316.142 445.799 316.414 445.946L318.218 446.911C318.491 447.079 318.491 447.331 318.218 447.499L248.364 487.769L248.343 487.748Z" fill="#272425"/>
<path d="M243.73 485.314C243.457 485.482 242.996 485.482 242.723 485.314L240.815 484.349C240.542 484.181 240.542 483.929 240.815 483.761L310.794 443.491C311.067 443.344 311.528 443.344 311.801 443.491L313.604 444.456C313.877 444.624 313.877 444.876 313.604 445.044L243.751 485.314H243.73Z" fill="#272425"/>
<path d="M250.105 476.333C249.832 476.501 249.371 476.501 249.098 476.333L247.19 475.368C246.917 475.2 246.917 474.948 247.19 474.801L306.265 440.805C306.537 440.659 306.999 440.659 307.271 440.805L309.075 441.771C309.347 441.939 309.347 442.191 309.075 442.358L250.105 476.354V476.333Z" fill="#272425"/>
<path d="M239.284 482.418C239.011 482.565 238.55 482.586 238.277 482.418L236.369 481.453C236.096 481.285 236.096 481.033 236.369 480.886L241.423 478.2C241.696 478.032 242.157 478.032 242.43 478.2L244.233 479.165C244.506 479.333 244.506 479.585 244.233 479.753L239.284 482.439V482.418Z" fill="#272425"/>
<path d="M303.371 488.776C302.616 489.217 301.4 489.217 300.645 488.776L287.37 480.907C286.615 480.487 286.615 479.774 287.37 479.354L307.879 467.707C308.613 467.267 309.851 467.267 310.606 467.707L323.566 475.577C324.321 476.018 324.321 476.71 323.566 477.151L303.371 488.776Z" fill="white"/>
<path d="M359.489 459.125C359.447 459.524 359.174 459.922 358.65 460.216L271.097 510.937C269.964 511.588 268.098 511.609 266.965 510.937L214.266 479.942V484.244C214.308 484.622 214.601 485.021 215.105 485.314L266.965 515.029C268.098 515.68 269.964 515.68 271.097 515.029L358.65 464.308C359.237 463.952 359.53 463.511 359.489 463.049V459.125Z" fill="#CFD1D2"/>
<g style="mix-blend-mode:multiply" opacity="0.4">
<path d="M358.65 460.217L271.097 510.937C270.468 511.294 269.629 511.441 268.811 511.42V515.512C269.629 515.554 270.489 515.407 271.118 515.051L358.671 464.33C359.258 463.973 359.552 463.532 359.51 463.071V459.146C359.468 459.545 359.195 459.944 358.671 460.238L358.65 460.217Z" fill="#CFD1D2"/>
</g>
<path d="M212.756 478.347L202.648 412.517C202.438 411.216 203.193 409.621 204.326 408.97L290.537 359.572L291.942 358.774C292.529 358.438 293.074 358.417 293.535 358.648L291.585 357.578C291.145 357.368 290.6 357.368 290.033 357.704L202.417 407.9C201.285 408.551 200.53 410.145 200.74 411.447L210.848 477.277C210.952 477.906 211.267 478.326 211.707 478.557H211.686L213.637 479.669C213.217 479.438 212.903 478.997 212.798 478.389L212.756 478.347Z" fill="#E5E5E6"/>
<path d="M215.21 479.522C214.077 480.172 212.966 479.647 212.756 478.367L202.648 412.537C202.438 411.236 203.193 409.641 204.326 408.991L291.942 358.795C293.074 358.144 294.185 358.669 294.374 359.97L304.503 424.835C304.713 426.136 303.937 427.731 302.804 428.381L215.189 479.522H215.21Z" fill="#272425"/>
<g style="mix-blend-mode:multiply" opacity="0.4">
<path d="M291.585 357.578C291.145 357.368 290.6 357.368 290.033 357.704L202.417 407.9C201.788 408.257 201.306 408.907 201.012 409.642L202.9 410.817H202.921C203.214 410.041 203.718 409.369 204.368 408.991L290.579 359.593L291.984 358.795C292.571 358.459 293.116 358.438 293.577 358.669L291.627 357.599L291.585 357.578Z" fill="#E5E5E6"/>
</g>
<path d="M217.999 473.709C216.95 474.318 215.923 473.835 215.734 472.618L206.36 412.999C206.171 411.803 206.863 410.313 207.912 409.726L289.132 363.181C290.18 362.572 291.208 363.076 291.396 364.272L300.791 423.009C300.98 424.205 300.267 425.695 299.218 426.304L217.999 473.709Z" fill="#453D8D"/>
<g style="mix-blend-mode:multiply" opacity="0.3">
<path d="M300.812 423.009L291.417 364.271L218.02 473.708L299.24 426.303C300.288 425.695 301.001 424.205 300.812 423.009Z" fill="#453D8D"/>
</g>
<path d="M260.15 409.158L266.756 399.19C265.33 394.364 262.499 391.909 258.955 392.412L256.27 405.801C258.032 405.549 259.437 406.766 260.15 409.179V409.158Z" fill="#86BD64"/>
<path d="M256.291 427.835L258.955 436.817C262.499 431.466 265.33 424.331 266.756 417.133L260.15 418.056C259.437 421.624 258.032 425.17 256.27 427.814L256.291 427.835Z" fill="#B2D5F2"/>
<path d="M266.756 399.191L260.15 409.159C260.485 410.271 260.674 411.615 260.674 413.188C260.674 414.762 260.485 416.42 260.15 418.078L266.756 417.155C267.427 413.839 267.783 410.502 267.783 407.334C267.783 404.165 267.427 401.437 266.756 399.212V399.191Z" fill="#F5E44D"/>
<path d="M253.649 430.857C252.705 431.634 251.825 432.032 251.028 432.158L248.364 445.547C250 445.316 251.783 444.477 253.67 442.924C255.536 441.371 257.34 439.272 258.976 436.796L256.312 427.814C255.494 429.053 254.614 430.081 253.691 430.857H253.649Z" fill="#5799E7"/>
<path d="M253.649 407.08C254.572 406.304 255.473 405.905 256.27 405.779L258.955 392.391C257.319 392.621 255.536 393.461 253.649 395.014C251.783 396.567 249.979 398.665 248.343 401.141L251.007 410.123C251.825 408.906 252.705 407.857 253.628 407.08H253.649Z" fill="#5799E7"/>
<path d="M251.028 410.124L248.364 401.143C244.82 406.494 241.989 413.629 240.542 420.827L247.148 419.903C247.861 416.336 249.266 412.789 251.028 410.145V410.124Z" fill="#DE932F"/>
<path d="M247.148 428.801L240.542 438.769C241.968 443.595 244.799 446.05 248.364 445.568L251.028 432.179C249.266 432.431 247.861 431.214 247.148 428.801Z" fill="#86BD64"/>
<path d="M246.624 424.77C246.624 423.196 246.812 421.539 247.148 419.881L240.542 420.804C239.871 424.12 239.515 427.456 239.515 430.625C239.515 433.794 239.871 436.522 240.542 438.746L247.148 428.778C246.812 427.666 246.624 426.323 246.624 424.749V424.77Z" fill="#F5E44D"/>
<path d="M282.526 428.82L295.045 421.35L295.087 420.615L282.547 428.086L282.526 428.82Z" fill="#989AC9"/>
<path d="M282.001 426.198L294.542 418.748L294.563 418.014L282.043 425.484L282.001 426.198Z" fill="#989AC9"/>
<path d="M281.498 423.596L294.039 416.147L294.06 415.412L281.519 422.883L281.498 423.596Z" fill="#989AC9"/>
<path d="M280.995 421.016L293.514 413.545L293.535 412.811L281.016 420.281L280.995 421.016Z" fill="#989AC9"/>
<path d="M280.471 418.412L293.011 410.942L293.032 410.207L280.513 417.678L280.471 418.412Z" fill="#989AC9"/>
<path d="M279.967 415.811L292.487 408.34L292.529 407.605L279.988 415.076L279.967 415.811Z" fill="#989AC9"/>
<path d="M216.992 430.417L229.512 422.946L229.554 422.232L217.013 429.682L216.992 430.417Z" fill="#989AC9"/>
<path d="M216.468 427.815L229.008 420.344L229.029 419.631L216.51 427.081L216.468 427.815Z" fill="#989AC9"/>
<path d="M215.964 425.213L228.505 417.743L228.526 417.029L215.985 424.479L215.964 425.213Z" fill="#989AC9"/>
<path d="M215.461 422.611L227.981 415.141L228.002 414.406L215.482 421.877L215.461 422.611Z" fill="#989AC9"/>
<path d="M214.937 420.008L227.477 412.537L227.498 411.803L214.979 419.273L214.937 420.008Z" fill="#989AC9"/>
<path d="M214.434 417.406L226.953 409.936L226.995 409.201L214.455 416.672L214.434 417.406Z" fill="#989AC9"/>
<path d="M288.817 501.201V573.263C288.796 573.494 288.775 573.746 288.775 573.977C288.775 579.957 298.505 584.784 310.501 584.784C322.496 584.784 332.101 579.999 332.226 574.082V501.18H288.817V501.201Z" fill="#7D849F"/>
<path d="M332.226 501.936C332.226 507.917 322.496 512.743 310.501 512.743C298.505 512.743 288.775 507.896 288.775 501.936C288.775 495.976 298.505 491.129 310.501 491.129C322.496 491.129 332.226 495.976 332.226 501.936Z" fill="#DE932F"/>
<path d="M310.48 501.936L322.139 492.807C318.763 491.737 314.779 491.107 310.48 491.107C304.566 491.107 299.218 492.283 295.297 494.192L310.48 501.936Z" fill="#86BD64"/>
<path d="M288.754 501.935C288.754 502.187 288.754 502.418 288.796 502.648L310.48 501.935L295.297 494.191C291.271 496.164 288.754 498.892 288.754 501.935Z" fill="#5799E7"/>
<path d="M313.269 507.854L312.493 508.148L311.025 505.441L309.997 505.84L310.459 506.217L309.809 506.469L308.718 505.567L311.235 504.602L311.759 505.042L313.269 507.833V507.854Z" fill="white"/>
<path d="M316.016 504.77C317.086 505.672 317.19 506.365 316.268 506.721C315.345 507.078 314.234 506.784 313.143 505.861C312.074 504.959 311.99 504.287 312.912 503.909C313.835 503.553 314.947 503.846 316.016 504.749V504.77ZM313.898 505.588C314.674 506.239 315.219 506.427 315.681 506.239C316.142 506.071 316.016 505.714 315.24 505.063C314.464 504.413 313.94 504.224 313.479 504.413C313.017 504.581 313.122 504.938 313.898 505.588Z" fill="white"/>
<path d="M317.526 503.384C318.134 503.909 318.176 504.35 317.61 504.56C317.065 504.769 316.331 504.581 315.722 504.077C315.114 503.573 315.072 503.112 315.639 502.902C316.205 502.692 316.918 502.86 317.526 503.384ZM316.184 503.888C316.561 504.203 316.939 504.329 317.211 504.224C317.484 504.119 317.442 503.867 317.065 503.552C316.708 503.258 316.331 503.133 316.037 503.238C315.764 503.342 315.827 503.594 316.184 503.888ZM317.778 502.083L318.449 501.811L319.371 505.483L318.679 505.735L317.757 502.062L317.778 502.083ZM321.468 503.489C322.077 504.014 322.119 504.455 321.552 504.664C321.007 504.874 320.273 504.685 319.665 504.182C319.057 503.678 319.015 503.217 319.581 503.007C320.147 502.797 320.86 502.986 321.468 503.489ZM320.126 503.993C320.504 504.308 320.881 504.434 321.154 504.329C321.427 504.224 321.364 503.972 321.007 503.657C320.651 503.363 320.252 503.217 319.98 503.342C319.707 503.447 319.77 503.699 320.126 503.993Z" fill="white"/>
<path d="M306.789 495.514C307.061 495.745 307.166 496.081 307.166 496.438V497.172L308.362 496.732L308.865 497.151L306.936 497.886L306.537 497.55L306.474 496.354C306.474 496.165 306.39 495.955 306.265 495.85C306.097 495.703 305.866 495.682 305.656 495.766C305.447 495.85 305.3 496.06 305.279 496.312L304.608 496.039C304.671 495.703 304.881 495.451 305.237 495.326C305.74 495.137 306.369 495.221 306.789 495.556V495.514Z" fill="white"/>
<path d="M310.123 495.033C310.983 495.746 311.046 496.313 310.312 496.586C309.578 496.858 308.697 496.628 307.837 495.914C306.978 495.201 306.915 494.655 307.649 494.361C308.383 494.088 309.263 494.319 310.123 495.033ZM308.446 495.683C309.054 496.208 309.494 496.355 309.872 496.208C310.228 496.061 310.144 495.788 309.536 495.264C308.928 494.739 308.487 494.592 308.131 494.739C307.753 494.886 307.858 495.159 308.466 495.662L308.446 495.683Z" fill="white"/>
<path d="M311.319 493.92C311.801 494.34 311.843 494.697 311.402 494.865C310.962 495.032 310.375 494.865 309.892 494.466C309.41 494.067 309.368 493.71 309.809 493.543C310.249 493.375 310.836 493.522 311.319 493.92ZM310.249 494.34C310.543 494.592 310.857 494.676 311.067 494.592C311.298 494.508 311.235 494.319 310.941 494.067C310.647 493.836 310.354 493.731 310.123 493.815C309.892 493.899 309.955 494.088 310.249 494.34ZM311.528 492.913L312.073 492.703L312.807 495.62L312.262 495.83L311.528 492.913ZM314.464 494.025C314.946 494.445 314.988 494.802 314.527 494.97C314.087 495.137 313.52 494.991 313.017 494.592C312.535 494.193 312.493 493.836 312.933 493.668C313.374 493.501 313.961 493.647 314.443 494.046L314.464 494.025ZM313.395 494.445C313.688 494.697 313.982 494.781 314.212 494.697C314.443 494.613 314.38 494.424 314.087 494.172C313.793 493.92 313.499 493.836 313.269 493.92C313.059 494.004 313.101 494.193 313.395 494.445Z" fill="white"/>
<path d="M295.087 501.097L293.326 499.607L292.906 499.775L292.487 499.418L293.389 499.082L295.57 500.908L295.087 501.097Z" fill="white"/>
<path d="M296.849 499.083C297.562 499.691 297.625 500.153 297.017 500.384C296.408 500.615 295.674 500.405 294.961 499.817C294.248 499.23 294.185 498.768 294.815 498.537C295.423 498.306 296.157 498.495 296.87 499.083H296.849ZM295.444 499.628C295.947 500.069 296.324 500.195 296.618 500.069C296.933 499.943 296.849 499.712 296.324 499.293C295.821 498.852 295.465 498.747 295.15 498.852C294.836 498.978 294.919 499.209 295.423 499.628H295.444Z" fill="white"/>
<path d="M297.834 498.159C298.254 498.495 298.275 498.789 297.897 498.936C297.541 499.082 297.058 498.936 296.639 498.621C296.241 498.285 296.22 497.991 296.576 497.844C296.954 497.697 297.415 497.844 297.834 498.159ZM296.954 498.495C297.205 498.705 297.457 498.789 297.625 498.705C297.813 498.642 297.771 498.474 297.52 498.264C297.268 498.075 297.017 497.97 296.849 498.054C296.66 498.117 296.702 498.285 296.954 498.495ZM298.023 497.299L298.463 497.131L299.072 499.565L298.61 499.733L298.002 497.299H298.023ZM300.477 498.243C300.896 498.579 300.896 498.873 300.54 499.02C300.183 499.166 299.701 499.02 299.281 498.705C298.883 498.369 298.841 498.075 299.218 497.928C299.596 497.781 300.078 497.907 300.477 498.243ZM299.596 498.579C299.848 498.789 300.099 498.873 300.267 498.789C300.456 498.726 300.414 498.558 300.162 498.348C299.91 498.138 299.659 498.054 299.491 498.138C299.302 498.201 299.344 498.369 299.596 498.579Z" fill="white"/>
<path d="M454.004 472.052C459.456 475.326 459.414 480.656 453.941 483.867L387.631 524.515C382.137 527.725 373.098 527.851 367.52 524.787L354.036 517.38C348.458 514.316 348.416 509.217 353.931 506.069L421.981 464.56C427.497 461.392 436.451 461.497 441.904 464.77L453.983 472.052H454.004Z" fill="#EEF1F3"/>
<path d="M378.593 526.969C375.258 527.137 371.882 526.655 369.072 525.5C368.548 525.291 368.023 525.06 367.562 524.787L354.078 517.379C351.582 515.994 350.198 514.231 349.926 512.385L349.863 530.852V530.998C349.863 530.998 349.863 531.166 349.863 531.229C349.863 531.376 349.905 531.586 349.947 531.859C350.324 533.601 351.666 535.258 354.036 536.56L367.52 543.967C370.624 545.667 374.797 546.38 378.823 546.129V527.116L378.551 526.969H378.593Z" fill="#A0A8C1"/>
<path d="M453.941 483.846L387.631 524.494C387.149 524.788 386.625 525.04 386.079 525.271C383.94 526.215 381.424 526.76 378.844 526.928V546.109C382.074 545.899 385.199 545.08 387.631 543.653L453.941 503.005C456.562 501.453 457.925 499.438 458.051 497.381V478.201C457.946 480.258 456.583 482.293 453.941 483.825V483.846Z" fill="#7D849F"/>
<path d="M442.847 482.649L430.537 489.637V427.92L435.633 419.715L442.847 420.932V482.649Z" fill="#5799E7"/>
<path d="M421.205 485.377L430.537 489.637V427.92L421.205 423.66V485.377Z" fill="#487FBF"/>
<path d="M427.266 414.91L421.205 423.661L430.537 427.921L435.633 419.716L427.266 414.91Z" fill="#62AAD5"/>
<path d="M433.494 416.694L427.266 414.91L435.633 419.716L442.847 420.933L433.494 416.694Z" fill="#487FBF"/>
<path d="M425.861 492.491L413.551 499.479V445.988L418.647 437.783L425.861 439V492.491Z" fill="#86BD64"/>
<path d="M404.219 495.219L413.551 499.479V445.988L404.219 441.729V495.219Z" fill="#6FA44B"/>
<path d="M410.28 432.979L404.219 441.729L413.551 445.989L418.647 437.784L410.28 432.979Z" fill="#9BC24D"/>
<path d="M416.529 434.762L410.28 432.979L418.647 437.784L425.861 439.001L416.529 434.762Z" fill="#6FA44B"/>
<path d="M408.917 501.997L396.607 508.964V425.947L401.703 417.742L408.917 418.959V501.997Z" fill="#E3B54F"/>
<path d="M387.275 504.725L396.607 508.964V425.947L387.275 421.688V504.725Z" fill="#DE932F"/>
<path d="M393.335 412.938L387.275 421.688L396.607 425.948L401.703 417.743L393.335 412.938Z" fill="#F0D07C"/>
<path d="M399.585 414.721L393.335 412.938L401.703 417.743L408.917 418.96L399.585 414.721Z" fill="#E5AB42"/>
<path d="M391.091 511.735L378.803 518.702V451.529L383.878 443.324L391.091 444.562V511.735Z" fill="#F5E44D"/>
<path d="M369.471 514.462L378.803 518.701V451.528L369.471 447.289V514.462Z" fill="#F0CE31"/>
<path d="M375.51 438.539L369.471 447.29L378.803 451.529L383.877 443.324L375.51 438.539Z" fill="#F5E27B"/>
<path d="M381.759 440.302L375.51 438.539L383.877 443.324L391.091 444.562L381.759 440.302Z" fill="#F0CE31"/>
<path d="M156.533 536.268L171.339 544.012L171.485 522.208L156.68 514.465L156.533 536.268Z" fill="#919395"/>
<path d="M156.68 514.465L171.485 522.208L180.629 517.927L165.173 510.184L156.68 514.465Z" fill="#59595B"/>
<path d="M171.339 544.012L180.482 538.304L180.629 517.928L171.485 522.209L171.339 544.012Z" fill="#6D6E70"/>
<path d="M164.062 516.352L169.242 519.08L169.325 508.021L164.167 505.629L164.062 516.352Z" fill="#937DD2"/>
<path d="M164.167 505.63L169.325 508.022L173.729 505.882L168.466 503.531L164.167 505.63Z" fill="#901232"/>
<path d="M169.242 519.08L173.645 516.688L173.729 505.881L169.325 508.021L169.242 519.08Z" fill="#7659B1"/>
<path d="M139.337 470.06C144.852 491.57 160.497 508.84 174.505 508.84C188.514 508.84 196.084 491.087 190.695 468.948C185.242 446.578 168.969 428.762 154.625 429.391C140.491 430 133.759 448.299 139.358 470.06H139.337Z" fill="#9F92E6"/>
<path d="M190.674 468.947C185.221 446.577 168.948 428.761 154.604 429.39C150.473 429.579 146.971 431.3 144.244 434.154C148.564 429.201 154.835 426.243 160.811 425.991C175.868 425.361 192.939 443.177 198.664 465.548C204.326 487.666 198.118 506.51 177.189 508.609C189.625 506.51 195.728 489.638 190.695 468.947H190.674Z" fill="#7659B1"/>
<path d="M143.93 469.892C148.46 487.54 161.273 501.705 172.765 501.705C184.257 501.705 190.464 487.142 186.039 468.99C181.572 450.628 168.214 436.022 156.449 436.547C144.853 437.051 139.337 452.055 143.93 469.892Z" fill="white"/>
<path d="M147.935 462.651C148.082 462.651 148.229 462.651 148.376 462.609C149.697 462.358 150.557 461.098 150.305 459.776C148.292 448.906 154.751 445.59 155.023 445.465C156.219 444.877 156.722 443.45 156.156 442.254C155.59 441.058 154.164 440.533 152.968 441.1C152.549 441.289 142.839 445.989 145.566 460.679C145.775 461.833 146.803 462.651 147.935 462.651Z" fill="#E5E5E6"/>
</g>
<defs>
<filter id="filter0_ii_293_228" x="0" y="0" width="588" height="851" filterUnits="userSpaceOnUse" color-interpolation-filters="sRGB">
<feFlood flood-opacity="0" result="BackgroundImageFix"/>
<feBlend mode="normal" in="SourceGraphic" in2="BackgroundImageFix" result="shape"/>
<feColorMatrix in="SourceAlpha" type="matrix" values="0 0 0 0 0 0 0 0 0 0 0 0 0 0 0 0 0 0 127 0" result="hardAlpha"/>
<feOffset dy="24"/>
<feGaussianBlur stdDeviation="24"/>
<feComposite in2="hardAlpha" operator="arithmetic" k2="-1" k3="1"/>
<feColorMatrix type="matrix" values="0 0 0 0 0.780392 0 0 0 0 0.827451 0 0 0 0 0.917647 0 0 0 0.05 0"/>
<feBlend mode="normal" in2="shape" result="effect1_innerShadow_293_228"/>
<feColorMatrix in="SourceAlpha" type="matrix" values="0 0 0 0 0 0 0 0 0 0 0 0 0 0 0 0 0 0 127 0" result="hardAlpha"/>
<feOffset dy="1"/>
<feGaussianBlur stdDeviation="0.5"/>
<feComposite in2="hardAlpha" operator="arithmetic" k2="-1" k3="1"/>
<feColorMatrix type="matrix" values="0 0 0 0 0.780392 0 0 0 0 0.827451 0 0 0 0 0.917647 0 0 0 0.12 0"/>
<feBlend mode="normal" in2="effect1_innerShadow_293_228" result="effect2_innerShadow_293_228"/>
</filter>
<clipPath id="clip0_293_228">
<rect width="445" height="441" fill="white" transform="translate(72 168)"/>
</clipPath>
</defs>
</svg>
