<svg width="588" height="827" viewBox="0 0 588 827" fill="none" xmlns="http://www.w3.org/2000/svg">
<g filter="url(#filter0_ii_294_4530)">
<rect width="588" height="827" fill="#F4F5FF"/>
</g>
<path d="M358.172 515.055L358.421 297L521.909 392.616L521.979 609.607L358.172 515.055Z" fill="#1E1F27"/>
<path d="M516.586 503.56L522.511 500.155V391.766L516.586 395.172V503.56Z" fill="#B3B4B5"/>
<path d="M352.495 408.83L516.587 503.56V395.171L352.495 300.441V408.83Z" fill="#CBCCCD"/>
<path d="M516.586 395.171L522.511 391.765L358.42 297L352.495 300.441L516.586 395.171Z" fill="#F3F7F6"/>
<path d="M413.732 375.268L457.372 400.458C460.103 402.055 462.339 401.097 462.339 398.365V379.561C462.339 376.829 460.103 373.317 457.372 371.72L413.732 346.53C411 344.933 408.765 345.891 408.765 348.623V367.427C408.765 370.159 411 373.672 413.732 375.268Z" fill="#282A35"/>
<path d="M413.697 372.43L457.443 397.691C458.72 398.436 459.749 397.975 459.749 396.698V387.651L411.355 359.729V368.776C411.355 370.053 412.384 371.685 413.662 372.43H413.697Z" fill="#1B1D23"/>
<path d="M438.746 368.207C438.746 370.194 437.326 371.01 435.623 370.017C433.885 369.023 432.501 366.575 432.501 364.588C432.501 362.601 433.92 361.785 435.623 362.779C437.362 363.772 438.746 366.22 438.746 368.207Z" fill="#CBCCCD"/>
<path d="M369.419 508.42L506.404 587.503L367.219 668.218L223.741 570.615L369.419 508.42Z" fill="#282A35"/>
<path d="M369.417 440.051L220.653 525.946V594.314L369.417 508.419V440.051Z" fill="#1E1F27"/>
<path d="M215.295 591.193L220.653 594.315V525.946L215.295 522.824V591.193Z" fill="#CBCCCD"/>
<path d="M220.653 525.947L369.417 440.052L364.025 436.965L215.296 522.824L220.653 525.947Z" fill="#282A35"/>
<g style="mix-blend-mode:screen">
<path d="M354.091 515.657L490.686 594.527V531.161L354.091 452.291V515.657Z" fill="#2B00FF"/>
</g>
<path d="M354.091 452.965L490.686 531.835V518.708L354.091 439.838V452.965Z" fill="url(#paint0_linear_294_4530)"/>
<path opacity="0.5" d="M373.746 460.77L380.487 464.673V457.932L373.746 454.029V460.77Z" fill="url(#paint1_linear_294_4530)"/>
<path opacity="0.5" d="M365.373 455.944L372.149 459.847V453.106L365.373 449.203V455.944Z" fill="url(#paint2_linear_294_4530)"/>
<path d="M371.085 453.532V458.144L366.473 455.483V450.871L371.085 453.532ZM367.254 455.164L370.269 456.903V453.887L367.254 452.148V455.164Z" fill="#FFFFD7"/>
<path opacity="0.5" d="M357.036 451.12L363.777 455.023V448.282L357.036 444.379V451.12Z" fill="url(#paint3_linear_294_4530)"/>
<path d="M362.677 449.311L360.867 450.056L362.677 452.894L362.073 453.142L360.299 450.304L358.49 451.049L357.887 450.162L359.696 449.382L357.887 446.543L358.49 446.295L360.299 449.133L362.073 448.388L362.677 449.311Z" fill="#FFFFD7"/>
<path d="M374.917 460.416L379.245 462.9V462.083L374.917 459.564V460.416Z" fill="#FFFFD7"/>
<path d="M479.013 600.949L483.306 598.465V533.396L479.013 535.88V600.949Z" fill="#1E1F27"/>
<path d="M344.122 523.035L479.013 600.948V535.879L344.122 458.002V523.035Z" fill="#1E1F27"/>
<path d="M479.013 535.88L483.306 533.396L348.379 455.52L344.121 458.003L479.013 535.88Z" fill="#282A35"/>
<g style="mix-blend-mode:screen">
<path d="M330.284 529.387L466.914 608.293V544.892L330.284 466.021V529.387Z" fill="#2B00FF"/>
</g>
<path d="M330.284 466.696L466.914 545.566V532.439L330.284 453.568V466.696Z" fill="url(#paint4_linear_294_4530)"/>
<path opacity="0.5" d="M349.939 474.536L356.716 478.404V471.662L349.939 467.76V474.536Z" fill="url(#paint5_linear_294_4530)"/>
<path opacity="0.5" d="M341.602 469.675L348.343 473.577V466.836L341.602 462.934V469.675Z" fill="url(#paint6_linear_294_4530)"/>
<path d="M347.278 467.298V471.91L342.666 469.249V464.637L347.278 467.298ZM343.446 468.93L346.462 470.668V467.652L343.446 465.914V468.93Z" fill="#FFFFD7"/>
<path opacity="0.5" d="M333.228 464.85L339.969 468.753V462.012L333.228 458.109V464.85Z" fill="url(#paint7_linear_294_4530)"/>
<path d="M338.871 463.041L337.061 463.786L338.871 466.66L338.267 466.873L336.494 464.035L334.684 464.815L334.081 463.893L335.89 463.148L334.081 460.274L334.684 460.025L336.494 462.899L338.267 462.119L338.871 463.041Z" fill="#FFFFD7"/>
<path d="M351.111 474.146L355.439 476.63V475.814L351.111 473.33V474.146Z" fill="#FFFFD7"/>
<path d="M455.207 614.679L459.5 612.195V547.162L455.207 549.61V614.679Z" fill="#1E1F27"/>
<path d="M320.315 536.768L455.207 614.68V549.611L320.315 471.734V536.768Z" fill="#1E1F27"/>
<path d="M455.207 549.61L459.5 547.162L324.572 469.25L320.315 471.734L455.207 549.61Z" fill="#282A35"/>
<path opacity="0.8" d="M306.619 517.325L443.25 596.195V424.405L306.619 345.535V517.325Z" fill="url(#paint8_linear_294_4530)"/>
<path d="M306.619 346.209L443.25 425.08V411.952L306.619 333.082V346.209Z" fill="url(#paint9_linear_294_4530)"/>
<path d="M370.27 396.27L347.386 383.072V384.81L370.27 398.009V396.27ZM373.711 405.14V406.878L354.73 395.915V394.177L373.711 405.14ZM375.485 407.907V406.169L398.192 419.296V421.035L375.485 407.907ZM382.191 404.892L372.044 399.037V397.299L382.191 403.153V404.892ZM383.965 405.92V404.182L396.595 411.455V413.194L383.965 405.92ZM353.098 381.227L342.951 375.373V373.634L353.098 379.488V381.227ZM345.612 382.043V383.781L324.537 371.612V369.874L345.612 382.043ZM332.13 381.121L352.956 393.148V394.886L332.13 382.859V381.121ZM400.001 422.063V420.325L432.429 439.058V440.796L400.001 422.063ZM398.369 407.34L375.663 394.212V392.474L398.369 405.601V407.34ZM373.853 393.183L354.872 382.22V380.482L373.853 391.445V393.183ZM400.143 408.369V406.63L432.358 425.221V426.96L400.143 408.369ZM341.177 374.309L326.772 365.971V364.232L341.177 372.57V374.309ZM398.369 412.484L432.5 432.175V433.914L398.369 414.223V412.484ZM373.711 416.245V417.983L354.73 407.02V405.282L373.711 416.245ZM375.485 419.012V417.274L398.192 430.401V432.14L375.485 419.012ZM375.343 424.086V425.824L362.713 418.551V416.813L375.343 424.086ZM360.939 415.784V417.522L350.792 411.668V409.93L360.939 415.784ZM360.3 422.276V424.015L341.319 413.052V411.313L360.3 422.276ZM383.042 442.287V444.025L370.412 436.752V435.013L383.042 442.287ZM362.074 423.305L384.781 436.433V438.171L362.074 425.044V423.305ZM358.491 428.095L368.638 433.949V435.687L358.491 429.833V428.095ZM326.134 395.667L349.018 408.865V410.604L326.134 397.405V395.667ZM386.59 439.2V437.461L432.429 463.929V465.667L386.59 439.2ZM407.984 444.664V442.925L432.394 457.01V458.749L407.984 444.664ZM332.094 392.225L352.92 404.253V405.991L332.094 393.964V392.225ZM399.966 433.168V431.43L432.394 450.163V451.901L399.966 433.168ZM356.646 427.066V428.805L333.762 415.606V413.868L356.646 427.066ZM339.509 410.284V412.023L329.362 406.169V404.43L339.509 410.284ZM415.648 462.865V461.126L432.075 470.634V472.373L415.648 462.865ZM384.781 443.315L413.838 460.097V461.836L384.781 445.054V443.315ZM330.285 391.197V392.935L318.115 385.91V384.172L330.285 391.197ZM377.082 426.853V425.115L406.139 441.896V443.635L377.082 426.853ZM327.553 403.401V405.14L321.273 401.521V399.783L327.553 403.401ZM325.176 408.901L331.988 412.839V414.577L325.176 410.639V408.901ZM383.007 452.576V454.314L370.376 447.041V445.302L383.007 452.576ZM386.413 463.148V461.41L408.836 474.36V476.098L386.413 463.148ZM358.455 438.384L368.602 444.238V445.976L358.455 440.122V438.384ZM356.681 437.355V439.093L333.797 425.895V424.157L356.681 437.355ZM339.367 435.971L326.098 428.308V426.569L339.367 434.233V435.971ZM415.648 473.118V471.38L432.075 480.888V482.626L415.648 473.118ZM384.781 453.569L413.838 470.351V472.089L384.781 455.307V453.569ZM325.176 419.154L331.988 423.092V424.831L325.176 420.893V419.154ZM406.423 486.707L432.252 501.608V503.346L406.423 488.445V486.707ZM413.732 484.046L432.181 494.725V496.463L413.732 485.784V484.046ZM398.831 484.046V482.307L404.649 485.642V487.381L398.831 484.046ZM410.61 477.092V475.353L432.145 487.771V489.509L410.61 477.092ZM383.255 468.186V466.448L411.958 483.017V484.755L383.255 468.186ZM321.805 469.393V467.654L335.074 475.318V477.056L321.805 469.393ZM399.966 514.522V512.784L432.394 531.517V533.255L399.966 514.522ZM400.108 500.827V499.089L432.323 517.68V519.418L400.108 500.827ZM409.723 511.506L432.465 524.634V526.372L409.723 513.245V511.506ZM432.145 512.429L421.502 506.291V504.553L432.145 510.69V512.429ZM419.728 505.262L390.67 488.48V486.742L419.728 503.524V505.262Z" fill="#FFFFD7"/>
<path opacity="0.5" d="M326.31 354.014L333.051 357.917V351.176L326.31 347.273V354.014Z" fill="url(#paint10_linear_294_4530)"/>
<path opacity="0.5" d="M317.937 349.188L324.678 353.091V346.35L317.937 342.447V349.188Z" fill="url(#paint11_linear_294_4530)"/>
<path d="M323.613 346.811V351.424L319.001 348.763V344.15L323.613 346.811ZM319.782 348.443L322.797 350.182V347.166L319.782 345.428V348.443Z" fill="#FFFFD7"/>
<path opacity="0.5" d="M309.563 344.364L316.304 348.267V341.526L309.563 337.623V344.364Z" fill="url(#paint12_linear_294_4530)"/>
<path d="M315.206 342.555L313.397 343.3L315.206 346.138L314.638 346.387L312.829 343.548L311.02 344.329L310.452 343.406L312.226 342.626L310.452 339.787L311.02 339.539L312.829 342.377L314.638 341.632L315.206 342.555Z" fill="#FFFFD7"/>
<path d="M327.482 353.66L331.775 356.143V355.327L327.482 352.844V353.66Z" fill="#FFFFD7"/>
<path d="M431.4 628.411L435.693 625.963V560.895L431.4 563.378V628.411Z" fill="#1E1F27"/>
<path d="M296.508 550.534L431.4 628.41V563.377L296.508 485.465V550.534Z" fill="#1E1F27"/>
<path d="M431.4 563.378L435.693 560.894L300.766 483.018L296.509 485.466L431.4 563.378Z" fill="#282A35"/>
<g style="mix-blend-mode:screen">
<path d="M282.671 556.885L419.301 635.756V572.39L282.671 493.52V556.885Z" fill="#2B00FF"/>
</g>
<path d="M282.671 494.194L419.301 573.064V559.937L282.671 481.066V494.194Z" fill="url(#paint13_linear_294_4530)"/>
<path opacity="0.5" d="M302.362 501.999L309.103 505.902V499.161L302.362 495.258V501.999Z" fill="url(#paint14_linear_294_4530)"/>
<path opacity="0.5" d="M293.989 497.173L300.73 501.075V494.334L293.989 490.432V497.173Z" fill="url(#paint15_linear_294_4530)"/>
<path d="M299.665 494.761V499.373L295.052 496.712V492.1L299.665 494.761ZM295.833 496.393L298.849 498.131V495.115L295.833 493.377V496.393Z" fill="#FFFFD7"/>
<path opacity="0.5" d="M285.615 492.348L292.356 496.251V489.51L285.615 485.607V492.348Z" fill="url(#paint16_linear_294_4530)"/>
<path d="M291.257 490.539L289.448 491.284L291.257 494.123L290.69 494.371L288.88 491.533L287.071 492.278L286.503 491.391L288.313 490.61L286.503 487.772L287.071 487.523L288.88 490.362L290.69 489.617L291.257 490.539Z" fill="#FFFFD7"/>
<path d="M303.533 501.644L307.826 504.128V503.312L303.533 500.793V501.644Z" fill="#FFFFD7"/>
<path d="M407.629 642.177L411.886 639.694V574.625L407.629 577.109V642.177Z" fill="#1E1F27"/>
<path d="M272.701 564.266L407.628 642.178V577.109L272.701 499.232V564.266Z" fill="#1E1F27"/>
<path d="M407.629 577.108L411.886 574.625L276.995 496.748L272.702 499.232L407.629 577.108Z" fill="#282A35"/>
<g style="mix-blend-mode:screen">
<path d="M258.865 570.616L395.495 649.521V586.12L258.865 507.25V570.616Z" fill="#2B00FF"/>
</g>
<path d="M258.865 507.924L395.495 586.794V573.667L258.865 494.797V507.924Z" fill="url(#paint17_linear_294_4530)"/>
<path opacity="0.5" d="M278.555 515.765L285.296 519.667V512.891L278.555 508.988V515.765Z" fill="url(#paint18_linear_294_4530)"/>
<path opacity="0.5" d="M270.183 510.905L276.924 514.808V508.067L270.183 504.164V510.905Z" fill="url(#paint19_linear_294_4530)"/>
<path d="M275.858 508.526V513.138L271.246 510.478V505.865L275.858 508.526ZM272.027 510.158L275.042 511.897V508.881L272.027 507.142V510.158Z" fill="#FFFFD7"/>
<path opacity="0.5" d="M261.808 506.079L268.55 509.982V503.241L261.808 499.338V506.079Z" fill="url(#paint20_linear_294_4530)"/>
<path d="M267.451 504.269L265.642 505.014L267.451 507.888L266.883 508.101L265.074 505.263L263.265 506.043L262.697 505.121L264.506 504.376L262.697 501.502L263.265 501.289L265.074 504.127L266.883 503.347L267.451 504.269Z" fill="#FFFFD7"/>
<path d="M279.726 515.375L284.055 517.858V517.042L279.726 514.559V515.375Z" fill="#FFFFD7"/>
<path d="M383.823 655.907L388.081 653.424V588.391L383.823 590.839V655.907Z" fill="#1E1F27"/>
<path d="M248.895 577.994L383.822 655.907V590.838L248.895 512.961V577.994Z" fill="#1E1F27"/>
<path d="M383.823 590.839L388.08 588.391L253.188 510.479L248.895 512.962L383.823 590.839Z" fill="#282A35"/>
<path d="M511.015 521.832L362.286 607.692V676.06L511.015 590.2V521.832Z" fill="#1E1F27"/>
<path d="M356.894 672.972L362.287 676.059V607.69L356.894 604.604V672.972Z" fill="#CBCCCD"/>
<path d="M362.286 607.691L511.015 521.831L505.658 518.709L356.894 604.604L362.286 607.691Z" fill="#282A35"/>
<path d="M370.092 687.34L375.981 683.899V575.51L370.092 578.916V687.34Z" fill="#B3B4B5"/>
<path d="M206 592.576L370.091 687.341V578.917L206 484.188V592.576Z" fill="#CBCCCD"/>
<path d="M370.092 578.917L375.981 575.511L211.926 480.781L206.001 484.187L370.092 578.917Z" fill="#F3F7F6"/>
<path d="M267.237 559.047L310.876 584.238C313.608 585.834 315.843 584.876 315.843 582.144V563.34C315.843 560.608 313.608 557.096 310.876 555.499L267.237 530.309C264.505 528.713 262.27 529.671 262.27 532.403V551.206C262.27 553.938 264.505 557.451 267.237 559.047Z" fill="#282A35"/>
<path d="M267.165 556.209L310.911 581.471C312.188 582.216 313.217 581.754 313.217 580.477V571.43L264.823 543.508V552.555C264.823 553.832 265.852 555.464 267.129 556.209H267.165Z" fill="#1B1D23"/>
<path d="M292.25 551.986C292.25 553.973 290.867 554.789 289.128 553.796C287.39 552.802 286.006 550.354 286.006 548.368C286.006 546.381 287.425 545.565 289.128 546.558C290.867 547.552 292.25 550 292.25 551.986Z" fill="#CBCCCD"/>
<path d="M194.241 322.638C221.606 338.417 246.392 339.895 264.268 329.513L238.726 344.364C220.85 354.746 196.063 353.303 168.699 337.489C158.936 331.851 149.516 324.769 140.612 316.587L166.155 301.736C175.059 309.918 184.478 317 194.241 322.638Z" fill="#58BAD0"/>
<path d="M74.2635 200.771C71.8571 189.496 70.5851 178.357 70.5851 167.597C70.6882 136.554 81.6203 114.724 99.2903 104.48L124.833 89.6289C107.163 99.9078 96.2307 121.737 96.1275 152.746C96.1275 163.506 97.3651 174.679 99.8059 185.92L115.07 177.051C109.26 208.609 109.569 232.983 110.738 254.572C82.3078 234.736 66.5629 217.788 58.9999 209.641L74.2635 200.771Z" fill="#58BAD0"/>
<path d="M127.272 97.9132C116.821 97.5695 107.367 99.804 99.2887 104.479L124.831 89.6283C129.678 86.8093 135.041 84.8842 140.817 83.8528C151.955 81.8589 163.54 83.5434 174.06 87.0156C180.729 89.2157 187.639 92.3097 194.755 96.435C221.501 111.905 245.668 138.032 263.304 168.009L237.761 182.86C220.091 152.848 195.958 126.722 169.281 111.32C156.665 103.998 141.848 98.3601 127.203 97.9132H127.272Z" fill="#58BAD0"/>
<path d="M264.886 305.002L249.622 313.872C256.257 302.183 268.599 280.457 276.299 239.582C283.725 247.936 294.897 260.587 305.692 281.282L290.428 290.151C286.234 308.681 276.987 322.088 264.233 329.514L238.69 344.365C251.41 336.973 260.657 323.566 264.886 305.002Z" fill="#58BAD0"/>
<path opacity="0.8" d="M126.894 263.784L227.62 321.916V185.507L126.894 127.34V263.784Z" fill="url(#paint21_linear_294_4530)"/>
<path d="M126.894 127.925L227.62 186.058V175.263L126.894 117.131V127.925Z" fill="url(#paint22_linear_294_4530)"/>
<path d="M135.729 194.962L146.317 201.081V199.671L135.729 193.552V194.962ZM139.579 201.425L151.336 208.197V209.606L139.579 202.834V201.425ZM171.069 199.809L181.142 205.619V207.028L171.069 201.218V199.809ZM147.074 211.428L156.252 216.723V218.132L147.074 212.838V211.428ZM162.853 210.638L147.727 201.906V200.496L162.853 209.228V210.638ZM152.746 209.022L160.584 213.56V214.969L152.746 210.432V209.022ZM169.625 200.393L161.546 195.718V194.308L169.625 198.984V200.393ZM160.103 194.893L141.848 184.373V182.964L160.103 193.483V194.893ZM182.414 221.914L164.297 211.463V210.053L182.414 220.504V221.914ZM161.993 214.351L179.904 224.698V226.108L161.993 215.76V214.351ZM157.662 217.513L167.734 223.323V224.733L157.662 218.923V217.513ZM160.103 203.384L141.848 192.865V191.455L160.103 201.975V203.384ZM135.007 187.467L140.439 190.596V192.005L135.007 188.877V187.467ZM166.222 229.992L174.3 234.668V236.077L166.222 231.402V229.992ZM146.42 181.348L138.342 176.673V175.263L146.42 179.939V181.348ZM135.007 178.976L140.439 182.104V183.514L135.007 180.386V178.976ZM136.245 218.304L147.761 224.939V226.348L136.245 219.713V218.304ZM135.076 211.979L145.148 217.788V219.198L135.076 213.388V211.979ZM158.693 231.264L173.819 239.996V241.406L158.693 232.674V231.264ZM180.454 250.928L172.375 246.253V244.843L180.454 249.519V250.928ZM149.171 225.764L157.249 230.439V231.849L149.171 227.173V225.764ZM152.711 233.464L170.966 243.984V245.393L152.711 234.874V233.464ZM146.592 218.613L164.847 229.133V230.542L146.592 220.023V218.613ZM161.581 202.765L169.66 207.441V208.85L161.581 204.175V202.765ZM175.779 236.902V235.493L185.851 241.302V242.712L175.779 236.902ZM169.178 224.148L192.349 237.521V238.93L169.178 225.558V224.148ZM181.348 225.523L204.243 238.724V240.134L181.348 226.933V225.523ZM191.971 180.076V181.486L181.898 175.676V174.266L191.971 180.076ZM193.793 239.79V238.38L198.434 241.062V242.471L193.793 239.79ZM182.585 270.73L205.756 284.102V285.512L182.585 272.139V270.73ZM193.277 187.914L175.16 177.463V176.054L193.277 186.505V187.914ZM183.892 278.568V277.158L201.802 287.506V288.915L183.892 278.568ZM199.877 241.853L220.47 253.747V255.157L199.877 243.262V241.853ZM220.332 292.491V293.9L207.2 286.337V284.928L220.332 292.491ZM220.401 299.607L203.212 289.706V288.297L220.401 298.197V299.607ZM220.401 243.778L203.212 233.877V232.467L220.401 242.368V243.778ZM175.057 192.143L164.984 186.333V184.923L175.057 190.733V192.143ZM211.909 257.701V256.291L220.401 261.173V262.582L211.909 257.701ZM183.892 222.704V221.295L201.802 231.642V233.052L183.892 222.704ZM182.585 202.147L164.469 191.696V190.286L182.585 200.737V202.147ZM158.624 175.573L173.751 184.305V185.714L158.624 176.982V175.573ZM220.435 249.45L205.722 240.959V239.549L220.435 248.04V249.45ZM182.62 206.409L205.79 219.782V221.192L182.62 207.819V206.409ZM181.21 215.485L171.138 209.675V208.266L181.21 214.076V215.485ZM220.366 238.071L207.234 230.508V229.099L220.366 236.662V238.071ZM205.825 229.683L182.654 216.31V214.901L205.825 228.273V229.683ZM207.234 220.607L220.366 228.17V229.58L207.234 222.017V220.607ZM193.449 256.944L220.676 272.655V274.064L193.449 258.354V256.944ZM158.762 155.187L173.888 163.919V165.328L158.762 156.596V155.187ZM194.858 176.02L220.538 190.836V192.246L194.858 177.429V176.02ZM149.239 149.686L157.318 154.362V155.771L149.239 151.096V149.686ZM193.449 180.867L220.676 196.577V197.987L193.449 182.276V180.867ZM175.297 164.744L193.414 175.195V176.604L175.297 166.153V164.744ZM163.059 190.871L147.933 182.139V180.729L163.059 189.461V190.871ZM136.313 142.227L147.83 148.861V150.271L136.313 143.636V142.227ZM131.982 171.516L136.967 174.404V175.813L131.982 172.926V171.516ZM134.526 146.868L151.336 156.562V157.971L134.526 148.277V146.868ZM134.526 222.945L151.336 232.639V234.049L134.526 224.354V222.945ZM157.215 167.047L140.576 157.456V156.046L157.215 165.638V167.047ZM162.956 266.432L147.83 257.701V256.291L162.956 265.023V266.432ZM146.42 256.876L135.832 250.756V249.347L146.42 255.466V256.876ZM140.542 247.834L135.11 244.706V243.296L140.542 246.425V247.834ZM139.167 164.366V165.775L129.472 160.172V158.762L139.167 164.366ZM194.755 263.373L220.641 278.293V279.702L194.755 264.748V263.338V263.373ZM137.001 240.134L130.125 236.18V234.771L137.001 238.724V240.134ZM184.029 265.882L220.573 286.99V288.4L184.029 267.292V265.882ZM220.435 305.313L205.722 296.822V295.413L220.435 303.904V305.313ZM204.278 295.997L181.382 282.796V281.387L204.278 294.588V295.997ZM179.973 281.971L162.062 271.623V270.214L179.973 280.562V281.971ZM160.653 270.833L152.815 266.295V264.885L160.653 269.423V270.833ZM154.052 180.111L135.798 169.591V168.182L154.052 178.701V180.111ZM220.607 203.728L194.721 188.774V187.364L220.607 202.284V203.694V203.728ZM199.671 206.444L176.501 193.071V191.661L199.671 205.034V206.444ZM201.081 207.269V205.859L220.538 217.101V218.51L201.081 207.269ZM220.573 212.872L194.686 197.952V196.543L220.573 211.497V212.907V212.872ZM193.277 197.127L175.16 186.677V185.267L193.277 195.718V197.127ZM180.488 174.954L172.41 170.279V168.869L180.488 173.544V174.954ZM140.542 165.259L157.181 174.851V176.26L140.542 166.669V165.259ZM163.54 185.611L155.462 180.936V179.526L163.54 184.201V185.611ZM183.995 201.665L220.538 222.773V224.183L183.995 203.075V201.665ZM152.711 157.49L170.966 168.01V169.419L152.711 158.9V157.49ZM173.716 176.707L158.59 167.975V166.566L173.716 175.298V176.707ZM175.263 240.924L193.38 251.375V252.785L175.263 242.334V240.924ZM164.331 265.917L182.448 276.368V277.777L164.331 267.326V265.917ZM161.581 258.663L169.66 263.338V264.748L161.581 260.073V258.663ZM171.103 265.573V264.164L181.176 269.973V271.383L171.103 265.573ZM141.917 247.284L160.171 257.804V259.213L141.917 248.694V247.284ZM147.899 245.084L163.025 253.816V255.225L147.899 246.494V245.084ZM175.16 252.131L193.277 262.582V263.992L175.16 253.541V252.131ZM138.376 239.584L146.455 244.259V245.668L138.376 240.993V239.584ZM187.261 242.162L210.431 255.535V256.944L187.261 243.571V242.162ZM164.434 254.641L182.551 265.092V266.501L164.434 256.05V254.641ZM194.79 252.166L220.47 266.982V268.392L194.79 253.575V252.166ZM181.898 251.788V250.378L191.971 256.188V257.597L181.898 251.788Z" fill="#FFFFD7"/>
<path opacity="0.5" d="M144.048 135.384L150.099 138.857V132.806L144.048 129.334V135.384Z" fill="#5471D8"/>
<path opacity="0.5" d="M136.588 131.053L142.604 134.525V128.509L136.588 125.037V131.053Z" fill="#5471D8"/>
<path d="M141.643 128.921V133.046L137.518 130.674V126.549L141.643 128.921ZM138.239 130.365L140.955 131.912V129.196L138.239 127.649V130.365Z" fill="#FFFFD7"/>
<path opacity="0.5" d="M129.095 126.756L135.146 130.228V124.177L129.095 120.705V126.756Z" fill="#5471D8"/>
<path d="M134.148 125.105L132.532 125.793L134.148 128.337L133.632 128.543L132.016 125.999L130.401 126.687L129.885 125.862L131.501 125.208L129.885 122.664L130.401 122.424L132.016 124.968L133.632 124.28L134.148 125.105Z" fill="#FFFFD7"/>
<path d="M145.115 135.04L148.965 137.274V136.518L145.115 134.283V135.04Z" fill="#FFFFD7"/>
<defs>
<filter id="filter0_ii_294_4530" x="0" y="0" width="588" height="851" filterUnits="userSpaceOnUse" color-interpolation-filters="sRGB">
<feFlood flood-opacity="0" result="BackgroundImageFix"/>
<feBlend mode="normal" in="SourceGraphic" in2="BackgroundImageFix" result="shape"/>
<feColorMatrix in="SourceAlpha" type="matrix" values="0 0 0 0 0 0 0 0 0 0 0 0 0 0 0 0 0 0 127 0" result="hardAlpha"/>
<feOffset dy="24"/>
<feGaussianBlur stdDeviation="24"/>
<feComposite in2="hardAlpha" operator="arithmetic" k2="-1" k3="1"/>
<feColorMatrix type="matrix" values="0 0 0 0 0.780392 0 0 0 0 0.827451 0 0 0 0 0.917647 0 0 0 0.05 0"/>
<feBlend mode="normal" in2="shape" result="effect1_innerShadow_294_4530"/>
<feColorMatrix in="SourceAlpha" type="matrix" values="0 0 0 0 0 0 0 0 0 0 0 0 0 0 0 0 0 0 127 0" result="hardAlpha"/>
<feOffset dy="1"/>
<feGaussianBlur stdDeviation="0.5"/>
<feComposite in2="hardAlpha" operator="arithmetic" k2="-1" k3="1"/>
<feColorMatrix type="matrix" values="0 0 0 0 0.780392 0 0 0 0 0.827451 0 0 0 0 0.917647 0 0 0 0.12 0"/>
<feBlend mode="normal" in2="effect1_innerShadow_294_4530" result="effect2_innerShadow_294_4530"/>
</filter>
<linearGradient id="paint0_linear_294_4530" x1="422.388" y1="439.838" x2="422.388" y2="531.835" gradientUnits="userSpaceOnUse">
<stop stop-color="#4620FF"/>
<stop offset="1" stop-color="#5A38FF"/>
</linearGradient>
<linearGradient id="paint1_linear_294_4530" x1="377.117" y1="454.029" x2="377.117" y2="464.673" gradientUnits="userSpaceOnUse">
<stop stop-color="#4620FF"/>
<stop offset="1" stop-color="#5A38FF"/>
</linearGradient>
<linearGradient id="paint2_linear_294_4530" x1="368.761" y1="449.203" x2="368.761" y2="459.847" gradientUnits="userSpaceOnUse">
<stop stop-color="#4620FF"/>
<stop offset="1" stop-color="#5A38FF"/>
</linearGradient>
<linearGradient id="paint3_linear_294_4530" x1="360.406" y1="444.379" x2="360.406" y2="455.023" gradientUnits="userSpaceOnUse">
<stop stop-color="#4620FF"/>
<stop offset="1" stop-color="#5A38FF"/>
</linearGradient>
<linearGradient id="paint4_linear_294_4530" x1="398.599" y1="453.568" x2="398.599" y2="545.566" gradientUnits="userSpaceOnUse">
<stop stop-color="#4620FF"/>
<stop offset="1" stop-color="#5A38FF"/>
</linearGradient>
<linearGradient id="paint5_linear_294_4530" x1="353.327" y1="467.76" x2="353.327" y2="478.404" gradientUnits="userSpaceOnUse">
<stop stop-color="#4620FF"/>
<stop offset="1" stop-color="#5A38FF"/>
</linearGradient>
<linearGradient id="paint6_linear_294_4530" x1="344.972" y1="462.934" x2="344.972" y2="473.577" gradientUnits="userSpaceOnUse">
<stop stop-color="#4620FF"/>
<stop offset="1" stop-color="#5A38FF"/>
</linearGradient>
<linearGradient id="paint7_linear_294_4530" x1="336.598" y1="458.109" x2="336.598" y2="468.753" gradientUnits="userSpaceOnUse">
<stop stop-color="#4620FF"/>
<stop offset="1" stop-color="#5A38FF"/>
</linearGradient>
<linearGradient id="paint8_linear_294_4530" x1="374.934" y1="345.535" x2="374.934" y2="596.195" gradientUnits="userSpaceOnUse">
<stop stop-color="#4620FF"/>
<stop offset="1" stop-color="#5A38FF"/>
</linearGradient>
<linearGradient id="paint9_linear_294_4530" x1="374.934" y1="333.082" x2="374.934" y2="425.08" gradientUnits="userSpaceOnUse">
<stop stop-color="#4620FF"/>
<stop offset="1" stop-color="#5A38FF"/>
</linearGradient>
<linearGradient id="paint10_linear_294_4530" x1="329.681" y1="347.273" x2="329.681" y2="357.917" gradientUnits="userSpaceOnUse">
<stop stop-color="#4620FF"/>
<stop offset="1" stop-color="#5A38FF"/>
</linearGradient>
<linearGradient id="paint11_linear_294_4530" x1="321.308" y1="342.447" x2="321.308" y2="353.091" gradientUnits="userSpaceOnUse">
<stop stop-color="#4620FF"/>
<stop offset="1" stop-color="#5A38FF"/>
</linearGradient>
<linearGradient id="paint12_linear_294_4530" x1="312.933" y1="337.623" x2="312.933" y2="348.267" gradientUnits="userSpaceOnUse">
<stop stop-color="#4620FF"/>
<stop offset="1" stop-color="#5A38FF"/>
</linearGradient>
<linearGradient id="paint13_linear_294_4530" x1="350.986" y1="481.066" x2="350.986" y2="573.064" gradientUnits="userSpaceOnUse">
<stop stop-color="#4620FF"/>
<stop offset="1" stop-color="#5A38FF"/>
</linearGradient>
<linearGradient id="paint14_linear_294_4530" x1="305.733" y1="495.258" x2="305.733" y2="505.902" gradientUnits="userSpaceOnUse">
<stop stop-color="#4620FF"/>
<stop offset="1" stop-color="#5A38FF"/>
</linearGradient>
<linearGradient id="paint15_linear_294_4530" x1="297.36" y1="490.432" x2="297.36" y2="501.075" gradientUnits="userSpaceOnUse">
<stop stop-color="#4620FF"/>
<stop offset="1" stop-color="#5A38FF"/>
</linearGradient>
<linearGradient id="paint16_linear_294_4530" x1="288.985" y1="485.607" x2="288.985" y2="496.251" gradientUnits="userSpaceOnUse">
<stop stop-color="#4620FF"/>
<stop offset="1" stop-color="#5A38FF"/>
</linearGradient>
<linearGradient id="paint17_linear_294_4530" x1="327.18" y1="494.797" x2="327.18" y2="586.794" gradientUnits="userSpaceOnUse">
<stop stop-color="#4620FF"/>
<stop offset="1" stop-color="#5A38FF"/>
</linearGradient>
<linearGradient id="paint18_linear_294_4530" x1="281.926" y1="508.988" x2="281.926" y2="519.667" gradientUnits="userSpaceOnUse">
<stop stop-color="#4620FF"/>
<stop offset="1" stop-color="#5A38FF"/>
</linearGradient>
<linearGradient id="paint19_linear_294_4530" x1="273.554" y1="504.164" x2="273.554" y2="514.808" gradientUnits="userSpaceOnUse">
<stop stop-color="#4620FF"/>
<stop offset="1" stop-color="#5A38FF"/>
</linearGradient>
<linearGradient id="paint20_linear_294_4530" x1="265.179" y1="499.338" x2="265.179" y2="509.982" gradientUnits="userSpaceOnUse">
<stop stop-color="#4620FF"/>
<stop offset="1" stop-color="#5A38FF"/>
</linearGradient>
<linearGradient id="paint21_linear_294_4530" x1="177.257" y1="127.34" x2="177.257" y2="321.916" gradientUnits="userSpaceOnUse">
<stop stop-color="#4620FF"/>
<stop offset="1" stop-color="#5A38FF"/>
</linearGradient>
<linearGradient id="paint22_linear_294_4530" x1="177.257" y1="117.131" x2="177.257" y2="186.058" gradientUnits="userSpaceOnUse">
<stop stop-color="#4620FF"/>
<stop offset="1" stop-color="#5A38FF"/>
</linearGradient>
</defs>
</svg>
