<svg width="588" height="827" viewBox="0 0 588 827" fill="none" xmlns="http://www.w3.org/2000/svg">
<g filter="url(#filter0_ii_294_3459)">
<rect width="588" height="827" fill="#F4F5FF"/>
</g>
<g clip-path="url(#clip0_294_3459)">
<path opacity="0.5" d="M409.435 461.663C409.695 461.663 409.954 461.526 410.091 461.28C410.296 460.912 410.173 460.447 409.818 460.243L347.875 424.486C347.52 424.281 347.042 424.404 346.837 424.759C346.632 425.128 346.755 425.592 347.11 425.797L409.053 461.553C409.176 461.622 409.299 461.663 409.435 461.663Z" fill="#58BAD0"/>
<path opacity="0.5" d="M178.852 461.459C178.989 461.459 179.112 461.432 179.235 461.35L240.836 425.784C241.205 425.579 241.328 425.115 241.109 424.747C240.905 424.378 240.427 424.255 240.072 424.473L178.484 460.039C178.115 460.244 177.992 460.708 178.211 461.077C178.347 461.322 178.607 461.459 178.866 461.459H178.852Z" fill="url(#paint0_linear_294_3459)"/>
<path opacity="0.5" d="M294.328 580.908C296.827 580.908 299.325 580.267 301.551 578.97C326.795 564.334 410.883 515.73 412.89 514.829C413.299 514.706 413.49 514.296 413.381 513.9C413.272 513.504 412.821 513.272 412.412 513.395C411.101 513.777 301.892 577.017 300.786 577.659C296.8 579.966 291.844 579.966 287.857 577.659L176.791 513.286C176.436 513.081 175.972 513.19 175.753 513.559C175.549 513.927 175.672 514.392 176.027 514.596L287.092 578.97C289.331 580.267 291.83 580.908 294.328 580.908Z" fill="url(#paint1_linear_294_3459)"/>
<g opacity="0.11">
<path d="M448.387 438.412C452.578 435.995 457.739 435.995 461.944 438.412L542.701 484.927C543.971 485.664 543.971 487.494 542.701 488.231L461.262 535.252C457.562 537.381 453.002 537.381 449.302 535.252L367.74 488.272C366.47 487.535 366.47 485.705 367.74 484.968L448.387 438.412Z" fill="url(#paint2_linear_294_3459)"/>
</g>
<g opacity="0.11">
<path d="M448.387 424.801C452.578 422.384 457.739 422.384 461.944 424.801L542.701 471.33C543.97 472.067 543.97 473.896 542.701 474.634L461.262 521.654C457.562 523.784 453.002 523.784 449.302 521.654L367.74 474.675C366.47 473.937 366.47 472.108 367.74 471.371L448.387 424.814V424.801Z" fill="url(#paint3_linear_294_3459)"/>
</g>
<g opacity="0.11">
<path d="M448.387 411.203C452.578 408.786 457.739 408.786 461.944 411.203L542.701 457.718C543.971 458.456 543.971 460.285 542.701 461.022L461.262 508.043C457.562 510.172 453.002 510.172 449.302 508.043L367.74 461.063C366.47 460.326 366.47 458.496 367.74 457.759L448.387 411.203Z" fill="url(#paint4_linear_294_3459)"/>
</g>
<g opacity="0.11">
<path d="M448.387 397.59C452.578 395.173 457.739 395.173 461.944 397.59L542.701 444.105C543.97 444.842 543.97 446.672 542.701 447.409L461.262 494.429C457.562 496.559 453.002 496.559 449.302 494.429L367.74 447.45C366.47 446.713 366.47 444.883 367.74 444.146L448.387 397.59Z" fill="url(#paint5_linear_294_3459)"/>
</g>
<path opacity="0.5" d="M367.74 444.16L448.387 397.603C452.578 395.187 457.739 395.187 461.944 397.603L542.701 444.105C543.342 444.474 543.656 445.115 543.656 445.757V473.117C543.656 473.759 543.342 474.401 542.701 474.769L461.262 521.79C457.562 523.919 453.002 523.919 449.302 521.79L367.74 474.81C367.098 474.442 366.784 473.8 366.784 473.158V445.798C366.784 445.156 367.098 444.515 367.74 444.146V444.16Z" fill="url(#paint6_linear_294_3459)"/>
<g opacity="0.11">
<path d="M448.387 397.59C452.578 395.173 457.739 395.173 461.944 397.59L542.701 444.105C543.97 444.842 543.97 446.672 542.701 447.409L461.262 494.429C457.562 496.559 453.002 496.559 449.302 494.429L367.74 447.45C366.47 446.713 366.47 444.883 367.74 444.146L448.387 397.59Z" fill="url(#paint7_linear_294_3459)"/>
</g>
<g opacity="0.5">
<path d="M452.319 424.268C454.094 423.244 456.292 423.244 458.067 424.268L494.26 445.116C494.834 445.444 494.834 446.263 494.26 446.59L457.917 467.575C456.265 468.53 454.23 468.53 452.578 467.575L416.18 446.618C415.606 446.29 415.606 445.471 416.18 445.143L452.319 424.282V424.268Z" fill="url(#paint8_linear_294_3459)"/>
</g>
<path d="M494.247 446.413L458.053 425.565C456.278 424.541 454.08 424.541 452.305 425.565L416.166 446.427C416.166 446.427 416.111 446.481 416.084 446.508C415.62 446.14 415.634 445.43 416.166 445.116L452.305 424.254C454.08 423.23 456.278 423.23 458.053 424.254L494.247 445.102C494.779 445.403 494.793 446.126 494.328 446.495C494.301 446.467 494.288 446.427 494.247 446.413Z" fill="url(#paint9_linear_294_3459)"/>
<path d="M367.739 445.579L449.301 492.558C453.001 494.688 457.561 494.688 461.261 492.558L542.701 445.538C543.015 445.361 543.247 445.101 543.41 444.828C543.902 445.688 543.656 446.862 542.701 447.422L461.261 494.443C457.561 496.572 453.001 496.572 449.301 494.443L367.739 447.463C366.784 446.903 366.552 445.729 367.029 444.869C367.193 445.156 367.425 445.402 367.739 445.579Z" fill="url(#paint10_linear_294_3459)"/>
<g opacity="0.11">
<path d="M126.603 438.412C130.795 435.995 135.956 435.995 140.161 438.412L220.931 484.941C222.2 485.678 222.2 487.508 220.931 488.245L139.492 535.265C135.792 537.395 131.232 537.395 127.532 535.265L45.9697 488.286C44.7 487.549 44.7 485.719 45.9697 484.982L126.617 438.426L126.603 438.412Z" fill="url(#paint11_linear_294_3459)"/>
</g>
<g opacity="0.11">
<path d="M126.603 424.801C130.795 422.384 135.956 422.384 140.161 424.801L220.931 471.33C222.2 472.067 222.2 473.896 220.931 474.634L139.492 521.654C135.792 523.784 131.232 523.784 127.532 521.654L45.9697 474.675C44.7 473.937 44.7 472.108 45.9697 471.371L126.617 424.814L126.603 424.801Z" fill="url(#paint12_linear_294_3459)"/>
</g>
<g opacity="0.11">
<path d="M126.603 411.203C130.795 408.786 135.956 408.786 140.161 411.203L220.931 457.732C222.2 458.469 222.2 460.299 220.931 461.036L139.492 508.056C135.792 510.186 131.232 510.186 127.532 508.056L45.9697 461.077C44.7 460.34 44.7 458.51 45.9697 457.773L126.617 411.217L126.603 411.203Z" fill="url(#paint13_linear_294_3459)"/>
</g>
<g opacity="0.11">
<path d="M126.603 397.59C130.795 395.173 135.956 395.173 140.161 397.59L220.931 444.119C222.2 444.856 222.2 446.685 220.931 447.423L139.492 494.443C135.792 496.573 131.232 496.573 127.532 494.443L45.9697 447.464C44.7 446.726 44.7 444.897 45.9697 444.16L126.617 397.603L126.603 397.59Z" fill="url(#paint14_linear_294_3459)"/>
</g>
<path opacity="0.5" d="M45.9559 444.16L126.603 397.603C130.795 395.187 135.955 395.187 140.16 397.603L220.931 444.132C221.572 444.501 221.886 445.143 221.886 445.784V473.145C221.886 473.786 221.572 474.428 220.931 474.797L139.491 521.817C135.792 523.947 131.231 523.947 127.532 521.817L45.9696 474.838C45.3279 474.469 45.0138 473.827 45.0138 473.186V445.825C45.0138 445.184 45.3279 444.542 45.9696 444.173L45.9559 444.16Z" fill="url(#paint15_linear_294_3459)"/>
<g opacity="0.11">
<path d="M126.603 397.59C130.795 395.173 135.956 395.173 140.161 397.59L220.931 444.119C222.2 444.856 222.2 446.685 220.931 447.423L139.492 494.443C135.792 496.573 131.232 496.573 127.532 494.443L45.9697 447.464C44.7 446.726 44.7 444.897 45.9697 444.16L126.617 397.603L126.603 397.59Z" fill="url(#paint16_linear_294_3459)"/>
</g>
<g opacity="0.5">
<path d="M130.549 424.268C132.324 423.244 134.522 423.244 136.297 424.268L172.49 445.116C173.064 445.444 173.064 446.263 172.49 446.59L136.146 467.575C134.494 468.53 132.46 468.53 130.808 467.575L94.4098 446.618C93.8364 446.29 93.8364 445.471 94.4098 445.143L130.549 424.282V424.268Z" fill="url(#paint17_linear_294_3459)"/>
</g>
<path d="M172.477 446.413L136.283 425.565C134.508 424.541 132.31 424.541 130.535 425.565L94.3964 446.427C94.3964 446.427 94.3418 446.481 94.3145 446.508C93.8503 446.14 93.864 445.43 94.3964 445.116L130.535 424.254C132.31 423.23 134.508 423.23 136.283 424.254L172.477 445.102C173.009 445.403 173.023 446.126 172.559 446.495C172.532 446.467 172.518 446.427 172.477 446.413Z" fill="url(#paint18_linear_294_3459)"/>
<path d="M45.956 445.579L127.518 492.558C131.218 494.688 135.778 494.688 139.478 492.558L220.917 445.538C221.231 445.361 221.463 445.101 221.627 444.828C222.119 445.688 221.873 446.862 220.917 447.422L139.478 494.443C135.778 496.572 131.218 496.572 127.518 494.443L45.956 447.463C45.0003 446.903 44.7682 445.729 45.246 444.869C45.4099 445.156 45.6419 445.402 45.956 445.579Z" fill="url(#paint19_linear_294_3459)"/>
<path opacity="0.5" d="M66.9132 331.77V283.398C68.0327 266.905 74.5588 251.191 85.5083 236.828V285.2C74.5588 299.563 68.0327 315.277 66.9132 331.77ZM91.106 278.401V230.029C94.9698 225.674 99.2431 221.469 103.912 217.414V265.786C99.2431 269.841 94.9698 274.046 91.106 278.401ZM111.845 259.328V210.956C116.924 207.079 122.371 203.365 128.173 199.842V248.214C122.385 251.737 116.924 255.45 111.845 259.328ZM139.123 256.283V179.336C94.5602 202.983 66.7357 236.801 66.7357 274.209V351.184C66.7357 313.775 94.5602 279.957 139.123 256.311V256.283Z" fill="url(#paint20_linear_294_3459)"/>
<path opacity="0.5" d="M220.63 219.353V205.455C224.03 204.8 227.47 204.199 230.938 203.639V217.538C227.47 218.097 224.03 218.698 220.63 219.353ZM239.171 202.41V190.109C242.693 189.618 246.257 189.181 249.834 188.798V201.1C246.243 201.496 242.693 201.932 239.171 202.41ZM202.772 209.373V192.608C206.035 191.802 209.339 191.037 212.684 190.314V207.08C209.339 207.803 206.035 208.568 202.772 209.373ZM258.353 200.267V175.514C261.985 175.2 265.644 174.941 269.33 174.722V199.475C265.644 199.693 261.985 199.953 258.353 200.267ZM298.178 198.874V174.122C301.905 174.176 305.619 174.285 309.305 174.449V199.202C305.619 199.038 301.905 198.929 298.178 198.874ZM317.961 199.666V168.524C321.607 168.77 325.225 169.056 328.829 169.398V200.54C325.238 200.199 321.607 199.912 317.961 199.666ZM278.068 199.065V163.445C281.399 163.322 284.758 163.254 288.13 163.213C288.526 163.213 288.922 163.213 289.331 163.213V198.833C288.935 198.833 288.539 198.833 288.13 198.833C284.758 198.861 281.399 198.942 278.068 199.065ZM337.253 201.414V156.864C340.802 157.274 344.325 157.738 347.82 158.257V202.82C344.325 202.315 340.802 201.851 337.253 201.427V201.414ZM370.525 153.042C344.898 147.594 317.115 144.727 288.143 145.014C249.465 145.396 213.23 151.362 181.72 161.52V238.495C213.23 228.323 249.465 222.371 288.143 221.988C317.115 221.702 344.912 224.555 370.525 230.016V153.042Z" fill="url(#paint21_linear_294_3459)"/>
<path opacity="0.5" d="M501.469 257.446V241.95C506.07 248.572 509.756 255.48 512.405 262.593V308.494C509.743 301.367 506.07 294.473 501.469 287.851V272.355C500.131 270.43 498.725 268.532 497.237 266.662V275.017C494.411 271.467 491.325 268 487.98 264.627V256.272C473.467 241.663 454.121 228.843 431.225 218.522V203.613C435.294 205.456 439.253 207.367 443.103 209.361C445.028 210.357 446.912 211.368 448.783 212.405C463.487 220.57 476.252 229.867 486.669 240.066C487.106 240.503 487.543 240.926 487.98 241.363V233.007C491.325 236.38 494.424 239.834 497.237 243.397V251.753C498.725 253.623 500.131 255.521 501.469 257.446ZM515.409 256.955C506.657 219.396 469.863 187.052 417.668 166.914V243.889C469.863 264.027 506.657 296.37 515.409 333.929V256.955Z" fill="url(#paint22_linear_294_3459)"/>
<path opacity="0.75" d="M487.98 241.375C487.543 240.938 487.106 240.501 486.67 240.078V254.987C478.887 247.369 469.795 240.256 459.569 233.73C456.101 231.518 452.51 229.388 448.783 227.326V212.417C446.926 211.38 445.028 210.37 443.103 209.373V224.282C439.267 222.288 435.308 220.377 431.225 218.534C454.121 228.855 473.454 241.675 487.98 256.284V241.375ZM501.469 257.444C500.131 255.519 498.725 253.622 497.237 251.751V266.66C498.725 268.531 500.131 270.428 501.469 272.353V257.444Z" fill="url(#paint23_linear_294_3459)"/>
<path opacity="0.88" d="M443.103 209.373C439.267 207.38 435.308 205.468 431.225 203.625V218.534C435.294 220.377 439.253 222.288 443.103 224.282V209.373Z" fill="url(#paint24_linear_294_3459)"/>
<path opacity="0.88" d="M486.669 240.078C478.887 232.459 469.795 225.346 459.569 218.82V233.729C469.795 240.242 478.901 247.368 486.669 254.987V240.078Z" fill="url(#paint25_linear_294_3459)"/>
<path opacity="0.97" d="M459.569 218.821C456.101 216.609 452.51 214.48 448.783 212.418V227.327C452.497 229.388 456.101 231.532 459.569 233.73V218.821Z" fill="url(#paint26_linear_294_3459)"/>
<path opacity="0.75" d="M512.405 262.606C509.743 255.479 506.07 248.585 501.469 241.963V257.459C506.07 264.08 509.756 270.989 512.405 278.102V293.011C509.743 285.884 506.07 278.989 501.469 272.368V287.864C506.07 294.485 509.756 301.394 512.405 308.507V262.606Z" fill="url(#paint27_linear_294_3459)"/>
<path opacity="0.88" d="M512.405 278.102C509.743 270.975 506.07 264.081 501.469 257.459V272.368C506.07 278.99 509.756 285.898 512.405 293.011V278.102Z" fill="url(#paint28_linear_294_3459)"/>
<path opacity="0.75" d="M497.237 266.66C494.41 263.11 491.325 259.643 487.98 256.27V264.626C491.325 267.998 494.424 271.452 497.237 275.016V266.66ZM497.237 243.396C494.41 239.846 491.325 236.378 487.98 233.006V241.361C491.325 244.734 494.424 248.188 497.237 251.751V243.396Z" fill="url(#paint29_linear_294_3459)"/>
<path opacity="0.88" d="M497.237 251.751C494.41 248.201 491.325 244.734 487.98 241.361V256.27C491.325 259.642 494.424 263.097 497.237 266.66V251.751Z" fill="url(#paint30_linear_294_3459)"/>
<path opacity="0.75" d="M85.5084 236.83C74.5588 251.193 68.0328 266.907 66.9133 283.4V331.772C68.0328 315.279 74.5588 299.565 85.5084 285.202V236.83Z" fill="url(#paint31_linear_294_3459)"/>
<path d="M103.912 217.414C99.2431 221.469 94.9697 225.674 91.106 230.029V278.401C94.9697 274.046 99.2431 269.841 103.912 265.786V217.414Z" fill="url(#paint32_linear_294_3459)"/>
<path opacity="0.75" d="M128.16 199.857C122.371 203.38 116.91 207.093 111.831 210.971V259.343C116.91 255.465 122.357 251.752 128.16 248.229V199.857Z" fill="url(#paint33_linear_294_3459)"/>
<path opacity="0.75" d="M212.684 190.301C209.339 191.024 206.035 191.789 202.772 192.594V209.36C206.035 208.555 209.339 207.79 212.684 207.066V190.301Z" fill="url(#paint34_linear_294_3459)"/>
<path opacity="0.75" d="M230.938 203.639C227.47 204.198 224.03 204.799 220.63 205.454V219.353C224.03 218.698 227.47 218.097 230.938 217.537V203.639Z" fill="url(#paint35_linear_294_3459)"/>
<path opacity="0.75" d="M249.847 188.785C246.257 189.181 242.707 189.618 239.185 190.096V202.397C242.707 201.906 246.27 201.469 249.847 201.086V188.785Z" fill="url(#paint36_linear_294_3459)"/>
<path opacity="0.75" d="M269.33 174.709C265.644 174.927 261.985 175.187 258.353 175.501V200.253C261.985 199.939 265.644 199.68 269.33 199.462V174.709Z" fill="url(#paint37_linear_294_3459)"/>
<path opacity="0.75" d="M289.331 163.213C288.935 163.213 288.539 163.213 288.13 163.213C284.758 163.24 281.399 163.322 278.068 163.445V199.065C281.399 198.942 284.758 198.874 288.13 198.833C288.526 198.833 288.922 198.833 289.331 198.833V163.213Z" fill="url(#paint38_linear_294_3459)"/>
<path d="M309.319 174.435C305.633 174.271 301.919 174.162 298.192 174.107V198.86C301.919 198.915 305.633 199.024 309.319 199.188V174.435Z" fill="url(#paint39_linear_294_3459)"/>
<path opacity="0.75" d="M328.843 169.386C325.252 169.044 321.62 168.757 317.975 168.512V199.654C321.62 199.9 325.238 200.186 328.843 200.528V169.386Z" fill="url(#paint40_linear_294_3459)"/>
<path d="M347.834 158.244C344.339 157.739 340.816 157.275 337.267 156.852V201.414C340.816 201.824 344.339 202.288 347.834 202.807V158.244Z" fill="url(#paint41_linear_294_3459)"/>
<g opacity="0.11">
<path d="M301.1 538.448C297.154 536.168 292.308 536.168 288.362 538.448L212.425 582.192C211.223 582.888 211.223 584.609 212.425 585.291L288.99 629.499C292.471 631.506 296.758 631.506 300.24 629.499L376.928 585.332C378.129 584.636 378.129 582.916 376.928 582.233L301.1 538.462V538.448Z" fill="url(#paint42_linear_294_3459)"/>
</g>
<g opacity="0.11">
<path d="M301.1 525.655C297.154 523.375 292.308 523.375 288.362 525.655L212.425 569.399C211.224 570.095 211.224 571.816 212.425 572.498L288.99 616.706C292.472 618.713 296.759 618.713 300.24 616.706L376.928 572.539C378.129 571.843 378.129 570.123 376.928 569.44L301.1 525.669V525.655Z" fill="url(#paint43_linear_294_3459)"/>
</g>
<g opacity="0.11">
<path d="M301.1 512.862C297.154 510.582 292.308 510.582 288.362 512.862L212.425 556.606C211.224 557.302 211.224 559.023 212.425 559.705L288.99 603.913C292.472 605.92 296.759 605.92 300.24 603.913L376.928 559.746C378.129 559.05 378.129 557.33 376.928 556.647L301.1 512.876V512.862Z" fill="url(#paint44_linear_294_3459)"/>
</g>
<g opacity="0.11">
<path d="M301.1 500.069C297.154 497.789 292.308 497.789 288.362 500.069L212.425 543.813C211.224 544.509 211.224 546.23 212.425 546.912L288.99 591.12C292.472 593.127 296.759 593.127 300.24 591.12L376.928 546.953C378.129 546.257 378.129 544.537 376.928 543.854L301.1 500.083V500.069Z" fill="url(#paint45_linear_294_3459)"/>
</g>
<path opacity="0.11" d="M376.928 543.84L301.1 500.069C297.154 497.789 292.308 497.789 288.362 500.069L212.425 543.813C211.824 544.154 211.524 544.769 211.524 545.369V583.748C211.524 584.348 211.824 584.949 212.425 585.304L288.99 629.512C292.472 631.519 296.759 631.519 300.24 629.512L376.928 585.345C377.529 585.004 377.829 584.389 377.829 583.789V545.41C377.829 544.81 377.529 544.209 376.928 543.854V543.84Z" fill="url(#paint46_linear_294_3459)"/>
<g opacity="0.11">
<path d="M302.465 468.693C297.687 465.936 291.803 465.936 287.01 468.693L194.936 521.735C193.488 522.568 193.488 524.67 194.936 525.503L287.775 579.104C291.994 581.534 297.195 581.534 301.414 579.104L394.404 525.544C395.851 524.711 395.851 522.608 394.404 521.776L302.465 468.693Z" fill="url(#paint47_linear_294_3459)"/>
</g>
<g opacity="0.11">
<path d="M302.465 453.186C297.687 450.428 291.803 450.428 287.01 453.186L194.936 506.227C193.488 507.06 193.488 509.162 194.936 509.995L287.775 563.596C291.994 566.026 297.195 566.026 301.414 563.596L394.404 510.036C395.851 509.203 395.851 507.101 394.404 506.268L302.465 453.186Z" fill="url(#paint48_linear_294_3459)"/>
</g>
<g opacity="0.11">
<path d="M302.465 437.676C297.687 434.918 291.803 434.918 287.01 437.676L194.936 490.717C193.488 491.55 193.488 493.652 194.936 494.485L287.775 548.086C291.994 550.517 297.195 550.517 301.414 548.086L394.404 494.526C395.851 493.693 395.851 491.591 394.404 490.758L302.465 437.676Z" fill="url(#paint49_linear_294_3459)"/>
</g>
<g opacity="0.11">
<path d="M302.466 422.166C297.687 419.408 291.803 419.408 287.011 422.166L194.936 475.207C193.489 476.04 193.489 478.143 194.936 478.976L287.775 532.577C291.994 535.007 297.196 535.007 301.414 532.577L394.404 479.016C395.851 478.184 395.851 476.081 394.404 475.248L302.466 422.166Z" fill="url(#paint50_linear_294_3459)"/>
</g>
<path opacity="0.5" d="M394.403 475.248L302.465 422.166C297.687 419.408 291.802 419.408 287.01 422.166L194.935 475.207C194.212 475.631 193.843 476.354 193.843 477.091V523.62C193.843 524.358 194.212 525.081 194.935 525.504L287.775 579.105C291.993 581.536 297.195 581.536 301.414 579.105L394.403 525.545C395.127 525.122 395.496 524.399 395.496 523.661V477.132C395.496 476.395 395.127 475.672 394.403 475.248Z" fill="url(#paint51_linear_294_3459)"/>
<g opacity="0.11">
<path d="M302.466 422.166C297.687 419.408 291.803 419.408 287.011 422.166L194.936 475.207C193.489 476.04 193.489 478.143 194.936 478.976L287.775 532.577C291.994 535.007 297.196 535.007 301.414 532.577L394.404 479.016C395.851 478.184 395.851 476.081 394.404 475.248L302.466 422.166Z" fill="url(#paint52_linear_294_3459)"/>
</g>
<path d="M394.403 476.874L301.414 530.434C297.195 532.864 291.994 532.864 287.775 530.434L194.936 476.833C194.581 476.628 194.307 476.341 194.13 476.027C193.57 477.01 193.843 478.348 194.936 478.976L287.775 532.577C291.994 535.008 297.195 535.008 301.414 532.577L394.403 479.017C395.496 478.389 395.769 477.051 395.209 476.068C395.032 476.396 394.758 476.669 394.403 476.874Z" fill="url(#paint53_linear_294_3459)"/>
<path opacity="0.2" d="M294.67 506.512C266.673 506.512 243.977 493.407 243.977 477.24C243.977 461.074 266.673 447.969 294.67 447.969C322.667 447.969 345.363 461.074 345.363 477.24C345.363 493.407 322.667 506.512 294.67 506.512Z" fill="#180D5B"/>
<path d="M275.378 452.422C275.378 452.422 274.149 453.705 272.866 455.221C271.583 456.736 267.992 458.839 266.477 459.781C264.961 460.723 258.053 465.965 256.606 471.126C255.158 476.287 260.101 476.97 265.166 476.082C270.231 475.195 274.955 470.526 276.32 468.833C277.699 467.153 282.478 463.33 288.69 460.108C294.902 456.9 291.147 452.572 291.147 452.572L275.378 452.422Z" fill="#160A5B"/>
<path d="M321.457 467.766C321.457 467.766 322.481 470.087 322.767 473.077C323.054 476.067 323.477 482.538 323.627 484.436C323.778 486.333 323.846 490.962 320.515 495.399C317.183 499.836 315.463 501.584 311.026 499.85C306.589 498.116 306.698 490.661 307.476 486.839C308.254 483.016 308.992 474.456 308.91 473.554C308.828 472.653 309.169 472.08 309.169 472.08L321.457 467.766Z" fill="#160A5B"/>
<path d="M260.087 364.687C260.087 364.687 261.015 398.792 268.961 416.896C268.961 416.896 274.655 432.842 275.406 451.806C275.406 451.806 274.095 455.069 275.952 457.731C277.822 460.38 289.482 462.81 291.407 454.1C293.332 445.376 292.594 429.06 290.478 422.261C288.362 415.462 291.229 396.703 291.229 396.703C291.229 396.703 294.424 398.737 298.602 412.213C302.779 425.688 305.851 430.822 307.299 434.549C308.732 438.276 310.056 461.104 309.142 472.258C309.142 472.258 318.589 473.596 321.32 469.077C324.051 464.558 324.965 441.198 324.269 433.743C323.573 426.289 320.46 402.424 320.883 395.051C321.306 387.665 322.849 381.671 321.156 374.299C319.463 366.926 269.603 350.543 269.603 350.543L260.046 364.715L260.087 364.687Z" fill="#24126A"/>
<path d="M320.91 395.024C321.334 387.638 322.876 381.644 321.183 374.272C320.542 371.5 313.101 367.459 304.063 363.486C288.799 362.094 269.453 360.483 268.115 360.674C266.913 360.851 263.76 362.053 261.138 363.104L260.073 364.688C260.073 364.688 260.128 366.763 260.333 370.149C263.896 371.214 270.736 370.108 270.736 370.108C271.706 372.497 277.645 381.003 285.044 384.675C292.444 388.348 314.084 387.092 315.326 388.485C316.569 389.877 316.815 408.554 316.678 410.93C316.542 413.305 318.712 428.255 320.733 441.458C322.713 454.455 319.695 470.265 319.6 470.77C320.296 470.32 320.91 469.774 321.334 469.064C324.064 464.544 324.979 441.184 324.283 433.73C323.586 426.276 320.474 402.41 320.897 395.038L320.91 395.024Z" fill="#160A5B"/>
<path d="M276.771 253.142C276.771 253.142 265.712 255.668 261.985 256.542C261.37 256.692 260.865 257.115 260.633 257.716C259.555 260.433 256.865 268.884 258.899 281.226C261.398 296.394 260.606 306.593 260.606 306.593L255.486 333.216C255.486 333.216 249.056 358.583 249.615 359.266C250.175 359.962 264.429 370.802 268.879 369.287C273.33 367.758 271.869 365.232 271.869 365.232C271.869 365.232 275.474 383.609 291.461 383.431C307.435 383.254 320.487 383.308 323.204 376.851C325.921 370.393 322.467 343.251 319.641 332.493C316.828 321.748 310.125 300.313 310.125 300.313L333.526 274.413L313.524 259.136C313.524 259.136 308.746 250.262 306.78 249.128C304.814 247.995 303.79 248.951 303.79 248.951L276.771 253.115V253.142Z" fill="#453C9E"/>
<path d="M269.153 363.432C269.166 364.361 268.634 365.726 265.753 366.709C262.654 367.774 255.049 363.159 250.066 359.678C252.551 361.739 264.798 370.682 268.88 369.289C269.767 368.989 270.409 368.648 270.887 368.293C269.972 366.245 269.426 364.484 269.153 363.446V363.432Z" fill="url(#paint54_linear_294_3459)"/>
<path d="M323.081 374.709C320.214 381.522 306.452 381.467 289.591 381.659C285.304 381.7 281.864 380.484 279.106 378.641C282.027 381.426 286.028 383.515 291.461 383.447C307.435 383.27 320.487 383.324 323.204 376.866C324.092 374.75 324.324 370.395 324.119 365.125C324.16 369.398 323.86 372.866 323.081 374.709Z" fill="url(#paint55_linear_294_3459)"/>
<path d="M306.357 248.924C306.357 248.924 310.439 253.867 304.568 260.543C300.95 264.652 294.724 273.499 289.427 282.701C286.109 288.449 283.051 291.508 281.317 296.45C281.317 296.45 281.072 290.593 280.84 281.527C280.621 272.981 280.498 264.106 280.88 261.867C281.672 257.266 301.851 246.685 306.357 248.924Z" fill="#F0F6FF"/>
<path d="M291.079 263.793C291.079 263.793 288.99 265.09 288.267 264.981C287.543 264.872 285.222 262.619 285.222 262.619C285.222 262.619 279.42 262.51 278.792 260.025C278.164 257.54 277.74 255.042 277.153 253.745C276.566 252.448 274.068 246.249 274.04 243.737C274.027 241.225 274.122 236.733 273.03 234.344C271.938 231.968 270.477 208.158 293.468 208.841C316.46 209.523 309.319 233.375 309.319 233.375C309.319 233.375 310.999 234.085 309.988 237.157C308.978 240.228 308.746 240.542 308.227 242.072C307.708 243.601 307.449 244.57 305.988 245.812L305.606 248.639C305.606 248.639 306.698 252.967 303.845 257.158C300.991 261.363 291.093 263.766 291.093 263.766L291.079 263.793Z" fill="#FCD1C5"/>
<path d="M261.357 256.816C261.357 256.816 258.913 257.185 250.953 277.186C246.516 288.354 239.662 299.905 238.215 308.206C236.768 316.507 237.573 325.367 239.212 325.995C240.795 326.596 269.357 337.286 278.3 340.658C278.791 340.85 279.337 340.536 279.419 340.017L281.891 326.214L264.155 319.36C264.155 319.36 260.783 315.237 257.602 313.68C257.602 313.68 261.152 307.127 260.933 305.339C260.701 303.55 261.247 285.05 259.172 277.514C257.097 269.978 261.343 256.803 261.343 256.803L261.357 256.816Z" fill="#24126A"/>
<path d="M271.747 309.679C271.747 309.679 269.303 308.041 268.702 307.809C268.101 307.577 264.838 306.457 264.21 306.184C263.746 305.98 261.848 306.13 260.893 306.225C260.551 306.266 260.251 306.457 260.087 306.771C259.336 308.178 257.234 312.246 257.466 313.803C257.466 313.803 263.364 317.53 264.033 319.195L264.975 319.4C264.975 319.4 268.934 310.922 271.76 309.693L271.747 309.679Z" fill="#FCD1C5"/>
<path d="M319.641 332.509C318.958 329.928 318.057 326.72 317.074 323.348L281.167 338.734C281.167 338.734 291.912 351.95 310.753 351.104C315.9 350.872 319.654 349.015 322.426 347.418C321.593 341.547 320.583 336.113 319.641 332.509Z" fill="#24126A"/>
<path d="M333.526 274.428C333.526 274.428 324.051 275.725 316.405 287.862C308.759 299.986 303.175 314.021 303.175 314.021L302.916 315.605C302.233 319.728 297.837 322.09 294.014 320.383C285.932 316.779 273.972 311.318 271.747 309.679C271.747 309.679 264.592 313.639 262.64 322.977C261.084 330.432 261.48 330.445 261.48 330.445C261.48 330.445 293.359 345.327 305.674 345.177C317.989 345.027 333.608 304.546 335.328 296.177C337.048 287.807 338.946 276.776 333.526 274.414V274.428Z" fill="#24126A"/>
<path d="M333.526 274.428C333.526 274.428 324.051 275.725 316.405 287.862C308.759 299.986 303.175 314.021 303.175 314.021L302.916 315.605C302.233 319.728 297.837 322.09 294.014 320.383C285.932 316.779 273.972 311.318 271.747 309.679C271.747 309.679 264.592 313.639 262.64 322.977C261.084 330.432 261.48 330.445 261.48 330.445C261.48 330.445 293.359 345.327 305.674 345.177C317.989 345.027 333.608 304.546 335.328 296.177C337.048 287.807 338.946 276.776 333.526 274.414V274.428Z" fill="#4846A5"/>
<path d="M298.602 322.268C298.602 322.268 302.629 326.023 304.377 323.975C306.125 321.913 305.606 321.681 305.606 321.681C305.606 321.681 309.224 321.654 309.661 319.374C310.098 317.108 311.886 318.309 311.982 315.783C312.077 313.258 309.046 313.776 309.046 313.776L298.588 322.268H298.602Z" fill="#453C9E"/>
<path d="M293.741 320.247C293.741 320.247 294.847 319.223 296.281 318.008C297.701 316.806 300.008 311.809 300.404 311.372C300.8 310.936 305.606 307.236 307.927 307.181C310.248 307.113 308.528 309.707 307.995 310.075C307.463 310.444 305.196 311.564 305.196 311.564C305.196 311.564 302.862 313.516 302.602 313.803C302.343 314.089 309.074 313.338 310.152 313.994C311.217 314.649 310.971 316.369 310.22 316.847C309.47 317.311 308.882 317.298 308.882 317.298C308.882 317.298 309.647 319.332 307.613 320.274C305.592 321.216 305.128 320.697 305.128 320.697C305.128 320.697 304.95 324.206 301.619 323.51L293.755 320.26L293.741 320.247Z" fill="#FCD1C5"/>
<path d="M272.511 222.206C272.511 222.206 269.508 231.763 277.413 229.047C285.304 226.33 292.458 221.783 294.929 223.517C296.813 224.841 296.731 228.883 296.581 230.726C296.526 231.354 296.69 231.982 297.059 232.501L299.394 235.9C299.653 236.283 299.817 236.733 299.844 237.197L300.008 239.559C300.049 240.16 300.527 240.624 301.128 240.665L301.66 240.692C302.261 240.733 302.793 240.31 302.902 239.709L303.517 236.228C303.517 236.228 305.374 231.545 309.306 233.388C309.306 233.388 311.927 229.852 311.053 222.316C310.179 214.766 306.793 206.915 291.98 205.659C277.167 204.403 272.498 222.193 272.498 222.193L272.511 222.206Z" fill="#AA8383"/>
<path d="M295.147 272.205L292.936 270.484C292.936 270.484 290.888 272.191 290.082 273.993C289.277 275.795 290.082 281.543 290.082 281.543L289.413 282.704L288.58 281.188L287.884 274.403C287.884 274.403 288.635 269.392 288.717 269.256C288.785 269.133 292.99 269.706 292.99 269.706C292.99 269.706 294.451 270.812 295.161 272.218L295.147 272.205Z" fill="#C4CCD6"/>
<path d="M284.499 265.445C284.499 265.445 282.137 265.609 281.058 266.483C281.058 266.483 283.543 266.606 283.939 266.647C284.335 266.688 284.499 265.432 284.499 265.432V265.445Z" fill="#C4CCD6"/>
<path d="M289.004 265.979L292.977 269.692C292.977 269.692 289.482 271.303 288.512 274.416C288.512 274.416 284.184 275.222 283.788 273.652C283.393 272.082 283.788 268.136 283.283 266.388C282.764 264.641 288.99 265.965 288.99 265.965L289.004 265.979Z" fill="#24126A"/>
<path d="M283.966 273.568C283.966 273.568 283.229 276.817 282.423 278.169C281.618 279.507 280.785 281.023 280.785 281.023L280.88 300.096C280.88 300.096 287.898 285.637 289.413 282.716C289.413 282.716 289.181 275.753 288.512 274.428C287.843 273.118 283.952 273.582 283.952 273.582L283.966 273.568Z" fill="#24126A"/>
<path d="M302.793 245.389C298.192 258.687 285.222 262.632 285.222 262.632C285.222 262.632 287.543 264.885 288.267 264.994C288.99 265.103 291.079 263.806 291.079 263.806C291.079 263.806 300.977 261.403 303.831 257.198C306.684 252.993 305.592 248.679 305.592 248.679L305.974 245.853C303.913 246.522 302.793 245.402 302.793 245.402V245.389Z" fill="#E2B1A6"/>
<path d="M313.333 260.953C313.333 260.953 311.517 267.233 311.285 267.466C311.053 267.698 306.711 267.206 306.711 267.206L308.814 271.193C308.814 271.193 286.997 294.594 282.464 307.182C282.464 307.182 292.785 291.221 310.957 272.176L308.391 268.285L312.855 269.158L313.333 260.967V260.953Z" fill="#24126A"/>
<path d="M277.495 255.41L276.334 256.734L277.699 258.004L273.658 261.65C273.658 261.65 272.429 287.249 277.358 304.205C277.358 304.205 270.668 288.655 272.184 260.953L276.553 257.991L275.119 256.584L277.495 255.41Z" fill="#24126A"/>
<path d="M291.243 396.675C291.243 396.675 291.297 396.703 291.393 396.798L285.741 390.777C288.348 394.464 285.345 411.311 285.031 415.161C284.717 419.025 288.048 426.985 289.29 436.323C290.533 445.648 287.98 458.946 287.98 458.987C289.591 458.045 290.888 456.488 291.42 454.072C293.345 445.348 292.608 429.033 290.492 422.233C288.376 415.434 291.243 396.675 291.243 396.675Z" fill="#160A5B"/>
<path d="M305.674 345.191C317.989 345.041 333.607 304.56 335.328 296.191C335.614 294.799 335.901 293.324 336.161 291.836C336.12 291.959 332.925 300.697 329.853 308.451C326.754 316.261 310.302 339.908 301.892 341.45C294.315 342.843 267.036 330.105 261.753 327.593C261.275 330.433 261.48 330.46 261.48 330.46C261.48 330.46 293.359 345.341 305.674 345.191Z" fill="url(#paint56_linear_294_3459)"/>
<path d="M301.673 240.692C302.274 240.733 302.807 240.31 302.916 239.709L303.53 236.228C303.53 236.228 305.387 231.545 309.319 233.388C309.319 233.388 311.79 230.029 311.121 222.902C306.752 229.456 297.059 232.487 297.059 232.487L299.393 235.886C299.653 236.268 299.817 236.719 299.844 237.183L300.008 239.545C300.049 240.146 300.527 240.61 301.127 240.651L301.66 240.678L301.673 240.692Z" fill="#936D6D"/>
<path opacity="0.5" d="M445.861 434.262V421.251C443.254 422.644 440.591 424.009 437.874 425.333V438.345C440.591 437.02 443.254 435.655 445.861 434.262ZM471.474 418.015V394.055C469.303 395.679 467.078 397.29 464.784 398.861V422.821C467.078 421.251 469.303 419.654 471.474 418.015ZM459.268 426.453V398.192C456.879 399.707 454.422 401.195 451.909 402.642V430.904C454.422 429.457 456.879 427.968 459.268 426.453ZM492.021 399.461V368.101C490.356 369.93 488.622 371.732 486.82 373.507V404.868C488.622 403.093 490.369 401.291 492.021 399.461ZM482.423 409.005V375.023C480.498 376.757 478.505 378.463 476.457 380.142V414.124C478.519 412.445 480.512 410.738 482.423 409.005ZM506.903 378.941V342.106C505.797 344.099 504.609 346.079 503.34 348.031V384.866C504.609 382.914 505.797 380.934 506.903 378.941ZM500.213 389.413V341.491C498.821 343.403 497.346 345.3 495.803 347.171V395.092C497.346 393.222 498.821 391.324 500.213 389.413ZM512.009 368.073V313.954C511.204 316.015 510.316 318.063 509.347 320.084V374.203C510.316 372.183 511.217 370.135 512.009 368.073ZM421.45 380.088C472.948 359.349 508.514 326.569 515.969 289.023V365.998C508.514 403.543 472.935 436.31 421.45 457.063V380.088Z" fill="url(#paint57_linear_294_3459)"/>
<path opacity="0.5" d="M270.45 465.582V448.215C261.589 447.737 252.878 446.959 244.345 445.894V463.261C252.878 464.312 261.589 465.09 270.45 465.582ZM312.091 465.663V434.016C306.78 434.289 301.414 434.453 296.008 434.508C292.308 434.549 288.635 434.535 284.976 434.467V466.114C288.635 466.182 292.308 466.196 296.008 466.155C301.414 466.1 306.78 465.937 312.091 465.663ZM352.23 461.513V413.141C343.834 414.465 335.246 415.53 326.481 416.295V464.667C335.246 463.902 343.834 462.837 352.23 461.513ZM230.638 461.308V410.219C222.31 408.868 214.173 407.243 206.254 405.373V456.461C214.173 458.332 222.31 459.957 230.638 461.308ZM185.72 388.211C218.528 398.3 256.155 403.871 296.021 403.475C323.805 403.202 350.332 400.048 374.744 394.519V471.493C350.332 477.023 323.805 480.163 296.021 480.449C256.155 480.845 218.528 475.289 185.72 465.186V388.211Z" fill="url(#paint58_linear_294_3459)"/>
<path opacity="0.5" d="M130.412 410.233V395.325C94.4918 374.122 71.1181 345.833 67.2953 314.377V329.286C71.1181 360.742 94.5054 389.017 130.412 410.233ZM66.7765 353.479V276.504C67.9233 314.145 97.0176 347.758 142.522 370.927V447.902C97.0176 424.733 67.9233 391.119 66.7765 353.479Z" fill="url(#paint59_linear_294_3459)"/>
<path opacity="0.75" d="M67.2954 314.377C71.1182 345.833 94.5055 374.108 130.412 395.325V410.234C94.4919 389.031 71.1182 360.742 67.2954 329.286V314.377Z" fill="url(#paint60_linear_294_3459)"/>
<path d="M326.467 416.294C335.232 415.53 343.82 414.465 352.216 413.141V461.513C343.82 462.837 335.232 463.902 326.467 464.666V416.294Z" fill="url(#paint61_linear_294_3459)"/>
<path d="M244.345 445.908C252.878 446.959 261.589 447.738 270.449 448.229V465.596C261.589 465.118 252.878 464.34 244.345 463.275V445.908Z" fill="url(#paint62_linear_294_3459)"/>
<path d="M206.24 405.373C214.159 407.243 222.296 408.868 230.624 410.22V461.309C222.296 459.957 214.159 458.332 206.24 456.462V405.373Z" fill="url(#paint63_linear_294_3459)"/>
<path opacity="0.75" d="M284.976 434.468C288.635 434.536 292.308 434.55 296.008 434.509C301.414 434.454 306.78 434.291 312.091 434.018V465.665C306.78 465.938 301.414 466.102 296.008 466.156C292.308 466.197 288.635 466.184 284.976 466.115V434.468Z" fill="url(#paint64_linear_294_3459)"/>
<path d="M509.333 320.099C510.303 318.078 511.204 316.03 511.995 313.969V368.089C511.19 370.15 510.303 372.198 509.333 374.219V320.099Z" fill="url(#paint65_linear_294_3459)"/>
<path d="M503.326 348.031C504.596 346.078 505.784 344.099 506.89 342.105V378.941C505.784 380.934 504.596 382.914 503.326 384.866V348.031Z" fill="url(#paint66_linear_294_3459)"/>
<path opacity="0.75" d="M495.789 347.185C497.332 345.315 498.807 343.417 500.199 341.506V389.427C498.807 391.339 497.332 393.236 495.789 395.107V347.185Z" fill="url(#paint67_linear_294_3459)"/>
<path d="M486.806 373.508C488.608 371.733 490.356 369.931 492.008 368.102V399.462C490.342 401.292 488.608 403.094 486.806 404.869V373.508Z" fill="url(#paint68_linear_294_3459)"/>
<path opacity="0.75" d="M476.444 380.143C478.505 378.464 480.498 376.757 482.41 375.023V409.005C480.485 410.739 478.491 412.446 476.444 414.125V380.143Z" fill="url(#paint69_linear_294_3459)"/>
<path opacity="0.75" d="M464.784 398.847C467.078 397.277 469.303 395.679 471.474 394.041V418.002C469.303 419.626 467.078 421.237 464.784 422.808V398.847Z" fill="url(#paint70_linear_294_3459)"/>
<path opacity="0.75" d="M451.896 402.642C454.408 401.195 456.865 399.707 459.255 398.191V426.453C456.865 427.968 454.408 429.456 451.896 430.904V402.642Z" fill="url(#paint71_linear_294_3459)"/>
<path opacity="0.75" d="M437.86 425.348C440.577 424.023 443.24 422.658 445.847 421.266V434.277C443.24 435.669 440.577 437.035 437.86 438.359V425.348Z" fill="url(#paint72_linear_294_3459)"/>
</g>
<defs>
<filter id="filter0_ii_294_3459" x="0" y="0" width="588" height="851" filterUnits="userSpaceOnUse" color-interpolation-filters="sRGB">
<feFlood flood-opacity="0" result="BackgroundImageFix"/>
<feBlend mode="normal" in="SourceGraphic" in2="BackgroundImageFix" result="shape"/>
<feColorMatrix in="SourceAlpha" type="matrix" values="0 0 0 0 0 0 0 0 0 0 0 0 0 0 0 0 0 0 127 0" result="hardAlpha"/>
<feOffset dy="24"/>
<feGaussianBlur stdDeviation="24"/>
<feComposite in2="hardAlpha" operator="arithmetic" k2="-1" k3="1"/>
<feColorMatrix type="matrix" values="0 0 0 0 0.780392 0 0 0 0 0.827451 0 0 0 0 0.917647 0 0 0 0.05 0"/>
<feBlend mode="normal" in2="shape" result="effect1_innerShadow_294_3459"/>
<feColorMatrix in="SourceAlpha" type="matrix" values="0 0 0 0 0 0 0 0 0 0 0 0 0 0 0 0 0 0 127 0" result="hardAlpha"/>
<feOffset dy="1"/>
<feGaussianBlur stdDeviation="0.5"/>
<feComposite in2="hardAlpha" operator="arithmetic" k2="-1" k3="1"/>
<feColorMatrix type="matrix" values="0 0 0 0 0.780392 0 0 0 0 0.827451 0 0 0 0 0.917647 0 0 0 0.12 0"/>
<feBlend mode="normal" in2="effect1_innerShadow_294_3459" result="effect2_innerShadow_294_3459"/>
</filter>
<linearGradient id="paint0_linear_294_3459" x1="209.66" y1="424.365" x2="209.66" y2="461.459" gradientUnits="userSpaceOnUse">
<stop stop-color="#4620FF"/>
<stop offset="1" stop-color="#5A38FF"/>
</linearGradient>
<linearGradient id="paint1_linear_294_3459" x1="294.533" y1="513.184" x2="294.533" y2="580.908" gradientUnits="userSpaceOnUse">
<stop stop-color="#4620FF"/>
<stop offset="1" stop-color="#5A38FF"/>
</linearGradient>
<linearGradient id="paint2_linear_294_3459" x1="455.22" y1="436.6" x2="455.22" y2="536.849" gradientUnits="userSpaceOnUse">
<stop stop-color="#4620FF"/>
<stop offset="1" stop-color="#5A38FF"/>
</linearGradient>
<linearGradient id="paint3_linear_294_3459" x1="455.22" y1="422.988" x2="455.22" y2="523.251" gradientUnits="userSpaceOnUse">
<stop stop-color="#4620FF"/>
<stop offset="1" stop-color="#5A38FF"/>
</linearGradient>
<linearGradient id="paint4_linear_294_3459" x1="455.22" y1="409.391" x2="455.22" y2="509.64" gradientUnits="userSpaceOnUse">
<stop stop-color="#4620FF"/>
<stop offset="1" stop-color="#5A38FF"/>
</linearGradient>
<linearGradient id="paint5_linear_294_3459" x1="455.22" y1="395.777" x2="455.22" y2="496.027" gradientUnits="userSpaceOnUse">
<stop stop-color="#4620FF"/>
<stop offset="1" stop-color="#5A38FF"/>
</linearGradient>
<linearGradient id="paint6_linear_294_3459" x1="455.22" y1="395.791" x2="455.22" y2="523.387" gradientUnits="userSpaceOnUse">
<stop stop-color="#4620FF"/>
<stop offset="1" stop-color="#5A38FF"/>
</linearGradient>
<linearGradient id="paint7_linear_294_3459" x1="455.22" y1="395.777" x2="455.22" y2="496.027" gradientUnits="userSpaceOnUse">
<stop stop-color="#4620FF"/>
<stop offset="1" stop-color="#5A38FF"/>
</linearGradient>
<linearGradient id="paint8_linear_294_3459" x1="455.22" y1="423.5" x2="455.22" y2="468.292" gradientUnits="userSpaceOnUse">
<stop stop-color="#4620FF"/>
<stop offset="1" stop-color="#5A38FF"/>
</linearGradient>
<linearGradient id="paint9_linear_294_3459" x1="455.206" y1="423.486" x2="455.206" y2="446.508" gradientUnits="userSpaceOnUse">
<stop stop-color="#4620FF"/>
<stop offset="1" stop-color="#5A38FF"/>
</linearGradient>
<linearGradient id="paint10_linear_294_3459" x1="455.223" y1="444.828" x2="455.223" y2="496.04" gradientUnits="userSpaceOnUse">
<stop stop-color="#4620FF"/>
<stop offset="1" stop-color="#5A38FF"/>
</linearGradient>
<linearGradient id="paint11_linear_294_3459" x1="133.45" y1="436.6" x2="133.45" y2="536.863" gradientUnits="userSpaceOnUse">
<stop stop-color="#4620FF"/>
<stop offset="1" stop-color="#5A38FF"/>
</linearGradient>
<linearGradient id="paint12_linear_294_3459" x1="133.45" y1="422.988" x2="133.45" y2="523.251" gradientUnits="userSpaceOnUse">
<stop stop-color="#4620FF"/>
<stop offset="1" stop-color="#5A38FF"/>
</linearGradient>
<linearGradient id="paint13_linear_294_3459" x1="133.45" y1="409.391" x2="133.45" y2="509.654" gradientUnits="userSpaceOnUse">
<stop stop-color="#4620FF"/>
<stop offset="1" stop-color="#5A38FF"/>
</linearGradient>
<linearGradient id="paint14_linear_294_3459" x1="133.45" y1="395.777" x2="133.45" y2="496.04" gradientUnits="userSpaceOnUse">
<stop stop-color="#4620FF"/>
<stop offset="1" stop-color="#5A38FF"/>
</linearGradient>
<linearGradient id="paint15_linear_294_3459" x1="133.45" y1="395.791" x2="133.45" y2="523.414" gradientUnits="userSpaceOnUse">
<stop stop-color="#4620FF"/>
<stop offset="1" stop-color="#5A38FF"/>
</linearGradient>
<linearGradient id="paint16_linear_294_3459" x1="133.45" y1="395.777" x2="133.45" y2="496.04" gradientUnits="userSpaceOnUse">
<stop stop-color="#4620FF"/>
<stop offset="1" stop-color="#5A38FF"/>
</linearGradient>
<linearGradient id="paint17_linear_294_3459" x1="133.45" y1="423.5" x2="133.45" y2="468.292" gradientUnits="userSpaceOnUse">
<stop stop-color="#4620FF"/>
<stop offset="1" stop-color="#5A38FF"/>
</linearGradient>
<linearGradient id="paint18_linear_294_3459" x1="133.437" y1="423.486" x2="133.437" y2="446.508" gradientUnits="userSpaceOnUse">
<stop stop-color="#4620FF"/>
<stop offset="1" stop-color="#5A38FF"/>
</linearGradient>
<linearGradient id="paint19_linear_294_3459" x1="133.44" y1="444.828" x2="133.44" y2="496.04" gradientUnits="userSpaceOnUse">
<stop stop-color="#4620FF"/>
<stop offset="1" stop-color="#5A38FF"/>
</linearGradient>
<linearGradient id="paint20_linear_294_3459" x1="102.929" y1="179.336" x2="102.929" y2="351.184" gradientUnits="userSpaceOnUse">
<stop stop-color="#4620FF"/>
<stop offset="1" stop-color="#5A38FF"/>
</linearGradient>
<linearGradient id="paint21_linear_294_3459" x1="276.122" y1="144.994" x2="276.122" y2="238.495" gradientUnits="userSpaceOnUse">
<stop stop-color="#4620FF"/>
<stop offset="1" stop-color="#5A38FF"/>
</linearGradient>
<linearGradient id="paint22_linear_294_3459" x1="466.538" y1="166.914" x2="466.538" y2="333.929" gradientUnits="userSpaceOnUse">
<stop stop-color="#4620FF"/>
<stop offset="1" stop-color="#5A38FF"/>
</linearGradient>
<linearGradient id="paint23_linear_294_3459" x1="466.347" y1="203.625" x2="466.347" y2="272.353" gradientUnits="userSpaceOnUse">
<stop stop-color="#4620FF"/>
<stop offset="1" stop-color="#5A38FF"/>
</linearGradient>
<linearGradient id="paint24_linear_294_3459" x1="437.164" y1="203.625" x2="437.164" y2="224.282" gradientUnits="userSpaceOnUse">
<stop stop-color="#4620FF"/>
<stop offset="1" stop-color="#5A38FF"/>
</linearGradient>
<linearGradient id="paint25_linear_294_3459" x1="473.119" y1="218.82" x2="473.119" y2="254.987" gradientUnits="userSpaceOnUse">
<stop stop-color="#4620FF"/>
<stop offset="1" stop-color="#5A38FF"/>
</linearGradient>
<linearGradient id="paint26_linear_294_3459" x1="454.176" y1="212.418" x2="454.176" y2="233.73" gradientUnits="userSpaceOnUse">
<stop stop-color="#4620FF"/>
<stop offset="1" stop-color="#5A38FF"/>
</linearGradient>
<linearGradient id="paint27_linear_294_3459" x1="506.937" y1="241.963" x2="506.937" y2="308.507" gradientUnits="userSpaceOnUse">
<stop stop-color="#4620FF"/>
<stop offset="1" stop-color="#5A38FF"/>
</linearGradient>
<linearGradient id="paint28_linear_294_3459" x1="506.937" y1="257.459" x2="506.937" y2="293.011" gradientUnits="userSpaceOnUse">
<stop stop-color="#4620FF"/>
<stop offset="1" stop-color="#5A38FF"/>
</linearGradient>
<linearGradient id="paint29_linear_294_3459" x1="492.608" y1="233.006" x2="492.608" y2="275.016" gradientUnits="userSpaceOnUse">
<stop stop-color="#4620FF"/>
<stop offset="1" stop-color="#5A38FF"/>
</linearGradient>
<linearGradient id="paint30_linear_294_3459" x1="492.608" y1="241.361" x2="492.608" y2="266.66" gradientUnits="userSpaceOnUse">
<stop stop-color="#4620FF"/>
<stop offset="1" stop-color="#5A38FF"/>
</linearGradient>
<linearGradient id="paint31_linear_294_3459" x1="76.2108" y1="236.83" x2="76.2108" y2="331.772" gradientUnits="userSpaceOnUse">
<stop stop-color="#4620FF"/>
<stop offset="1" stop-color="#5A38FF"/>
</linearGradient>
<linearGradient id="paint32_linear_294_3459" x1="97.5092" y1="217.414" x2="97.5092" y2="278.401" gradientUnits="userSpaceOnUse">
<stop stop-color="#4620FF"/>
<stop offset="1" stop-color="#5A38FF"/>
</linearGradient>
<linearGradient id="paint33_linear_294_3459" x1="119.995" y1="199.857" x2="119.995" y2="259.343" gradientUnits="userSpaceOnUse">
<stop stop-color="#4620FF"/>
<stop offset="1" stop-color="#5A38FF"/>
</linearGradient>
<linearGradient id="paint34_linear_294_3459" x1="207.728" y1="190.301" x2="207.728" y2="209.36" gradientUnits="userSpaceOnUse">
<stop stop-color="#4620FF"/>
<stop offset="1" stop-color="#5A38FF"/>
</linearGradient>
<linearGradient id="paint35_linear_294_3459" x1="225.784" y1="203.639" x2="225.784" y2="219.353" gradientUnits="userSpaceOnUse">
<stop stop-color="#4620FF"/>
<stop offset="1" stop-color="#5A38FF"/>
</linearGradient>
<linearGradient id="paint36_linear_294_3459" x1="244.516" y1="188.785" x2="244.516" y2="202.397" gradientUnits="userSpaceOnUse">
<stop stop-color="#4620FF"/>
<stop offset="1" stop-color="#5A38FF"/>
</linearGradient>
<linearGradient id="paint37_linear_294_3459" x1="263.842" y1="174.709" x2="263.842" y2="200.253" gradientUnits="userSpaceOnUse">
<stop stop-color="#4620FF"/>
<stop offset="1" stop-color="#5A38FF"/>
</linearGradient>
<linearGradient id="paint38_linear_294_3459" x1="283.7" y1="163.213" x2="283.7" y2="199.065" gradientUnits="userSpaceOnUse">
<stop stop-color="#4620FF"/>
<stop offset="1" stop-color="#5A38FF"/>
</linearGradient>
<linearGradient id="paint39_linear_294_3459" x1="303.756" y1="174.107" x2="303.756" y2="199.188" gradientUnits="userSpaceOnUse">
<stop stop-color="#4620FF"/>
<stop offset="1" stop-color="#5A38FF"/>
</linearGradient>
<linearGradient id="paint40_linear_294_3459" x1="323.409" y1="168.512" x2="323.409" y2="200.528" gradientUnits="userSpaceOnUse">
<stop stop-color="#4620FF"/>
<stop offset="1" stop-color="#5A38FF"/>
</linearGradient>
<linearGradient id="paint41_linear_294_3459" x1="342.55" y1="156.852" x2="342.55" y2="202.807" gradientUnits="userSpaceOnUse">
<stop stop-color="#4620FF"/>
<stop offset="1" stop-color="#5A38FF"/>
</linearGradient>
<linearGradient id="paint42_linear_294_3459" x1="294.676" y1="536.738" x2="294.676" y2="631.004" gradientUnits="userSpaceOnUse">
<stop stop-color="#4620FF"/>
<stop offset="1" stop-color="#5A38FF"/>
</linearGradient>
<linearGradient id="paint43_linear_294_3459" x1="294.677" y1="523.945" x2="294.677" y2="618.211" gradientUnits="userSpaceOnUse">
<stop stop-color="#4620FF"/>
<stop offset="1" stop-color="#5A38FF"/>
</linearGradient>
<linearGradient id="paint44_linear_294_3459" x1="294.677" y1="511.152" x2="294.677" y2="605.418" gradientUnits="userSpaceOnUse">
<stop stop-color="#4620FF"/>
<stop offset="1" stop-color="#5A38FF"/>
</linearGradient>
<linearGradient id="paint45_linear_294_3459" x1="294.677" y1="498.359" x2="294.677" y2="592.625" gradientUnits="userSpaceOnUse">
<stop stop-color="#4620FF"/>
<stop offset="1" stop-color="#5A38FF"/>
</linearGradient>
<linearGradient id="paint46_linear_294_3459" x1="294.676" y1="498.359" x2="294.676" y2="631.017" gradientUnits="userSpaceOnUse">
<stop stop-color="#4620FF"/>
<stop offset="1" stop-color="#5A38FF"/>
</linearGradient>
<linearGradient id="paint47_linear_294_3459" x1="294.67" y1="466.625" x2="294.67" y2="580.927" gradientUnits="userSpaceOnUse">
<stop stop-color="#4620FF"/>
<stop offset="1" stop-color="#5A38FF"/>
</linearGradient>
<linearGradient id="paint48_linear_294_3459" x1="294.67" y1="451.117" x2="294.67" y2="565.419" gradientUnits="userSpaceOnUse">
<stop stop-color="#4620FF"/>
<stop offset="1" stop-color="#5A38FF"/>
</linearGradient>
<linearGradient id="paint49_linear_294_3459" x1="294.67" y1="435.607" x2="294.67" y2="549.909" gradientUnits="userSpaceOnUse">
<stop stop-color="#4620FF"/>
<stop offset="1" stop-color="#5A38FF"/>
</linearGradient>
<linearGradient id="paint50_linear_294_3459" x1="294.67" y1="420.098" x2="294.67" y2="534.399" gradientUnits="userSpaceOnUse">
<stop stop-color="#4620FF"/>
<stop offset="1" stop-color="#5A38FF"/>
</linearGradient>
<linearGradient id="paint51_linear_294_3459" x1="294.669" y1="420.098" x2="294.669" y2="580.928" gradientUnits="userSpaceOnUse">
<stop stop-color="#4620FF"/>
<stop offset="1" stop-color="#5A38FF"/>
</linearGradient>
<linearGradient id="paint52_linear_294_3459" x1="294.67" y1="420.098" x2="294.67" y2="534.399" gradientUnits="userSpaceOnUse">
<stop stop-color="#4620FF"/>
<stop offset="1" stop-color="#5A38FF"/>
</linearGradient>
<linearGradient id="paint53_linear_294_3459" x1="294.67" y1="476.027" x2="294.67" y2="534.4" gradientUnits="userSpaceOnUse">
<stop stop-color="#4620FF"/>
<stop offset="1" stop-color="#5A38FF"/>
</linearGradient>
<linearGradient id="paint54_linear_294_3459" x1="260.476" y1="359.678" x2="260.476" y2="369.436" gradientUnits="userSpaceOnUse">
<stop stop-color="#4620FF"/>
<stop offset="1" stop-color="#5A38FF"/>
</linearGradient>
<linearGradient id="paint55_linear_294_3459" x1="301.647" y1="365.125" x2="301.647" y2="383.449" gradientUnits="userSpaceOnUse">
<stop stop-color="#4620FF"/>
<stop offset="1" stop-color="#5A38FF"/>
</linearGradient>
<linearGradient id="paint56_linear_294_3459" x1="298.798" y1="291.836" x2="298.798" y2="345.192" gradientUnits="userSpaceOnUse">
<stop stop-color="#4620FF"/>
<stop offset="1" stop-color="#5A38FF"/>
</linearGradient>
<linearGradient id="paint57_linear_294_3459" x1="468.709" y1="289.023" x2="468.709" y2="457.063" gradientUnits="userSpaceOnUse">
<stop stop-color="#4620FF"/>
<stop offset="1" stop-color="#5A38FF"/>
</linearGradient>
<linearGradient id="paint58_linear_294_3459" x1="280.232" y1="388.211" x2="280.232" y2="480.469" gradientUnits="userSpaceOnUse">
<stop stop-color="#4620FF"/>
<stop offset="1" stop-color="#5A38FF"/>
</linearGradient>
<linearGradient id="paint59_linear_294_3459" x1="104.649" y1="276.504" x2="104.649" y2="447.902" gradientUnits="userSpaceOnUse">
<stop stop-color="#4620FF"/>
<stop offset="1" stop-color="#5A38FF"/>
</linearGradient>
<linearGradient id="paint60_linear_294_3459" x1="98.8539" y1="314.377" x2="98.8539" y2="410.234" gradientUnits="userSpaceOnUse">
<stop stop-color="#4620FF"/>
<stop offset="1" stop-color="#5A38FF"/>
</linearGradient>
<linearGradient id="paint61_linear_294_3459" x1="339.342" y1="413.141" x2="339.342" y2="464.666" gradientUnits="userSpaceOnUse">
<stop stop-color="#4620FF"/>
<stop offset="1" stop-color="#5A38FF"/>
</linearGradient>
<linearGradient id="paint62_linear_294_3459" x1="257.397" y1="445.908" x2="257.397" y2="465.596" gradientUnits="userSpaceOnUse">
<stop stop-color="#4620FF"/>
<stop offset="1" stop-color="#5A38FF"/>
</linearGradient>
<linearGradient id="paint63_linear_294_3459" x1="218.432" y1="405.373" x2="218.432" y2="461.309" gradientUnits="userSpaceOnUse">
<stop stop-color="#4620FF"/>
<stop offset="1" stop-color="#5A38FF"/>
</linearGradient>
<linearGradient id="paint64_linear_294_3459" x1="298.533" y1="434.018" x2="298.533" y2="466.179" gradientUnits="userSpaceOnUse">
<stop stop-color="#4620FF"/>
<stop offset="1" stop-color="#5A38FF"/>
</linearGradient>
<linearGradient id="paint65_linear_294_3459" x1="510.664" y1="313.969" x2="510.664" y2="374.219" gradientUnits="userSpaceOnUse">
<stop stop-color="#4620FF"/>
<stop offset="1" stop-color="#5A38FF"/>
</linearGradient>
<linearGradient id="paint66_linear_294_3459" x1="505.108" y1="342.105" x2="505.108" y2="384.866" gradientUnits="userSpaceOnUse">
<stop stop-color="#4620FF"/>
<stop offset="1" stop-color="#5A38FF"/>
</linearGradient>
<linearGradient id="paint67_linear_294_3459" x1="497.994" y1="341.506" x2="497.994" y2="395.107" gradientUnits="userSpaceOnUse">
<stop stop-color="#4620FF"/>
<stop offset="1" stop-color="#5A38FF"/>
</linearGradient>
<linearGradient id="paint68_linear_294_3459" x1="489.407" y1="368.102" x2="489.407" y2="404.869" gradientUnits="userSpaceOnUse">
<stop stop-color="#4620FF"/>
<stop offset="1" stop-color="#5A38FF"/>
</linearGradient>
<linearGradient id="paint69_linear_294_3459" x1="479.427" y1="375.023" x2="479.427" y2="414.125" gradientUnits="userSpaceOnUse">
<stop stop-color="#4620FF"/>
<stop offset="1" stop-color="#5A38FF"/>
</linearGradient>
<linearGradient id="paint70_linear_294_3459" x1="468.129" y1="394.041" x2="468.129" y2="422.808" gradientUnits="userSpaceOnUse">
<stop stop-color="#4620FF"/>
<stop offset="1" stop-color="#5A38FF"/>
</linearGradient>
<linearGradient id="paint71_linear_294_3459" x1="455.575" y1="398.191" x2="455.575" y2="430.904" gradientUnits="userSpaceOnUse">
<stop stop-color="#4620FF"/>
<stop offset="1" stop-color="#5A38FF"/>
</linearGradient>
<linearGradient id="paint72_linear_294_3459" x1="441.854" y1="421.266" x2="441.854" y2="438.359" gradientUnits="userSpaceOnUse">
<stop stop-color="#4620FF"/>
<stop offset="1" stop-color="#5A38FF"/>
</linearGradient>
<clipPath id="clip0_294_3459">
<rect width="498.656" height="486" fill="white" transform="matrix(-1 0 0 1 543.656 145)"/>
</clipPath>
</defs>
</svg>
