<svg width="400" height="334" viewBox="0 0 400 334" fill="none" xmlns="http://www.w3.org/2000/svg">
<g clip-path="url(#clip0_297_12757)">
<path d="M196.357 333.992C304.586 333.992 392.322 328.869 392.322 322.551C392.322 316.232 304.586 311.109 196.357 311.109C88.1276 311.109 0.390625 316.232 0.390625 322.551C0.390625 328.869 88.1276 333.992 196.357 333.992Z" fill="#F5F5F5"/>
<path d="M88.5649 313.747L96.4788 310.746L91.6375 291.623L83.7236 294.625L88.5649 313.747Z" fill="white"/>
<path d="M29.1152 313.9H37.5749L38.8382 294.303H30.3786L29.1152 313.9Z" fill="white"/>
<path d="M38.4238 312.92H28.1045C27.7608 312.92 27.4677 313.162 27.4172 313.496L26.1235 321.016C25.9921 321.794 26.6389 322.532 27.4374 322.522C30.7525 322.461 33.1681 322.269 37.3524 322.269C39.9297 322.269 47.692 322.532 51.2496 322.532C54.8073 322.532 55.0903 319.014 53.6248 318.701C47.035 317.276 42.0219 315.305 39.8388 313.435C39.4446 313.102 38.9494 312.92 38.444 312.92H38.4238Z" fill="#77818A"/>
<path d="M96.0842 309.857L87.4427 313.131C87.1193 313.253 86.9272 313.586 86.9778 313.93L88.0794 321.561C88.1906 322.349 89.0093 322.834 89.7471 322.541C92.8399 321.308 95.4778 319.741 99.4196 318.326C104.028 316.669 108.607 314.9 112.336 312.525C115.267 310.655 114.034 307.128 112.65 307.684C106.363 310.21 104.817 311.039 98.2168 309.766C97.4992 309.624 96.7614 309.614 96.0741 309.877L96.0842 309.857Z" fill="#77818A"/>
<path d="M73.7583 55.9766C76.4266 60.6865 79.2263 65.5378 82.0562 70.2275C84.8862 74.9475 87.787 79.5968 90.8696 83.9731C91.6175 85.0849 92.4463 86.136 93.1841 87.167C93.4974 87.6218 93.6288 87.7532 93.8411 87.925C94.0634 88.0867 94.5789 88.2383 95.3774 88.1676C96.1657 88.117 97.1663 87.8846 98.2073 87.5005C100.299 86.7324 102.543 85.4791 104.737 84.0843C105.828 83.3667 106.93 82.6289 108.021 81.8405C109.093 81.0623 110.194 80.1931 111.185 79.4351L115.935 83.6598C115.025 84.9838 114.136 86.1057 113.156 87.268C112.185 88.4202 111.185 89.5522 110.093 90.6135C109.012 91.6949 107.86 92.736 106.616 93.7164C105.373 94.7068 104.039 95.6569 102.543 96.4857C101.037 97.3145 99.3899 98.0927 97.4089 98.5779C95.4481 99.0428 93.0628 99.2247 90.5765 98.5576C88.0801 97.9209 85.8363 96.324 84.3506 94.626C83.3398 93.4536 82.3493 92.3519 81.4195 91.1896C77.6698 86.5909 74.3547 81.8304 71.2114 76.9892C68.0883 72.1175 65.1977 67.2257 62.4688 62.0408L73.7685 55.9766H73.7583Z" fill="white"/>
<path d="M58.7389 56.3603C56.4547 64.1225 72.525 85.2867 72.525 85.2867L88.7266 74.8663C88.7266 74.8663 83.9662 64.072 77.4976 55.8347C70.8573 47.3751 61.2455 47.84 58.7389 56.3603Z" fill="#2B00FF"/>
<path opacity="0.2" d="M58.7389 56.3603C56.4547 64.1225 72.525 85.2867 72.525 85.2867L88.7266 74.8663C88.7266 74.8663 83.9662 64.072 77.4976 55.8347C70.8573 47.3751 61.2455 47.84 58.7389 56.3603Z" fill="#161527"/>
<path opacity="0.2" d="M68.6133 65.4787C71.9486 66.9038 76.8506 74.9288 79.3975 80.8717L72.5247 85.2885C72.5247 85.2885 66.3392 77.1422 62.1953 69.097C64.3683 66.7117 66.8547 64.7308 68.6133 65.4787Z" fill="#161527"/>
<path d="M110.174 82.0619L113.145 73.7539L121.564 77.7765C121.564 77.7765 119.816 85.185 113.651 85.1749L110.174 82.0619Z" fill="white"/>
<path d="M120.634 68.2773L124.202 72.2191L121.564 77.778L113.145 73.7554L120.634 68.2773Z" fill="white"/>
<path opacity="0.2" d="M91.6375 291.623L94.1339 301.488L86.2201 304.489L83.7236 294.635L91.6375 291.623Z" fill="#161527"/>
<path opacity="0.2" d="M30.3777 294.312H38.8474L38.1803 304.409H29.7207L30.3777 294.312Z" fill="#161527"/>
<path d="M21.0195 52.9342C30.1361 85.0848 28.6403 119.196 29.2164 126.13C35.8466 125.887 60.8313 124.947 74.4556 124.432C82.137 76.514 68.3408 49.8313 68.3408 49.8313C68.3408 49.8313 65.4401 49.2653 61.4882 48.8611C60.2451 48.7297 58.9109 48.6185 57.5263 48.5477C56.7581 48.4972 55.9799 48.477 55.1915 48.4568C50.0875 48.3759 41.739 49.1845 35.9982 49.892C34.7955 50.0436 33.5725 50.2255 32.39 50.4176C31.2883 50.6096 30.217 50.8016 29.1961 51.0038C24.5873 51.9235 21.0296 52.9241 21.0296 52.9241L21.0195 52.9342Z" fill="#2B00FF"/>
<path opacity="0.2" d="M21.0195 52.9342C30.1361 85.0848 28.6403 119.196 29.2164 126.13C35.8466 125.887 60.8313 124.947 74.4556 124.432C82.137 76.514 68.3408 49.8313 68.3408 49.8313C68.3408 49.8313 65.4401 49.2653 61.4882 48.8611C60.2451 48.7297 58.9109 48.6185 57.5263 48.5477C56.7581 48.4972 55.9799 48.477 55.1915 48.4568C50.0875 48.3759 41.739 49.1845 35.9982 49.892C34.7955 50.0436 33.5725 50.2255 32.39 50.4176C31.2883 50.6096 30.217 50.8016 29.1961 51.0038C24.5873 51.9235 21.0296 52.9241 21.0296 52.9241L21.0195 52.9342Z" fill="#161527"/>
<path opacity="0.2" d="M30.6514 66.7207C31.4599 69.8337 30.5402 84.024 27.2857 87.521C26.841 82.9729 26.2548 78.2326 25.4766 73.3813L30.6514 66.7207Z" fill="#161527"/>
<path d="M36.2804 28.1426C37.9481 34.227 39.9998 45.4459 35.9873 49.893C39.5955 52.9756 44.265 56.503 51.6128 56.22C58.9607 55.937 57.3031 50.9845 55.1705 48.4679C48.1663 47.3359 47.9642 42.2116 48.8031 37.3299L36.2703 28.1527L36.2804 28.1426Z" fill="white"/>
<path d="M51.8051 55.1777L53.1392 56.0773L48.2676 57.4922L49.5209 55.2384L51.8051 55.1777Z" fill="#2B00FF"/>
<path d="M53.645 54.7031L53.1396 56.0777L58.0315 57.4927L57.6979 54.8749L53.645 54.7031Z" fill="#2B00FF"/>
<path d="M33.0666 49.4284L34.9971 48.4582C35.6237 48.1448 36.3716 48.2055 36.9275 48.6199C38.9489 50.1258 44.3259 53.6633 51.8051 55.1693C47.9341 57.0188 48.8943 61.9612 48.8943 61.9612C48.8943 61.9612 36.6142 57.9083 32.6725 50.5806C32.4501 50.1561 32.6421 49.6306 33.0666 49.4183V49.4284Z" fill="#D9FAF9"/>
<path d="M57.3245 48.1539L54.5046 47.7294C54.1812 47.6788 53.9487 48.0427 54.1408 48.3156C55.1312 49.7103 56.7686 52.8031 53.6455 54.7032C57.5165 56.5528 58.7092 61.0606 58.7092 61.0606C58.7092 61.0606 63.7425 55.6331 57.8703 48.4672C57.7288 48.2953 57.5367 48.1842 57.3144 48.1539H57.3245Z" fill="#D9FAF9"/>
<path opacity="0.2" d="M41.3852 31.891L48.8038 37.3185C48.6016 38.4707 48.4601 39.6431 48.4702 40.765C45.8121 40.583 41.9815 37.9653 41.4964 35.2263C41.2538 33.8618 41.2134 32.5378 41.3953 31.8809L41.3852 31.891Z" fill="#161527"/>
<path d="M57.7588 15.6699C57.4152 18.6009 54.6054 21.1378 52.776 21.7745L50.502 8.979C55.606 5.38089 58.2339 11.5462 57.7588 15.6699Z" fill="#77818A"/>
<path d="M33.7237 19.1967C35.1993 27.4643 35.6339 32.3865 40.3337 36.1766C47.3985 41.877 57.2428 36.874 58.2737 28.3335C59.2036 20.642 56.6364 8.4125 48.106 6.03734C39.6969 3.6925 32.2581 10.9292 33.7237 19.1967Z" fill="white"/>
<path d="M35.2896 24.7762C39.1202 26.8077 40.8081 22.2393 40.8384 20.3796C40.8889 17.4284 39.6154 14.184 38.0893 13.0015C45.4876 12.9611 60.1126 12.6376 56.4235 5.59301C52.7344 -1.45162 45.3461 -0.643052 39.7772 3.20774C36.836 5.23926 27.3151 3.47052 29.6701 8.95866C24.7075 11.5966 29.0131 21.4308 35.2896 24.7762Z" fill="#77818A"/>
<path d="M30.4797 8.50489C30.4797 8.50489 28.8525 8.65649 26.8311 7.26172C27.4173 9.87945 30.0653 9.94009 30.0653 9.94009L30.4797 8.50489Z" fill="#77818A"/>
<path d="M30.6109 25.9998C31.6115 28.0313 33.451 29.416 35.2299 29.982C37.8981 30.8411 38.5045 28.4053 37.8577 25.828C37.2715 23.5135 36.0182 20.3601 33.2994 20.6228C30.621 20.8755 29.4688 23.6752 30.6109 25.9998Z" fill="white"/>
<path d="M84.2993 213.91C80.8629 188.308 74.4449 124.432 74.4449 124.432L44.71 125.543C44.71 125.543 58.7386 189.37 63.8123 215.254C68.8861 241.138 83.0056 303.6 83.0056 303.6L96.4076 298.526C96.4076 298.526 87.8772 240.521 84.2993 213.899V213.91Z" fill="#77818A"/>
<path opacity="0.2" d="M55.8083 142.756C53.9486 143.221 51.0175 144.363 49.1982 146.142C52.008 159.048 55.6769 176.038 58.8202 191.007C60.973 178.04 61.0336 153.56 55.8083 142.756Z" fill="#161527"/>
<path d="M58.4048 125.04C58.4048 125.04 52.098 194.334 49.2074 218.955C46.0439 245.93 42.092 302.449 42.092 302.449H26.5878C26.5878 302.449 25.9409 252.449 27.9623 226.05C30.2566 195.971 29.2156 126.121 29.2156 126.121L58.4048 125.02V125.04Z" fill="#77818A"/>
<path d="M44.1443 302.79H25.8909L25.5068 297.332L45.8827 296.979L44.1443 302.79Z" fill="#2B00FF"/>
<path d="M98.2069 298.204L82.2378 304.268L80.2871 299.103L98.0351 292.059L98.2069 298.204Z" fill="#2B00FF"/>
<path d="M46.6208 20.0658C46.7017 20.743 47.1262 21.2483 47.5608 21.1978C47.9954 21.1472 48.2986 20.5509 48.2177 19.8738C48.1369 19.1966 47.7124 18.6912 47.2778 18.7418C46.8331 18.7923 46.54 19.3886 46.6208 20.0658Z" fill="#77818A"/>
<path d="M54.2924 19.1869C54.3732 19.8641 54.7977 20.3694 55.2323 20.3189C55.677 20.2683 55.9701 19.672 55.8893 18.9948C55.8084 18.3177 55.3839 17.8123 54.9493 17.8629C54.5147 17.9134 54.2115 18.5097 54.2924 19.1869Z" fill="#77818A"/>
<path d="M51.8965 19.8047C51.8965 19.8047 53.8876 23.5443 55.8079 25.2322C54.7366 26.4855 52.6343 26.2126 52.6343 26.2126L51.8965 19.8047Z" fill="#DFDFDF"/>
<path d="M49.9861 28.3544C47.3684 28.3038 45.9635 26.6463 45.9029 26.5755C45.8321 26.4947 45.8422 26.3633 45.9332 26.2925C46.0141 26.2218 46.1454 26.2319 46.2162 26.3228C46.2364 26.3431 47.8738 28.2634 50.8351 27.9198C50.9463 27.9097 51.0474 27.9905 51.0575 28.0916C51.0676 28.2028 50.9867 28.3038 50.8857 28.3139C50.5723 28.3544 50.2792 28.3645 49.9962 28.3544H49.9861Z" fill="#77818A"/>
<path d="M43.9729 17.8638C43.9022 17.8638 43.8415 17.8436 43.7809 17.8133C43.5889 17.7021 43.5282 17.4595 43.6394 17.2675C44.7613 15.3573 46.6109 15.2562 46.6917 15.2461C46.9141 15.2461 47.096 15.4078 47.1061 15.6302C47.1061 15.8525 46.9444 16.0344 46.722 16.0446C46.6614 16.0446 45.2161 16.1456 44.3267 17.6718C44.2458 17.8032 44.1144 17.8739 43.9729 17.8739V17.8638Z" fill="#77818A"/>
<path d="M57.2931 16.1635C57.1617 16.1635 57.0404 16.0927 56.9596 15.9816C56.0095 14.4857 54.5642 14.4453 54.5035 14.4352C54.2812 14.4352 54.1094 14.2533 54.1094 14.0309C54.1094 13.8085 54.2913 13.6367 54.5137 13.6367C54.5945 13.6367 56.4441 13.6771 57.6367 15.547C57.758 15.7289 57.6974 15.9816 57.5155 16.1028C57.4447 16.1433 57.3638 16.1635 57.2931 16.1635Z" fill="#77818A"/>
<path d="M41.2942 314.405C40.5159 314.405 39.6568 314.243 39.0605 314.102C38.9797 314.082 38.919 314.021 38.8988 313.94C38.8786 313.859 38.919 313.778 38.9797 313.738C39.2829 313.546 41.9208 311.868 42.881 312.353C43.0326 312.424 43.2145 312.586 43.255 312.919C43.3055 313.364 43.1842 313.728 42.8911 313.981C42.5273 314.304 41.9309 314.415 41.2841 314.415L41.2942 314.405ZM39.6265 313.819C41.0819 314.112 42.1836 314.051 42.6283 313.667C42.8204 313.495 42.9012 313.263 42.8608 312.939C42.8406 312.788 42.7799 312.727 42.7193 312.707C42.224 312.454 40.6979 313.182 39.6265 313.819Z" fill="#2B00FF"/>
<path d="M39.1107 314.102C39.1107 314.102 39.0298 314.092 38.9995 314.071C38.9389 314.031 38.8984 313.96 38.8984 313.889C38.8984 313.788 38.9793 311.342 39.9294 310.544C40.1719 310.332 40.4549 310.251 40.7682 310.291C41.2534 310.352 41.3949 310.645 41.4353 310.817C41.6577 311.757 40.0608 313.617 39.2118 314.092C39.1814 314.112 39.1511 314.112 39.1208 314.112L39.1107 314.102ZM40.647 310.675C40.4853 310.675 40.3336 310.736 40.1921 310.847C39.5857 311.363 39.3836 312.788 39.3229 313.495C40.1618 312.838 41.1725 311.433 41.0411 310.878C41.031 310.827 41.0007 310.706 40.7379 310.675C40.7379 310.675 40.6773 310.675 40.647 310.675Z" fill="#2B00FF"/>
<path d="M97.2775 310.654C97.2067 310.654 97.136 310.614 97.0955 310.553C97.0551 310.483 97.0652 310.381 97.1259 310.321C97.419 309.997 99.9862 307.178 101.148 307.349C101.371 307.38 101.543 307.511 101.644 307.733C101.816 308.097 101.816 308.451 101.644 308.774C101.068 309.876 98.6824 310.422 97.3078 310.654C97.3078 310.654 97.2876 310.654 97.2775 310.654ZM101.007 307.744C100.33 307.764 98.8542 309.078 97.8334 310.149C99.6931 309.775 100.967 309.209 101.29 308.593C101.401 308.38 101.401 308.148 101.29 307.905C101.25 307.814 101.189 307.764 101.098 307.754C101.078 307.754 101.047 307.754 101.017 307.754L101.007 307.744Z" fill="#2B00FF"/>
<path d="M97.2774 310.654C97.2774 310.654 97.237 310.654 97.2168 310.654C97.146 310.634 97.0955 310.583 97.0753 310.513C97.045 310.422 96.4587 308.208 97.146 306.995C97.3583 306.631 97.6615 306.389 98.0658 306.278C98.6014 306.136 98.844 306.338 98.9653 306.541C99.4504 307.379 98.2073 309.805 97.4088 310.604C97.3684 310.644 97.328 310.664 97.2774 310.664V310.654ZM98.3791 306.632C98.3285 306.632 98.2578 306.642 98.1769 306.662C97.8838 306.743 97.6615 306.914 97.4998 307.187C97.045 307.986 97.2471 309.36 97.3785 310.027C98.1264 309.067 98.9047 307.238 98.6217 306.733C98.6014 306.702 98.561 306.621 98.3791 306.632Z" fill="#2B00FF"/>
<path d="M30.3177 64.9031C27.7809 70.1386 25.1935 75.5357 22.6869 80.8521C21.4437 83.5304 20.1905 86.1886 19.018 88.867L17.2594 92.8795L16.4205 94.8908L16.2083 95.3961L16.0567 95.7701C15.9556 96.0127 15.8848 96.2552 15.7939 96.4877C15.1875 98.4181 15.0257 100.45 15.4603 102.633C15.8545 104.816 16.8147 107.12 18.1286 109.354C19.4425 111.598 21.09 113.791 22.9396 115.873C23.8593 116.924 24.8195 117.955 25.8302 118.935C26.3356 119.431 26.851 119.916 27.3766 120.381C27.8819 120.856 28.4479 121.351 28.8926 121.745L25.5169 127.132C23.9503 126.334 22.6364 125.556 21.282 124.656C19.9378 123.767 18.6239 122.837 17.3504 121.826C14.8135 119.795 12.4181 117.49 10.2855 114.792C8.17315 112.103 6.31345 108.97 5.18146 105.331C4.05958 101.713 3.77658 97.5287 4.69632 93.6274C4.81761 93.1423 4.92879 92.6571 5.08039 92.1821L5.47457 90.9288L6.19217 88.7053C6.68742 87.2397 7.18266 85.7641 7.72844 84.3188C8.78969 81.4181 9.90146 78.5476 11.0941 75.7177C13.4591 70.0375 16.0162 64.5494 18.8968 59.041L30.3076 64.893L30.3177 64.9031Z" fill="white"/>
<path d="M21.0192 52.9358C13.2974 55.3514 5.70703 81.5388 5.70703 81.5388L23.5763 89.3617C23.5763 89.3617 29.3576 76.7076 32.6828 66.7926C36.3011 55.9881 30.3784 50.0149 21.0293 52.9358H21.0192Z" fill="#2B00FF"/>
<path opacity="0.2" d="M21.0192 52.9358C13.2974 55.3514 5.70703 81.5388 5.70703 81.5388L23.5763 89.3617C23.5763 89.3617 29.3576 76.7076 32.6828 66.7926C36.3011 55.9881 30.3784 50.0149 21.0293 52.9358H21.0192Z" fill="#161527"/>
<path d="M27.0225 120.076L34.4108 124.473L27.2247 131.629C27.2247 131.629 20.9785 126.828 22.8483 123.068L27.0225 120.086V120.076Z" fill="white"/>
<path d="M39.343 131.477L31.9345 136.672L27.2246 131.628L34.4107 124.473L39.343 131.477Z" fill="white"/>
<path d="M396.849 118.19L396.496 123.059L397.504 123.132L397.857 118.263L396.849 118.19Z" fill="#2B00FF"/>
<path d="M398.17 99.7617L397.147 113.885L398.156 113.958L399.178 99.8347L398.17 99.7617Z" fill="#2B00FF"/>
<path d="M370.52 258.595H122.968C115.408 258.595 109.657 252.409 110.203 244.839L123.302 62.1034C123.847 54.5433 130.478 48.3477 138.038 48.3477H385.6C393.16 48.3477 398.911 54.5332 398.365 62.1034L385.267 244.839C384.721 252.399 378.091 258.595 370.531 258.595H370.52Z" fill="#2B00FF"/>
<path d="M312.942 322.554H232.581L218.259 223.252H298.62L312.942 322.554Z" fill="#2B00FF"/>
<path d="M300.176 316.629H213.256L211.527 322.552H298.458L300.176 316.629Z" fill="#2B00FF"/>
<path d="M302.855 271.058L224.535 266.773L218.259 223.252H295.962L302.855 271.058Z" fill="#77818A"/>
<path d="M367.732 258.595H120.169C112.609 258.595 106.858 252.409 107.404 244.839L120.503 62.1034C121.049 54.5433 127.679 48.3477 135.239 48.3477H382.801C390.361 48.3477 396.112 54.5332 395.567 62.1034L382.468 244.839C381.922 252.399 375.292 258.595 367.732 258.595Z" fill="#77818A"/>
<path d="M394.924 63.871L387.41 168.695L388.378 168.765L395.892 63.9404L394.924 63.871Z" fill="white"/>
<path d="M386.793 177.811L384.19 214.113L385.158 214.183L387.76 177.88L386.793 177.811Z" fill="white"/>
<path d="M367.207 255.17H121.181C115.289 255.17 110.821 250.349 111.246 244.467L124.294 62.4788C124.718 56.5864 129.883 51.7754 135.765 51.7754H381.792C387.684 51.7754 392.151 56.5965 391.727 62.4788L378.679 244.467C378.254 250.359 373.089 255.17 367.207 255.17Z" fill="white"/>
<path opacity="0.2" d="M367.207 255.17H121.181C115.289 255.17 110.821 250.349 111.246 244.467L124.294 62.4788C124.718 56.5864 129.883 51.7754 135.765 51.7754H381.792C387.684 51.7754 392.151 56.5965 391.727 62.4788L378.679 244.467C378.254 250.359 373.089 255.17 367.207 255.17Z" fill="#2B00FF"/>
<path opacity="0.5" d="M184.289 247.106H126.831C123.99 247.106 121.828 244.781 122.03 241.931L134.714 65.0068C134.916 62.1668 137.413 59.832 140.253 59.832H197.711C200.551 59.832 202.714 62.1567 202.512 65.0068L189.828 241.931C189.626 244.771 187.129 247.106 184.289 247.106Z" fill="white"/>
<path opacity="0.4" d="M182.066 84.7852H152.331C149.764 84.7852 147.823 82.693 148.005 80.1258L148.328 75.5676C148.51 73.0004 150.754 70.9082 153.321 70.9082H183.056C185.623 70.9082 187.564 73.0004 187.382 75.5676L187.059 80.1258C186.877 82.693 184.633 84.7852 182.066 84.7852Z" fill="#2B00FF"/>
<path d="M163.156 156.354H117.755C113.287 156.354 109.891 152.696 110.205 148.228L113.459 102.827C113.783 98.3599 117.704 94.7012 122.171 94.7012H167.572C172.04 94.7012 175.436 98.3599 175.122 102.827L171.868 148.228C171.544 152.696 167.623 156.354 163.156 156.354Z" fill="#2B00FF"/>
<path d="M169.664 119.129C167.956 119.129 166.47 120.524 166.349 122.222L165.874 128.812C165.753 130.52 167.047 131.905 168.755 131.905H173.363C173.788 131.905 174.152 131.561 174.182 131.136L174.991 119.887C175.021 119.463 174.698 119.119 174.273 119.119H169.664V119.129Z" fill="white"/>
<path d="M152.149 106.254H123.536C122.848 106.254 122.333 105.698 122.383 105.011C122.434 104.323 123.03 103.768 123.717 103.768H152.331C153.018 103.768 153.533 104.323 153.483 105.011C153.432 105.698 152.836 106.254 152.149 106.254Z" fill="white"/>
<path d="M151.694 112.57H123.08C122.393 112.57 121.878 112.014 121.928 111.327C121.979 110.64 122.575 110.084 123.262 110.084H151.875C152.563 110.084 153.078 110.64 153.028 111.327C152.977 112.014 152.381 112.57 151.694 112.57Z" fill="white"/>
<path d="M141.354 118.898H122.625C121.938 118.898 121.423 118.343 121.473 117.655C121.524 116.968 122.12 116.412 122.807 116.412H141.536C142.223 116.412 142.738 116.968 142.688 117.655C142.637 118.343 142.041 118.898 141.354 118.898Z" fill="white"/>
<path opacity="0.5" d="M152.23 149.017H124.547C121.626 149.017 119.402 146.621 119.615 143.7L120.656 129.156C120.868 126.235 123.425 123.84 126.346 123.84H154.029C156.95 123.84 159.174 126.235 158.961 129.156L157.92 143.7C157.708 146.621 155.151 149.017 152.23 149.017Z" fill="white"/>
<path opacity="0.4" d="M178.074 173.353H143.629C142.366 173.353 141.395 172.312 141.486 171.049C141.577 169.785 142.689 168.744 143.952 168.744H178.397C179.661 168.744 180.631 169.785 180.54 171.049C180.449 172.312 179.337 173.353 178.074 173.353Z" fill="#2B00FF"/>
<path opacity="0.8" d="M171.13 182.398H149.269C148.005 182.398 147.035 181.357 147.126 180.093C147.217 178.83 148.329 177.789 149.592 177.789H171.454C172.717 177.789 173.687 178.83 173.596 180.093C173.505 181.357 172.394 182.398 171.13 182.398Z" fill="white"/>
<path opacity="0.4" d="M176.284 198.306H141.839C140.576 198.306 139.605 197.265 139.696 196.002C139.787 194.738 140.899 193.697 142.162 193.697H176.607C177.871 193.697 178.841 194.738 178.75 196.002C178.659 197.265 177.547 198.306 176.284 198.306Z" fill="#2B00FF"/>
<path opacity="0.8" d="M169.341 207.343H147.48C146.216 207.343 145.246 206.302 145.337 205.039C145.428 203.775 146.54 202.734 147.803 202.734H169.665C170.928 202.734 171.898 203.775 171.807 205.039C171.716 206.302 170.605 207.343 169.341 207.343Z" fill="white"/>
<path opacity="0.4" d="M174.496 223.251H140.051C138.788 223.251 137.817 222.21 137.908 220.947C137.999 219.684 139.111 218.643 140.374 218.643H174.819C176.083 218.643 177.053 219.684 176.962 220.947C176.871 222.21 175.759 223.251 174.496 223.251Z" fill="#2B00FF"/>
<path opacity="0.8" d="M167.552 232.298H145.691C144.427 232.298 143.457 231.257 143.548 229.994C143.639 228.73 144.751 227.689 146.014 227.689H167.876C169.139 227.689 170.109 228.73 170.018 229.994C169.927 231.257 168.816 232.298 167.552 232.298Z" fill="white"/>
<path opacity="0.5" d="M369.876 195.227C371.372 192.953 374.788 193.913 374.606 196.551L371.291 242.791C371.119 245.176 369.32 247.107 367.279 247.107H200.674C198.632 247.107 197.106 245.166 197.278 242.791L199.249 215.32C199.512 211.611 203.281 208.942 206.748 210.024C216.138 212.955 224.183 211.237 231.662 207.527C247.651 199.583 261.033 182.553 279.418 182.553C280.125 182.553 280.813 182.573 281.49 182.613C308.84 184.261 317.168 218.231 338.362 218.231C344.629 218.231 350.339 215.532 355.322 211.671C361.417 206.951 366.399 200.523 369.866 195.227H369.876Z" fill="#2B00FF"/>
<path opacity="0.5" d="M373.333 214.278L371.291 242.79C371.119 245.175 369.32 247.106 367.279 247.106H200.674C198.632 247.106 197.106 245.165 197.278 242.79L201.341 186.13C201.624 182.249 206.708 180.622 208.759 183.755C214.076 191.861 222.252 202.342 231.662 207.516C235.27 209.497 239.04 210.7 242.911 210.7C256.374 210.7 267.825 194.731 281.49 182.603C289.879 175.164 299.086 169.16 310.113 169.16C333.127 169.16 336.523 206.556 355.312 211.67C358.93 212.661 363.125 212.449 368.138 210.528C370.826 209.508 373.515 211.468 373.313 214.278H373.333Z" fill="#2B00FF"/>
<g opacity="0.8">
<path d="M374.151 203.232C374.06 203.232 373.979 203.191 373.909 203.13C373.878 203.1 373.848 203.06 373.838 203.019C373.818 202.979 373.808 202.928 373.808 202.888C373.808 202.787 373.848 202.706 373.909 202.645C374.03 202.514 374.262 202.504 374.394 202.645C374.465 202.706 374.495 202.797 374.495 202.888C374.495 202.928 374.495 202.979 374.475 203.019C374.454 203.06 374.424 203.1 374.394 203.13C374.333 203.191 374.242 203.232 374.151 203.232Z" fill="white"/>
<path d="M212.165 226.912C211.973 226.912 211.821 226.76 211.821 226.568C211.821 226.386 211.973 226.235 212.165 226.235C212.357 226.235 212.509 226.386 212.509 226.568C212.509 226.76 212.357 226.922 212.165 226.922V226.912ZM208.698 226.71C208.506 226.71 208.365 226.528 208.385 226.336C208.405 226.144 208.577 226.012 208.769 226.033C208.961 226.053 209.093 226.225 209.072 226.407C209.052 226.589 208.901 226.72 208.729 226.72C208.729 226.72 208.708 226.72 208.688 226.72L208.698 226.71ZM215.238 226.407C215.217 226.215 215.349 226.043 215.541 226.023C215.733 226.002 215.905 226.134 215.925 226.326C215.945 226.518 215.814 226.69 215.622 226.71H215.581C215.409 226.71 215.258 226.578 215.238 226.407ZM205.282 226.184C205.1 226.144 204.979 225.962 205.009 225.77C205.05 225.588 205.232 225.467 205.424 225.497C205.606 225.537 205.727 225.719 205.697 225.911C205.656 226.073 205.515 226.184 205.353 226.184H205.282ZM218.613 225.841C218.563 225.649 218.674 225.467 218.866 225.416C219.048 225.376 219.23 225.487 219.28 225.669C219.331 225.851 219.21 226.043 219.028 226.093H218.947C218.785 226.093 218.644 225.992 218.613 225.841ZM329.154 225.982C328.962 225.982 328.811 225.831 328.811 225.639C328.811 225.447 328.972 225.295 329.154 225.295C329.346 225.295 329.498 225.447 329.498 225.639C329.498 225.831 329.346 225.982 329.154 225.982ZM332.237 225.497C332.217 225.305 332.358 225.133 332.54 225.123C332.732 225.093 332.904 225.234 332.924 225.426C332.945 225.618 332.803 225.79 332.611 225.81H332.581C332.409 225.81 332.257 225.679 332.237 225.497ZM325.698 225.77C325.516 225.75 325.374 225.578 325.405 225.386C325.425 225.194 325.597 225.062 325.789 225.083C325.981 225.113 326.112 225.285 326.092 225.467C326.062 225.649 325.92 225.78 325.748 225.78C325.748 225.78 325.718 225.78 325.698 225.78V225.77ZM201.927 225.356C201.745 225.305 201.634 225.113 201.684 224.931C201.745 224.749 201.927 224.638 202.119 224.688C202.301 224.749 202.402 224.931 202.351 225.123C202.311 225.275 202.169 225.366 202.018 225.366C202.018 225.366 201.957 225.366 201.927 225.366V225.356ZM335.633 225.022C335.593 224.83 335.714 224.648 335.906 224.618C336.088 224.577 336.27 224.699 336.31 224.891C336.351 225.073 336.229 225.254 336.037 225.295C336.037 225.295 335.997 225.295 335.977 225.295C335.815 225.295 335.663 225.174 335.633 225.012V225.022ZM322.302 225.143C322.11 225.103 321.999 224.921 322.049 224.729C322.09 224.547 322.271 224.436 322.464 224.476C322.645 224.517 322.757 224.709 322.716 224.891C322.676 225.052 322.534 225.153 322.383 225.153C322.383 225.153 322.322 225.153 322.302 225.153V225.143ZM221.888 224.86C221.817 224.678 221.908 224.476 222.09 224.416C222.262 224.345 222.464 224.436 222.535 224.608C222.596 224.79 222.515 224.992 222.333 225.052C222.333 225.052 222.252 225.083 222.212 225.083C222.07 225.083 221.939 224.992 221.888 224.86ZM338.978 224.264C338.928 224.072 339.029 223.88 339.221 223.829C339.403 223.779 339.595 223.89 339.646 224.072C339.696 224.254 339.585 224.446 339.403 224.496C339.403 224.496 339.342 224.517 339.312 224.517C339.16 224.517 339.019 224.416 338.978 224.264ZM318.987 224.143C318.805 224.082 318.714 223.88 318.774 223.708C318.845 223.526 319.037 223.435 319.219 223.496C319.401 223.567 319.492 223.759 319.431 223.941C319.381 224.082 319.239 224.163 319.098 224.163C319.098 224.163 319.017 224.163 318.987 224.143ZM225.031 223.496C224.94 223.334 225.011 223.122 225.183 223.031C225.355 222.95 225.557 223.031 225.648 223.193C225.729 223.354 225.668 223.567 225.496 223.647C225.496 223.647 225.395 223.688 225.335 223.688C225.213 223.688 225.092 223.617 225.031 223.496ZM342.263 223.253C342.193 223.071 342.294 222.879 342.465 222.819C342.637 222.748 342.839 222.849 342.9 223.021C342.961 223.203 342.87 223.405 342.688 223.466C342.688 223.466 342.617 223.486 342.577 223.486C342.435 223.486 342.304 223.395 342.253 223.253H342.263ZM315.793 222.829C315.621 222.758 315.54 222.546 315.621 222.374C315.702 222.202 315.904 222.131 316.076 222.202C316.258 222.283 316.329 222.485 316.248 222.667C316.187 222.788 316.066 222.869 315.934 222.869C315.934 222.869 315.833 222.859 315.793 222.829ZM345.467 222.04C345.396 221.869 345.467 221.666 345.659 221.596C345.831 221.515 346.033 221.596 346.104 221.778C346.185 221.949 346.104 222.152 345.922 222.232C345.922 222.232 345.831 222.253 345.791 222.253C345.649 222.253 345.528 222.172 345.467 222.04ZM228.023 221.838C227.922 221.677 227.973 221.454 228.134 221.353C228.296 221.252 228.508 221.303 228.609 221.464C228.71 221.626 228.66 221.838 228.498 221.939C228.498 221.939 228.377 222 228.316 222C228.205 222 228.094 221.939 228.023 221.838ZM312.71 221.282C312.538 221.191 312.478 220.979 312.569 220.807C312.66 220.646 312.872 220.585 313.044 220.676C313.205 220.767 313.266 220.969 313.175 221.141C313.114 221.252 312.993 221.323 312.872 221.323C312.821 221.323 312.761 221.303 312.71 221.282ZM348.611 220.656C348.53 220.484 348.611 220.282 348.772 220.201C348.944 220.12 349.156 220.201 349.237 220.363C349.318 220.534 349.237 220.737 349.065 220.817C349.065 220.817 348.964 220.858 348.914 220.858C348.782 220.858 348.661 220.787 348.6 220.656H348.611ZM230.873 219.938C230.762 219.776 230.803 219.564 230.954 219.453C231.106 219.342 231.328 219.372 231.439 219.524C231.55 219.675 231.51 219.898 231.358 220.009C231.298 220.049 231.227 220.08 231.156 220.08C231.045 220.08 230.944 220.029 230.873 219.938ZM309.729 219.554C309.567 219.453 309.516 219.241 309.617 219.079C309.708 218.907 309.921 218.857 310.082 218.958C310.254 219.059 310.305 219.271 310.204 219.433C310.133 219.544 310.022 219.605 309.911 219.605C309.85 219.605 309.779 219.584 309.729 219.554ZM351.683 219.119C351.592 218.958 351.653 218.746 351.825 218.655C351.986 218.564 352.199 218.634 352.29 218.796C352.38 218.968 352.32 219.17 352.148 219.271C352.148 219.271 352.037 219.312 351.986 219.312C351.865 219.312 351.744 219.241 351.683 219.119ZM233.622 217.866C233.501 217.715 233.521 217.502 233.673 217.381C233.825 217.26 234.037 217.29 234.158 217.432C234.279 217.583 234.249 217.806 234.108 217.927C234.037 217.977 233.966 217.998 233.885 217.998C233.784 217.998 233.683 217.957 233.622 217.866ZM306.818 217.715C306.656 217.603 306.616 217.391 306.717 217.229C306.828 217.068 307.04 217.027 307.202 217.128C307.353 217.229 307.404 217.452 307.303 217.603C307.232 217.715 307.121 217.765 307.01 217.765C306.939 217.765 306.878 217.745 306.818 217.715ZM354.685 217.462C354.584 217.29 354.644 217.088 354.806 216.987C354.968 216.896 355.18 216.946 355.281 217.108C355.372 217.27 355.322 217.482 355.16 217.583C355.099 217.614 355.039 217.634 354.978 217.634C354.867 217.634 354.746 217.573 354.685 217.462ZM303.957 215.804C303.806 215.693 303.755 215.481 303.867 215.319C303.978 215.168 304.19 215.127 304.352 215.228C304.503 215.339 304.544 215.552 304.443 215.713C304.372 215.814 304.261 215.865 304.15 215.865C304.089 215.865 304.018 215.845 303.957 215.804ZM357.616 215.683C357.515 215.521 357.565 215.309 357.727 215.198C357.889 215.097 358.101 215.147 358.202 215.309C358.303 215.471 358.253 215.683 358.091 215.784C358.091 215.784 357.98 215.845 357.909 215.845C357.798 215.845 357.687 215.784 357.616 215.683ZM236.281 215.703C236.159 215.562 236.18 215.339 236.321 215.218C236.473 215.097 236.695 215.117 236.816 215.259C236.938 215.41 236.917 215.622 236.766 215.744C236.705 215.804 236.624 215.825 236.543 215.825C236.452 215.825 236.351 215.784 236.281 215.703ZM360.496 213.803C360.385 213.641 360.426 213.429 360.577 213.318C360.739 213.207 360.951 213.247 361.062 213.409C361.163 213.561 361.133 213.783 360.971 213.884C360.911 213.924 360.84 213.945 360.779 213.945C360.668 213.945 360.557 213.894 360.496 213.803ZM301.117 213.884C300.956 213.773 300.915 213.561 301.026 213.409C301.128 213.247 301.34 213.207 301.501 213.308C301.663 213.419 301.704 213.631 301.592 213.793C301.532 213.894 301.421 213.945 301.309 213.945C301.249 213.945 301.178 213.924 301.117 213.884ZM238.919 213.5C238.787 213.358 238.807 213.136 238.959 213.015C239.1 212.894 239.323 212.914 239.444 213.055C239.565 213.207 239.545 213.419 239.404 213.54C239.333 213.601 239.262 213.621 239.181 213.621C239.08 213.621 238.979 213.581 238.919 213.5ZM298.267 211.984C298.105 211.873 298.055 211.66 298.166 211.509C298.267 211.347 298.49 211.297 298.641 211.408C298.803 211.509 298.843 211.721 298.742 211.883C298.682 211.984 298.57 212.034 298.459 212.034C298.389 212.034 298.328 212.034 298.267 211.984ZM363.306 211.822C363.185 211.671 363.225 211.458 363.377 211.347C363.529 211.236 363.751 211.266 363.862 211.418C363.973 211.569 363.933 211.792 363.781 211.903C363.721 211.943 363.65 211.964 363.579 211.964C363.478 211.964 363.367 211.923 363.306 211.822ZM241.556 211.307C241.435 211.165 241.455 210.943 241.607 210.822C241.759 210.7 241.971 210.731 242.092 210.872C242.213 211.024 242.193 211.246 242.042 211.357C241.981 211.418 241.9 211.438 241.819 211.438C241.728 211.438 241.627 211.398 241.556 211.307ZM295.387 210.134C295.225 210.033 295.174 209.821 295.276 209.659C295.377 209.498 295.589 209.447 295.751 209.548C295.912 209.649 295.963 209.861 295.862 210.023C295.791 210.134 295.68 210.195 295.569 210.195C295.508 210.195 295.437 210.175 295.387 210.134ZM366.055 209.77C365.934 209.619 365.964 209.396 366.116 209.285C366.268 209.164 366.48 209.194 366.601 209.346C366.712 209.498 366.682 209.71 366.54 209.831C366.48 209.882 366.409 209.902 366.338 209.902C366.227 209.902 366.126 209.851 366.065 209.77H366.055ZM244.245 209.184C244.134 209.033 244.164 208.81 244.316 208.699C244.467 208.588 244.68 208.618 244.801 208.77C244.912 208.921 244.882 209.134 244.73 209.255C244.669 209.295 244.599 209.326 244.528 209.326C244.417 209.326 244.316 209.275 244.245 209.184ZM292.446 208.386C292.284 208.295 292.223 208.083 292.324 207.911C292.415 207.749 292.627 207.688 292.789 207.789C292.961 207.88 293.022 208.093 292.921 208.254C292.86 208.366 292.739 208.436 292.617 208.436C292.567 208.436 292.506 208.416 292.446 208.386ZM368.734 207.628C368.612 207.486 368.633 207.264 368.784 207.143C368.936 207.021 369.148 207.042 369.269 207.193C369.391 207.335 369.37 207.557 369.229 207.678C369.158 207.729 369.077 207.759 369.007 207.759C368.905 207.759 368.804 207.719 368.734 207.628ZM247.034 207.183C246.923 207.021 246.964 206.809 247.125 206.698C247.287 206.597 247.499 206.637 247.611 206.799C247.712 206.951 247.671 207.173 247.51 207.274C247.449 207.314 247.388 207.335 247.317 207.335C247.206 207.335 247.095 207.274 247.034 207.183ZM289.444 206.759C289.282 206.678 289.211 206.465 289.302 206.294C289.383 206.122 289.595 206.061 289.767 206.142C289.929 206.233 290 206.445 289.919 206.617C289.858 206.728 289.727 206.799 289.605 206.799C289.605 206.799 289.494 206.799 289.444 206.759ZM371.362 205.414C371.24 205.273 371.25 205.05 371.392 204.929C371.533 204.808 371.746 204.818 371.877 204.959C371.998 205.101 371.978 205.323 371.837 205.445C371.776 205.505 371.695 205.536 371.614 205.536C371.513 205.536 371.422 205.495 371.351 205.414H371.362ZM249.935 205.354C249.834 205.192 249.895 204.98 250.067 204.879C250.228 204.788 250.441 204.848 250.532 205.01C250.623 205.182 250.572 205.384 250.4 205.485C250.34 205.515 250.279 205.525 250.228 205.525C250.107 205.525 249.986 205.465 249.925 205.354H249.935ZM286.371 205.293C286.199 205.212 286.119 205.01 286.199 204.838C286.27 204.666 286.482 204.586 286.654 204.666C286.826 204.737 286.907 204.939 286.826 205.121C286.775 205.242 286.644 205.323 286.513 205.323C286.462 205.323 286.422 205.323 286.371 205.293ZM283.218 204.009C283.036 203.949 282.945 203.747 283.016 203.565C283.076 203.393 283.278 203.302 283.46 203.363C283.632 203.433 283.723 203.625 283.662 203.807C283.612 203.949 283.481 204.03 283.339 204.03C283.339 204.03 283.258 204.03 283.218 204.009ZM252.967 203.767C252.897 203.595 252.967 203.383 253.139 203.312C253.311 203.231 253.523 203.312 253.604 203.484C253.675 203.656 253.604 203.858 253.422 203.939C253.422 203.939 253.331 203.969 253.281 203.969C253.149 203.969 253.028 203.898 252.967 203.767ZM279.984 202.948C279.802 202.888 279.701 202.706 279.751 202.514C279.802 202.332 280.004 202.231 280.186 202.281C280.368 202.332 280.469 202.524 280.418 202.716C280.368 202.857 280.236 202.958 280.085 202.958C280.085 202.958 280.024 202.958 279.984 202.958V202.948ZM256.141 202.473C256.08 202.291 256.181 202.099 256.363 202.039C256.545 201.978 256.737 202.079 256.798 202.261C256.859 202.443 256.757 202.635 256.576 202.695C256.576 202.695 256.505 202.716 256.464 202.716C256.323 202.716 256.191 202.625 256.141 202.473ZM276.689 202.109C276.507 202.069 276.385 201.887 276.426 201.705C276.466 201.513 276.648 201.392 276.84 201.442C277.022 201.473 277.143 201.654 277.103 201.846C277.073 202.008 276.921 202.119 276.759 202.119C276.759 202.119 276.719 202.119 276.689 202.119V202.109ZM259.426 201.533C259.385 201.341 259.507 201.159 259.699 201.119C259.881 201.078 260.062 201.2 260.103 201.382C260.143 201.574 260.032 201.756 259.84 201.796C259.84 201.796 259.79 201.796 259.769 201.796C259.608 201.796 259.466 201.685 259.426 201.523V201.533ZM273.343 201.533C273.161 201.503 273.02 201.331 273.05 201.139C273.07 200.947 273.252 200.816 273.434 200.846C273.616 200.866 273.747 201.048 273.727 201.24C273.697 201.402 273.555 201.533 273.384 201.533H273.333H273.343ZM262.802 200.957C262.781 200.765 262.923 200.603 263.105 200.583C263.297 200.553 263.469 200.694 263.489 200.886C263.509 201.078 263.368 201.24 263.175 201.27H263.145C262.973 201.27 262.822 201.139 262.802 200.957ZM269.957 201.179H269.967C269.775 201.179 269.624 201.008 269.644 200.816C269.644 200.624 269.816 200.482 270.008 200.492C270.2 200.492 270.341 200.674 270.331 200.866C270.331 201.048 270.17 201.19 269.988 201.19C269.988 201.19 269.967 201.179 269.957 201.179ZM266.218 200.735C266.208 200.543 266.369 200.391 266.561 200.391C266.743 200.381 266.905 200.543 266.905 200.735C266.905 200.927 266.753 201.078 266.561 201.078C266.369 201.078 266.218 200.927 266.218 200.735Z" fill="white"/>
<path d="M198.632 224.285C198.632 224.285 198.541 224.285 198.5 224.255C198.46 224.235 198.419 224.215 198.389 224.174C198.359 224.144 198.329 224.113 198.318 224.063C198.298 224.022 198.288 223.982 198.288 223.932C198.288 223.841 198.329 223.76 198.389 223.689C198.419 223.659 198.46 223.628 198.5 223.618C198.581 223.578 198.682 223.578 198.763 223.618C198.814 223.618 198.844 223.659 198.874 223.689C198.945 223.76 198.975 223.841 198.975 223.932C198.975 223.982 198.975 224.022 198.955 224.063C198.935 224.113 198.915 224.144 198.874 224.174C198.844 224.215 198.804 224.235 198.763 224.255C198.723 224.275 198.682 224.285 198.632 224.285Z" fill="white"/>
</g>
<path d="M254.049 120.788L251.684 118.241C247.5 122.153 241.921 124.568 235.957 124.568C225.962 124.568 218.038 117.776 216.239 108.559L212.701 109.488L209.467 110.337C210.417 115.169 212.64 119.575 215.925 123.113C226.184 134.16 244.366 134.16 256.212 123.113L254.059 120.788H254.049Z" fill="white"/>
<path d="M259.092 82.8145L255.999 85.695L253.867 87.6861C257.495 91.5874 259.537 96.9947 259.102 102.958C258.678 108.921 255.868 114.328 251.684 118.24L253.533 120.231L256.201 123.101C261.922 117.755 265.449 110.518 265.985 102.958C266.531 95.4079 264.045 88.1611 259.082 82.8145H259.092Z" fill="#77818A"/>
<path d="M259.092 82.8146C248.833 71.7675 230.65 71.7675 218.805 82.8146C211.114 90.0007 207.536 100.512 209.456 110.326L213.458 109.275L216.228 108.547C215.884 106.768 215.763 104.888 215.904 102.958C216.763 91.0316 227.123 81.3591 239.049 81.3591C245.013 81.3591 250.238 83.7747 253.866 87.6862L256.595 85.1392L259.082 82.8146H259.092Z" fill="#2B00FF"/>
<path d="M288.119 120.786L290.848 118.239C287.22 114.328 285.188 108.93 285.623 102.957C286.341 92.9612 293.729 84.5521 303.128 82.086L302.451 78.6092L301.825 75.4355C296.902 76.7293 292.314 79.2762 288.524 82.8036C276.678 93.8506 275.374 112.033 285.633 123.09L288.119 120.766V120.786Z" fill="white"/>
<path d="M325.92 123.1L323.242 120.22L321.392 118.229C317.208 122.14 311.639 124.566 305.665 124.566C299.692 124.566 294.467 122.15 290.838 118.239L288.706 120.23L285.623 123.1C290.586 128.447 297.61 131.449 305.17 131.449C312.73 131.449 320.189 128.447 325.91 123.1H325.92Z" fill="#77818A"/>
<path d="M325.92 123.101C337.756 112.054 339.06 93.8717 328.811 82.8146C322.14 75.6284 311.831 72.8187 301.825 75.4465L302.593 79.3681L303.129 82.0869C304.948 81.6118 306.848 81.3591 308.769 81.3591C320.695 81.3591 329.67 91.0316 328.821 102.958C328.397 108.921 325.587 114.318 321.403 118.23L323.768 120.777L325.92 123.101Z" fill="#2B00FF"/>
<path opacity="0.3" d="M373.655 77.0125C374.232 77.0125 374.757 77.2348 375.141 77.6391C375.525 78.0434 375.707 78.5892 375.667 79.1754L374.414 96.6101C374.323 97.8532 373.201 98.9044 371.957 98.9044H354.523C353.947 98.9044 353.421 98.682 353.037 98.2777C352.653 97.8735 352.471 97.3277 352.512 96.7415L353.765 79.3068C353.856 78.0636 354.978 77.0125 356.221 77.0125H373.655ZM373.655 76.123H356.221C354.503 76.123 352.997 77.5279 352.875 79.2461L351.622 96.6808C351.501 98.399 352.805 99.8039 354.523 99.8039H371.957C373.676 99.8039 375.182 98.399 375.303 96.6808L376.556 79.2461C376.677 77.5279 375.374 76.123 373.655 76.123Z" fill="#2B00FF"/>
<path opacity="0.3" d="M371.503 107.011C372.079 107.011 372.605 107.233 372.989 107.637C373.373 108.041 373.555 108.587 373.514 109.173L372.261 126.608C372.17 127.851 371.048 128.902 369.805 128.902H352.37C351.794 128.902 351.269 128.68 350.885 128.276C350.501 127.872 350.319 127.326 350.359 126.74L351.612 109.305C351.703 108.062 352.825 107.011 354.068 107.011H371.503ZM371.503 106.121H354.068C352.35 106.121 350.844 107.526 350.723 109.244L349.47 126.679C349.348 128.397 350.652 129.802 352.37 129.802H369.805C371.523 129.802 373.029 128.397 373.151 126.679L374.404 109.244C374.525 107.526 373.221 106.121 371.503 106.121Z" fill="#2B00FF"/>
<path d="M345.982 203.483C346.467 203.483 346.912 203.675 347.235 204.009C347.548 204.352 347.71 204.807 347.67 205.302C347.589 206.374 346.659 207.253 345.588 207.253C345.103 207.253 344.658 207.061 344.334 206.728C344.021 206.384 343.859 205.929 343.9 205.434C343.981 204.362 344.91 203.483 345.982 203.483ZM345.982 202.594C344.446 202.594 343.122 203.837 343.01 205.373C342.899 206.909 344.051 208.153 345.588 208.153C347.124 208.153 348.448 206.909 348.559 205.373C348.67 203.837 347.518 202.594 345.982 202.594Z" fill="#2B00FF"/>
<path d="M346.204 202.603L345.76 202.573L345.82 201.684L346.265 201.714L346.204 202.603Z" fill="#2B00FF"/>
<path d="M346.397 199.883L345.952 199.853L346.084 198.024L346.528 198.054L346.397 199.883ZM346.66 196.235L346.215 196.204L346.346 194.375L346.791 194.405L346.66 196.235ZM346.922 192.586L346.478 192.556L346.609 190.726L347.054 190.757L346.922 192.586ZM347.185 188.937L346.74 188.907L346.872 187.078L347.317 187.108L347.185 188.937ZM347.448 185.289L347.003 185.258L347.135 183.429L347.579 183.459L347.448 185.289ZM347.711 181.64L347.266 181.61L347.397 179.78L347.842 179.811L347.711 181.64ZM347.974 177.991L347.529 177.961L347.66 176.132L348.105 176.162L347.974 177.991ZM348.236 174.343L347.792 174.312L347.923 172.483L348.368 172.513L348.236 174.343ZM348.499 170.694L348.054 170.664L348.186 168.834L348.631 168.865L348.499 170.694ZM348.762 167.045L348.317 167.015L348.449 165.186L348.893 165.216L348.762 167.045ZM349.025 163.397L348.58 163.367L348.711 161.537L349.156 161.567L349.025 163.397Z" fill="#2B00FF"/>
<path d="M348.886 158.806L348.823 159.693L349.267 159.725L349.33 158.838L348.886 158.806Z" fill="#2B00FF"/>
<path d="M367.956 159.315H207.91C207.011 159.315 206.182 158.961 205.575 158.315C204.969 157.668 204.676 156.809 204.747 155.909L205.535 144.892C205.666 143.053 207.273 141.547 209.113 141.547H369.158C370.058 141.547 370.887 141.901 371.493 142.547C372.1 143.194 372.393 144.053 372.332 144.953L371.544 155.97C371.412 157.809 369.805 159.315 367.966 159.315H367.956ZM209.113 142.517C207.769 142.517 206.596 143.609 206.495 144.963L205.707 155.98C205.666 156.617 205.869 157.213 206.283 157.658C206.697 158.102 207.273 158.355 207.91 158.355H367.956C369.3 158.355 370.472 157.263 370.573 155.909L371.362 144.892C371.402 144.256 371.2 143.659 370.786 143.215C370.371 142.77 369.795 142.527 369.158 142.527H209.113V142.517Z" fill="#2B00FF"/>
<path opacity="0.8" fill-rule="evenodd" clip-rule="evenodd" d="M364.519 148.642H212.812C211.983 148.642 211.356 147.965 211.417 147.146C211.478 146.317 212.195 145.65 213.024 145.65H364.731C365.56 145.65 366.187 146.328 366.126 147.146C366.065 147.975 365.348 148.642 364.519 148.642Z" fill="white"/>
<path opacity="0.8" fill-rule="evenodd" clip-rule="evenodd" d="M339.241 154.968H212.357C211.528 154.968 210.901 154.291 210.962 153.472C211.023 152.644 211.74 151.977 212.569 151.977H339.453C340.282 151.977 340.909 152.654 340.848 153.472C340.787 154.301 340.07 154.968 339.241 154.968Z" fill="white"/>
</g>
<defs>
<clipPath id="clip0_297_12757">
<rect width="398.815" height="333.705" fill="white" transform="translate(0.390625 0.287109)"/>
</clipPath>
</defs>
</svg>
