<svg width="352" height="351" viewBox="0 0 352 351" fill="none" xmlns="http://www.w3.org/2000/svg">
<g clip-path="url(#clip0_297_12450)">
<path d="M14.1466 303.056C14.1466 305.943 16.5025 308.305 19.3802 308.305H302.393C305.27 308.305 307.626 305.943 307.626 303.056L309.98 139.764C309.98 136.876 306.592 131.24 300.384 131.664L23.7947 124.479C20.1822 124.385 16.6905 125.781 14.1331 128.341C11.5758 130.901 10.1752 134.399 10.2616 138.022L14.1485 303.056H14.1466Z" fill="#77818A"/>
<path d="M19.3116 298.019C19.3116 300.752 21.539 302.99 24.2633 302.99H295.565C298.287 302.99 300.517 300.754 300.517 298.019L302.738 149.782C302.477 140.861 294.686 137.654 289.965 137.845L24.8791 130.704C22.3409 130.637 19.8891 131.617 18.0914 133.417C16.2938 135.216 15.3058 137.679 15.3691 140.228L19.3116 298.021V298.019Z" fill="#2B00FF"/>
<path d="M297.586 227.595H297.574C297.173 227.589 296.853 227.258 296.858 226.855L297.035 214.834C297.041 214.435 297.365 214.115 297.76 214.115H297.772C298.173 214.121 298.493 214.452 298.487 214.855L298.311 226.876C298.305 227.275 297.981 227.595 297.586 227.595Z" fill="white"/>
<path d="M298.016 198.137H298.004C297.603 198.131 297.283 197.799 297.289 197.397L297.962 151.353C297.949 148.618 297.122 146.433 295.504 144.877C292.483 141.97 287.687 142.119 287.485 142.128L202.758 139.848C202.357 139.838 202.041 139.503 202.052 139.1C202.062 138.698 202.371 138.355 202.796 138.391L287.474 140.672C288.001 140.641 293.106 140.553 296.508 143.823C298.421 145.665 299.399 148.2 299.412 151.359L298.739 197.416C298.733 197.815 298.409 198.135 298.014 198.135L298.016 198.137Z" fill="white"/>
<path d="M1.28979 321.861L316.036 321.861C316.635 321.861 317.12 321.374 317.12 320.773V308.601C317.12 308 316.635 307.513 316.036 307.513L1.28979 307.513C0.691132 307.513 0.205811 308 0.205811 308.601V320.773C0.205811 321.374 0.691132 321.861 1.28979 321.861Z" fill="#77818A"/>
<path opacity="0.5" d="M279.241 212.426H34.1404C29.112 212.426 25.0352 208.333 25.0352 203.284V149.217C25.0352 144.107 29.2079 139.989 34.2958 140.076L279.398 144.254C284.367 144.338 288.35 148.406 288.35 153.395V203.284C288.35 208.333 284.273 212.426 279.245 212.426H279.241Z" fill="white"/>
<path opacity="0.5" d="M278.28 297.355H36.0355C30.2167 297.355 25.501 292.511 25.501 286.536V233.937C25.501 227.987 30.1783 223.154 35.9703 223.117L278.214 221.565C284.058 221.528 288.816 226.382 288.816 232.384V286.536C288.816 292.511 284.098 297.355 278.281 297.355H278.28Z" fill="white"/>
<g opacity="0.53">
<path d="M45.0317 231.914H33.2061V289.708H45.0317V231.914Z" fill="white"/>
<path d="M64.7925 231.914H52.9668V289.708H64.7925V231.914Z" fill="white"/>
<path d="M84.5532 231.914H72.7275V289.708H84.5532V231.914Z" fill="white"/>
<path d="M104.314 231.914H92.4883V289.708H104.314V231.914Z" fill="white"/>
<path d="M124.074 231.914H112.248V289.708H124.074V231.914Z" fill="white"/>
<path d="M143.835 231.914H132.01V289.708H143.835V231.914Z" fill="white"/>
<path d="M163.595 231.914H151.77V289.708H163.595V231.914Z" fill="white"/>
</g>
<path d="M45.0317 259.463H33.2061V289.708H45.0317V259.463Z" fill="#77818A"/>
<path d="M64.7925 269.855H52.9668V289.707H64.7925V269.855Z" fill="#77818A"/>
<path d="M84.5532 244.166H72.7275V289.707H84.5532V244.166Z" fill="#77818A"/>
<path d="M104.314 278.768H92.4883V289.708H104.314V278.768Z" fill="#77818A"/>
<path d="M124.074 250.254H112.248V289.707H124.074V250.254Z" fill="#77818A"/>
<path d="M143.835 257.086H132.01V289.708H143.835V257.086Z" fill="#77818A"/>
<path d="M163.595 264.51H151.77V289.707H163.595V264.51Z" fill="#77818A"/>
<path d="M125.565 186.108C130.933 178.16 134.067 168.569 134.067 158.243C134.067 139.281 123.495 122.803 107.945 114.418L84.5508 158.243L125.565 186.108Z" fill="#5C5E61"/>
<path d="M107.946 114.416C100.978 110.66 93.0147 108.525 84.5522 108.525C81.1315 108.525 77.7914 108.874 74.5645 109.537L84.5522 158.241L107.946 114.416Z" fill="#C6C9D3"/>
<path d="M74.5651 109.539C63.3764 111.839 53.5632 117.932 46.5127 126.417L84.5509 158.243L74.5632 109.539H74.5651Z" fill="#F4F5FF"/>
<path d="M84.5533 158.242L39.3936 178.662C47.1539 195.936 64.455 207.96 84.5533 207.96C101.616 207.96 116.661 199.294 125.567 186.109L84.5533 158.244V158.242Z" fill="#77818A"/>
<path d="M46.5127 126.416C43.3568 130.214 40.7534 134.495 38.8291 139.129C56.3604 146.021 84.551 158.243 84.551 158.243L46.5127 126.416Z" fill="#EFEFF4"/>
<path d="M38.8309 139.129C36.3887 145.013 35.0361 151.468 35.0361 158.243C35.0361 165.52 36.594 172.433 39.3931 178.662L84.5528 158.243C84.5528 158.243 56.3623 146.021 38.8309 139.129Z" fill="#77818A"/>
<path d="M245.854 18.6543H13.8332C11.357 18.6543 9.34961 20.6697 9.34961 23.1558V94.4853C9.34961 96.9714 11.357 98.9868 13.8332 98.9868H245.854C248.33 98.9868 250.337 96.9714 250.337 94.4853V23.1558C250.337 20.6697 248.33 18.6543 245.854 18.6543Z" fill="#2B00FF"/>
<path opacity="0.91" d="M37.6356 49.0156C28.4843 49.0156 21.0654 56.4643 21.0654 65.6523C21.0654 74.8403 28.4843 82.289 37.6356 82.289C46.7869 82.289 54.2057 74.8403 54.2057 65.6523C54.2057 56.4643 46.7869 49.0156 37.6356 49.0156ZM37.6356 75.1312C32.4211 75.1312 28.1946 70.8877 28.1946 65.6523C28.1946 60.4169 32.4211 56.1734 37.6356 56.1734C42.8501 56.1734 47.0765 60.4169 47.0765 65.6523C47.0765 70.8877 42.8501 75.1312 37.6356 75.1312Z" fill="white"/>
<mask id="mask0_297_12450" style="mask-type:luminance" maskUnits="userSpaceOnUse" x="21" y="49" width="34" height="34">
<path d="M37.6356 49.0156C28.4843 49.0156 21.0654 56.4643 21.0654 65.6523C21.0654 74.8403 28.4843 82.289 37.6356 82.289C46.7869 82.289 54.2057 74.8403 54.2057 65.6523C54.2057 56.4643 46.7869 49.0156 37.6356 49.0156ZM37.6356 75.1312C32.4211 75.1312 28.1946 70.8877 28.1946 65.6523C28.1946 60.4169 32.4211 56.1734 37.6356 56.1734C42.8501 56.1734 47.0765 60.4169 47.0765 65.6523C47.0765 70.8877 42.8501 75.1312 37.6356 75.1312Z" fill="white"/>
</mask>
<g mask="url(#mask0_297_12450)">
<path d="M63.7183 61.9941H14.4971V82.9089H63.7183V61.9941Z" fill="#5761D7"/>
</g>
<path opacity="0.57" d="M78.0301 49.0156C68.8788 49.0156 61.46 56.4643 61.46 65.6523C61.46 74.8403 68.8788 82.289 78.0301 82.289C87.1814 82.289 94.6002 74.8403 94.6002 65.6523C94.6002 56.4643 87.1814 49.0156 78.0301 49.0156ZM78.0301 75.1312C72.8156 75.1312 68.5891 70.8877 68.5891 65.6523C68.5891 60.4169 72.8156 56.1734 78.0301 56.1734C83.2446 56.1734 87.4711 60.4169 87.4711 65.6523C87.4711 70.8877 83.2446 75.1312 78.0301 75.1312Z" fill="white"/>
<path opacity="0.7" d="M78.0301 49.0156C68.8788 49.0156 61.46 56.4643 61.46 65.6523C61.46 74.8403 68.8788 82.289 78.0301 82.289C87.1814 82.289 94.6002 74.8403 94.6002 65.6523C94.6002 56.4643 87.1814 49.0156 78.0301 49.0156ZM78.0301 75.1312C72.8156 75.1312 68.5891 70.8877 68.5891 65.6523C68.5891 60.4169 72.8156 56.1734 78.0301 56.1734C83.2446 56.1734 87.4711 60.4169 87.4711 65.6523C87.4711 70.8877 83.2446 75.1312 78.0301 75.1312Z" fill="white"/>
<mask id="mask1_297_12450" style="mask-type:luminance" maskUnits="userSpaceOnUse" x="61" y="49" width="34" height="34">
<path d="M78.0301 49.0156C68.8788 49.0156 61.46 56.4643 61.46 65.6523C61.46 74.8403 68.8788 82.289 78.0301 82.289C87.1814 82.289 94.6002 74.8403 94.6002 65.6523C94.6002 56.4643 87.1814 49.0156 78.0301 49.0156ZM78.0301 75.1312C72.8156 75.1312 68.5891 70.8877 68.5891 65.6523C68.5891 60.4169 72.8156 56.1734 78.0301 56.1734C83.2446 56.1734 87.4711 60.4169 87.4711 65.6523C87.4711 70.8877 83.2446 75.1312 78.0301 75.1312Z" fill="white"/>
</mask>
<g mask="url(#mask1_297_12450)">
<path d="M104.111 53.9102H54.8896V82.9073H104.111V53.9102Z" fill="#5761D7"/>
</g>
<path opacity="0.57" d="M118.424 49.0156C109.272 49.0156 101.854 56.4643 101.854 65.6523C101.854 74.8403 109.272 82.289 118.424 82.289C127.575 82.289 134.994 74.8403 134.994 65.6523C134.994 56.4643 127.575 49.0156 118.424 49.0156ZM118.424 75.1312C113.209 75.1312 108.983 70.8877 108.983 65.6523C108.983 60.4169 113.209 56.1734 118.424 56.1734C123.638 56.1734 127.865 60.4169 127.865 65.6523C127.865 70.8877 123.638 75.1312 118.424 75.1312Z" fill="white"/>
<path opacity="0.65" d="M118.424 49.0156C109.272 49.0156 101.854 56.4643 101.854 65.6523C101.854 74.8403 109.272 82.289 118.424 82.289C127.575 82.289 134.994 74.8403 134.994 65.6523C134.994 56.4643 127.575 49.0156 118.424 49.0156ZM118.424 75.1312C113.209 75.1312 108.983 70.8877 108.983 65.6523C108.983 60.4169 113.209 56.1734 118.424 56.1734C123.638 56.1734 127.865 60.4169 127.865 65.6523C127.865 70.8877 123.638 75.1312 118.424 75.1312Z" fill="white"/>
<mask id="mask2_297_12450" style="mask-type:luminance" maskUnits="userSpaceOnUse" x="101" y="49" width="34" height="34">
<path d="M118.424 49.0156C109.272 49.0156 101.854 56.4643 101.854 65.6523C101.854 74.8403 109.272 82.289 118.424 82.289C127.575 82.289 134.994 74.8403 134.994 65.6523C134.994 56.4643 127.575 49.0156 118.424 49.0156ZM118.424 75.1312C113.209 75.1312 108.983 70.8877 108.983 65.6523C108.983 60.4169 113.209 56.1734 118.424 56.1734C123.638 56.1734 127.865 60.4169 127.865 65.6523C127.865 70.8877 123.638 75.1312 118.424 75.1312Z" fill="white"/>
</mask>
<g mask="url(#mask2_297_12450)">
<path d="M144.504 72.4512H95.2832V82.9086H144.504V72.4512Z" fill="#5761D7"/>
</g>
<path opacity="0.7" d="M234.868 45.3633H170.918C170.41 45.3633 169.999 45.7764 169.999 46.2859V52.2687C169.999 52.7783 170.41 53.1914 170.918 53.1914H234.868C235.375 53.1914 235.787 52.7783 235.787 52.2687V46.2859C235.787 45.7764 235.375 45.3633 234.868 45.3633Z" fill="white"/>
<path opacity="0.7" d="M160.132 55.5132C163.563 55.5132 166.344 52.7208 166.344 49.2761C166.344 45.8315 163.563 43.0391 160.132 43.0391C156.701 43.0391 153.92 45.8315 153.92 49.2761C153.92 52.7208 156.701 55.5132 160.132 55.5132Z" fill="white"/>
<path opacity="0.7" d="M234.868 62.7285H170.918C170.41 62.7285 169.999 63.1416 169.999 63.6512V69.634C169.999 70.1435 170.41 70.5566 170.918 70.5566H234.868C235.375 70.5566 235.787 70.1435 235.787 69.634V63.6512C235.787 63.1416 235.375 62.7285 234.868 62.7285Z" fill="white"/>
<path opacity="0.7" d="M160.132 72.8784C163.563 72.8784 166.344 70.086 166.344 66.6414C166.344 63.1967 163.563 60.4043 160.132 60.4043C156.701 60.4043 153.92 63.1967 153.92 66.6414C153.92 70.086 156.701 72.8784 160.132 72.8784Z" fill="white"/>
<path opacity="0.7" d="M234.868 80.0957H170.918C170.41 80.0957 169.999 80.5088 169.999 81.0184V87.0012C169.999 87.5107 170.41 87.9238 170.918 87.9238H234.868C235.375 87.9238 235.787 87.5107 235.787 87.0012V81.0184C235.787 80.5088 235.375 80.0957 234.868 80.0957Z" fill="white"/>
<path opacity="0.7" d="M160.132 90.2456C163.563 90.2456 166.344 87.4532 166.344 84.0085C166.344 80.5639 163.563 77.7715 160.132 77.7715C156.701 77.7715 153.92 80.5639 153.92 84.0085C153.92 87.4532 156.701 90.2456 160.132 90.2456Z" fill="white"/>
<path d="M250.492 33.2241V26.124C250.492 21.5859 246.296 17.9492 241.312 17.9492H18.3701C13.3878 17.9492 9.1709 21.5859 9.1709 26.124V33.2241H250.492Z" fill="#5B65D8"/>
<path d="M19.5304 29.837C21.2003 29.837 22.554 28.4779 22.554 26.8013C22.554 25.1248 21.2003 23.7656 19.5304 23.7656C17.8605 23.7656 16.5068 25.1248 16.5068 26.8013C16.5068 28.4779 17.8605 29.837 19.5304 29.837Z" fill="#5761D7"/>
<path d="M304.376 217.039L206.651 216.403C202.302 216.374 198.764 212.778 198.793 208.411C198.822 204.045 202.404 200.493 206.753 200.522L304.478 201.157C308.827 201.186 312.365 204.782 312.336 209.149C312.307 213.516 308.725 217.068 304.376 217.039Z" fill="#302D70"/>
<path d="M295.244 129.447L217.973 128.944C199.588 128.825 184.449 143.83 184.33 162.287L184.132 193.016C184.088 199.973 189.721 205.702 196.65 205.748L315.579 206.522C322.508 206.566 328.214 200.911 328.26 193.954L328.458 163.225C328.576 144.766 313.631 129.566 295.248 129.447H295.244Z" fill="#302D70"/>
<path d="M310.413 210.725L201.753 210.018C191.999 209.954 183.968 217.913 183.905 227.706L183.813 242.02C183.556 281.814 215.541 350.583 255.176 350.841C294.81 351.099 327.682 282.752 327.939 242.958L328.031 228.644C328.094 218.852 320.167 210.788 310.413 210.725Z" fill="#302D70"/>
<path d="M308.424 173.554C308.389 178.924 304.299 183.404 298.971 183.872C270.132 186.409 240.234 186.295 209.475 183.262C204.138 182.736 200.076 178.2 200.111 172.816L200.147 167.17C200.182 161.817 204.251 157.35 209.559 156.855C239.488 154.066 269.415 153.739 299.336 157.294C304.571 157.917 308.497 162.42 308.462 167.713L308.424 173.552V173.554Z" fill="#302D70"/>
<path d="M231.636 170.229C231.613 173.878 228.647 176.815 225.013 176.792C221.379 176.769 218.454 173.791 218.477 170.143C218.5 166.495 221.466 163.557 225.099 163.58C228.733 163.603 231.659 166.581 231.636 170.229Z" fill="#EFEFF4"/>
<path d="M290.095 170.61C290.072 174.259 287.106 177.196 283.472 177.173C279.838 177.15 276.913 174.172 276.936 170.524C276.959 166.875 279.925 163.938 283.558 163.961C287.192 163.984 290.118 166.962 290.095 170.61Z" fill="#EFEFF4"/>
<path d="M225.196 179.373C225.183 179.154 225.346 178.973 225.557 178.959C225.775 178.946 225.956 179.109 225.969 179.329C225.983 179.541 225.819 179.724 225.601 179.735C225.601 179.735 225.587 179.735 225.58 179.735C225.376 179.735 225.202 179.578 225.196 179.373ZM223.218 179.579C223.007 179.535 222.875 179.331 222.911 179.119C222.955 178.907 223.158 178.769 223.37 178.811C223.581 178.855 223.713 179.054 223.677 179.271C223.64 179.454 223.477 179.587 223.295 179.587C223.266 179.587 223.245 179.579 223.218 179.579ZM227.462 179.05C227.4 178.844 227.506 178.626 227.717 178.564C227.922 178.495 228.139 178.609 228.2 178.815C228.269 179.021 228.156 179.239 227.951 179.308C227.909 179.321 227.867 179.321 227.832 179.321C227.663 179.321 227.517 179.221 227.462 179.052V179.05ZM220.952 178.824C220.757 178.732 220.68 178.499 220.774 178.308C220.86 178.112 221.092 178.027 221.288 178.121C221.484 178.214 221.56 178.447 221.466 178.638C221.403 178.786 221.261 178.863 221.113 178.861C221.063 178.861 221.008 178.853 220.952 178.824ZM229.584 178.175C229.465 177.99 229.524 177.751 229.706 177.632C229.883 177.52 230.123 177.578 230.24 177.755C230.351 177.94 230.301 178.179 230.117 178.299C230.054 178.341 229.975 178.354 229.906 178.354C229.779 178.354 229.653 178.289 229.584 178.175ZM218.944 177.526C218.782 177.391 218.756 177.143 218.898 176.975C219.032 176.813 219.279 176.794 219.446 176.929C219.607 177.064 219.627 177.312 219.492 177.48C219.414 177.57 219.302 177.62 219.189 177.619C219.105 177.619 219.013 177.59 218.944 177.526ZM231.414 176.796C231.26 176.648 231.255 176.399 231.404 176.237C231.552 176.083 231.799 176.078 231.953 176.228C232.106 176.376 232.112 176.625 231.963 176.779C231.884 176.863 231.786 176.898 231.681 176.896C231.583 176.896 231.491 176.86 231.414 176.796ZM217.317 175.773C217.192 175.596 217.234 175.355 217.405 175.23C217.581 175.105 217.827 175.141 217.954 175.319C218.078 175.496 218.036 175.737 217.86 175.862C217.796 175.912 217.712 175.939 217.633 175.939C217.514 175.939 217.395 175.881 217.319 175.775L217.317 175.773ZM232.853 174.999C232.663 174.891 232.601 174.658 232.701 174.469C232.809 174.279 233.048 174.217 233.229 174.317C233.419 174.425 233.486 174.664 233.38 174.847C233.309 174.98 233.175 175.051 233.035 175.049C232.979 175.049 232.908 175.034 232.853 174.999ZM216.177 173.67C216.1 173.471 216.2 173.24 216.398 173.163C216.595 173.086 216.82 173.186 216.902 173.385C216.979 173.583 216.879 173.816 216.682 173.891C216.632 173.905 216.584 173.918 216.534 173.918C216.386 173.918 216.238 173.824 216.177 173.668V173.67ZM233.8 172.901C233.589 172.851 233.465 172.637 233.522 172.427C233.58 172.223 233.791 172.098 233.994 172.148C234.205 172.206 234.33 172.418 234.272 172.622V172.63C234.228 172.799 234.067 172.919 233.891 172.917C233.862 172.917 233.827 172.909 233.799 172.901H233.8ZM215.594 171.343C215.567 171.131 215.722 170.935 215.933 170.908C216.144 170.881 216.34 171.037 216.367 171.249C216.394 171.46 216.238 171.657 216.027 171.684C216.014 171.684 215.993 171.684 215.978 171.684C215.788 171.684 215.619 171.541 215.594 171.343ZM233.81 170.247C233.81 170.247 233.81 170.239 233.81 170.233C233.81 170.233 233.81 170.22 233.81 170.205C233.81 169.993 233.981 169.817 234.2 169.819C234.411 169.819 234.585 169.998 234.583 170.21C234.583 170.21 234.583 170.224 234.583 170.232C234.583 170.232 234.583 170.245 234.583 170.253C234.583 170.465 234.412 170.64 234.194 170.638C233.983 170.638 233.808 170.459 233.81 170.247ZM215.943 169.382C215.724 169.353 215.578 169.161 215.602 168.949C215.63 168.731 215.828 168.583 216.039 168.614C216.25 168.637 216.403 168.835 216.373 169.047C216.35 169.243 216.181 169.392 215.983 169.39C215.97 169.39 215.955 169.382 215.941 169.382H215.943ZM233.543 168.02C233.488 167.816 233.616 167.598 233.822 167.548C234.033 167.492 234.244 167.622 234.297 167.828C234.345 168.04 234.224 168.251 234.013 168.305C233.979 168.311 233.95 168.311 233.916 168.311C233.747 168.311 233.586 168.196 233.545 168.018L233.543 168.02ZM216.423 167.132C216.227 167.053 216.129 166.826 216.208 166.622C216.286 166.425 216.513 166.327 216.716 166.406C216.912 166.485 217.01 166.712 216.931 166.917C216.868 167.065 216.718 167.163 216.565 167.161C216.522 167.161 216.473 167.146 216.425 167.132H216.423ZM232.741 165.975C232.638 165.784 232.709 165.543 232.893 165.447C233.083 165.343 233.315 165.406 233.419 165.599C233.522 165.79 233.457 166.023 233.267 166.127C233.204 166.161 233.141 166.175 233.077 166.175C232.943 166.175 232.811 166.102 232.741 165.975ZM217.455 165.077C217.28 164.942 217.24 164.701 217.367 164.526C217.495 164.359 217.741 164.316 217.908 164.445C218.082 164.574 218.122 164.813 217.996 164.988C217.917 165.094 217.798 165.15 217.679 165.148C217.603 165.148 217.518 165.127 217.455 165.077ZM231.452 164.187C231.306 164.031 231.314 163.785 231.469 163.636C231.633 163.49 231.878 163.498 232.024 163.654C232.17 163.81 232.162 164.056 232.007 164.204C231.928 164.274 231.83 164.308 231.738 164.308C231.633 164.308 231.527 164.272 231.45 164.187H231.452ZM218.957 163.336C218.825 163.172 218.848 162.925 219.011 162.785C219.18 162.652 219.419 162.675 219.559 162.837C219.692 163.006 219.669 163.255 219.508 163.388C219.429 163.451 219.345 163.478 219.254 163.478C219.149 163.478 219.038 163.428 218.961 163.336H218.957ZM229.768 162.777C229.586 162.663 229.538 162.415 229.653 162.24C229.766 162.057 230.013 162.003 230.188 162.116C230.37 162.238 230.426 162.479 230.311 162.662C230.232 162.773 230.105 162.837 229.979 162.835C229.908 162.835 229.839 162.82 229.768 162.777ZM220.843 162.028C220.753 161.829 220.839 161.596 221.029 161.506C221.227 161.415 221.459 161.502 221.547 161.7C221.637 161.891 221.551 162.124 221.353 162.215C221.303 162.244 221.248 162.257 221.192 162.255C221.044 162.255 220.904 162.168 220.843 162.028ZM227.792 161.833C227.588 161.762 227.477 161.542 227.542 161.338C227.608 161.134 227.826 161.022 228.035 161.094H228.028C228.239 161.159 228.35 161.379 228.277 161.583C228.227 161.752 228.072 161.856 227.911 161.856C227.868 161.856 227.826 161.849 227.792 161.833ZM222.994 161.23C222.953 161.018 223.095 160.814 223.306 160.782C223.517 160.741 223.721 160.876 223.761 161.088C223.795 161.3 223.659 161.504 223.448 161.544C223.419 161.55 223.398 161.55 223.371 161.55C223.195 161.55 223.028 161.421 222.994 161.23ZM225.635 161.417C225.424 161.402 225.257 161.217 225.273 160.999C225.288 160.787 225.472 160.626 225.691 160.635C225.902 160.651 226.061 160.836 226.054 161.053C226.038 161.257 225.862 161.419 225.664 161.417C225.651 161.417 225.643 161.417 225.635 161.417Z" fill="#EFEFF4"/>
<path d="M283.622 179.754C283.608 179.535 283.771 179.354 283.982 179.34C284.201 179.327 284.381 179.49 284.395 179.71C284.408 179.922 284.245 180.105 284.027 180.116C284.027 180.116 284.013 180.116 284.005 180.116C283.802 180.116 283.628 179.958 283.622 179.754ZM281.644 179.96C281.433 179.916 281.3 179.712 281.337 179.5C281.381 179.288 281.584 179.149 281.795 179.192C282.006 179.236 282.139 179.434 282.102 179.652C282.066 179.835 281.903 179.968 281.721 179.968C281.692 179.968 281.671 179.96 281.644 179.96ZM285.888 179.431C285.826 179.224 285.932 179.007 286.145 178.945C286.35 178.876 286.567 178.989 286.628 179.196C286.697 179.402 286.584 179.619 286.379 179.689C286.336 179.702 286.294 179.702 286.26 179.702C286.091 179.702 285.945 179.602 285.889 179.433L285.888 179.431ZM279.378 179.205C279.182 179.113 279.106 178.88 279.2 178.689C279.286 178.493 279.518 178.408 279.714 178.502C279.909 178.595 279.986 178.828 279.892 179.018C279.829 179.167 279.687 179.244 279.539 179.242C279.489 179.242 279.434 179.234 279.378 179.205ZM288.009 178.556C287.89 178.371 287.948 178.132 288.132 178.013C288.309 177.901 288.548 177.959 288.666 178.136C288.777 178.321 288.725 178.56 288.543 178.679C288.479 178.722 288.401 178.735 288.332 178.735C288.205 178.735 288.078 178.67 288.009 178.556ZM277.369 177.907C277.208 177.772 277.181 177.524 277.323 177.356C277.458 177.194 277.705 177.175 277.872 177.31C278.033 177.445 278.052 177.693 277.918 177.861C277.839 177.951 277.728 178.001 277.615 177.999C277.53 177.999 277.438 177.971 277.369 177.907ZM289.84 177.177C289.686 177.029 289.68 176.78 289.83 176.618C289.978 176.464 290.225 176.458 290.379 176.609C290.532 176.757 290.538 177.005 290.388 177.16C290.31 177.244 290.212 177.279 290.106 177.277C290.008 177.277 289.916 177.24 289.84 177.177ZM275.742 176.154C275.618 175.977 275.66 175.736 275.831 175.611C276.007 175.486 276.253 175.522 276.379 175.7C276.504 175.877 276.462 176.118 276.285 176.243C276.222 176.293 276.138 176.32 276.059 176.32C275.94 176.32 275.821 176.262 275.744 176.156L275.742 176.154ZM291.279 175.38C291.089 175.272 291.027 175.039 291.127 174.85C291.234 174.659 291.474 174.598 291.655 174.698C291.844 174.806 291.912 175.045 291.806 175.228C291.735 175.361 291.601 175.432 291.461 175.43C291.405 175.43 291.334 175.414 291.279 175.38ZM274.603 174.051C274.526 173.852 274.626 173.621 274.823 173.544C275.021 173.467 275.246 173.567 275.328 173.766C275.405 173.964 275.305 174.197 275.107 174.272C275.058 174.286 275.01 174.299 274.96 174.299C274.812 174.299 274.664 174.205 274.603 174.049V174.051ZM292.226 173.282C292.015 173.232 291.891 173.018 291.948 172.808C292.006 172.604 292.217 172.479 292.42 172.529C292.631 172.587 292.756 172.799 292.698 173.003V173.011C292.654 173.18 292.493 173.299 292.316 173.298C292.288 173.298 292.253 173.29 292.224 173.282H292.226ZM274.02 171.724C273.993 171.512 274.148 171.315 274.359 171.289C274.57 171.262 274.766 171.418 274.793 171.629C274.82 171.841 274.664 172.038 274.453 172.065C274.44 172.065 274.419 172.065 274.403 172.065C274.213 172.065 274.046 171.922 274.018 171.724H274.02ZM292.236 170.628C292.236 170.628 292.236 170.62 292.236 170.614C292.236 170.614 292.236 170.601 292.236 170.585C292.236 170.374 292.407 170.198 292.625 170.2C292.836 170.2 293.011 170.379 293.009 170.591C293.009 170.591 293.009 170.605 293.009 170.612C293.009 170.612 293.009 170.626 293.009 170.634C293.009 170.845 292.838 171.021 292.62 171.019C292.409 171.019 292.234 170.84 292.236 170.628ZM274.369 169.763C274.15 169.734 274.004 169.541 274.027 169.33C274.056 169.112 274.254 168.964 274.465 168.994C274.676 169.018 274.829 169.216 274.799 169.428C274.776 169.624 274.607 169.773 274.409 169.771C274.396 169.771 274.38 169.763 274.367 169.763H274.369ZM291.969 168.401C291.914 168.197 292.042 167.977 292.247 167.929C292.458 167.873 292.669 168.002 292.723 168.209C292.771 168.42 292.65 168.632 292.439 168.686C292.405 168.692 292.376 168.692 292.341 168.692C292.173 168.692 292.011 168.576 291.971 168.399L291.969 168.401ZM274.848 167.513C274.653 167.434 274.555 167.207 274.634 167.003C274.712 166.806 274.939 166.708 275.142 166.787C275.338 166.866 275.435 167.093 275.357 167.297C275.294 167.446 275.144 167.544 274.99 167.542C274.948 167.542 274.898 167.527 274.85 167.513H274.848ZM291.167 166.355C291.064 166.165 291.135 165.924 291.319 165.828C291.509 165.724 291.741 165.787 291.844 165.98C291.948 166.171 291.883 166.404 291.693 166.508C291.63 166.542 291.566 166.556 291.503 166.556C291.369 166.556 291.236 166.483 291.167 166.355ZM275.881 165.458C275.706 165.323 275.666 165.082 275.792 164.907C275.921 164.739 276.166 164.697 276.333 164.826C276.508 164.955 276.548 165.194 276.422 165.369C276.343 165.475 276.224 165.531 276.105 165.529C276.028 165.529 275.944 165.508 275.881 165.458ZM289.878 164.568C289.732 164.412 289.74 164.165 289.895 164.017C290.058 163.871 290.304 163.878 290.45 164.034C290.596 164.19 290.588 164.439 290.432 164.585C290.354 164.655 290.256 164.689 290.164 164.689C290.058 164.689 289.953 164.653 289.876 164.568H289.878ZM277.383 163.717C277.25 163.553 277.273 163.306 277.436 163.166C277.605 163.033 277.845 163.056 277.985 163.218C278.118 163.387 278.095 163.636 277.933 163.769C277.855 163.832 277.77 163.859 277.68 163.859C277.575 163.859 277.463 163.809 277.387 163.717H277.383ZM288.194 163.158C288.011 163.044 287.963 162.796 288.078 162.621C288.192 162.438 288.439 162.384 288.614 162.497C288.796 162.619 288.852 162.859 288.737 163.042C288.658 163.154 288.531 163.218 288.405 163.216C288.334 163.216 288.265 163.2 288.194 163.158ZM279.269 162.409C279.178 162.21 279.265 161.977 279.455 161.887C279.652 161.796 279.883 161.883 279.973 162.081C280.063 162.272 279.977 162.505 279.779 162.596C279.729 162.624 279.673 162.638 279.618 162.636C279.47 162.636 279.33 162.549 279.267 162.409H279.269ZM286.218 162.214C286.014 162.143 285.903 161.923 285.968 161.719C286.033 161.515 286.252 161.403 286.461 161.474H286.453C286.665 161.54 286.776 161.76 286.703 161.964C286.653 162.133 286.498 162.237 286.336 162.237C286.294 162.237 286.252 162.23 286.218 162.214ZM281.419 161.611C281.379 161.399 281.521 161.195 281.732 161.162C281.943 161.122 282.146 161.257 282.187 161.469C282.221 161.681 282.085 161.885 281.874 161.925C281.845 161.933 281.824 161.931 281.797 161.931C281.621 161.931 281.454 161.802 281.419 161.611ZM284.061 161.798C283.85 161.783 283.683 161.598 283.699 161.38C283.714 161.168 283.898 161.006 284.117 161.016C284.328 161.031 284.487 161.216 284.479 161.434C284.464 161.638 284.287 161.8 284.09 161.798C284.076 161.798 284.069 161.798 284.061 161.798Z" fill="#EFEFF4"/>
<path d="M194.632 113.4C194.619 115.424 192.974 117.056 190.958 117.042C188.942 117.029 187.317 115.378 187.33 113.353C187.344 111.329 188.988 109.699 191.004 109.711C193.02 109.724 194.645 111.375 194.632 113.4Z" fill="#302D70"/>
<path d="M190.785 143.665C190.785 143.665 199.497 144.842 204.339 133.444L202.053 128.633C201.274 126.995 199.313 126.312 197.692 127.113L192.671 129.594C191.568 130.139 190.866 131.262 190.858 132.497L190.785 143.667V143.665Z" fill="#302D70"/>
<path d="M191.694 115.074C191.6 114.851 191.266 114.951 191.308 115.19L194.209 131.298C194.274 131.664 194.52 131.975 194.861 132.121C195.203 132.267 195.594 132.233 195.903 132.028L196.836 131.414C197.611 130.902 197.912 129.908 197.553 129.051L191.696 115.078L191.694 115.074Z" fill="#302D70"/>
<path d="M318.767 114.207C318.753 116.231 320.378 117.884 322.395 117.896C324.411 117.909 326.057 116.278 326.069 114.253C326.082 112.229 324.457 110.576 322.441 110.565C320.424 110.551 318.778 112.183 318.767 114.207Z" fill="#302D70"/>
<path d="M322.222 144.52C322.222 144.52 313.496 145.584 308.802 134.125L311.15 129.344C311.95 127.716 313.918 127.057 315.53 127.88L320.518 130.424C321.614 130.983 322.3 132.115 322.293 133.35L322.22 144.52H322.222Z" fill="#302D70"/>
<path d="M322.068 116.04L318.973 132.039C318.901 132.421 318.64 132.739 318.283 132.887C317.926 133.035 317.517 132.993 317.197 132.777L316.332 132.19C315.562 131.668 315.275 130.67 315.645 129.817L321.682 115.921C321.778 115.699 322.112 115.803 322.066 116.04H322.068Z" fill="#302D70"/>
<path d="M215.676 147.65C213.694 147.637 212.017 146.106 211.852 144.087C211.677 141.951 213.26 140.075 215.39 139.899C243.511 137.578 269.2 137.663 293.92 140.161C296.046 140.375 297.594 142.28 297.381 144.412C297.166 146.547 295.278 148.103 293.147 147.887C268.901 145.437 243.674 145.356 216.025 147.639C215.908 147.648 215.793 147.652 215.678 147.652L215.676 147.65Z" fill="#F4F5FF"/>
<path d="M254.735 187.781C239.108 187.679 223.363 186.798 207.601 185.142C201.822 184.533 197.494 179.375 197.534 173.14L197.575 166.849C197.615 160.662 201.97 155.565 207.704 154.989C241.526 151.599 272.116 151.745 301.226 155.438C306.859 156.152 311.077 161.299 311.037 167.409L310.995 173.916C310.955 180.136 306.582 185.236 300.823 185.779C285.655 187.215 270.254 187.883 254.735 187.781ZM256.926 153.292C241.223 153.19 224.915 153.999 207.777 155.715C202.415 156.253 198.342 161.041 198.304 166.853L198.263 173.144C198.225 179.001 202.273 183.846 207.678 184.414C239.047 187.711 270.363 187.927 300.754 185.051C306.139 184.541 310.229 179.752 310.268 173.91L310.31 167.403C310.346 161.661 306.402 156.829 301.136 156.162C286.828 154.348 272.161 153.392 256.926 153.292Z" fill="#EFEFF4"/>
<path d="M280.759 254.297L230.14 253.967C225.293 253.937 221.378 249.951 221.408 245.088L221.502 230.618C221.533 225.752 225.502 221.821 230.347 221.852L280.967 222.181C285.813 222.212 289.728 226.197 289.698 231.061L289.604 245.531C289.573 250.396 285.604 254.328 280.759 254.297ZM230.343 222.557C225.884 222.528 222.233 226.145 222.205 230.622L222.111 245.091C222.082 249.568 225.685 253.234 230.143 253.262L280.763 253.592C285.222 253.621 288.873 250.003 288.901 245.527L288.995 231.057C289.024 226.581 285.421 222.915 280.963 222.886L230.343 222.557Z" fill="#F4F5FF"/>
<path d="M235.091 230.704C234.999 230.704 234.909 230.697 234.817 230.674C234.725 230.658 234.642 230.629 234.558 230.595C234.473 230.558 234.389 230.516 234.312 230.458C234.235 230.408 234.164 230.352 234.103 230.281C233.844 230.019 233.692 229.651 233.694 229.283C233.696 228.909 233.854 228.549 234.116 228.283C234.64 227.765 235.582 227.771 236.106 228.297C236.169 228.368 236.225 228.439 236.28 228.516C236.328 228.595 236.371 228.672 236.405 228.757C236.44 228.85 236.469 228.934 236.482 229.025C236.503 229.117 236.509 229.208 236.509 229.3C236.509 229.393 236.501 229.483 236.48 229.576C236.465 229.668 236.436 229.751 236.401 229.836C236.365 229.926 236.323 230.005 236.273 230.082C236.215 230.159 236.16 230.231 236.096 230.292C236.033 230.362 235.954 230.419 235.878 230.468C235.799 230.523 235.722 230.566 235.638 230.6C235.553 230.635 235.461 230.662 235.371 230.676C235.287 230.697 235.189 230.703 235.097 230.703L235.091 230.704Z" fill="#F4F5FF"/>
<path d="M266.9 229.5C266.905 228.723 267.535 228.092 268.308 228.097C269.089 228.103 269.718 228.743 269.712 229.519C269.706 230.295 269.07 230.927 268.291 230.921C267.517 230.915 266.896 230.278 266.902 229.5H266.9ZM260.256 229.457C260.262 228.681 260.899 228.049 261.672 228.055C262.453 228.061 263.074 228.7 263.068 229.476C263.063 230.253 262.433 230.885 261.653 230.879C260.879 230.873 260.25 230.233 260.256 229.457ZM253.62 229.415C253.626 228.639 254.255 228.007 255.036 228.013C255.809 228.018 256.438 228.658 256.432 229.434C256.427 230.21 255.79 230.842 255.016 230.836C254.236 230.831 253.614 230.191 253.62 229.415ZM246.976 229.372C246.982 228.596 247.619 227.964 248.392 227.97C249.173 227.976 249.794 228.615 249.789 229.392C249.783 230.168 249.154 230.8 248.373 230.794C247.6 230.788 246.97 230.149 246.976 229.372ZM240.34 229.33C240.346 228.554 240.975 227.922 241.756 227.928C242.529 227.934 243.158 228.573 243.152 229.349C243.147 230.126 242.51 230.757 241.737 230.752C240.956 230.746 240.334 230.106 240.34 229.33Z" fill="#F4F5FF"/>
<path d="M274.933 230.964C274.561 230.962 274.202 230.812 273.945 230.541C273.874 230.477 273.818 230.406 273.77 230.329C273.722 230.252 273.672 230.173 273.638 230.088C273.603 229.995 273.576 229.911 273.563 229.818C273.542 229.726 273.536 229.635 273.536 229.543C273.538 229.169 273.688 228.809 273.958 228.551C274.022 228.481 274.093 228.424 274.169 228.375C274.248 228.32 274.325 228.277 274.417 228.243C274.501 228.208 274.586 228.181 274.678 228.167C275.134 228.079 275.62 228.231 275.948 228.564C276.207 228.828 276.351 229.188 276.349 229.562C276.349 229.654 276.341 229.745 276.318 229.837C276.303 229.93 276.274 230.013 276.239 230.105C276.203 230.19 276.161 230.267 276.105 230.344C276.055 230.421 275.999 230.492 275.934 230.554C275.863 230.623 275.792 230.681 275.716 230.729C275.639 230.785 275.56 230.828 275.476 230.862C275.384 230.897 275.299 230.924 275.207 230.937C275.115 230.958 275.025 230.964 274.933 230.964Z" fill="#F4F5FF"/>
<path d="M194.725 231.494L200.629 232.567C201.918 232.802 202.758 234.058 202.486 235.345L189.929 295.67C189.668 296.902 188.479 297.706 187.243 297.48L184.164 296.92L194.725 231.494Z" fill="#77818A"/>
<path d="M171.227 308.951L177.451 310.084C179.96 310.54 182.374 308.897 182.88 306.387L197.375 231.978L180.022 228.821C178.614 228.565 177.273 229.522 177.052 230.942L167.436 303.579C167.034 306.108 168.718 308.496 171.229 308.953L171.227 308.951Z" fill="#77818A"/>
<path d="M174.08 283.899L178.595 251.985C178.992 249.782 181.094 248.318 183.289 248.718C185.484 249.117 186.942 251.228 186.543 253.432L182.029 285.345C181.632 287.549 179.529 289.013 177.334 288.612C175.139 288.213 173.681 286.102 174.08 283.899Z" fill="#888B8F"/>
<path d="M182.372 248.551L184.206 248.884L178.251 288.778L176.417 288.444L182.372 248.551Z" fill="#F4F5FF"/>
<path d="M195.72 247.102C204.3 243.963 208.722 234.434 205.595 225.819C202.469 217.204 192.978 212.765 184.398 215.904C175.817 219.043 171.396 228.572 174.522 237.187C177.649 245.802 187.139 250.241 195.72 247.102Z" fill="#979AA0"/>
<path d="M177.639 229.226C178.882 222.335 185.455 217.76 192.319 219.008C199.184 220.256 203.74 226.855 202.497 233.747C201.254 240.639 194.681 245.214 187.817 243.966C180.952 242.718 176.396 236.118 177.639 229.226Z" fill="#F4F5FF"/>
<path d="M215.098 293.826L213.466 289.12C212.808 287.221 211.127 286.071 209.688 286.531L170.869 298.04L175.424 311.165C175.794 312.231 176.749 312.855 177.54 312.55L213.742 298.212C215.156 297.674 215.758 295.725 215.1 293.826H215.098Z" fill="#77818A"/>
<path d="M180.392 316.93C173.624 319.297 166.224 315.707 163.864 308.911C161.507 302.113 165.083 294.686 171.851 292.317C178.622 289.949 186.019 293.54 188.379 300.335C190.737 307.133 187.161 314.56 180.392 316.93Z" fill="#77818A"/>
<path d="M179.383 314.025C174.213 315.833 168.559 313.09 166.758 307.899C164.956 302.708 167.688 297.032 172.859 295.223C178.029 293.414 183.683 296.157 185.484 301.348C187.286 306.539 184.554 312.216 179.383 314.025Z" fill="#C6C9D3"/>
<path d="M224.736 281.084L229.807 268.656L252.221 276.263L251.709 279.765L232.474 274.55L228.594 284.239L224.736 281.084Z" fill="#77818A"/>
<path d="M274.781 297.551L274.664 297.721C274.504 297.95 274.192 298.008 273.961 297.848L269.388 294.664L270.08 293.662L274.656 296.848C274.884 297.008 274.942 297.322 274.783 297.553L274.781 297.551Z" fill="#77818A"/>
<path d="M203.059 248.66L203.812 247.569C203.974 247.335 204.294 247.277 204.527 247.439L208.428 250.155L207.088 252.094L203.188 249.378C202.955 249.216 202.897 248.894 203.059 248.66Z" fill="#77818A"/>
<path d="M271.613 295.578C271.243 296.114 270.529 296.283 269.959 295.969L263.26 292.271L265.6 288.883L271.398 293.887C271.891 294.313 271.983 295.043 271.613 295.58V295.578Z" fill="url(#paint0_linear_297_12450)"/>
<path d="M214.894 252.545L207.147 248.186L204.807 251.574L211.589 257.329L226.459 267.683L263.258 292.271L265.598 288.882L229.765 262.896L214.894 252.545Z" fill="#2B00FF"/>
<path d="M214.894 252.545L211.588 257.332L212.513 257.976L215.819 253.19L214.894 252.545Z" fill="#77818A"/>
<path d="M215.274 253.645L215.84 252.827C215.961 252.651 216.201 252.607 216.376 252.729L232.147 263.705C232.322 263.827 232.367 264.069 232.244 264.246L231.679 265.065C231.558 265.241 231.318 265.284 231.143 265.163L215.372 254.187C215.197 254.065 215.154 253.823 215.275 253.648L215.274 253.645Z" fill="#77818A"/>
<path d="M214.57 282.1L209.731 283.772C209.513 283.847 209.397 284.086 209.472 284.305L214.744 299.685C214.819 299.904 215.057 300.021 215.275 299.945L220.113 298.274C220.332 298.198 220.448 297.959 220.373 297.74L215.101 282.36C215.026 282.141 214.788 282.024 214.57 282.1Z" fill="#F4F5FF"/>
<path d="M228.454 293.404L240.452 299.338L252.221 278.73L249.525 276.449L238.561 293.151L229.262 288.475L228.454 293.404Z" fill="#77818A"/>
<path d="M219.81 280.67C222.375 279.345 225.55 279.383 228.161 281.048C232.076 283.544 233.235 288.754 230.747 292.686C229.488 294.676 227.537 295.957 225.41 296.411L219.808 280.67H219.81Z" fill="#77818A"/>
<path d="M214.526 282.559L213.66 280.038C213.505 279.583 213.772 279.078 214.257 278.911L218.915 277.302C219.401 277.135 219.921 277.368 220.076 277.822L226.967 297.932C227.123 298.387 226.856 298.891 226.371 299.059L221.712 300.667C221.227 300.835 220.707 300.602 220.552 300.147L219.759 297.836L214.524 282.559H214.526Z" fill="#F4F5FF"/>
<path d="M317.269 231.494L311.365 232.567C310.076 232.802 309.236 234.058 309.508 235.345L322.065 295.67C322.326 296.902 323.515 297.706 324.751 297.48L327.83 296.92L317.269 231.494Z" fill="#77818A"/>
<path d="M340.767 308.951L334.544 310.084C332.034 310.54 329.621 308.897 329.114 306.387L314.62 231.978L331.973 228.821C333.381 228.565 334.722 229.522 334.943 230.942L344.558 303.579C344.961 306.108 343.277 308.496 340.766 308.953L340.767 308.951Z" fill="#77818A"/>
<path d="M337.916 283.899L333.402 251.985C333.005 249.782 330.902 248.318 328.707 248.718C326.512 249.117 325.054 251.228 325.453 253.432L329.968 285.345C330.365 287.549 332.468 289.013 334.662 288.612C336.857 288.213 338.315 286.102 337.916 283.899Z" fill="#888B8F"/>
<path d="M329.623 248.551L327.787 248.884L333.742 288.778L335.576 288.444L329.623 248.551Z" fill="#F4F5FF"/>
<path d="M336.939 238.459C340.771 230.136 337.157 220.27 328.868 216.423C320.578 212.575 310.752 216.203 306.92 224.526C303.088 232.849 306.701 242.715 314.991 246.562C323.28 250.41 333.107 246.782 336.939 238.459Z" fill="#979AA0"/>
<path d="M327.019 243.101C333.403 240.276 336.296 232.79 333.482 226.381C330.668 219.972 323.212 217.067 316.829 219.892C310.445 222.717 307.552 230.203 310.366 236.612C313.18 243.021 320.636 245.927 327.019 243.101Z" fill="#F4F5FF"/>
<path d="M331.603 316.93C338.374 319.297 345.773 315.707 348.131 308.911C350.489 302.113 346.913 294.686 340.144 292.317C333.374 289.949 325.976 293.54 323.616 300.335C321.259 307.133 324.835 314.56 331.603 316.93Z" fill="#77818A"/>
<path d="M332.611 314.025C337.781 315.833 343.435 313.09 345.236 307.899C347.038 302.708 344.306 297.032 339.135 295.223C333.965 293.414 328.311 296.157 326.512 301.348C324.71 306.539 327.442 312.216 332.612 314.025H332.611Z" fill="#C6C9D3"/>
<path d="M266.509 323.745L317.528 329.815C320.342 330.15 322.924 328.21 323.4 325.406L335.93 251.587C336.302 249.392 334.79 247.323 332.594 247.02L274.244 238.998C272.18 238.715 270.284 240.186 270.039 242.265L261.217 317.009C260.824 320.336 263.194 323.352 266.507 323.747L266.509 323.745Z" fill="#2B00FF"/>
<path opacity="0.5" d="M270.536 254.658C270.225 254.615 270.005 254.33 270.041 254.014L271.211 244.096C271.499 241.662 273.707 239.892 276.134 240.148L282.688 240.841C282.985 240.86 283.235 241.159 283.202 241.479C283.169 241.797 282.884 242.028 282.567 241.995L276.013 241.301C274.212 241.111 272.572 242.426 272.359 244.233L271.188 254.151C271.15 254.469 270.864 254.696 270.548 254.66C270.544 254.66 270.54 254.66 270.536 254.66V254.658Z" fill="white"/>
<path opacity="0.5" d="M269.983 259.336C269.673 259.294 269.452 259.009 269.488 258.693L269.678 257.087C269.717 256.769 270.002 256.541 270.319 256.578C270.643 256.605 270.862 256.904 270.826 257.221L270.636 258.828C270.597 259.146 270.311 259.373 269.995 259.336C269.991 259.336 269.987 259.336 269.983 259.336Z" fill="white"/>
<path d="M306.754 231.019C305.006 229.578 303.396 229.476 302.237 229.72C301.18 229.944 300.43 230.891 300.444 231.976L300.507 237.367L306.276 238.352C306.276 238.352 310.18 233.846 306.754 231.02V231.019ZM303.855 235.131C303.055 235.067 302.458 234.364 302.521 233.559C302.585 232.756 303.285 232.157 304.087 232.22C304.887 232.284 305.483 232.987 305.42 233.792C305.357 234.595 304.657 235.195 303.855 235.131Z" fill="#77818A"/>
<path d="M301.155 235.286C301.057 235.239 300.988 235.141 300.986 235.026L300.976 234.166C300.976 234.007 301.103 233.876 301.262 233.874C301.422 233.872 301.552 233.999 301.554 234.161L301.563 235.02C301.563 235.18 301.437 235.311 301.278 235.313C301.234 235.313 301.191 235.303 301.153 235.286H301.155ZM301.136 233.604C301.038 233.558 300.969 233.46 300.967 233.344L300.959 232.693C300.946 231.589 301.715 230.624 302.786 230.397C303.518 230.243 304.261 230.27 304.988 230.482C305.138 230.528 305.23 230.688 305.186 230.84C305.142 230.994 304.98 231.083 304.829 231.038C304.194 230.853 303.545 230.828 302.906 230.963C302.105 231.133 301.529 231.857 301.539 232.685L301.546 233.336C301.546 233.496 301.42 233.627 301.26 233.629C301.216 233.629 301.174 233.619 301.136 233.602V233.604Z" fill="white"/>
<path d="M292.299 240.189L292.514 237.498C292.587 236.569 293.413 235.887 294.336 235.993L312.762 238.11C313.579 238.205 314.191 238.908 314.176 239.734L314.124 242.332L292.301 240.19L292.299 240.189Z" fill="#77818A"/>
<path d="M293.256 239.548C293.148 239.498 293.079 239.387 293.089 239.261L293.175 238.173C293.21 237.726 293.417 237.32 293.756 237.029C294.096 236.738 294.53 236.597 294.975 236.632L297.897 236.867C298.054 236.881 298.175 237.019 298.161 237.179C298.148 237.339 298.01 237.458 297.851 237.445L294.929 237.21C294.326 237.162 293.799 237.614 293.751 238.217L293.664 239.306C293.651 239.466 293.513 239.585 293.354 239.572C293.319 239.568 293.286 239.56 293.256 239.546V239.548Z" fill="white"/>
<path d="M286.589 238.74L318.897 241.329C320.059 241.421 320.984 242.34 321.092 243.505L321.107 243.665C321.224 244.942 320.167 246.015 318.895 245.913L285.749 243.257C284.987 243.195 284.431 242.507 284.529 241.747L284.719 240.263C284.838 239.335 285.661 238.665 286.589 238.738V238.74Z" fill="#77818A"/>
<path d="M312.338 280.428L331.682 282.832L327.632 310.157L308.802 307.622L309.243 302.982L322.295 303.236L324.115 286.428L312.338 284.405V280.428Z" fill="#77818A"/>
<g opacity="0.48">
<path d="M176.647 147.668H144.625C143.286 147.668 142.2 148.668 142.2 149.902C142.2 151.137 143.286 152.137 144.625 152.137H176.647C177.986 152.137 179.072 151.137 179.072 149.902C179.072 148.668 177.986 147.668 176.647 147.668Z" fill="white"/>
<path d="M176.647 157.557H144.625C143.286 157.557 142.2 158.556 142.2 159.791C142.2 161.026 143.286 162.025 144.625 162.025H176.647C177.986 162.025 179.072 161.026 179.072 159.791C179.072 158.556 177.986 157.557 176.647 157.557Z" fill="white"/>
<path d="M176.647 197.117H144.625C143.286 197.117 142.2 198.117 142.2 199.352C142.2 200.586 143.286 201.586 144.625 201.586H176.647C177.986 201.586 179.072 200.586 179.072 199.352C179.072 198.117 177.986 197.117 176.647 197.117Z" fill="white"/>
<path d="M176.647 187.227H144.625C143.286 187.227 142.2 188.226 142.2 189.461C142.2 190.696 143.286 191.695 144.625 191.695H176.647C177.986 191.695 179.072 190.696 179.072 189.461C179.072 188.226 177.986 187.227 176.647 187.227Z" fill="white"/>
<path d="M176.647 177.338H144.625C143.286 177.338 142.2 178.338 142.2 179.572C142.2 180.807 143.286 181.807 144.625 181.807H176.647C177.986 181.807 179.072 180.807 179.072 179.572C179.072 178.338 177.986 177.338 176.647 177.338Z" fill="white"/>
</g>
</g>
<defs>
<linearGradient id="paint0_linear_297_12450" x1="264.378" y1="289.316" x2="270.733" y2="297.154" gradientUnits="userSpaceOnUse">
<stop stop-color="#FDF53F"/>
<stop offset="1" stop-color="#D7D9E0"/>
</linearGradient>
<clipPath id="clip0_297_12450">
<rect width="351.087" height="350.075" fill="white" transform="translate(0.206055 0.765625)"/>
</clipPath>
</defs>
</svg>
