<svg width="394" height="365" viewBox="0 0 394 365" fill="none" xmlns="http://www.w3.org/2000/svg">
<g clip-path="url(#clip0_297_12624)">
<path d="M132.161 112.757C132.028 112.757 131.903 112.682 131.836 112.565L128.273 106.393C128.206 106.276 128.206 106.134 128.273 106.017L131.836 99.8444C131.903 99.7275 132.028 99.6523 132.161 99.6523C132.295 99.6523 132.42 99.7275 132.487 99.8444L136.058 106.017C136.125 106.134 136.125 106.276 136.058 106.393L132.487 112.565C132.42 112.682 132.295 112.757 132.161 112.757ZM129.032 106.209L132.161 111.629L135.299 106.209L132.161 100.788L129.032 106.209Z" fill="#2B00FF"/>
<path d="M122.249 105.359C121.064 105.359 120.096 104.39 120.096 103.204C120.096 102.018 121.064 101.049 122.249 101.049C123.433 101.049 124.401 102.018 124.401 103.204C124.401 104.39 123.433 105.359 122.249 105.359ZM122.249 101.809C121.481 101.809 120.855 102.435 120.855 103.204C120.855 103.972 121.481 104.599 122.249 104.599C123.016 104.599 123.642 103.972 123.642 103.204C123.642 102.435 123.016 101.809 122.249 101.809Z" fill="#2B00FF"/>
<path d="M128.599 97.4401C127.564 97.4401 126.722 96.5966 126.722 95.5609C126.722 94.5252 127.564 93.6816 128.599 93.6816C129.634 93.6816 130.477 94.5252 130.477 95.5609C130.477 96.5966 129.634 97.4401 128.599 97.4401ZM128.599 94.4333C127.982 94.4333 127.473 94.9345 127.473 95.5609C127.473 96.1873 127.973 96.6884 128.599 96.6884C129.225 96.6884 129.726 96.1873 129.726 95.5609C129.726 94.9345 129.225 94.4333 128.599 94.4333Z" fill="#2B00FF"/>
<path d="M120.479 98.3092C119.712 98.3092 119.086 97.6827 119.086 96.9143C119.086 96.1459 119.712 95.5195 120.479 95.5195C121.247 95.5195 121.873 96.1459 121.873 96.9143C121.873 97.6827 121.247 98.3092 120.479 98.3092ZM120.479 96.2796C120.129 96.2796 119.845 96.5636 119.845 96.9143C119.845 97.2651 120.129 97.5491 120.479 97.5491C120.83 97.5491 121.114 97.2651 121.114 96.9143C121.114 96.5636 120.83 96.2796 120.479 96.2796Z" fill="#2B00FF"/>
<path d="M270.012 85.6464C269.879 85.6464 269.754 85.5712 269.687 85.4543L266.958 80.7269C266.892 80.61 266.892 80.468 266.958 80.3511L269.687 75.6237C269.754 75.5068 269.879 75.4316 270.012 75.4316C270.146 75.4316 270.271 75.5068 270.338 75.6237L273.066 80.3511C273.133 80.468 273.133 80.61 273.066 80.7269L270.338 85.4543C270.271 85.5712 270.146 85.6464 270.012 85.6464ZM267.726 80.5432L270.021 84.5105L272.315 80.5432L270.021 76.5759L267.726 80.5432Z" fill="#2B00FF"/>
<path d="M263.562 78.5539C262.377 78.5539 261.409 77.585 261.409 76.399C261.409 75.213 262.377 74.2441 263.562 74.2441C264.747 74.2441 265.715 75.213 265.715 76.399C265.715 77.585 264.747 78.5539 263.562 78.5539ZM263.562 75.0042C262.794 75.0042 262.169 75.6306 262.169 76.399C262.169 77.1674 262.794 77.7938 263.562 77.7938C264.33 77.7938 264.956 77.1674 264.956 76.399C264.956 75.6306 264.33 75.0042 263.562 75.0042Z" fill="#2B00FF"/>
<path d="M269.912 73.235C268.877 73.235 268.034 72.3915 268.034 71.3558C268.034 70.3201 268.877 69.4766 269.912 69.4766C270.946 69.4766 271.789 70.3201 271.789 71.3558C271.789 72.3915 270.946 73.235 269.912 73.235ZM269.912 70.2283C269.294 70.2283 268.785 70.7294 268.785 71.3558C268.785 71.9822 269.286 72.4833 269.912 72.4833C270.538 72.4833 271.038 71.9822 271.038 71.3558C271.038 70.7294 270.538 70.2283 269.912 70.2283Z" fill="#2B00FF"/>
<path d="M263.561 71.2388C262.794 71.2388 262.168 70.6124 262.168 69.844C262.168 69.0756 262.794 68.4492 263.561 68.4492C264.329 68.4492 264.955 69.0756 264.955 69.844C264.955 70.6124 264.329 71.2388 263.561 71.2388ZM263.561 69.2093C263.211 69.2093 262.927 69.4932 262.927 69.844C262.927 70.1948 263.211 70.4788 263.561 70.4788C263.912 70.4788 264.196 70.1948 264.196 69.844C264.196 69.4932 263.912 69.2093 263.561 69.2093Z" fill="#2B00FF"/>
<path d="M326.93 258.554C326.796 258.554 326.671 258.479 326.604 258.362L323.041 252.189C322.975 252.073 322.975 251.931 323.041 251.814L326.604 245.641C326.671 245.524 326.796 245.449 326.93 245.449C327.063 245.449 327.188 245.524 327.255 245.641L330.827 251.814C330.893 251.931 330.893 252.073 330.827 252.189L327.255 258.362C327.188 258.479 327.063 258.554 326.93 258.554ZM323.801 252.006L326.93 257.426L330.067 252.006L326.93 246.585L323.801 252.006Z" fill="#2B00FF"/>
<path d="M335.666 262.046C334.481 262.046 333.513 261.077 333.513 259.891C333.513 258.705 334.481 257.736 335.666 257.736C336.85 257.736 337.818 258.705 337.818 259.891C337.818 261.077 336.85 262.046 335.666 262.046ZM335.666 258.496C334.898 258.496 334.272 259.123 334.272 259.891C334.272 260.66 334.898 261.286 335.666 261.286C336.433 261.286 337.059 260.66 337.059 259.891C337.059 259.123 336.433 258.496 335.666 258.496Z" fill="#2B00FF"/>
<path d="M323.558 243.227C322.523 243.227 321.681 242.384 321.681 241.348C321.681 240.312 322.523 239.469 323.558 239.469C324.593 239.469 325.436 240.312 325.436 241.348C325.436 242.384 324.593 243.227 323.558 243.227ZM323.558 240.22C322.941 240.22 322.432 240.722 322.432 241.348C322.432 241.974 322.932 242.476 323.558 242.476C324.184 242.476 324.685 241.974 324.685 241.348C324.685 240.722 324.184 240.22 323.558 240.22Z" fill="#2B00FF"/>
<path d="M334.28 250.325C333.513 250.325 332.887 249.698 332.887 248.93C332.887 248.162 333.513 247.535 334.28 247.535C335.048 247.535 335.674 248.162 335.674 248.93C335.674 249.698 335.048 250.325 334.28 250.325ZM334.28 248.295C333.93 248.295 333.646 248.579 333.646 248.93C333.646 249.281 333.93 249.565 334.28 249.565C334.631 249.565 334.914 249.281 334.914 248.93C334.914 248.579 334.631 248.295 334.28 248.295Z" fill="#2B00FF"/>
<path d="M334.707 243.228C334.573 243.228 334.448 243.152 334.381 243.036L332.145 239.16C332.078 239.043 332.078 238.901 332.145 238.784L334.381 234.909C334.448 234.792 334.573 234.717 334.707 234.717C334.84 234.717 334.965 234.792 335.032 234.909L337.277 238.784C337.343 238.901 337.343 239.043 337.277 239.16L335.032 243.036C334.965 243.152 334.84 243.228 334.707 243.228ZM332.904 238.976L334.707 242.1L336.509 238.976L334.707 235.853L332.904 238.976Z" fill="#2B00FF"/>
<path d="M315.331 257.753C314.563 257.753 313.938 257.126 313.938 256.358C313.938 255.589 314.563 254.963 315.331 254.963C316.099 254.963 316.725 255.589 316.725 256.358C316.725 257.126 316.099 257.753 315.331 257.753ZM315.331 255.723C314.981 255.723 314.697 256.007 314.697 256.358C314.697 256.709 314.981 256.992 315.331 256.992C315.681 256.992 315.965 256.709 315.965 256.358C315.965 256.007 315.681 255.723 315.331 255.723Z" fill="#2B00FF"/>
<path d="M118.828 184.625C118.828 184.625 124.653 322.269 124.127 344.912H94.2037L78.875 185.778L118.828 184.625Z" fill="url(#paint0_linear_297_12624)"/>
<path d="M49.7029 186.244L45.6809 259.927L24.2607 344.91H56.3534L88.6381 259.584L102.356 185.4L49.7029 186.244Z" fill="url(#paint1_linear_297_12624)"/>
<path d="M86.9859 264.362L86.1348 264.187C91.0246 240.09 95.1384 215.493 98.3427 191.072L98.3844 190.721L108.59 189.844L108.665 190.712L99.1604 191.531C95.9562 215.861 91.859 240.366 86.9859 264.362Z" fill="white"/>
<path d="M26.7305 344.996H52.2311L58.965 350.951C58.965 350.951 78.9166 350.392 78.9166 364.991H26.7305V344.996Z" fill="#2B00FF"/>
<path d="M28.4914 363.303H28.5832L77.6652 363.119C77.8571 363.119 78.0156 362.96 78.0073 362.768C78.0073 362.576 77.8488 362.426 77.6568 362.426L28.4831 362.61C28.2911 362.61 28.1326 362.768 28.1409 362.96C28.1409 363.152 28.2995 363.303 28.4914 363.303Z" fill="#2B00FF"/>
<path d="M42.252 353.23C40.4663 353.038 39.3815 352.336 39.1896 351.242C38.9392 349.831 40.3328 348.82 41.6011 348.386C45.5731 347.016 50.1709 347.868 53.4335 350.474C54.3514 347.484 55.9786 344.736 58.1565 342.498C58.8407 341.796 59.6835 341.053 60.76 340.844C61.8531 340.635 63.2132 341.195 63.4886 342.356C63.7556 343.466 62.9629 344.452 62.2369 345.187C59.8337 347.642 57.1802 349.889 54.3514 351.86C54.2513 351.927 54.1261 351.935 54.0176 351.894C53.9843 351.927 53.9425 351.952 53.8925 351.969C51.0887 352.896 48.1098 353.372 45.1475 353.372C44.1796 353.372 43.2116 353.322 42.252 353.222V353.23ZM53.2666 351.242C50.1709 348.603 45.6816 347.718 41.8264 349.046C41.017 349.321 39.6902 350.081 39.8738 351.125C40.0574 352.186 41.6512 352.47 42.3271 352.537C46.0237 352.929 49.8454 352.537 53.3835 351.409C53.3334 351.368 53.2917 351.301 53.2666 351.234V351.242ZM60.8851 341.529C60.0006 341.696 59.258 342.364 58.6488 342.982C56.4709 345.22 54.8771 347.977 54.0093 350.967C54.0677 351.017 54.1261 351.075 54.1845 351.134C56.8881 349.221 59.4248 347.066 61.7362 344.711C62.3287 344.101 62.9963 343.308 62.8043 342.523C62.6458 341.863 61.9115 341.495 61.2189 341.495C61.1021 341.495 60.9853 341.504 60.8768 341.529H60.8851Z" fill="#161527"/>
<path d="M96.5322 344.787H122.033L128.767 350.742C128.767 350.742 148.718 350.183 148.718 364.782H96.5322V344.787Z" fill="#2B00FF"/>
<path d="M98.2922 363.094H98.384L147.466 362.91C147.658 362.91 147.816 362.751 147.808 362.559C147.808 362.367 147.65 362.217 147.458 362.217L98.2838 362.401C98.0919 362.401 97.9334 362.559 97.9417 362.751C97.9417 362.943 98.1003 363.094 98.2922 363.094Z" fill="#2B00FF"/>
<path d="M112.053 353.021C110.267 352.829 109.182 352.127 108.99 351.033C108.74 349.622 110.134 348.611 111.402 348.177C115.374 346.807 119.972 347.659 123.234 350.265C124.152 347.275 125.779 344.527 127.957 342.289C128.642 341.587 129.484 340.844 130.561 340.635C131.654 340.426 133.014 340.986 133.289 342.147C133.556 343.257 132.764 344.243 132.038 344.978C129.635 347.433 126.981 349.68 124.152 351.651C124.052 351.718 123.927 351.726 123.818 351.685C123.785 351.718 123.743 351.743 123.693 351.76C120.89 352.687 117.911 353.163 114.948 353.163C113.98 353.163 113.012 353.113 112.053 353.013V353.021ZM123.067 351.033C119.972 348.394 115.482 347.509 111.627 348.837C110.818 349.112 109.491 349.872 109.675 350.916C109.858 351.977 111.452 352.261 112.128 352.328C115.824 352.72 119.646 352.328 123.184 351.2C123.134 351.159 123.092 351.092 123.067 351.025V351.033ZM130.686 341.32C129.801 341.487 129.059 342.155 128.45 342.773C126.272 345.011 124.678 347.768 123.81 350.758C123.869 350.808 123.927 350.866 123.985 350.925C126.689 349.012 129.226 346.857 131.537 344.502C132.129 343.892 132.797 343.099 132.605 342.314C132.447 341.654 131.712 341.286 131.02 341.286C130.903 341.286 130.786 341.295 130.678 341.32H130.686Z" fill="#161527"/>
<path d="M114.732 152.278L118.829 184.626L114.807 201.113L102.357 185.403L84.4999 201.113L49.7036 186.246L50.1208 172.707C39.9156 174.795 30.4613 166.752 30.8702 156.337L35.1426 106.433C35.4179 99.467 40.5247 89.0602 47.2253 87.181L70.1642 80.3906L90.1491 84.0489L103.734 88.225C109.725 90.0708 114.098 95.2325 114.924 101.446L118.896 131.18L137.612 136.025L138.305 152.278H114.723H114.732Z" fill="#2B00FF"/>
<path d="M56.3539 146.889C56.3539 146.889 56.3289 146.889 56.3122 146.889C56.0869 146.864 55.92 146.663 55.9367 146.429L59.3412 113.305C59.3663 113.079 59.5665 112.912 59.8002 112.929C60.0255 112.954 60.1924 113.154 60.1757 113.388L56.7711 146.513C56.7461 146.73 56.5709 146.889 56.3539 146.889Z" fill="#2B00FF"/>
<path d="M51.4057 172.74C51.2305 172.74 51.0636 172.623 51.0052 172.448C50.9384 172.23 51.0553 171.997 51.2806 171.921L92.3102 158.884L87.5372 141.837L45.7566 149.203C45.5313 149.245 45.3143 149.095 45.2726 148.861C45.2309 148.636 45.3811 148.418 45.6147 148.377L87.7625 140.943C87.9794 140.901 88.1797 141.035 88.2381 141.244L93.2197 159.042C93.2781 159.26 93.1613 159.485 92.9444 159.552L51.5309 172.707C51.4892 172.723 51.4475 172.723 51.4057 172.723V172.74Z" fill="#2B00FF"/>
<path d="M108.933 134.663C108.724 134.663 108.54 134.504 108.515 134.295L105.42 108.136C105.395 107.911 105.553 107.702 105.787 107.669C106.012 107.644 106.221 107.802 106.254 108.036L109.35 134.195C109.375 134.421 109.216 134.629 108.983 134.663C108.966 134.663 108.949 134.663 108.933 134.663Z" fill="#2B00FF"/>
<path d="M88.8299 100.143C88.7381 100.143 88.6546 100.118 88.5795 100.06L81.153 94.3721C80.427 94.3888 76.9724 94.6811 76.2548 98.9491C76.2298 99.0994 76.1213 99.2331 75.9711 99.2748C75.8209 99.3249 75.6623 99.2832 75.5455 99.1746C75.4704 99.0994 67.8019 91.382 68.4611 81.5097C68.4778 81.2759 68.678 81.1172 68.9033 81.1172C69.137 81.1339 69.3039 81.3343 69.2955 81.5599C68.7615 89.5278 73.9017 96.0676 75.6039 97.9969C76.8306 93.4032 81.2614 93.5285 81.3032 93.5285C81.3866 93.5285 81.4701 93.5619 81.5368 93.6121L89.0802 99.3918C89.2638 99.5337 89.2971 99.7927 89.1553 99.9764C89.0718 100.085 88.9467 100.143 88.8215 100.143H88.8299Z" fill="#2B00FF"/>
<path d="M90.8411 100.144C90.8411 100.144 90.7993 100.144 90.7826 100.144C90.5573 100.111 90.3988 99.9021 90.4322 99.6683L91.3167 93.6296C91.3334 93.521 91.3918 93.4208 91.4836 93.354C91.5754 93.2872 91.6838 93.2621 91.7923 93.2788C91.8841 93.2955 93.5697 93.5545 94.6711 94.4147C94.571 92.1513 93.9953 87.2653 90.9245 85.219C90.7326 85.0937 90.6825 84.8348 90.8077 84.6427C90.9328 84.4506 91.1915 84.4005 91.3834 84.5258C95.8227 87.4824 95.5306 95.3168 95.5139 95.6509C95.5056 95.8513 95.3554 96.0183 95.1635 96.0434C94.9716 96.0685 94.7796 95.9599 94.7045 95.7678C94.3874 94.8825 92.9522 94.3813 92.076 94.1809L91.2583 99.7852C91.2249 99.994 91.0497 100.144 90.8494 100.144H90.8411Z" fill="#2B00FF"/>
<path d="M132.881 137.63L120.973 139.092L124.278 141.672C125.488 142.616 125.705 144.37 124.762 145.581C124.211 146.283 123.393 146.65 122.567 146.65C122.484 146.65 122.392 146.65 122.308 146.642C122.609 147.502 122.492 148.513 121.883 149.29C121.332 149.991 120.506 150.359 119.68 150.359C119.388 150.359 119.088 150.309 118.804 150.217C119.146 151.102 119.021 152.129 118.403 152.923C117.853 153.624 117.035 153.992 116.2 153.992C115.608 153.992 115.007 153.808 114.498 153.416L111.995 151.461L111.661 151.962C105.862 159.195 98.6103 156.264 98.6103 156.264L92.9277 157.909L88.6387 142.967L100.146 140.47L109.85 134.064C111.027 133.287 112.412 132.869 113.822 132.869H132.881V137.63Z" fill="white"/>
<path d="M118.804 150.634C118.712 150.634 118.621 150.6 118.537 150.542L113.656 146.541C113.48 146.399 113.447 146.132 113.597 145.957C113.747 145.781 114.006 145.748 114.181 145.898L119.063 149.899C119.238 150.041 119.271 150.308 119.121 150.483C119.038 150.584 118.921 150.634 118.796 150.634H118.804Z" fill="#2B00FF"/>
<path d="M122.308 147.06C122.217 147.06 122.116 147.026 122.041 146.96L117.076 142.825C116.901 142.675 116.876 142.416 117.026 142.241C117.177 142.065 117.435 142.04 117.61 142.191L122.575 146.325C122.751 146.475 122.776 146.734 122.625 146.91C122.542 147.01 122.425 147.06 122.308 147.06Z" fill="#2B00FF"/>
<path d="M170.682 114.409L146.007 158.099C145.365 159.235 144.163 159.937 142.853 159.937H119.614C116.843 159.937 115.108 156.947 116.468 154.533L141.142 110.851C141.785 109.715 142.987 109.014 144.288 109.014H167.536C170.306 109.014 172.042 111.995 170.682 114.409Z" fill="#2B00FF"/>
<path d="M160.142 138.397C159.75 139.166 159.032 139.658 158.239 139.792C158.59 140.143 158.84 140.569 158.99 141.028C159.232 141.788 159.19 142.64 158.798 143.4C158.206 144.57 156.954 145.196 155.719 145.071C156.036 145.405 156.262 145.806 156.403 146.232C156.645 147 156.604 147.852 156.212 148.612C155.686 149.639 154.659 150.249 153.575 150.291C153.717 150.5 153.833 150.717 153.925 150.942C154.251 151.744 154.259 152.613 153.867 153.381C153.082 154.901 151.005 155.411 149.244 154.509L145.33 152.638C144.446 152.187 143.812 151.46 143.486 150.658C143.161 149.856 143.161 148.979 143.545 148.219C144.02 147.284 144.997 146.733 146.081 146.666C145.889 146.399 145.739 146.098 145.639 145.789C145.389 145.029 145.439 144.177 145.823 143.417C146.423 142.248 147.675 141.613 148.91 141.738C148.593 141.404 148.359 141.003 148.226 140.577C147.976 139.817 148.017 138.965 148.409 138.205C149.019 137.002 150.312 136.376 151.58 136.535C151.514 136.409 151.464 136.284 151.422 136.151C151.213 135.507 151.247 134.781 151.58 134.138C152.24 132.843 153.842 132.325 155.135 132.993L158.99 134.839C159.641 135.173 160.092 135.741 160.3 136.384C160.509 137.027 160.467 137.754 160.142 138.397Z" fill="white"/>
<path d="M153.574 150.707C153.516 150.707 153.449 150.69 153.391 150.665L145.897 147.04C145.689 146.94 145.605 146.689 145.705 146.48C145.805 146.272 146.056 146.188 146.264 146.288L153.758 149.913C153.966 150.013 154.05 150.264 153.95 150.473C153.875 150.623 153.733 150.707 153.574 150.707Z" fill="#2B00FF"/>
<path d="M155.719 145.489C155.661 145.489 155.594 145.472 155.535 145.447L148.726 142.114C148.518 142.014 148.434 141.763 148.534 141.555C148.635 141.346 148.885 141.262 149.093 141.363L155.903 144.695C156.111 144.795 156.195 145.046 156.094 145.255C156.019 145.405 155.878 145.489 155.719 145.489Z" fill="#2B00FF"/>
<path d="M158.24 140.21C158.181 140.21 158.115 140.194 158.056 140.169L151.397 136.911C151.189 136.811 151.105 136.56 151.205 136.352C151.305 136.143 151.556 136.059 151.764 136.159L158.423 139.417C158.632 139.517 158.715 139.768 158.615 139.976C158.54 140.127 158.398 140.21 158.24 140.21Z" fill="#2B00FF"/>
<path d="M67.018 61.3158C67.9275 64.9991 70.1972 67.321 73.6184 66.8951L69.78 80.9936L88.9638 97.6395L90.8246 80.0748C90.8246 80.0748 93.2278 79.5486 96.065 77.1014C98.9021 74.6626 103.667 68.6407 104.034 62.9612L104.777 51.7526C100.112 51.7192 94.079 50.4329 89.4645 49.2386C85.4008 48.1862 82.4301 47.209 82.4301 47.209C82.3634 47.7268 82.1965 48.2614 81.9629 48.8043C80.7028 51.7192 77.4735 54.6174 77.4735 54.6174V54.6758C77.4735 54.6758 77.4569 54.6591 77.4485 54.6591C77.4235 54.6341 77.3984 54.609 77.3901 54.5923C76.297 53.398 74.8534 52.5878 73.3097 52.3456C72.4919 52.2203 71.6491 52.2537 70.8147 52.4542C67.1598 53.3645 66.0333 57.3819 67.0096 61.3325L67.018 61.3158Z" fill="white"/>
<path d="M103.138 61.1037C103.212 59.976 102.445 59.007 101.424 58.9393C100.403 58.8716 99.5154 59.7309 99.4408 60.8586C99.3662 61.9862 100.133 62.9553 101.154 63.023C102.175 63.0906 103.063 62.2314 103.138 61.1037Z" fill="#2B00FF"/>
<path d="M91.2444 59.0462C91.6015 57.9741 91.1042 56.8424 90.1337 56.5185C89.1631 56.1946 88.0868 56.8011 87.7297 57.8732C87.3725 58.9453 87.8698 60.077 88.8404 60.401C89.8109 60.7249 90.8872 60.1183 91.2444 59.0462Z" fill="#2B00FF"/>
<path d="M100.07 56.0967C101.506 55.7459 103.066 56.0967 104.142 57.1323C104.359 57.3411 104.434 57.6919 104.218 57.9341C104.026 58.1513 103.65 58.2265 103.416 58.0093C103.308 57.9091 103.199 57.8088 103.083 57.7253C103.024 57.6836 102.966 57.6418 102.907 57.6C102.907 57.6 102.891 57.5917 102.891 57.5833C102.857 57.5666 102.824 57.5499 102.799 57.5249C102.674 57.4497 102.54 57.3912 102.407 57.3328C102.34 57.3077 102.273 57.2827 102.198 57.2576C102.19 57.2576 102.173 57.2493 102.165 57.2493C102.123 57.2409 102.09 57.2242 102.048 57.2158C101.906 57.1741 101.764 57.149 101.614 57.124C101.539 57.1156 101.472 57.1073 101.397 57.0989C101.364 57.0989 101.322 57.0989 101.289 57.0989C101.289 57.0989 101.289 57.0989 101.28 57.0989C101.13 57.0989 100.988 57.0989 100.838 57.1156C100.763 57.1156 100.696 57.1323 100.621 57.1407C100.588 57.1407 100.546 57.1574 100.513 57.1574C100.504 57.1574 100.496 57.1574 100.496 57.1574C100.496 57.1574 100.488 57.1574 100.479 57.1574C100.195 57.2242 99.8534 57.1407 99.7449 56.8233C99.6615 56.556 99.7699 56.1635 100.079 56.0883L100.07 56.0967Z" fill="#2B00FF"/>
<path d="M92.6935 55.2768C92.4765 55.5273 92.1261 55.4772 91.8924 55.3102C91.8924 55.3102 91.8841 55.3102 91.8757 55.2935C91.8757 55.2935 91.8757 55.2935 91.859 55.2851C91.8257 55.2684 91.8006 55.2434 91.7673 55.2267C91.7088 55.1849 91.6421 55.1515 91.5753 55.1181C91.4418 55.0513 91.3083 54.9928 91.1748 54.9343C91.1748 54.9343 91.1748 54.9343 91.1665 54.9343C91.1331 54.926 91.0997 54.9093 91.058 54.9009C90.9912 54.8759 90.9161 54.8592 90.8494 54.8425C90.7075 54.8091 90.5657 54.784 90.4155 54.7589C90.3737 54.7589 90.332 54.7506 90.2986 54.7422C90.2903 54.7422 90.2736 54.7422 90.2653 54.7422C90.1902 54.7422 90.1151 54.7422 90.0483 54.7422C89.8981 54.7422 89.7562 54.7506 89.606 54.7673C89.5727 54.7673 89.5309 54.7756 89.4976 54.784C89.4976 54.784 89.4809 54.784 89.4725 54.784C89.4058 54.8007 89.3307 54.8174 89.2639 54.8341C89.1221 54.8675 88.9802 54.9176 88.8467 54.9761C88.5546 55.093 88.2292 54.8759 88.1374 54.6086C88.0289 54.3079 88.2292 54.0072 88.5046 53.8987C89.8981 53.3474 91.4752 53.6147 92.6684 54.4833C92.9271 54.6671 92.8771 55.0763 92.7018 55.2851L92.6935 55.2768Z" fill="#2B00FF"/>
<path d="M88.4388 71.5462C87.4041 71.0869 86.7199 70.402 86.3944 69.5166C85.852 68.03 86.5697 66.5349 86.603 66.4681C86.6865 66.2927 86.8951 66.2175 87.0703 66.2927L93.5039 69.0823C93.5957 69.1241 93.6624 69.1993 93.6958 69.2911C93.7292 69.383 93.7208 69.4832 93.6791 69.5751C93.6624 69.6002 92.4942 71.9471 90.1661 71.9471C89.6488 71.9471 89.073 71.8302 88.4388 71.5462ZM87.1204 67.1029C86.9702 67.5539 86.7616 68.4309 87.0703 69.2744C87.3207 69.9677 87.8797 70.5106 88.7309 70.8948C91.0089 71.9137 92.369 70.3184 92.8447 69.5918L87.1204 67.1112V67.1029Z" fill="#2B00FF"/>
<path d="M72.8176 65.1826C72.7425 65.1826 72.6591 65.1659 72.5923 65.1158C71.2739 64.314 70.5563 62.6352 70.8984 61.1234C71.2155 59.7119 72.4254 58.551 73.844 58.2753C74.0693 57.4819 74.0025 56.6634 73.6688 56.0286C73.2682 55.2769 72.4505 54.8092 71.6995 54.8927C70.9318 54.9762 70.2726 55.6945 70.3143 56.4045C70.331 56.6467 70.1474 56.8555 69.8971 56.8722C69.6551 56.8972 69.4465 56.7051 69.4298 56.4546C69.3547 55.2602 70.3477 54.141 71.5993 54.0074C72.7175 53.8821 73.8774 54.5419 74.4448 55.6026C74.9455 56.5297 74.9955 57.699 74.595 58.8099C74.5366 58.9686 74.3947 59.0772 74.2278 59.0939C73.0596 59.2191 72.0166 60.1462 71.7579 61.2988C71.4992 62.4514 72.0416 63.7293 73.0513 64.3474C73.2599 64.4727 73.3266 64.7483 73.2015 64.9571C73.118 65.0907 72.9762 65.1659 72.826 65.1659L72.8176 65.1826Z" fill="#2B00FF"/>
<path d="M88.7718 80.5503C88.4213 80.5503 88.0959 80.5169 87.7955 80.4334C85.7261 79.8571 82.914 76.5329 82.7972 76.3909C82.6386 76.2072 82.6637 75.9232 82.8473 75.7729C83.0308 75.6142 83.3145 75.6392 83.4647 75.823C83.4898 75.8564 86.2184 79.0803 88.0208 79.5815C89.4978 79.9907 92.5769 78.8381 93.6366 78.3537C93.8619 78.2535 94.1206 78.3537 94.2207 78.5709C94.3209 78.7964 94.2207 79.0553 94.0038 79.1555C93.8619 79.2223 90.9163 80.5503 88.7635 80.5503H88.7718Z" fill="#2B00FF"/>
<path d="M88.9558 63.9381C88.0546 63.9381 87.1368 63.7711 86.2522 63.412C84.4665 62.6853 83.073 61.3072 82.322 59.5365C81.571 57.7575 81.5543 55.7948 82.2803 54.0074C83.0063 52.22 84.3831 50.8252 86.1521 50.0735C87.9295 49.3218 89.8904 49.3051 91.6761 50.0318C95.3644 51.5268 97.1501 55.7447 95.6481 59.4363C94.5132 62.2427 91.8013 63.9465 88.9558 63.9465V63.9381ZM88.9558 50.3742C88.1214 50.3742 87.287 50.5412 86.4859 50.8753C84.9255 51.5352 83.7239 52.7629 83.0814 54.3331C82.4472 55.9033 82.4555 57.6239 83.1147 59.1858C83.7739 60.7476 85.0006 61.9503 86.5693 62.5934C89.807 63.9047 93.5036 62.3429 94.8136 59.1022C96.1237 55.8616 94.5633 52.1616 91.3257 50.8503C90.558 50.5412 89.7486 50.3825 88.9475 50.3825L88.9558 50.3742Z" fill="#2B00FF"/>
<path d="M104.776 68.4577C103.875 68.4577 102.957 68.2906 102.073 67.9315C98.3845 66.4364 96.5988 62.2186 98.1008 58.5269C98.8268 56.7396 100.204 55.3447 101.973 54.593C103.75 53.8414 105.711 53.8247 107.497 54.5513C111.185 56.0463 112.971 60.2642 111.469 63.9558C110.334 66.7622 107.622 68.466 104.776 68.466V68.4577ZM104.785 54.8937C103.95 54.8937 103.116 55.0608 102.315 55.3949C100.754 56.0547 99.5528 57.2825 98.9102 58.8527C97.6002 62.0933 99.1606 65.7933 102.398 67.1046C105.636 68.4159 109.332 66.8541 110.643 63.6134C111.953 60.3728 110.392 56.6727 107.155 55.3614C106.387 55.0524 105.577 54.8937 104.776 54.8937H104.785Z" fill="#2B00FF"/>
<path d="M75.3015 49.8638L74.8564 50.6289L82.3128 54.9744L82.7578 54.2093L75.3015 49.8638Z" fill="#2B00FF"/>
<path d="M95.4197 58.862L95.0713 59.6758L97.8861 60.8833L98.2345 60.0696L95.4197 58.862Z" fill="#2B00FF"/>
<path d="M70.823 52.4368C71.6575 52.2363 72.5086 52.2029 73.318 52.3282C74.8617 52.5704 76.3053 53.3722 77.3985 54.5749L77.4819 54.6083C77.4819 54.6083 80.7195 51.7018 81.9712 48.7952C82.2048 48.2607 82.3634 47.7261 82.4385 47.1999C82.4385 47.1999 85.4091 48.1771 89.4729 49.2295C94.0873 50.4239 100.112 51.7101 104.785 51.7435C107.747 51.7686 110.167 51.2842 111.327 49.9562C116.592 43.9342 112.754 37.7202 106.946 38.3049C101.38 38.8728 97.617 38.7726 91.5339 34.9306C85.4508 31.0802 79.059 31.7233 77.1898 36.6511C77.1898 36.6511 67.1431 36.9602 70.823 52.4284V52.4368Z" fill="#161527"/>
<path d="M98.4932 68.8656C98.4431 68.8656 98.4014 68.8655 98.3513 68.8405L92.8524 67.0197C92.6187 66.9445 92.4935 66.694 92.5686 66.4601C92.6437 66.2263 92.8941 66.101 93.1277 66.1761L98.0009 67.7881L97.2832 58.5924C97.2666 58.3501 97.4418 58.133 97.6921 58.1163C97.9341 58.0996 98.1427 58.2833 98.1678 58.5255L98.9354 68.3811C98.9438 68.5315 98.8854 68.6734 98.7686 68.7653C98.6935 68.8238 98.5933 68.8572 98.4932 68.8572V68.8656Z" fill="#2B00FF"/>
<path d="M253.308 227.732H152.415C150.154 227.732 148.31 225.886 148.31 223.623V162.51C148.31 160.246 150.154 158.4 152.415 158.4H253.308C255.569 158.4 257.413 160.246 257.413 162.51V223.623C257.413 225.886 255.569 227.732 253.308 227.732ZM152.415 159.01C150.487 159.01 148.919 160.58 148.919 162.51V223.623C148.919 225.552 150.487 227.122 152.415 227.122H253.308C255.235 227.122 256.804 225.552 256.804 223.623V162.51C256.804 160.58 255.235 159.01 253.308 159.01H152.415Z" fill="#2B00FF"/>
<path d="M152.414 158.701H253.307C255.401 158.701 257.104 160.405 257.104 162.501V166.586H148.609V162.501C148.609 160.405 150.312 158.701 152.406 158.701H152.414Z" fill="#2B00FF"/>
<path d="M155.494 185.053H171.39V169.142H155.494V185.053Z" fill="white"/>
<path d="M155.494 204.262H171.39V188.351H155.494V204.262Z" fill="white"/>
<path d="M155.494 222.912H171.39V207.001H155.494V222.912Z" fill="white"/>
<path d="M161.903 182.328L156.221 176.64L159.116 173.742L161.903 176.532L167.769 170.66L170.665 173.558L161.903 182.328Z" fill="#2B00FF"/>
<path d="M161.903 202.141L156.221 196.453L159.116 193.555L161.903 196.344L167.769 190.473L170.665 193.371L161.903 202.141Z" fill="#2B00FF"/>
<path d="M161.903 220.273L156.221 214.585L159.116 211.687L161.903 214.485L167.769 208.613L170.665 211.503L161.903 220.273Z" fill="#2B00FF"/>
<path d="M174.052 173.293H250.32V170.144H174.052V173.293Z" fill="white"/>
<path d="M174.052 179.258H250.32V176.109H174.052V179.258Z" fill="white"/>
<path d="M174.052 185.111H208.364V181.963H174.052V185.111Z" fill="white"/>
<path d="M174.052 191.967H250.32V188.818H174.052V191.967Z" fill="white"/>
<path d="M174.052 197.932H250.32V194.783H174.052V197.932Z" fill="white"/>
<path d="M174.052 203.785H208.364V200.636H174.052V203.785Z" fill="white"/>
<path d="M174.052 210.977H250.32V207.828H174.052V210.977Z" fill="white"/>
<path d="M174.052 216.941H250.32V213.793H174.052V216.941Z" fill="white"/>
<path d="M174.052 222.787H208.364V219.638H174.052V222.787Z" fill="white"/>
<path d="M346.182 191.457L340.716 207.828C333.231 230.22 308.507 236.258 291.559 219.838L279.168 207.828C258.482 187.791 264.715 150.757 289.798 144.627L307.656 140.267C332.739 134.136 355.311 164.129 346.182 191.457Z" fill="white"/>
<path d="M302.556 159.682C315.584 156.498 325.134 149.768 323.885 144.651C322.637 139.533 311.064 137.966 298.036 141.15C285.008 144.333 275.458 151.063 276.706 156.18C277.955 161.298 289.528 162.865 302.556 159.682Z" fill="#2B00FF"/>
<path d="M335.326 125.935C335.326 144.118 317.502 150.115 295.523 150.115C273.543 150.115 255.72 144.109 255.72 125.935C255.72 107.761 273.543 90.6973 295.523 90.6973C317.502 90.6973 335.326 107.752 335.326 125.935Z" fill="white"/>
<path d="M278.491 136.675C278.491 136.675 260.809 136.458 255.736 126.928C255.719 126.603 255.711 126.269 255.711 125.935C255.711 116.889 260.133 108.119 267.285 101.588H311.802C311.802 101.588 327.481 136.684 278.5 136.684L278.491 136.675Z" fill="#2B00FF"/>
<path d="M267.268 121.16C270.526 121.16 273.167 118.157 273.167 114.453C273.167 110.749 270.526 107.746 267.268 107.746C264.009 107.746 261.368 110.749 261.368 114.453C261.368 118.157 264.009 121.16 267.268 121.16Z" fill="white"/>
<path d="M287.92 121.16C291.178 121.16 293.82 118.157 293.82 114.453C293.82 110.749 291.178 107.746 287.92 107.746C284.662 107.746 282.021 110.749 282.021 114.453C282.021 118.157 284.662 121.16 287.92 121.16Z" fill="white"/>
<path d="M275.562 128.023C270.072 128.023 269.988 123.07 269.988 123.02C269.988 122.869 270.105 122.744 270.255 122.744C270.406 122.744 270.522 122.861 270.531 123.011C270.531 123.195 270.622 127.471 275.562 127.471C280.502 127.471 280.594 123.195 280.594 123.011C280.594 122.861 280.719 122.744 280.869 122.744C281.02 122.744 281.136 122.869 281.136 123.02C281.136 123.07 281.045 128.023 275.562 128.023Z" fill="#2B00FF"/>
<path d="M321.607 144.495C321.566 144.495 321.524 144.487 321.482 144.462C321.349 144.395 321.299 144.228 321.374 144.094C325.237 136.911 326.873 128.501 325.98 120.391C325.087 112.289 321.657 104.43 316.325 98.2574C316.225 98.1405 316.242 97.9734 316.35 97.8732C316.459 97.773 316.634 97.7897 316.734 97.8982C322.133 104.146 325.613 112.114 326.514 120.324C327.415 128.534 325.763 137.07 321.849 144.345C321.799 144.437 321.707 144.487 321.607 144.487V144.495Z" fill="#2B00FF"/>
<path d="M296.908 94.9321C296.858 94.9321 296.808 94.9154 296.758 94.8903C296.633 94.8068 296.599 94.6398 296.683 94.5145C300.805 88.2587 301.923 80.2573 299.687 73.1078C299.645 72.9658 299.72 72.8155 299.862 72.7654C300.004 72.7236 300.154 72.7988 300.204 72.9408C302.49 80.2406 301.347 88.4174 297.142 94.8068C297.092 94.882 297 94.9321 296.916 94.9321H296.908Z" fill="#2B00FF"/>
<path d="M299.92 78.9293C304.104 78.9293 307.496 75.5339 307.496 71.3455C307.496 67.1571 304.104 63.7617 299.92 63.7617C295.735 63.7617 292.343 67.1571 292.343 71.3455C292.343 75.5339 295.735 78.9293 299.92 78.9293Z" fill="#2B00FF"/>
<path d="M328.917 187.257C335.286 187.257 340.449 180.709 340.449 172.632C340.449 164.555 335.286 158.008 328.917 158.008C322.548 158.008 317.385 164.555 317.385 172.632C317.385 180.709 322.548 187.257 328.917 187.257Z" fill="#2B00FF"/>
<path d="M289.606 194.999C279.701 194.999 269.804 192.694 260.943 188.234C257.505 186.505 256.12 182.32 257.847 178.879C259.574 175.438 263.755 174.051 267.193 175.78C276.547 180.483 287.386 182.12 297.708 180.391C308.03 178.654 317.743 173.567 325.045 166.058C327.732 163.302 332.137 163.244 334.891 165.933C337.645 168.623 337.703 173.033 335.016 175.789C325.662 185.402 313.229 191.917 300.011 194.138C296.573 194.715 293.085 194.999 289.597 194.999H289.606Z" fill="#2B00FF"/>
<path d="M189.281 143.826C190.9 143.567 192.585 143.542 194.296 143.801C198.618 144.444 202.44 146.741 205.035 150.266C207.639 153.782 208.715 158.109 208.064 162.435L207.956 163.162C207.655 165.166 205.795 166.544 203.792 166.244C201.789 165.943 200.412 164.08 200.713 162.076L200.821 161.349C201.18 158.952 200.588 156.563 199.144 154.617C197.7 152.671 195.598 151.402 193.203 151.043C188.263 150.308 183.648 153.724 182.914 158.66L182.806 159.386C182.505 161.391 180.644 162.769 178.642 162.468C176.639 162.168 175.262 160.305 175.563 158.301L175.671 157.574C176.748 150.341 182.422 144.92 189.273 143.81L189.281 143.826Z" fill="#2B00FF"/>
<path d="M263.896 175.137C263.846 176.657 263.554 178.194 263.02 179.706C261.66 183.523 258.89 186.588 255.226 188.317C251.563 190.054 247.449 190.255 243.628 188.893L242.985 188.659C241.224 188.024 240.298 186.087 240.932 184.316C241.566 182.554 243.502 181.627 245.271 182.261L245.914 182.495C248.025 183.247 250.295 183.138 252.322 182.178C254.35 181.217 255.877 179.53 256.628 177.417C258.18 173.057 255.911 168.247 251.555 166.693L250.912 166.459C249.152 165.824 248.234 163.887 248.86 162.116C249.494 160.354 251.43 159.427 253.199 160.061L253.841 160.295C260.208 162.575 264.122 168.706 263.896 175.137Z" fill="#2B00FF"/>
<path d="M202.923 251.109H154.909V299.168H202.923V251.109Z" fill="#2B00FF"/>
<path d="M152.415 233.061H304.902C306.996 233.061 308.698 234.764 308.698 236.861V244.695H148.61V236.861C148.61 234.764 150.313 233.061 152.407 233.061H152.415Z" fill="#2B00FF"/>
<path d="M304.901 334.916H152.415C150.07 334.916 148.159 333.003 148.159 330.656V236.861C148.159 234.514 150.07 232.602 152.415 232.602H304.901C307.246 232.602 309.157 234.514 309.157 236.861V330.656C309.157 333.003 307.246 334.916 304.901 334.916ZM152.415 233.512C150.571 233.512 149.069 235.015 149.069 236.861V330.656C149.069 332.502 150.571 334.005 152.415 334.005H304.901C306.745 334.005 308.247 332.502 308.247 330.656V236.861C308.247 235.015 306.745 233.512 304.901 233.512H152.415Z" fill="#2B00FF"/>
<path d="M302.857 238.833C302.857 239.351 302.648 239.827 302.306 240.169C301.964 240.512 301.488 240.72 300.971 240.72H291.809C290.774 240.72 289.923 239.877 289.923 238.833C289.923 238.315 290.14 237.839 290.474 237.497C290.824 237.154 291.291 236.945 291.809 236.945H300.971C302.014 236.945 302.857 237.789 302.857 238.833Z" fill="white"/>
<path d="M287.619 238.833C287.619 239.351 287.411 239.827 287.06 240.169C286.727 240.512 286.251 240.72 285.734 240.72H276.571C275.528 240.72 274.686 239.877 274.686 238.833C274.686 238.315 274.894 237.839 275.236 237.497C275.578 237.154 276.046 236.945 276.571 236.945H285.734C286.768 236.945 287.619 237.789 287.619 238.833Z" fill="#2B00FF"/>
<path d="M272.123 238.833C272.123 239.351 271.915 239.827 271.564 240.169C271.23 240.512 270.755 240.72 270.237 240.72H261.075C260.032 240.72 259.189 239.877 259.189 238.833C259.189 238.315 259.398 237.839 259.74 237.497C260.082 237.154 260.55 236.945 261.075 236.945H270.237C271.272 236.945 272.123 237.789 272.123 238.833Z" fill="#5761D7"/>
<path d="M173.1 292.972L157.279 277.128L164.839 269.561L173.1 277.838L193.603 257.316L201.163 264.883L173.1 292.972Z" fill="white"/>
<path d="M300.228 305.734H155.994C155.395 305.734 154.909 306.221 154.909 306.82V307.422C154.909 308.021 155.395 308.507 155.994 308.507H300.228C300.827 308.507 301.312 308.021 301.312 307.422V306.82C301.312 306.221 300.827 305.734 300.228 305.734Z" fill="white"/>
<path d="M300.387 315.555H156.153C155.554 315.555 155.068 316.041 155.068 316.64V317.242C155.068 317.841 155.554 318.328 156.153 318.328H300.387C300.986 318.328 301.472 317.841 301.472 317.242V316.64C301.472 316.041 300.986 315.555 300.387 315.555Z" fill="white"/>
<path d="M256.696 324.777H156.07C155.471 324.777 154.985 325.263 154.985 325.863V326.464C154.985 327.064 155.471 327.55 156.07 327.55H256.696C257.295 327.55 257.78 327.064 257.78 326.464V325.863C257.78 325.263 257.295 324.777 256.696 324.777Z" fill="white"/>
<path d="M268.987 289.389C264.038 289.389 260.016 285.363 260.016 280.41V261.225C260.016 257.225 256.762 253.967 252.765 253.967C248.768 253.967 245.514 257.225 245.514 261.225V276.927C245.514 281.287 241.967 284.829 237.62 284.829H237.336C232.98 284.829 229.442 281.279 229.442 276.927V259.563C229.442 255.947 226.505 252.998 222.884 252.998C219.262 252.998 216.333 255.938 216.333 259.563V292.087C216.333 292.454 216.033 292.755 215.666 292.755C215.298 292.755 214.998 292.454 214.998 292.087V259.563C214.998 255.203 218.536 251.662 222.892 251.662C227.248 251.662 230.786 255.212 230.786 259.563V276.927C230.786 280.544 233.723 283.492 237.344 283.492H237.628C241.241 283.492 244.187 280.552 244.187 276.927V261.225C244.187 256.481 248.042 252.623 252.782 252.623C257.521 252.623 261.376 256.481 261.376 261.225V280.41C261.376 284.62 264.798 288.044 269.003 288.044C273.209 288.044 276.63 284.62 276.63 280.41V275.792C276.63 270.981 280.544 267.064 285.35 267.064C290.156 267.064 294.07 270.981 294.07 275.792V294.659C294.07 295.027 293.77 295.327 293.402 295.327C293.035 295.327 292.735 295.027 292.735 294.659V275.792C292.735 271.716 289.422 268.408 285.358 268.408C281.295 268.408 277.982 271.724 277.982 275.792V280.41C277.982 285.363 273.96 289.389 269.012 289.389H268.987Z" fill="white"/>
<path d="M222.298 256.331C224.57 256.331 226.412 254.487 226.412 252.213C226.412 249.939 224.57 248.096 222.298 248.096C220.026 248.096 218.185 249.939 218.185 252.213C218.185 254.487 220.026 256.331 222.298 256.331Z" fill="#2B00FF"/>
<path d="M244.462 272.809C246.734 272.809 248.576 270.966 248.576 268.692C248.576 266.418 246.734 264.574 244.462 264.574C242.19 264.574 240.349 266.418 240.349 268.692C240.349 270.966 242.19 272.809 244.462 272.809Z" fill="#2B00FF"/>
<path d="M261.359 264.007C263.631 264.007 265.473 262.163 265.473 259.889C265.473 257.615 263.631 255.771 261.359 255.771C259.087 255.771 257.245 257.615 257.245 259.889C257.245 262.163 259.087 264.007 261.359 264.007Z" fill="#2B00FF"/>
<path d="M268.577 292.311C270.849 292.311 272.69 290.468 272.69 288.194C272.69 285.92 270.849 284.076 268.577 284.076C266.305 284.076 264.463 285.92 264.463 288.194C264.463 290.468 266.305 292.311 268.577 292.311Z" fill="#2B00FF"/>
<path d="M293.376 297.481C295.648 297.481 297.49 295.638 297.49 293.364C297.49 291.09 295.648 289.246 293.376 289.246C291.105 289.246 289.263 291.09 289.263 293.364C289.263 295.638 291.105 297.481 293.376 297.481Z" fill="#2B00FF"/>
<path d="M215.624 296.472C217.896 296.472 219.737 294.628 219.737 292.354C219.737 290.08 217.896 288.236 215.624 288.236C213.352 288.236 211.51 290.08 211.51 292.354C211.51 294.628 213.352 296.472 215.624 296.472Z" fill="#2B00FF"/>
<path d="M152.314 108.163C152.081 108.163 151.897 107.979 151.897 107.745V102.734C151.897 102.5 152.081 102.316 152.314 102.316C152.548 102.316 152.732 102.5 152.732 102.734V107.745C152.732 107.979 152.548 108.163 152.314 108.163ZM235.041 103.235C234.816 103.235 234.632 103.06 234.624 102.834C234.624 102.6 234.799 102.408 235.024 102.4C236.652 102.342 238.212 101.941 239.664 101.206C239.873 101.097 240.123 101.181 240.223 101.389C240.323 101.598 240.248 101.849 240.04 101.949C238.487 102.742 236.81 103.168 235.058 103.227C235.058 103.227 235.05 103.227 235.041 103.227V103.235ZM230.101 102.634C230.06 102.634 230.009 102.634 229.968 102.609C228.341 102.058 226.814 101.139 225.562 99.9445C225.395 99.7858 225.387 99.5185 225.545 99.3515C225.704 99.1844 225.971 99.1761 226.138 99.3348C227.306 100.446 228.716 101.298 230.235 101.815C230.452 101.891 230.569 102.124 230.493 102.342C230.435 102.517 230.268 102.626 230.101 102.626V102.634ZM243.694 98.8503C243.603 98.8503 243.511 98.8169 243.436 98.7585C243.252 98.6165 243.227 98.3492 243.369 98.1738C244.379 96.8959 245.088 95.4426 245.463 93.8641C245.513 93.6386 245.739 93.4966 245.964 93.555C246.189 93.6052 246.323 93.8307 246.273 94.0562C245.864 95.7517 245.105 97.3135 244.02 98.6833C243.936 98.7835 243.811 98.842 243.694 98.842V98.8503ZM152.306 98.1404C152.072 98.1404 151.889 97.9566 151.889 97.7228V92.7115C151.889 92.4776 152.072 92.2939 152.306 92.2939C152.54 92.2939 152.723 92.4776 152.723 92.7115V97.7228C152.723 97.9566 152.54 98.1404 152.306 98.1404ZM223.059 95.9438C222.892 95.9438 222.733 95.8435 222.675 95.6765C222.116 94.265 221.832 92.7783 221.832 91.2498V90.6151C221.832 90.3812 222.016 90.1975 222.249 90.1975C222.483 90.1975 222.666 90.3812 222.666 90.6151V91.2498C222.666 92.6697 222.933 94.0562 223.451 95.3675C223.534 95.5846 223.434 95.8268 223.217 95.9104C223.167 95.9271 223.117 95.9438 223.067 95.9438H223.059ZM187.369 95.0835H186.977C185.751 95.0835 184.549 94.8997 183.389 94.5406C183.172 94.4738 183.047 94.2399 183.114 94.0144C183.18 93.7973 183.414 93.672 183.639 93.7388C184.716 94.0729 185.834 94.2483 186.977 94.2483H187.369C187.728 94.2483 188.079 94.2316 188.429 94.1982C188.654 94.1815 188.863 94.3485 188.88 94.574C188.905 94.7995 188.73 95.0083 188.504 95.025C188.129 95.0584 187.753 95.0751 187.369 95.0751V95.0835ZM193.194 93.5049C193.052 93.5049 192.91 93.4298 192.835 93.2961C192.718 93.0957 192.785 92.8451 192.985 92.7282C194.37 91.918 195.589 90.7988 196.507 89.4792C196.64 89.2871 196.899 89.2453 197.091 89.379C197.283 89.5126 197.324 89.7715 197.191 89.9636C196.206 91.3751 194.896 92.5862 193.411 93.4548C193.344 93.4966 193.269 93.5133 193.202 93.5133L193.194 93.5049ZM179.209 92.0767C179.108 92.0767 179.008 92.0433 178.925 91.9681C177.648 90.8072 176.613 89.3539 175.946 87.767C175.854 87.5582 175.954 87.3076 176.171 87.2157C176.38 87.1239 176.63 87.2241 176.722 87.4412C177.348 88.9196 178.307 90.2643 179.492 91.3501C179.659 91.5088 179.676 91.7677 179.517 91.9431C179.434 92.035 179.325 92.0767 179.209 92.0767ZM246.181 89.3957C245.947 89.3957 245.764 89.2119 245.764 88.9781V83.9667C245.764 83.7329 245.947 83.5491 246.181 83.5491C246.415 83.5491 246.598 83.7329 246.598 83.9667V88.9781C246.598 89.2119 246.415 89.3957 246.181 89.3957ZM152.298 88.1178C152.064 88.1178 151.881 87.934 151.881 87.7002V82.6889C151.881 82.455 152.064 82.2712 152.298 82.2712C152.531 82.2712 152.715 82.455 152.715 82.6889V87.7002C152.715 87.934 152.531 88.1178 152.298 88.1178ZM222.241 86.0214C222.007 86.0214 221.824 85.8376 221.824 85.6038V80.5925C221.824 80.3586 222.007 80.1748 222.241 80.1748C222.474 80.1748 222.658 80.3586 222.658 80.5925V85.6038C222.658 85.8376 222.474 86.0214 222.241 86.0214ZM198.743 85.5453C198.743 85.5453 198.693 85.5453 198.668 85.5453C198.442 85.5035 198.292 85.2864 198.334 85.0609C198.451 84.4178 198.509 83.7579 198.509 83.0981V80.1331C198.509 79.8992 198.693 79.7155 198.926 79.7155C199.16 79.7155 199.344 79.8992 199.344 80.1331V83.0981C199.344 83.7997 199.285 84.5096 199.16 85.2029C199.127 85.4033 198.951 85.5453 198.751 85.5453H198.743ZM175.412 83.1399C175.178 83.1399 174.995 82.9561 174.995 82.7223V77.711C174.995 77.4771 175.178 77.2933 175.412 77.2933C175.645 77.2933 175.829 77.4771 175.829 77.711V82.7223C175.829 82.9561 175.645 83.1399 175.412 83.1399ZM246.173 79.373C245.939 79.373 245.755 79.1893 245.755 78.9554V73.9441C245.755 73.7103 245.939 73.5265 246.173 73.5265C246.406 73.5265 246.59 73.7103 246.59 73.9441V78.9554C246.59 79.1893 246.406 79.373 246.173 79.373ZM152.289 78.0952C152.056 78.0952 151.872 77.9114 151.872 77.6775V72.6662C151.872 72.4324 152.056 72.2486 152.289 72.2486C152.523 72.2486 152.707 72.4324 152.707 72.6662V77.6775C152.707 77.9114 152.523 78.0952 152.289 78.0952ZM222.232 75.9988C221.999 75.9988 221.815 75.815 221.815 75.5811V70.5698C221.815 70.336 221.999 70.1522 222.232 70.1522C222.466 70.1522 222.65 70.336 222.65 70.5698V75.5811C222.65 75.815 222.466 75.9988 222.232 75.9988ZM198.91 75.531C198.676 75.531 198.493 75.3473 198.493 75.1134V70.1021C198.493 69.8683 198.676 69.6845 198.91 69.6845C199.143 69.6845 199.327 69.8683 199.327 70.1021V75.1134C199.327 75.3473 199.143 75.531 198.91 75.531ZM175.403 73.1089C175.17 73.1089 174.986 72.9252 174.986 72.6913V67.68C174.986 67.4461 175.17 67.2624 175.403 67.2624C175.637 67.2624 175.821 67.4461 175.821 67.68V72.6913C175.821 72.9252 175.637 73.1089 175.403 73.1089ZM246.164 69.3421C245.931 69.3421 245.747 69.1583 245.747 68.9245V63.9132C245.747 63.6793 245.931 63.4955 246.164 63.4955C246.398 63.4955 246.582 63.6793 246.582 63.9132V68.9245C246.582 69.1583 246.398 69.3421 246.164 69.3421ZM152.281 68.0642C152.047 68.0642 151.864 67.8804 151.864 67.6466V62.6353C151.864 62.4014 152.047 62.2177 152.281 62.2177C152.515 62.2177 152.698 62.4014 152.698 62.6353V67.6466C152.698 67.8804 152.515 68.0642 152.281 68.0642ZM222.224 65.9678C221.99 65.9678 221.807 65.784 221.807 65.5502V61.0484C221.807 60.8813 221.807 60.7226 221.799 60.5556C221.79 60.3217 221.965 60.1296 222.199 60.1213C222.433 60.1213 222.625 60.2883 222.633 60.5222C222.633 60.6976 222.641 60.873 222.641 61.0484V65.5502C222.641 65.784 222.458 65.9678 222.224 65.9678ZM198.901 65.5001C198.668 65.5001 198.484 65.3163 198.484 65.0825V61.0484C198.484 60.7059 198.501 60.3718 198.526 60.0377C198.543 59.8122 198.751 59.6368 198.977 59.6535C199.202 59.6702 199.377 59.8707 199.36 60.1046C199.335 60.4136 199.319 60.731 199.319 61.04V65.0741C199.319 65.308 199.135 65.4917 198.901 65.4917V65.5001ZM175.395 63.0779C175.161 63.0779 174.978 62.8942 174.978 62.6603V57.649C174.978 57.4152 175.161 57.2314 175.395 57.2314C175.629 57.2314 175.812 57.4152 175.812 57.649V62.6603C175.812 62.8942 175.629 63.0779 175.395 63.0779ZM246.156 59.3111C245.922 59.3111 245.739 59.1274 245.739 58.8935V53.8822C245.739 53.6483 245.922 53.4646 246.156 53.4646C246.39 53.4646 246.573 53.6483 246.573 53.8822V58.8935C246.573 59.1274 246.39 59.3111 246.156 59.3111ZM152.273 58.0332C152.039 58.0332 151.855 57.8495 151.855 57.6156V52.6043C151.855 52.3704 152.039 52.1867 152.273 52.1867C152.506 52.1867 152.69 52.3704 152.69 52.6043V57.6156C152.69 57.8495 152.506 58.0332 152.273 58.0332ZM295.897 57.9246C295.755 57.9246 295.622 57.8578 295.547 57.7325C294.704 56.4045 293.344 55.4524 291.808 55.135C291.583 55.0849 291.441 54.8677 291.483 54.6422C291.533 54.4167 291.75 54.2747 291.975 54.3165C293.728 54.684 295.28 55.7698 296.239 57.2899C296.364 57.482 296.306 57.7409 296.114 57.8662C296.047 57.9079 295.964 57.933 295.889 57.933L295.897 57.9246ZM220.922 56.154C220.772 56.154 220.622 56.0704 220.555 55.9285C219.821 54.5086 218.761 53.2307 217.493 52.2452C217.309 52.1032 217.276 51.8442 217.418 51.6605C217.56 51.4768 217.818 51.4433 218.002 51.5853C219.362 52.6461 220.505 54.0158 221.29 55.5443C221.398 55.7531 221.315 56.0036 221.114 56.1039C221.056 56.1373 220.989 56.154 220.922 56.154ZM200.403 55.7447C200.337 55.7447 200.262 55.728 200.195 55.6862C199.995 55.5693 199.928 55.3188 200.036 55.1183C200.887 53.6233 202.081 52.2953 203.483 51.293C203.666 51.1594 203.933 51.2011 204.067 51.3932C204.2 51.577 204.158 51.8442 203.966 51.9779C202.665 52.9133 201.555 54.1411 200.762 55.5359C200.687 55.6695 200.545 55.7447 200.395 55.7447H200.403ZM286.902 55.0097H281.895C281.662 55.0097 281.478 54.826 281.478 54.5921C281.478 54.3583 281.662 54.1745 281.895 54.1745H286.902C287.135 54.1745 287.319 54.3583 287.319 54.5921C287.319 54.826 287.135 55.0097 286.902 55.0097ZM277.03 54.0242C276.972 54.0242 276.914 54.0158 276.855 53.9908C275.286 53.2808 273.868 52.195 272.758 50.867C272.608 50.6916 272.633 50.4244 272.808 50.2824C272.983 50.132 273.25 50.1571 273.392 50.3325C274.419 51.5686 275.737 52.5709 277.189 53.2307C277.398 53.3226 277.489 53.5731 277.398 53.782C277.331 53.9323 277.172 54.0242 277.014 54.0242H277.03ZM175.387 53.0637C175.153 53.0637 174.97 52.8799 174.97 52.6461V50.7668C174.97 49.7562 174.836 48.7539 174.569 47.7851C174.511 47.5596 174.636 47.3341 174.861 47.2673C175.078 47.2088 175.312 47.3341 175.378 47.5596C175.662 48.5952 175.812 49.6727 175.812 50.7585V52.6377C175.812 52.8716 175.629 53.0553 175.395 53.0553L175.387 53.0637ZM213.262 50.1905C213.262 50.1905 213.195 50.1905 213.17 50.1822C212.353 49.9901 211.502 49.8982 210.65 49.8982H210.45C209.749 49.8982 209.048 49.965 208.372 50.0903C208.147 50.132 207.93 49.9817 207.888 49.7562C207.847 49.5307 207.997 49.3135 208.222 49.2718C208.956 49.1298 209.707 49.063 210.458 49.063H210.659C211.568 49.063 212.486 49.1632 213.362 49.372C213.588 49.4221 213.729 49.6476 213.671 49.8731C213.629 50.0652 213.454 50.1989 213.262 50.1989V50.1905ZM246.148 49.2968C245.914 49.2968 245.73 49.1131 245.73 48.8792V43.8679C245.73 43.6341 245.914 43.4503 246.148 43.4503C246.381 43.4503 246.565 43.6341 246.565 43.8679V48.8792C246.565 49.1131 246.381 49.2968 246.148 49.2968ZM152.69 48.0607C152.69 48.0607 152.615 48.0607 152.573 48.044C152.348 47.9855 152.223 47.7517 152.281 47.5262C152.748 45.8474 153.566 44.3189 154.701 42.9826C154.851 42.8072 155.118 42.7905 155.293 42.9325C155.469 43.0828 155.485 43.3501 155.343 43.5255C154.284 44.7699 153.524 46.1898 153.09 47.7517C153.04 47.9354 152.873 48.0607 152.69 48.0607ZM270.839 46.5824C270.655 46.5824 270.48 46.4571 270.43 46.265C270.213 45.3713 270.096 44.4442 270.096 43.5171C270.096 42.7654 270.021 42.0137 269.863 41.2871C269.812 41.0616 269.963 40.8361 270.188 40.7943C270.413 40.7442 270.639 40.8945 270.68 41.12C270.847 41.9052 270.931 42.7153 270.931 43.5255C270.931 44.3857 271.031 45.246 271.239 46.0729C271.298 46.2984 271.156 46.5239 270.931 46.574C270.897 46.5824 270.864 46.5824 270.83 46.5824H270.839ZM172.641 43.7009C172.525 43.7009 172.408 43.6508 172.324 43.5505C171.281 42.3228 169.971 41.3205 168.519 40.644C168.311 40.5437 168.219 40.3015 168.319 40.0927C168.419 39.8839 168.661 39.792 168.87 39.8923C170.43 40.6189 171.84 41.6963 172.959 43.016C173.109 43.1914 173.084 43.4587 172.908 43.609C172.833 43.6758 172.733 43.7092 172.641 43.7092V43.7009ZM158.99 40.669C158.831 40.669 158.681 40.5772 158.614 40.4268C158.514 40.218 158.614 39.9674 158.815 39.8756C160.392 39.1489 162.077 38.7814 163.821 38.7814C164.055 38.7814 164.247 38.9652 164.247 39.199C164.247 39.4329 164.072 39.6167 163.838 39.6167C162.194 39.6167 160.625 39.9591 159.165 40.6356C159.107 40.6607 159.048 40.6774 158.99 40.6774V40.669ZM247.107 39.4078C247.049 39.4078 246.99 39.3995 246.94 39.3744C246.732 39.2826 246.632 39.032 246.732 38.8232C247.433 37.2446 248.509 35.8248 249.836 34.7056C250.011 34.5552 250.278 34.5803 250.42 34.7557C250.57 34.9311 250.545 35.1983 250.37 35.3403C249.143 36.376 248.142 37.6957 247.491 39.1573C247.424 39.316 247.266 39.4078 247.107 39.4078ZM268.177 37.111C268.052 37.111 267.927 37.0525 267.852 36.9523C266.867 35.6828 265.582 34.6471 264.147 33.9372C263.938 33.8369 263.855 33.5864 263.955 33.3776C264.055 33.1688 264.305 33.0852 264.514 33.1855C266.066 33.9455 267.443 35.0731 268.511 36.4345C268.653 36.6182 268.619 36.8771 268.436 37.0191C268.361 37.0776 268.269 37.111 268.177 37.111ZM254.517 33.1771C254.334 33.1771 254.158 33.0518 254.117 32.8597C254.058 32.6342 254.2 32.4087 254.417 32.3503C255.326 32.1247 256.269 32.0078 257.212 32.0078H259.449C259.682 32.0078 259.891 32.1916 259.891 32.4254C259.891 32.6593 259.724 32.843 259.499 32.843H257.221C256.345 32.843 255.468 32.9516 254.626 33.1604C254.592 33.1688 254.559 33.1771 254.525 33.1771H254.517Z" fill="#2B00FF"/>
<path d="M210.626 63.4867C218.35 63.4867 224.611 57.2195 224.611 49.4885C224.611 41.7575 218.35 35.4902 210.626 35.4902C202.902 35.4902 196.641 41.7575 196.641 49.4885C196.641 57.2195 202.902 63.4867 210.626 63.4867Z" fill="#2B00FF"/>
<path d="M205.502 55.5779C205.336 55.5779 205.16 55.5194 205.018 55.4108L198.326 50.0654C198.143 49.9151 198.034 49.6979 198.034 49.4641C198.034 49.2302 198.143 49.0047 198.326 48.8627L204.927 43.5841C205.26 43.3169 205.744 43.3753 206.011 43.7094C206.278 44.0435 206.22 44.5279 205.886 44.7952L200.037 49.4724L205.97 54.2165C206.304 54.4837 206.354 54.9681 206.095 55.3022C205.945 55.4943 205.719 55.5946 205.494 55.5946L205.502 55.5779Z" fill="white"/>
<path d="M215.749 55.5774C215.524 55.5774 215.299 55.4771 215.148 55.285C214.881 54.951 214.94 54.4665 215.274 54.1993L221.206 49.4552L215.357 44.778C215.023 44.5107 214.973 44.0263 215.232 43.6922C215.499 43.3581 215.983 43.308 216.317 43.5669L222.917 48.8455C223.101 48.9959 223.209 49.213 223.209 49.4469C223.209 49.6807 223.101 49.9062 222.917 50.0482L216.225 55.3936C216.083 55.5106 215.916 55.5607 215.741 55.5607L215.749 55.5774Z" fill="white"/>
<path d="M209.124 56.988C209.016 57.0047 208.907 56.988 208.791 56.963C208.382 56.8377 208.156 56.4034 208.282 56.0025L212.42 42.5304C212.546 42.1211 212.98 41.8956 213.38 42.0209C213.789 42.1462 214.014 42.5805 213.889 42.9814L209.75 56.4535C209.658 56.7458 209.408 56.9546 209.116 56.988H209.124Z" fill="white"/>
<path d="M213.779 119.581H215.94C215.94 117.768 215.531 115.947 214.739 114.31L212.794 115.254C212.144 113.901 211.192 112.715 210.024 111.788L211.376 110.101C210.667 109.533 209.899 109.048 209.081 108.648C208.263 108.255 207.396 107.954 206.511 107.754L206.035 109.859C205.326 109.7 204.584 109.608 203.816 109.608C203.048 109.608 202.306 109.692 201.596 109.859L201.121 107.754C200.236 107.954 199.368 108.255 198.551 108.648C197.733 109.048 196.965 109.533 196.256 110.101L197.608 111.788C196.448 112.715 195.496 113.901 194.837 115.254L192.893 114.31C192.109 115.947 191.691 117.768 191.691 119.581H193.853C193.853 121.134 194.203 122.596 194.837 123.907L192.893 124.851C193.686 126.479 194.837 127.941 196.256 129.069L197.608 127.382C198.759 128.3 200.119 128.977 201.605 129.311L201.129 131.416C202.906 131.825 204.75 131.825 206.519 131.416L206.044 129.311C207.529 128.977 208.889 128.3 210.041 127.382L211.393 129.069C212.811 127.941 213.963 126.479 214.755 124.851L212.811 123.907C213.445 122.596 213.796 121.126 213.796 119.581H213.779ZM203.808 126.421C200.119 126.421 197.124 123.423 197.124 119.731C197.124 116.039 200.119 113.041 203.808 113.041C207.496 113.041 210.491 116.039 210.491 119.731C210.491 123.423 207.496 126.421 203.808 126.421Z" fill="#2B00FF"/>
<path d="M245.329 138.457H249.527C249.527 137.48 249.443 136.503 249.293 135.534C249.143 134.565 248.909 133.605 248.609 132.677C248.308 131.742 247.925 130.832 247.482 129.963C247.04 129.094 246.531 128.251 245.947 127.457L242.559 129.93C240.773 127.482 238.245 125.612 235.308 124.651L236.601 120.659C232.863 119.439 228.782 119.439 225.044 120.659L226.338 124.651C223.392 125.603 220.864 127.474 219.086 129.93L215.698 127.457C215.123 128.242 214.605 129.086 214.163 129.963C213.721 130.84 213.337 131.742 213.036 132.677C212.736 133.613 212.502 134.565 212.352 135.534C212.202 136.503 212.127 137.48 212.127 138.457H216.324C216.324 141.648 217.351 144.596 219.095 146.993L215.707 149.465C218.001 152.639 221.323 155.053 225.052 156.264L226.346 152.272C227.756 152.731 229.266 152.982 230.827 152.982C232.387 152.982 233.898 152.731 235.308 152.272L236.601 156.264C240.339 155.053 243.661 152.639 245.947 149.465L242.559 146.993C244.303 144.596 245.329 141.648 245.329 138.457ZM230.827 146.3C226.246 146.3 222.532 142.583 222.532 137.998C222.532 133.412 226.246 129.696 230.827 129.696C235.408 129.696 239.113 133.412 239.113 137.998C239.113 142.583 235.4 146.3 230.827 146.3Z" fill="#2B00FF"/>
<path d="M221.99 117.685C224.732 117.685 226.955 115.46 226.955 112.716C226.955 109.971 224.732 107.746 221.99 107.746C219.248 107.746 217.025 109.971 217.025 112.716C217.025 115.46 219.248 117.685 221.99 117.685Z" fill="#2B00FF"/>
<path d="M393.243 364.783H0.745887C0.562309 364.783 0.412109 364.633 0.412109 364.449C0.412109 364.266 0.562309 364.115 0.745887 364.115H393.235C393.418 364.115 393.569 364.266 393.569 364.449C393.569 364.633 393.418 364.783 393.235 364.783H393.243Z" fill="#2B00FF"/>
</g>
<defs>
<linearGradient id="paint0_linear_297_12624" x1="101.518" y1="184.625" x2="101.518" y2="344.912" gradientUnits="userSpaceOnUse">
<stop stop-color="#4620FF"/>
<stop offset="1" stop-color="#5A38FF"/>
</linearGradient>
<linearGradient id="paint1_linear_297_12624" x1="63.3085" y1="185.4" x2="63.3085" y2="344.91" gradientUnits="userSpaceOnUse">
<stop stop-color="#4620FF"/>
<stop offset="1" stop-color="#5A38FF"/>
</linearGradient>
<clipPath id="clip0_297_12624">
<rect width="393.165" height="364.865" fill="white" transform="translate(0.412109 0.126953)"/>
</clipPath>
</defs>
</svg>
